<?xml version="1.0" encoding="UTF-8"?>
<svg width="979px" height="170px" viewBox="0 0 979 170" version="1.1" xmlns="http://www.w3.org/2000/svg" xmlns:xlink="http://www.w3.org/1999/xlink">
    <title>100-natural-materials</title>
    <g id="Page-1" stroke="none" stroke-width="1" fill="none" fill-rule="evenodd">
        <g id="100-natural-materials" fill="#000000" transform="translate(-0.000115, -0.000406)">
            <path d="M213.450315,25.0929061 C210.655315,28.6569061 207.928315,32.2769061 205.044315,35.7679061 C202.767315,38.5249061 200.320315,41.1439061 197.903315,43.7829061 C196.780315,45.0089061 195.451315,46.3099061 193.720315,45.0269061 C192.120315,43.8409061 191.706315,41.9119061 192.516315,40.1629061 C193.881315,37.2119061 195.467315,34.3489061 197.143315,31.5599061 C198.649315,29.0539061 200.443315,26.7229061 202.032315,24.2649061 C203.626315,21.7989061 204.982315,19.2619061 208.494315,18.9249061 C209.499315,18.8289061 210.439315,17.3509061 211.280315,16.3929061 C213.776315,13.5509061 216.450315,13.6329061 218.146315,16.9899061 C219.382315,19.4379061 220.183315,22.1409061 220.909315,24.8029061 C221.979315,28.7289061 222.770315,32.7299061 223.769315,36.6769061 C223.992315,37.5549061 224.584315,38.3399061 225.401315,39.9429061 C226.609315,38.0649061 227.538315,36.8259061 228.252315,35.4729061 C231.370315,29.5679061 234.413315,23.6239061 237.518315,17.7119061 C237.968315,16.8559061 238.476315,15.9459061 239.189315,15.3299061 C240.746315,13.9829061 242.569315,14.0309061 244.132315,15.2479061 C245.751315,16.5069061 246.258315,18.4499061 244.856315,19.9859061 C240.123315,25.1739061 238.697315,32.1589061 234.874315,37.8049061 C232.970315,40.6159061 231.105315,43.5819061 228.651315,45.8639061 C225.189315,49.0829061 222.527315,48.4619061 220.772315,44.1219061 C218.891315,39.4709061 217.570315,34.5919061 216.024315,29.8069061 C215.543315,28.3179061 215.128315,26.8079061 214.683315,25.3069061 C214.272315,25.2359061 213.861315,25.1639061 213.450315,25.0929061" id="Fill-1"></path>
            <path d="M268.549715,22.5524061 L272.629715,18.5664061 L276.614715,14.6734061 C277.244715,22.8414061 274.775715,24.2854061 268.549715,22.5524061 M296.434715,17.8684061 C296.130715,16.8834061 294.264715,15.8764061 293.019715,15.7894061 C292.354715,15.7434061 291.680715,15.7364061 291.000715,15.7454061 C290.968715,15.7454061 290.936715,15.7464061 290.905715,15.7474061 C289.531715,15.7674061 288.111715,15.8724061 286.555715,16.0134061 C286.552715,16.0134061 286.548715,16.0144061 286.545715,16.0144061 C284.533715,16.1954061 284.168715,15.5584061 284.137715,14.6764061 C284.156715,14.1744061 284.171715,13.6514061 284.193715,13.1704061 C284.229715,12.4174061 284.261715,11.6844061 284.291715,10.9744061 C284.306715,10.6374061 284.317715,10.2924061 284.327715,9.96240614 C284.346715,9.37940614 284.351715,8.80440614 284.351715,8.24140614 C284.351715,7.97340614 284.354715,7.69840614 284.349715,7.43340614 C284.331715,6.63440614 284.293715,5.84440614 284.205715,5.06440614 C284.019715,3.41940614 282.685715,1.16840614 281.299715,0.608406145 C279.998715,0.083406145 280.054715,0.205406145 278.914715,1.32140614 C267.998715,12.0124061 257.220715,22.8454061 246.521715,33.7554061 C244.585715,35.7294061 243.070715,38.1594061 241.584715,40.5194061 C240.237715,42.6584061 237.030715,46.0174061 239.314715,47.6594061 C241.648715,49.3374061 243.745715,47.8114061 245.382715,45.7794061 C247.409715,43.2634061 249.753715,40.9704061 251.538715,38.2994061 C251.846715,37.8384061 252.165715,37.4094061 252.492715,37.0034061 C252.602715,36.8664061 252.718715,36.7454061 252.830715,36.6154061 C253.053715,36.3564061 253.275715,36.0984061 253.506715,35.8604061 C253.644715,35.7194061 253.786715,35.5904061 253.926715,35.4564061 C254.140715,35.2524061 254.354715,35.0494061 254.574715,34.8624061 C254.727715,34.7324061 254.883715,34.6114061 255.039715,34.4884061 C255.256715,34.3184061 255.474715,34.1514061 255.696715,33.9944061 C255.858715,33.8804061 256.022715,33.7724061 256.187715,33.6654061 C256.412715,33.5204061 256.639715,33.3804061 256.868715,33.2474061 C257.036715,33.1504061 257.205715,33.0554061 257.375715,32.9654061 C257.610715,32.8404061 257.848715,32.7234061 258.087715,32.6104061 C258.258715,32.5294061 258.429715,32.4474061 258.602715,32.3724061 C258.852715,32.2644061 259.105715,32.1654061 259.359715,32.0674061 C259.527715,32.0034061 259.694715,31.9364061 259.863715,31.8764061 C260.138715,31.7794061 260.416715,31.6924061 260.695715,31.6074061 C260.849715,31.5594061 261.001715,31.5074061 261.157715,31.4634061 C261.503715,31.3644061 261.853715,31.2764061 262.204715,31.1914061 C262.296715,31.1694061 262.385715,31.1434061 262.477715,31.1224061 C262.923715,31.0194061 263.374715,30.9264061 263.829715,30.8414061 C263.960715,30.8174061 264.093715,30.7964061 264.225715,30.7734061 C264.552715,30.7154061 264.880715,30.6594061 265.210715,30.6084061 C265.392715,30.5804061 265.576715,30.5564061 265.759715,30.5294061 C266.043715,30.4894061 266.328715,30.4484061 266.615715,30.4114061 C266.819715,30.3854061 267.025715,30.3604061 267.230715,30.3354061 C267.504715,30.3014061 267.779715,30.2684061 268.055715,30.2374061 C268.284715,30.2104061 268.513715,30.1854061 268.743715,30.1604061 C269.037715,30.1274061 269.331715,30.0954061 269.626715,30.0634061 C269.889715,30.0354061 270.152715,30.0064061 270.415715,29.9784061 C271.752715,29.8334061 272.890715,30.9084061 272.856715,32.2384061 C272.850715,32.3494061 272.841715,32.4614061 272.832715,32.5724061 C272.803715,32.9254061 272.763715,33.2794061 272.710715,33.6324061 C272.695715,33.7354061 272.684715,33.8384061 272.667715,33.9424061 C272.594715,34.3884061 272.510715,34.8344061 272.418715,35.2804061 C272.386715,35.4354061 272.352715,35.5904061 272.319715,35.7454061 C272.235715,36.1344061 272.152715,36.5234061 272.068715,36.9124061 C271.979715,37.3234061 271.894715,37.7334061 271.816715,38.1434061 C271.804715,38.2084061 271.790715,38.2724061 271.778715,38.3364061 C271.697715,38.7754061 271.632715,39.2134061 271.580715,39.6524061 C271.566715,39.7714061 271.557715,39.8914061 271.546715,40.0104061 C271.512715,40.3554061 271.494715,40.7004061 271.489715,41.0454061 C271.487715,41.1664061 271.482715,41.2874061 271.485715,41.4094061 C271.493715,41.8534061 271.524715,42.2974061 271.595715,42.7414061 C271.605715,42.8044061 271.626715,42.8674061 271.637715,42.9304061 C271.708715,43.3114061 271.810715,43.6924061 271.939715,44.0734061 C271.961715,44.1394061 271.966715,44.2054061 271.991715,44.2714061 C272.010715,44.3244061 272.043715,44.3654061 272.066715,44.4154061 C272.399715,45.2714061 272.879715,46.1274061 273.601715,46.9834061 C274.354715,46.2414061 275.142715,45.6864061 275.703715,45.0844061 C275.729715,45.0574061 275.760715,45.0414061 275.785715,45.0134061 C275.793715,45.0044061 275.796715,44.9934061 275.804715,44.9834061 C276.010715,44.7484061 276.183715,44.5054061 276.293715,44.2384061 C277.937715,40.2734061 279.591715,36.2784061 280.749715,32.1564061 C281.692715,28.7974061 282.961715,26.4044061 286.691715,25.4094061 C289.549715,24.6454061 292.279715,23.1114061 294.794715,21.4964061 C295.787715,20.8584061 296.739715,18.8554061 296.434715,17.8684061" id="Fill-3"></path>
            <path d="M349.937815,6.07160614 C349.066815,5.61360614 347.825815,5.74960614 346.756815,5.79560614 C333.959815,6.34160614 321.565815,9.00760614 309.420815,12.9576061 C308.805815,13.1566061 308.158815,13.3156061 307.603815,13.6286061 C305.221815,14.9766061 304.469815,17.1016061 305.030815,19.6726061 C305.640815,22.4746061 307.923815,20.9106061 310.120815,20.7186061 C312.378815,20.5206061 314.608815,19.9966061 317.722815,19.4656061 C316.485815,22.5376061 315.267815,24.6176061 314.825815,26.8506061 C313.829815,31.8786061 312.996815,36.9626061 312.539815,42.0636061 C312.289815,44.8586061 313.545815,47.1406061 317.795815,46.8226061 C319.097815,37.2016061 321.725815,28.4316061 326.036815,20.1336061 C327.372815,17.5626061 328.926815,16.0246061 331.645815,15.4186061 C336.066815,14.4346061 340.491815,13.4596061 344.874815,12.3256061 C346.944815,11.7896061 349.052815,11.1216061 350.883815,10.0626061 C351.736815,9.56860614 352.503815,7.91160614 352.337815,6.94960614 C352.166815,5.95560614 350.953815,6.60660614 349.937815,6.07160614" id="Fill-5"></path>
            <path d="M358.669515,39.7423061 C363.056515,37.8943061 365.088515,35.4023061 366.941515,32.6763061 C369.903515,28.3173061 372.867515,23.9573061 375.929515,19.6683061 C376.866515,18.3553061 377.931515,16.8493061 379.301515,16.2123061 C380.533515,15.6383061 382.464515,15.6913061 383.724515,16.2653061 C385.376515,17.0183061 385.780515,18.8823061 384.734515,20.4953061 C380.095515,27.6523061 375.768515,35.0713061 370.482515,41.7223061 C368.170515,44.6313061 363.986515,46.2953061 360.364515,47.8533061 C356.751515,49.4073061 354.382515,48.0993061 353.087515,44.4893061 C350.736515,37.9373061 351.686515,31.1893061 352.357515,24.5123061 C352.444515,23.6483061 354.204515,22.1343061 354.791515,22.3023061 C356.176515,22.7013061 357.749515,23.6903061 358.437515,24.9013061 C359.066515,26.0093061 358.657515,27.7203061 358.664515,29.1663061 C358.680515,32.3703061 358.669515,35.5743061 358.669515,39.7423061" id="Fill-7"></path>
            <path d="M464.566815,23.2509061 L468.646815,19.2649061 L472.631815,15.3719061 C473.261815,23.5399061 470.792815,24.9839061 464.566815,23.2509061 M492.451815,18.5669061 C492.147815,17.5819061 490.281815,16.5749061 489.036815,16.4879061 C488.371815,16.4419061 487.697815,16.4349061 487.017815,16.4439061 C486.985815,16.4439061 486.953815,16.4449061 486.922815,16.4459061 C485.548815,16.4659061 484.128815,16.5709061 482.572815,16.7119061 C482.569815,16.7119061 482.565815,16.7129061 482.562815,16.7129061 C480.550815,16.8939061 480.185815,16.2569061 480.154815,15.3749061 C480.173815,14.8729061 480.188815,14.3499061 480.210815,13.8689061 C480.246815,13.1159061 480.278815,12.3829061 480.308815,11.6729061 C480.323815,11.3359061 480.334815,10.9909061 480.344815,10.6609061 C480.363815,10.0779061 480.368815,9.50290614 480.368815,8.93990614 C480.368815,8.67190614 480.371815,8.39690614 480.366815,8.13190614 C480.348815,7.33290614 480.310815,6.54290614 480.222815,5.76290614 C480.036815,4.11790614 478.702815,1.86690614 477.316815,1.30690614 C476.015815,0.781906145 476.071815,0.903906145 474.931815,2.01990614 C464.015815,12.7109061 453.237815,23.5439061 442.538815,34.4539061 C440.602815,36.4279061 439.087815,38.8579061 437.601815,41.2179061 C436.254815,43.3569061 433.047815,46.7159061 435.331815,48.3579061 C437.665815,50.0359061 439.762815,48.5099061 441.399815,46.4779061 C443.426815,43.9619061 445.770815,41.6689061 447.555815,38.9979061 C447.863815,38.5369061 448.182815,38.1079061 448.509815,37.7019061 C448.619815,37.5649061 448.735815,37.4439061 448.847815,37.3139061 C449.070815,37.0549061 449.292815,36.7969061 449.523815,36.5589061 C449.661815,36.4179061 449.803815,36.2889061 449.943815,36.1549061 C450.157815,35.9509061 450.371815,35.7479061 450.591815,35.5609061 C450.744815,35.4309061 450.900815,35.3099061 451.056815,35.1869061 C451.273815,35.0169061 451.491815,34.8499061 451.713815,34.6929061 C451.875815,34.5789061 452.039815,34.4709061 452.204815,34.3639061 C452.429815,34.2189061 452.656815,34.0789061 452.885815,33.9459061 C453.053815,33.8489061 453.222815,33.7539061 453.392815,33.6639061 C453.627815,33.5389061 453.865815,33.4219061 454.104815,33.3089061 C454.275815,33.2279061 454.446815,33.1459061 454.619815,33.0709061 C454.869815,32.9629061 455.122815,32.8639061 455.376815,32.7659061 C455.544815,32.7019061 455.711815,32.6349061 455.880815,32.5749061 C456.155815,32.4779061 456.433815,32.3909061 456.712815,32.3059061 C456.866815,32.2579061 457.018815,32.2059061 457.174815,32.1619061 C457.520815,32.0629061 457.870815,31.9749061 458.221815,31.8899061 C458.313815,31.8679061 458.402815,31.8419061 458.494815,31.8209061 C458.940815,31.7179061 459.391815,31.6249061 459.846815,31.5399061 C459.977815,31.5159061 460.110815,31.4949061 460.242815,31.4719061 C460.569815,31.4139061 460.897815,31.3579061 461.227815,31.3069061 C461.409815,31.2789061 461.593815,31.2549061 461.776815,31.2279061 C462.060815,31.1879061 462.345815,31.1469061 462.632815,31.1099061 C462.836815,31.0839061 463.042815,31.0589061 463.247815,31.0339061 C463.521815,30.9999061 463.796815,30.9669061 464.072815,30.9359061 C464.301815,30.9089061 464.530815,30.8839061 464.760815,30.8589061 C465.054815,30.8259061 465.348815,30.7939061 465.643815,30.7619061 C465.906815,30.7339061 466.169815,30.7049061 466.432815,30.6769061 C467.769815,30.5319061 468.907815,31.6069061 468.873815,32.9369061 C468.867815,33.0479061 468.858815,33.1599061 468.849815,33.2709061 C468.820815,33.6239061 468.780815,33.9779061 468.727815,34.3309061 C468.712815,34.4339061 468.701815,34.5369061 468.684815,34.6409061 C468.611815,35.0869061 468.527815,35.5329061 468.435815,35.9789061 C468.403815,36.1339061 468.369815,36.2889061 468.336815,36.4439061 C468.252815,36.8329061 468.169815,37.2219061 468.085815,37.6109061 C467.996815,38.0219061 467.911815,38.4319061 467.833815,38.8419061 C467.821815,38.9069061 467.807815,38.9709061 467.795815,39.0349061 C467.714815,39.4739061 467.649815,39.9119061 467.597815,40.3509061 C467.583815,40.4699061 467.574815,40.5899061 467.563815,40.7089061 C467.529815,41.0539061 467.511815,41.3989061 467.506815,41.7439061 C467.504815,41.8649061 467.499815,41.9859061 467.502815,42.1079061 C467.510815,42.5519061 467.541815,42.9959061 467.612815,43.4399061 C467.622815,43.5029061 467.643815,43.5659061 467.654815,43.6289061 C467.725815,44.0099061 467.827815,44.3909061 467.956815,44.7719061 C467.978815,44.8379061 467.983815,44.9039061 468.008815,44.9699061 C468.027815,45.0229061 468.060815,45.0639061 468.083815,45.1139061 C468.416815,45.9699061 468.896815,46.8259061 469.618815,47.6819061 C470.371815,46.9399061 471.159815,46.3849061 471.720815,45.7829061 C471.746815,45.7559061 471.777815,45.7399061 471.802815,45.7119061 C471.810815,45.7029061 471.813815,45.6919061 471.821815,45.6819061 C472.027815,45.4469061 472.200815,45.2039061 472.310815,44.9369061 C473.954815,40.9719061 475.608815,36.9769061 476.765815,32.8549061 C477.709815,29.4959061 478.978815,27.1029061 482.708815,26.1079061 C485.566815,25.3439061 488.296815,23.8099061 490.811815,22.1949061 C491.804815,21.5569061 492.756815,19.5539061 492.451815,18.5669061" id="Fill-9"></path>
            <path d="M523.668415,36.1466061 C521.753415,36.2516061 519.910415,37.4716061 518.145415,38.0926061 C515.133415,39.1516061 510.909415,41.1906061 507.806415,41.3856061 C503.415415,41.6616061 502.118415,36.2566061 503.841415,31.8416061 C505.968415,26.3886061 508.727415,21.2146061 511.032415,15.8336061 C512.076415,13.3956061 512.986415,10.7966061 513.352415,8.17660614 C513.518415,6.98460614 514.696415,6.00060614 512.910415,5.44860614 C511.953415,5.11760614 509.853415,6.17060614 509.292415,7.23160614 C504.998415,15.3376061 500.445415,23.3606061 496.977415,31.8666061 C493.148415,41.2586061 500.705415,47.7546061 507.579415,47.7526066 C514.692415,47.7506061 521.148415,45.3676061 526.130415,39.6666061 C526.138415,39.6576061 526.146415,39.6486061 526.153415,39.6396061 C527.901415,37.5966061 526.270415,36.0046061 523.668415,36.1466061" id="Fill-11"></path>
            <path d="M404.260315,12.0463061 C404.192315,18.9193061 401.988315,24.3783061 399.731315,29.9173061 C398.021315,34.1143061 397.481315,38.7183061 396.463315,43.1493061 C396.251315,44.0703061 396.546315,45.2193061 396.046315,45.9263061 C395.346315,46.9153061 394.123315,48.2153061 393.116315,48.2213269 C392.085315,48.2273061 390.278315,46.9303061 390.145315,46.0343061 C389.674315,42.8763061 389.225315,39.5593061 389.796315,36.4643061 C390.547315,32.3963061 392.178315,28.4533061 393.604315,24.5093061 C395.131315,20.2883061 398.186315,16.2453061 394.119315,11.7313061 C393.536315,11.0843061 394.000315,9.02830614 394.722315,8.13230614 C395.773315,6.82730614 397.342315,5.64930614 398.965315,5.00530614 C403.794315,3.08830614 416.249315,6.37630614 419.528315,10.2153061 C423.134315,14.4393061 423.508315,18.1533061 420.521315,22.8453061 C419.387315,24.6273061 417.834315,26.1843061 416.448315,27.8263061 C415.108315,29.4143061 413.738315,30.9793061 411.593315,33.4693061 C414.798315,33.6343061 416.742315,33.8203061 418.686315,33.8183061 C424.043315,33.8133061 429.404315,33.6293061 434.757315,33.7403061 C436.338315,33.7743061 437.901315,34.5553061 439.472315,34.9943061 C439.518315,35.4703061 439.564315,35.9463061 439.611315,36.4223061 C438.142315,37.2233061 436.747315,38.5473061 435.191315,38.7353061 C427.651315,39.6483061 420.074315,40.3453061 412.492315,40.9063061 C410.729315,41.0373061 408.836315,40.5033061 407.102315,39.9883061 C403.029315,38.7793061 401.604315,35.2503061 404.090315,32.0223061 C406.951315,28.3063061 410.227315,24.8633061 413.226315,21.2343061 C416.333315,17.4733061 415.264315,14.5923061 410.278315,13.2193061 C408.553315,12.7443061 406.747315,12.5213061 404.260315,12.0463061" id="Fill-13"></path>
            <path d="M6.69861509,45.9290061 C6.40461509,46.8560061 6.14861509,47.9260061 5.44761509,48.5580061 C4.67961509,49.2500061 3.28461509,50.0450061 2.40561509,49.8130061 C1.47861509,49.5690061 0.392615088,48.2110061 0.177615088,47.2570061 C-0.144384912,45.8290061 0.00661508839,44.2700061 0.349615088,42.8700061 C3.22361509,31.1550061 6.16361509,19.4560061 9.13961509,7.76700614 C10.0036151,4.36900614 11.1186151,3.51800614 13.4396151,4.10800614 C16.1816151,4.80600614 17.6386151,7.28500614 16.7766151,10.1640061 C14.9556151,16.2490061 8.52361509,40.1810061 6.69861509,45.9290061" id="Fill-15"></path>
            <path d="M34.8217151,38.7512061 C36.8147151,38.2582061 38.2577151,38.1762061 39.4257151,37.5682061 C47.6527151,33.2852061 53.8457151,21.2882061 52.7517151,11.8892061 C52.4977151,9.71020614 52.0617151,7.17120614 54.8967151,6.76820614 C57.3657151,6.41720614 60.5717151,6.79620614 61.1567151,9.85520614 C61.9797151,14.1652061 63.2657151,19.0112061 62.0967151,22.9582061 C58.9737151,33.4982061 52.5757151,41.9882061 42.1257151,46.5292061 C39.6917151,47.5872061 36.7197151,47.9772061 34.0497151,47.8092061 C26.8537151,47.3562061 23.2267151,41.7462061 26.5427151,35.3762061 C30.2547151,28.2452061 34.9647151,21.6262061 39.3547151,14.8582061 C40.6367151,12.8822061 42.7137151,11.9932061 44.8997151,13.2602061 C47.2497151,14.6222061 47.9097151,16.9112061 46.5697151,19.3142061 C45.3367151,21.5252061 43.7367151,23.5332061 42.2877151,25.6242061 C39.5767151,29.5352061 36.0697151,33.0002061 34.8217151,38.7512061" id="Fill-18"></path>
            <path d="M80.1182151,39.1319061 C82.1112151,38.6389061 83.5542151,38.5569061 84.7222151,37.9489061 C92.9492151,33.6659061 99.1422151,21.6689061 98.0482151,12.2699061 C97.7942151,10.0909061 97.3582151,7.55190614 100.193215,7.14890614 C102.662215,6.79790614 105.868215,7.17690614 106.453215,10.2359061 C107.276215,14.5459061 108.562215,19.3919061 107.393215,23.3389061 C104.270215,33.8789061 97.8722151,42.3689061 87.4222151,46.9099061 C84.9882151,47.9679061 82.0162151,48.3579061 79.3462151,48.1899061 C72.1502151,47.7369061 68.5232151,42.1269061 71.8392151,35.7569061 C75.5512151,28.6259061 80.2612151,22.0069061 84.6512151,15.2389061 C85.9332151,13.2629061 88.0102151,12.3739061 90.1962151,13.6409061 C92.5462151,15.0029061 93.2062151,17.2919061 91.8662151,19.6949061 C90.6332151,21.9059061 89.0332151,23.9139061 87.5842151,26.0049061 C84.8732151,29.9159061 81.3662151,33.3809061 80.1182151,39.1319061" id="Fill-20"></path>
            <path d="M134.153815,16.5553061 C133.717815,17.9253061 134.931815,19.2733061 136.333815,18.9533061 C137.832815,18.6103061 138.740815,18.0413061 139.785815,17.0073061 C141.147815,15.6613061 142.767815,11.5103061 142.070815,10.7043061 C140.724815,9.14630614 138.880815,10.0523061 137.233815,10.0303061 C137.058815,10.0273061 136.880815,10.2013061 136.549815,10.3733061 C135.885815,12.3823061 134.859815,14.3393061 134.153815,16.5553061 M132.986815,10.1833061 C133.456815,8.88730614 134.565815,7.92530614 135.913815,7.64030614 C136.636815,7.48730614 137.328815,7.34730614 138.026815,7.23330614 C140.114815,6.89130614 142.264815,6.28430614 144.063815,8.06330614 C145.944815,9.92330614 145.590815,12.2013061 144.898815,14.3113061 C143.174815,19.5703061 138.868815,22.1423061 134.546815,21.8913061 C132.159815,21.7533061 130.877815,20.3343061 130.911815,17.9013061 C130.924815,17.0193061 130.948815,16.0933061 131.214815,15.2673061 C131.765815,13.5533061 132.378815,11.8593061 132.986815,10.1833061" id="Fill-22"></path>
            <path d="M149.256415,30.1800061 C145.351415,34.7760061 141.453415,39.3770061 137.536415,43.9620061 C136.904415,44.7010061 136.223415,45.5630061 135.502415,46.0160061 C134.713415,46.5120061 133.509415,47.0300061 133.115415,46.7480061 C132.699415,46.4510061 132.745415,45.2130061 133.095415,44.3990061 C133.619415,43.1810061 134.482415,41.9030061 135.378415,40.7760061 C142.872415,31.3440061 150.397415,21.9340061 157.937415,12.5350061 C160.129415,9.80300614 161.198415,9.21000614 162.250415,9.93700614 C163.492415,10.7950061 163.103415,13.0020061 161.171415,15.3030061 C157.088415,20.1680061 152.955415,24.9920061 148.842415,29.8320061 C148.980415,29.9480061 149.118415,30.0640061 149.256415,30.1800061" id="Fill-24"></path>
            <path d="M154.559315,41.3182061 C154.123315,42.6882061 155.337315,44.0362061 156.739315,43.7162061 C158.238315,43.3732061 159.146315,42.8042061 160.191315,41.7702061 C161.553315,40.4242061 163.173315,36.2732061 162.476315,35.4672061 C161.130315,33.9092061 159.286315,34.8152061 157.639315,34.7932061 C157.464315,34.7902061 157.286315,34.9642061 156.955315,35.1362061 C156.291315,37.1452061 155.265315,39.1022061 154.559315,41.3182061 M153.392315,34.9462061 C153.862315,33.6502061 154.971315,32.6882061 156.319315,32.4032061 C157.042315,32.2502061 157.734315,32.1102061 158.432315,31.9962061 C160.520315,31.6542061 162.670315,31.0472061 164.469315,32.8262061 C166.350315,34.6862061 165.996315,36.9642061 165.304315,39.0742061 C163.580315,44.3332061 159.274315,46.9052061 154.952315,46.6542061 C152.565315,46.5162061 151.283315,45.0972061 151.317315,42.6642061 C151.330315,41.7822061 151.354315,40.8562061 151.620315,40.0302061 C152.171315,38.3162061 152.784315,36.6222061 153.392315,34.9462061" id="Fill-26"></path>
            <path d="M591.080715,24.6640061 C594.493715,23.1610061 596.641715,21.3710061 598.455715,19.1510061 C599.056715,18.4140061 599.501715,17.5390061 600.151715,16.8540061 C603.049715,13.8010061 606.522715,14.3670061 608.300715,18.1510061 C610.050715,21.8780061 609.958715,25.8930061 609.624715,29.7950061 C609.231715,34.3850061 608.287715,38.9320061 607.474715,43.4780061 C607.357715,44.1330061 606.635715,44.6810061 606.192715,45.2780061 C605.544715,44.7040061 604.406715,44.1900061 604.326715,43.5450061 C603.809715,39.3830061 603.372715,35.1970061 603.221715,31.0090061 C603.140715,28.7470061 603.686715,26.4630061 602.613715,23.7710061 C600.678715,25.2160061 599.041715,26.5490061 597.292715,27.7120061 C595.603715,28.8360061 593.892715,30.0290061 592.023715,30.7630061 C587.953715,32.3610061 585.842715,30.8630061 585.585715,26.4870061 C585.297715,21.5950061 585.021715,16.7020061 584.701715,11.8120061 C584.615715,10.5110061 584.386715,9.22000614 584.222715,7.91300614 C581.966715,7.80400614 581.269715,9.32700614 580.387715,10.4090061 C575.259715,16.6940061 571.517715,23.7950061 568.488715,31.2740061 C566.598715,35.9420061 564.947715,40.7070061 563.130715,45.4060061 C562.646715,46.6590061 562.135715,47.9900061 561.289715,48.9920061 C560.410715,50.0320061 559.137715,50.6430061 557.660715,49.6860061 C556.362715,48.8440061 555.703715,47.7380061 556.143715,46.2410061 C559.171715,35.9200061 562.256715,25.6070061 567.854715,16.3030061 C569.955715,12.8100061 572.101715,9.29100614 574.677715,6.15400614 C576.437715,4.01200614 578.761715,2.09600614 581.218715,0.823006145 C584.713715,-0.986993855 587.810715,0.243006145 589.072715,3.97600614 C590.185715,7.27000614 590.671715,10.8300061 591.013715,14.3140061 C591.327715,17.5130061 591.080715,20.7680061 591.080715,24.6640061" id="Fill-28"></path>
            <path d="M643.304715,24.2511061 L647.384715,20.2651061 L651.369715,16.3721061 C651.999715,24.5401061 649.530715,25.9841061 643.304715,24.2511061 M671.189715,19.5671061 C670.885715,18.5821061 669.019715,17.5751061 667.774715,17.4881061 C667.109715,17.4421061 666.435715,17.4351061 665.755715,17.4441061 C665.723715,17.4441061 665.691715,17.4451061 665.660715,17.4461061 C664.286715,17.4661061 662.866715,17.5711061 661.310715,17.7121061 C661.307715,17.7121061 661.303715,17.7131061 661.300715,17.7131061 C659.288715,17.8941061 658.923715,17.2571061 658.892715,16.3751061 C658.911715,15.8731061 658.926715,15.3501061 658.948715,14.8691061 C658.984715,14.1161061 659.016715,13.3831061 659.046715,12.6731061 C659.061715,12.3361061 659.072715,11.9911061 659.082715,11.6611061 C659.101715,11.0781061 659.106715,10.5031061 659.106715,9.94010614 C659.106715,9.67210614 659.109715,9.39710614 659.104715,9.13210614 C659.086715,8.33310614 659.048715,7.54310614 658.960715,6.76310614 C658.774715,5.11810614 657.440715,2.86710614 656.054715,2.30710614 C654.753715,1.78210614 654.809715,1.90410614 653.669715,3.02010614 C642.753715,13.7111061 631.975715,24.5441061 621.276715,35.4541061 C619.340715,37.4281061 617.825715,39.8581061 616.339715,42.2181061 C614.992715,44.3571061 611.785715,47.7161061 614.069715,49.3581061 C616.403715,51.0361061 618.500715,49.5101061 620.137715,47.4781061 C622.164715,44.9621061 624.508715,42.6691061 626.293715,39.9981061 C626.601715,39.5371061 626.920715,39.1081061 627.247715,38.7021061 C627.357715,38.5651061 627.473715,38.4441061 627.585715,38.3141061 C627.808715,38.0551061 628.031715,37.7971061 628.261715,37.5591061 C628.399715,37.4181061 628.541715,37.2891061 628.681715,37.1551061 C628.895715,36.9511061 629.109715,36.7481061 629.329715,36.5611061 C629.482715,36.4311061 629.638715,36.3101061 629.794715,36.1871061 C630.011715,36.0171061 630.229715,35.8501061 630.451715,35.6931061 C630.613715,35.5791061 630.777715,35.4711061 630.942715,35.3641061 C631.167715,35.2191061 631.394715,35.0791061 631.623715,34.9461061 C631.791715,34.8491061 631.960715,34.7541061 632.130715,34.6641061 C632.365715,34.5391061 632.603715,34.4221061 632.842715,34.3091061 C633.013715,34.2281061 633.184715,34.1461061 633.357715,34.0711061 C633.607715,33.9631061 633.860715,33.8641061 634.114715,33.7661061 C634.282715,33.7021061 634.449715,33.6351061 634.618715,33.5751061 C634.893715,33.4781061 635.171715,33.3911061 635.450715,33.3061061 C635.604715,33.2581061 635.756715,33.2061061 635.912715,33.1621061 C636.258715,33.0631061 636.608715,32.9751061 636.959715,32.8901061 C637.051715,32.8681061 637.140715,32.8421061 637.232715,32.8211061 C637.678715,32.7181061 638.129715,32.6251061 638.584715,32.5401061 C638.715715,32.5161061 638.848715,32.4951061 638.980715,32.4721061 C639.307715,32.4141061 639.635715,32.3581061 639.965715,32.3071061 C640.147715,32.2791061 640.331715,32.2551061 640.514715,32.2281061 C640.798715,32.1881061 641.083715,32.1471061 641.370715,32.1101061 C641.574715,32.0841061 641.780715,32.0591061 641.985715,32.0341061 C642.259715,32.0001061 642.534715,31.9671061 642.810715,31.9361061 C643.039715,31.9091061 643.268715,31.8841061 643.498715,31.8591061 C643.792715,31.8261061 644.086715,31.7941061 644.381715,31.7621061 C644.644715,31.7341061 644.907715,31.7051061 645.170715,31.6771061 C646.507715,31.5321061 647.645715,32.6071061 647.611715,33.9371061 C647.605715,34.0481061 647.596715,34.1601061 647.587715,34.2711061 C647.558715,34.6241061 647.518715,34.9781061 647.465715,35.3311061 C647.450715,35.4341061 647.439715,35.5371061 647.422715,35.6411061 C647.349715,36.0871061 647.265715,36.5331061 647.173715,36.9791061 C647.141715,37.1341061 647.107715,37.2891061 647.074715,37.4441061 C646.990715,37.8331061 646.907715,38.2221061 646.823715,38.6111061 C646.734715,39.0221061 646.649715,39.4321061 646.571715,39.8421061 C646.559715,39.9071061 646.545715,39.9711061 646.533715,40.0351061 C646.452715,40.4741061 646.387715,40.9121061 646.335715,41.3511061 C646.321715,41.4701061 646.312715,41.5901061 646.301715,41.7091061 C646.267715,42.0541061 646.249715,42.3991061 646.244715,42.7441061 C646.242715,42.8651061 646.237715,42.9861061 646.240715,43.1081061 C646.248715,43.5521061 646.279715,43.9961061 646.350715,44.4401061 C646.360715,44.5031061 646.381715,44.5661061 646.393715,44.6291061 C646.463715,45.0101061 646.565715,45.3911061 646.694715,45.7721061 C646.716715,45.8381061 646.721715,45.9041061 646.746715,45.9701061 C646.765715,46.0231061 646.798715,46.0641061 646.821715,46.1141061 C647.154715,46.9701061 647.634715,47.8261061 648.356715,48.6821061 C649.109715,47.9401061 649.897715,47.3851061 650.458715,46.7831061 C650.484715,46.7561061 650.515715,46.7401061 650.540715,46.7121061 C650.548715,46.7031061 650.551715,46.6921061 650.559715,46.6821061 C650.765715,46.4471061 650.938715,46.2041061 651.049715,45.9371061 C652.692715,41.9721061 654.346715,37.9771061 655.504715,33.8551061 C656.447715,30.4961061 657.716715,28.1031061 661.446715,27.1081061 C664.304715,26.3441061 667.034715,24.8101061 669.549715,23.1951061 C670.542715,22.5571061 671.494715,20.5541061 671.189715,19.5671061" id="Fill-31"></path>
            <path d="M692.217115,49.5224061 C687.967115,49.8404061 686.711115,47.5574061 686.961115,44.7634061 C687.418115,39.6624061 688.252115,34.5784061 689.247115,29.5504061 C689.689115,27.3174061 690.907115,25.2374061 692.144115,22.1654061 C689.030115,22.6954061 686.800115,23.2204061 684.542115,23.4184061 C682.345115,23.6104061 680.062115,23.4704061 679.451115,20.6684061 C678.891115,18.0984061 679.643115,15.9724061 682.025115,14.6254061 C682.580115,14.3114061 683.227115,14.1524061 683.842115,13.9534061 C695.987115,10.0034061 708.381115,7.33840614 721.178115,6.79140614 C722.247115,6.74540614 723.488115,6.60940614 724.359115,7.06740614 C725.375115,7.60240614 726.588115,8.65540614 726.759115,9.64840614 C726.925115,10.6114061 726.158115,12.2684061 725.305115,12.7624061 C723.475115,13.8214061 721.366115,14.4894061 719.296115,15.0254061 C714.913115,16.1594061 710.488115,17.1344061 706.067115,18.1184061 C703.348115,18.7244061 701.794115,20.2624061 700.458115,22.8334061 C696.147115,31.1314061 693.519115,39.9014061 692.217115,49.5224061" id="Fill-33"></path>
            <path d="M740.946615,17.2070061 C741.516615,18.4000061 741.982615,19.3750061 742.417615,20.2840061 C749.541615,18.5090061 756.408615,16.7200061 763.320615,15.1210061 C765.507615,14.6140061 767.810615,14.5920061 770.064615,14.3870061 C771.517615,14.2550061 772.895615,14.6930061 772.738615,16.3370061 C772.662615,17.1330061 771.563615,18.1950061 770.703615,18.4960061 C762.146615,21.4930061 753.541615,24.3520061 744.953615,27.2600061 C743.752615,27.6670061 742.569615,28.1270061 740.983615,28.7070061 C741.224615,32.0660061 741.245615,35.2980061 741.743615,38.4550061 C742.233615,41.5560061 743.865615,42.8580061 747.103615,43.0800061 C750.725615,43.3280061 754.229615,42.8790061 757.107615,40.3060061 C757.832615,39.6590061 758.573615,39.0310061 759.309615,38.3970061 C760.522615,37.3520061 762.149615,36.6650061 763.149615,38.0080061 C763.807615,38.8920061 763.825615,40.9240061 763.248615,41.9440061 C760.345615,47.0790061 755.374615,48.8880061 749.841615,49.4080061 C748.084615,49.5730061 746.278615,49.3410061 744.505615,49.1740061 C740.988615,48.8430061 738.491615,47.0360061 736.952615,43.8390061 C735.228615,40.2570061 734.361615,36.4940061 734.684615,32.5380061 C734.973615,28.9940061 735.406615,25.4580061 735.920615,21.9400061 C736.154615,20.3350061 736.426615,19.0060061 735.458615,17.3570061 C733.849615,14.6170061 734.246615,13.8380061 736.802615,11.6780061 C741.775615,7.47500614 746.984615,3.67200614 753.395615,1.91200614 C754.482615,1.61300614 755.557615,1.18200614 756.664615,1.06300614 C758.232615,0.893006145 759.617615,1.32000614 759.915615,3.17800614 C760.202615,4.96700614 759.800615,6.52200614 757.783615,6.91600614 C750.907615,8.26000614 746.223615,13.0330061 740.946615,17.2070061" id="Fill-35"></path>
            <path d="M820.894815,43.5481061 C815.027815,48.0471061 806.889815,46.1231061 802.845815,42.5801061 C797.795815,38.1551061 796.390815,33.0261061 799.073815,27.0311061 C800.028815,24.8971061 801.109815,22.8111061 802.030815,20.6651061 C802.893815,18.6521061 803.791815,16.6281061 804.353815,14.5351061 C804.775815,12.9611061 804.839815,11.1951061 802.780815,10.3101061 C800.779815,9.45110614 798.875815,9.88210614 797.619815,11.4111061 C795.588815,13.8831061 793.252815,16.3501061 792.097815,19.1861061 C789.514815,25.5311061 787.551815,32.0931061 785.397815,38.5851061 C784.536815,41.1801061 783.881815,43.8331061 783.045815,46.4351061 C782.756815,47.3351061 782.399815,48.3491061 781.712815,48.9661061 C781.072815,49.5411061 779.868815,50.0291061 779.069815,49.8711061 C778.274815,49.7151061 777.383815,48.8091061 777.071815,48.0451061 C776.739815,47.2301061 776.821815,46.1381061 777.089815,45.2641061 C780.054815,35.6101061 782.796815,25.8831061 786.264815,16.3841061 C787.532815,12.9091061 790.339815,9.82210614 792.858815,6.85910614 C795.793815,3.40610614 801.350815,2.54510614 805.702815,4.39910614 C809.181815,5.88210614 811.595815,10.7071061 810.589815,14.9061061 C809.959815,17.5351061 808.848815,20.0791061 807.789815,22.6021061 C806.832815,24.8801061 805.488815,27.0231061 804.602815,29.3201061 C802.148815,35.6911061 806.702815,41.5751061 814.030815,41.6191061 C815.645815,41.6281061 817.260815,41.4901061 818.875815,41.4891061 C820.325815,41.4871061 820.984815,42.2291061 820.894815,43.5481061" id="Fill-37"></path>
            <path d="M836.822815,45.6613061 C836.624815,46.6133061 836.477815,47.7043061 835.854815,48.4063061 C835.171815,49.1753061 833.887815,50.1123061 833.007815,49.9753061 C832.080815,49.8303061 830.890815,48.5963061 830.589815,47.6713061 C830.138815,46.2873061 830.136815,44.7223061 830.337815,43.2953061 C832.016815,31.3503061 833.761815,19.4153061 835.543815,7.48730614 C836.060815,4.01930614 837.065815,3.05530614 839.386815,3.39630614 C842.127815,3.79930614 843.786815,6.10830614 843.222815,9.05930614 C842.029815,15.2983061 838.050815,39.7573061 836.822815,45.6613061" id="Fill-39"></path>
            <path d="M930.151115,37.0585061 C932.753115,36.9235061 934.464115,40.1175061 932.716115,42.0505061 C932.709115,42.0595061 932.701115,42.0675061 932.693115,42.0765061 C927.711115,47.4695061 921.255115,49.7245061 914.142115,49.7265066 C907.268115,49.7285061 899.711115,43.5825061 903.541115,34.6965061 C907.008115,26.6475061 911.561115,19.0565061 915.855115,11.3865061 C916.416115,10.3835061 918.516115,9.38650614 919.473115,9.70050614 C921.259115,10.2215061 921.475115,12.0865061 921.309115,13.2145061 C920.943115,15.6935061 920.034115,18.1535061 918.990115,20.4595061 C916.685115,25.5515061 913.925115,30.4465061 911.798115,35.6055061 C910.075115,39.7835061 911.186115,41.4735061 915.577115,41.2115061 C918.680115,41.0275061 921.753115,39.7665061 924.765115,38.7645061 C926.530115,38.1765061 928.236115,37.1575061 930.151115,37.0585061" id="Fill-41"></path>
            <path d="M871.037615,20.6544061 C873.296615,20.1924061 874.566615,19.9334061 876.318615,19.5754061 C875.910615,17.8354061 875.569615,16.3824061 874.946615,13.7264061 C873.394615,16.4764061 872.509615,18.0454061 871.037615,20.6544061 M877.880615,27.9004061 C869.841615,27.6974061 868.336615,28.7204061 865.950615,34.8994061 C864.676615,38.2014061 863.301615,41.4744061 861.768615,44.6624061 C860.539615,47.2174061 858.947615,47.8714061 856.981615,47.0614061 C855.177615,46.3184061 854.615615,44.5504061 855.638615,41.8544061 C860.052615,30.2184061 863.863615,18.3314061 870.371615,7.57740614 C873.177615,2.94040614 875.966615,2.49740614 879.174615,6.70240614 C880.083615,7.89340614 880.997615,9.23740614 881.370615,10.6534061 C884.499615,22.5174061 886.280615,34.4674061 882.985615,46.6304061 C882.897615,46.9544061 882.992615,47.4094061 882.800615,47.6094061 C881.932615,49.4144061 881.303615,49.7454061 880.452615,49.6134061 C880.036615,49.7364061 878.737615,48.4694061 878.622615,47.7134061 C878.243615,45.2404061 878.157615,42.7154061 878.083615,40.2054061 C877.964615,36.2004061 877.946615,32.1914061 877.880615,27.9004061" id="Fill-43"></path>
            <path d="M942.394715,34.2720061 C947.608715,31.3770061 950.487715,37.3090061 954.824715,38.1620061 C955.681715,38.3310061 956.459715,37.5870061 956.450715,36.7140061 C956.426715,34.2950061 956.368715,31.8450061 956.492715,29.4050061 C956.634715,26.6270061 956.749715,23.7850061 957.416715,21.1060061 C959.546715,12.5470061 964.262715,8.90800614 973.104715,8.60600614 C976.027715,8.50600614 978.434715,10.1690061 978.753715,12.7190061 C979.089715,15.4000061 977.409715,16.7610061 975.067715,17.1160061 C968.095715,18.1730061 966.024715,22.7460061 965.936715,29.0730061 C965.873715,33.5890061 965.656715,38.1180061 965.201715,42.6100061 C964.478715,49.7400061 961.298715,51.4390061 954.454715,48.3200061 C952.777715,47.5560061 951.200715,46.5430061 949.823715,45.3190061 C947.044715,42.8510061 944.883715,39.9520061 942.018715,36.4680061 C941.450715,35.7780061 941.613715,34.7060061 942.394715,34.2720061" id="Fill-45"></path>
            <path d="M295.095415,121.195906 C292.300415,124.759906 289.573415,128.379906 286.689415,131.870906 C284.412415,134.627906 281.965415,137.246906 279.548415,139.885906 C278.425415,141.111906 277.096415,142.412906 275.365415,141.129906 C273.765415,139.943906 273.351415,138.014906 274.161415,136.265906 C275.526415,133.314906 277.112415,130.451906 278.788415,127.662906 C280.294415,125.156906 282.088415,122.825906 283.677415,120.367906 C285.271415,117.901906 286.627415,115.364906 290.139415,115.027906 C291.144415,114.931906 292.084415,113.453906 292.925415,112.495906 C295.421415,109.653906 298.095415,109.735906 299.791415,113.092906 C301.027415,115.540906 301.828415,118.243906 302.554415,120.905906 C303.624415,124.831906 304.415415,128.832906 305.414415,132.779906 C305.637415,133.657906 306.229415,134.442906 307.046415,136.045906 C308.254415,134.167906 309.183415,132.928906 309.897415,131.575906 C313.015415,125.670906 316.058415,119.726906 319.163415,113.814906 C319.613415,112.958906 320.121415,112.048906 320.834415,111.432906 C322.391415,110.085906 324.214415,110.133906 325.777415,111.350906 C327.396415,112.609906 327.902415,114.552906 326.501415,116.088906 C321.768415,121.276906 320.342415,128.261906 316.519415,133.907906 C314.615415,136.718906 312.750415,139.684906 310.296415,141.966906 C306.834415,145.185906 304.172415,144.564906 302.417415,140.224906 C300.536415,135.573906 299.215415,130.694906 297.669415,125.909906 C297.188415,124.420906 296.773415,122.910906 296.328415,121.409906 C295.917415,121.338906 295.506415,121.266906 295.095415,121.195906" id="Fill-48"></path>
            <path d="M339.476915,132.942806 C338.545915,135.862806 341.135915,138.736806 344.122915,138.053806 C347.320915,137.322806 349.254915,136.110806 351.483915,133.907806 C354.386915,131.037806 357.840915,122.187806 356.354915,120.468806 C353.485915,117.148806 349.554915,119.079806 346.043915,119.032806 C345.668915,119.027806 345.289915,119.397806 344.584915,119.763806 C343.169915,124.046806 340.981915,128.217806 339.476915,132.942806 M336.989915,119.358806 C337.991915,116.595806 340.353915,114.545806 343.229915,113.936806 C344.768915,113.610806 346.245915,113.312806 347.732915,113.069806 C352.183915,112.341806 356.767915,111.045806 360.603915,114.839806 C364.612915,118.803806 363.857915,123.660806 362.382915,128.158806 C358.707915,139.370806 349.528915,144.852806 340.314915,144.318806 C335.225915,144.022806 332.492915,140.997806 332.565915,135.812806 C332.592915,133.931806 332.644915,131.958806 333.210915,130.196806 C334.386915,126.542806 335.693915,122.931806 336.989915,119.358806" id="Fill-50"></path>
            <path d="M392.233415,138.642506 C393.811415,139.470506 395.318415,140.262506 396.784415,141.031506 C401.219415,138.742506 402.223415,136.918506 401.433415,132.242506 C400.935415,129.295506 400.210415,126.387506 399.660415,123.448506 C397.838415,113.717506 402.384415,105.447506 411.566415,101.823506 C413.346415,101.120506 415.148415,100.563506 416.876415,102.179506 C418.827415,104.004506 418.886415,105.198506 416.782415,106.762506 C415.365415,107.816506 413.946415,108.905506 412.398415,109.735506 C406.285415,113.012506 405.465415,118.342506 406.545415,124.434506 C406.973415,126.842506 407.569415,129.221506 407.972415,131.633506 C408.591415,135.330506 408.621415,138.954506 406.388415,142.259506 C403.683415,146.262506 398.534415,147.634506 394.566415,145.346506 C391.830415,143.768506 391.286415,142.350506 392.233415,138.642506" id="Fill-52"></path>
            <path d="M425.846415,121.924606 L426.521415,127.856606 C426.744415,129.810606 428.792415,130.982606 430.601415,130.209606 C431.893415,129.657606 433.064415,129.096606 434.072415,128.323606 C438.460415,124.952606 442.530415,121.171606 446.826415,117.675606 C447.750415,116.923606 449.378415,116.005606 450.158415,116.349606 C451.311415,116.859606 452.446415,118.315606 452.767415,119.577606 C453.163415,121.135606 452.944415,122.956606 452.594415,124.577606 C450.390415,134.781606 448.301415,145.020606 445.692415,155.122606 C444.568415,159.474606 442.402415,163.580606 440.455415,167.678606 C440.008415,168.620606 438.411415,169.747606 437.530415,169.608606 C435.401415,169.272606 435.963415,167.383606 436.330415,165.928606 C438.428415,157.612606 440.654415,149.327606 442.665415,140.990606 C443.256415,138.538606 443.724415,136.056606 444.173415,133.569606 C444.626415,131.060606 441.879415,129.208606 439.728415,130.577606 C438.475415,131.374606 437.216415,132.159606 435.937415,132.912606 C434.470415,133.776606 433.001415,134.684606 431.483415,135.462606 C425.538415,138.509606 420.201415,135.435606 419.552415,128.786606 C419.298415,126.188606 419.435415,123.683606 420.172415,121.297606 C421.091415,118.321606 425.494415,118.830606 425.846415,121.924606" id="Fill-54"></path>
            <path d="M483.774415,133.706706 C484.764415,134.911706 486.671415,134.898706 487.621415,133.662706 C490.115415,130.415706 491.373415,126.891706 491.829415,122.960706 C492.247415,119.356706 492.736415,115.761706 493.244415,111.904706 C493.416415,110.597706 494.584415,109.644706 495.899415,109.744706 L496.302415,109.775706 C497.542415,109.868706 498.523415,110.855706 498.598415,112.090706 C499.030415,119.167706 499.012415,125.841706 496.337415,132.242706 C495.509415,134.223706 494.467415,136.225706 493.087415,137.846706 C488.470415,143.270706 484.311415,143.583706 479.529415,138.264706 C477.023415,135.479706 475.645415,131.672706 473.796415,128.306706 C473.787415,128.287706 473.777415,128.269706 473.767415,128.251706 C472.662415,126.234706 469.653415,126.657706 469.156415,128.902706 C468.001415,134.125706 466.905415,139.069706 465.792415,144.010706 C465.570415,144.992706 465.252415,145.973706 464.833415,146.887706 C464.032415,148.633706 462.629415,149.468706 460.723415,148.955706 C458.659415,148.400706 458.270415,146.814706 458.707415,144.963706 C459.557415,141.363706 460.461415,137.774706 461.363415,134.186706 C462.839415,128.309706 464.229415,122.407706 465.884415,116.581706 C466.349415,114.943706 467.303415,113.135706 468.596415,112.129706 C469.854415,111.150706 473.345415,113.017706 474.446415,115.083706 C475.710415,117.455706 476.771415,119.951706 477.741415,122.462706 C479.256415,126.386706 480.903415,130.213706 483.774415,133.706706" id="Fill-56"></path>
            <path d="M520.543715,118.595706 C518.227715,119.075706 516.257715,119.524706 514.271715,119.875706 C513.346715,120.038706 512.296715,120.281706 511.471715,119.998706 C510.567715,119.687706 509.395715,118.934706 509.188715,118.150706 C508.968715,117.315706 509.458715,115.868706 510.144715,115.314706 C511.262715,114.412706 512.755715,113.920706 514.151715,113.429706 C520.032715,111.357706 525.927715,109.324706 531.837715,107.334706 C533.756715,106.687706 535.708715,105.966706 537.696715,105.752706 C539.088715,105.602706 540.588715,106.182706 541.991715,106.599706 C542.365715,106.710706 542.865715,107.509706 542.769715,107.835706 C542.610715,108.376706 542.103715,109.000706 541.587715,109.213706 C540.476715,109.671706 539.180715,109.713706 538.110715,110.235706 C528.045715,115.148706 529.478715,112.893706 525.548715,123.265706 C523.381715,128.983706 521.618715,134.854706 519.647715,140.646706 C518.945715,142.706706 518.209715,144.757706 517.406715,146.779706 C516.918715,148.007706 516.042715,148.905706 514.579715,148.517706 C513.161715,148.140706 512.765715,146.953706 512.820715,145.644706 C512.859715,144.704706 512.973715,143.739706 513.241715,142.841706 C515.602715,134.915706 518.005715,127.002706 520.543715,118.595706" id="Fill-58"></path>
            <path d="M564.601815,120.587506 C559.779815,121.925506 555.619815,123.540506 551.955815,126.140506 C550.915815,126.878506 550.448815,128.574506 549.964815,129.920506 C548.136815,134.996506 546.414815,140.110506 544.636815,145.205506 C544.445815,145.753506 544.215815,146.310506 543.890815,146.787506 C542.921815,148.213506 541.564815,149.326506 539.850815,148.598506 C538.113815,147.861506 538.665815,146.039506 538.990815,144.702506 C541.883815,132.791506 544.839815,120.894506 547.832815,109.008506 C548.587815,106.009506 550.112815,104.895506 552.285815,105.463506 C554.505815,106.044506 555.402815,108.164506 554.753815,111.088506 C554.317815,113.054506 553.989815,115.045506 553.511815,117.560506 C557.307815,116.726506 560.674815,115.986506 564.042815,115.246506 C566.516815,114.702506 567.540815,113.065506 568.047815,110.651506 C568.736815,107.373506 569.693815,104.134506 570.775815,100.960506 C571.720815,98.1905061 573.014815,97.3365061 574.758815,97.7745061 C576.721815,98.2665061 578.099815,100.715506 577.350815,103.105506 C575.775815,108.121506 574.244815,113.183506 572.184815,118.007506 C569.572815,124.121506 567.790815,130.438506 566.960815,136.964506 C566.566815,140.064506 567.373815,143.305506 567.501815,146.488506 C567.536815,147.365506 567.085815,148.261506 566.857815,149.149506 C565.845815,148.791506 564.511815,148.723506 563.880815,148.022506 C561.770815,145.676506 560.706815,142.912506 560.863815,139.601506 C561.129815,133.993506 562.387815,128.623506 564.071815,123.314506 C564.280815,122.657506 564.341815,121.954506 564.601815,120.587506" id="Fill-60"></path>
            <path d="M591.302715,117.556106 C591.872715,118.749106 592.338715,119.724106 592.773715,120.633106 C599.897715,118.858106 606.764715,117.069106 613.676715,115.470106 C615.863715,114.963106 618.166715,114.941106 620.420715,114.736106 C621.873715,114.604106 623.251715,115.042106 623.094715,116.686106 C623.018715,117.482106 621.919715,118.544106 621.059715,118.845106 C612.502715,121.842106 603.897715,124.701106 595.309715,127.609106 C594.108715,128.016106 592.925715,128.476106 591.339715,129.056106 C591.580715,132.415106 591.602715,135.647106 592.099715,138.804106 C592.589715,141.905106 594.221715,143.207106 597.459715,143.429106 C601.081715,143.677106 604.585715,143.228106 607.463715,140.655106 C608.188715,140.008106 608.930715,139.380106 609.665715,138.746106 C610.878715,137.701106 612.505715,137.014106 613.505715,138.357106 C614.163715,139.241106 614.181715,141.273106 613.604715,142.293106 C610.701715,147.428106 605.730715,149.237106 600.197715,149.757106 C598.440715,149.922106 596.634715,149.690106 594.861715,149.523106 C591.344715,149.192106 588.847715,147.385106 587.308715,144.188106 C585.584715,140.606106 584.717715,136.843106 585.040715,132.887106 C585.329715,129.343106 585.762715,125.807106 586.276715,122.289106 C586.510715,120.684106 586.782715,119.355106 585.814715,117.706106 C584.205715,114.966106 584.602715,114.187106 587.158715,112.027106 C592.131715,107.824106 597.340715,104.021106 603.751715,102.261106 C604.838715,101.962106 605.913715,101.531106 607.020715,101.412106 C608.588715,101.242106 609.973715,101.669106 610.271715,103.527106 C610.558715,105.316106 610.156715,106.871106 608.139715,107.265106 C601.263715,108.609106 596.579715,113.382106 591.302715,117.556106" id="Fill-62"></path>
            <path d="M642.663215,117.458306 C640.347215,117.938306 638.377215,118.387306 636.391215,118.738306 C635.466215,118.901306 634.416215,119.144306 633.591215,118.861306 C632.687215,118.550306 631.515215,117.797306 631.308215,117.013306 C631.088215,116.178306 631.578215,114.731306 632.264215,114.177306 C633.382215,113.275306 634.875215,112.783306 636.271215,112.292306 C642.152215,110.220306 648.047215,108.187306 653.957215,106.197306 C655.876215,105.550306 657.828215,104.829306 659.816215,104.615306 C661.208215,104.465306 662.708215,105.045306 664.111215,105.462306 C664.485215,105.573306 664.985215,106.372306 664.889215,106.698306 C664.730215,107.239306 664.223215,107.863306 663.707215,108.076306 C662.596215,108.534306 661.300215,108.576306 660.230215,109.098306 C650.165215,114.011306 651.598215,111.756306 647.668215,122.128306 C645.501215,127.846306 643.738215,133.717306 641.767215,139.509306 C641.065215,141.569306 640.329215,143.620306 639.526215,145.642306 C639.038215,146.870306 638.162215,147.768306 636.699215,147.380306 C635.281215,147.003306 634.885215,145.816306 634.940215,144.507306 C634.979215,143.567306 635.093215,142.602306 635.361215,141.704306 C637.722215,133.778306 640.125215,125.865306 642.663215,117.458306" id="Fill-64"></path>
            <path d="M681.410115,104.628106 C679.165115,104.491106 679.776115,105.563106 679.113115,107.314106 C678.850115,108.007106 678.729115,108.740106 678.575115,109.459106 C677.181115,115.940106 675.541115,122.394106 674.491115,128.912106 C673.738115,133.579106 673.776115,138.333106 673.422115,143.646106 C673.808115,145.320106 673.793115,146.004106 674.764115,145.871106 C675.983115,145.706106 677.253115,144.932106 678.014115,143.146106 C678.266115,142.900106 678.268115,142.456106 678.353115,142.097106 C680.638115,132.409106 682.956115,122.727106 685.165115,113.026106 C685.530115,111.428106 685.590115,109.744106 685.483115,108.118106 C685.346115,106.026106 683.891115,104.780106 681.410115,104.628106" id="Fill-66"></path>
            <path d="M720.874915,142.642906 C721.804915,144.431906 720.709915,145.042906 719.288915,145.446906 C713.809915,147.008906 708.144915,147.721906 702.337915,147.166906 C697.139915,146.670906 693.550915,143.109906 692.955915,138.460906 C692.496915,134.872906 693.655915,131.462906 695.278915,128.267906 C699.081915,120.777906 704.815915,114.233906 713.483915,109.558906 C715.845915,108.284906 718.749915,107.517906 721.534915,106.835906 C723.737915,106.297906 725.934915,107.593906 726.402915,109.286906 C726.776915,110.640906 725.683915,112.235906 723.574915,112.546906 C714.715915,113.850906 710.123915,119.149906 705.421915,124.178906 C702.244915,127.577906 699.743915,131.387906 699.148915,135.700906 C698.968915,137.003906 698.852915,138.363906 699.130915,139.642906 C699.670915,142.116906 701.225915,143.271906 704.499915,143.307906 C708.212915,143.347906 711.931915,142.994906 715.648915,142.827906 C717.444915,142.746906 719.242915,142.699906 720.874915,142.642906" id="Fill-68"></path>
            <path d="M747.037115,104.923806 C749.146115,104.514806 750.886115,106.771806 749.734115,108.584806 C749.048115,109.663806 748.139115,110.410806 747.054115,111.018806 C740.033115,114.947806 738.900115,118.546806 744.055115,126.245806 C745.545115,128.468806 746.802115,130.906806 747.786115,133.396806 C749.671115,138.164806 748.396115,142.355806 744.420115,145.562806 C740.855115,148.436806 735.340115,149.635806 730.754115,148.773806 C727.991115,148.254806 728.178115,144.015806 730.986115,143.864806 C731.040115,143.861806 731.095115,143.859806 731.151115,143.858806 C731.570115,143.846806 732.004115,143.812806 732.407115,143.697806 C740.950115,141.274806 745.042115,138.461806 738.203115,128.720806 C736.266115,125.961806 734.185115,123.295806 733.878115,119.726806 C733.587115,116.339806 734.220115,113.272806 736.988115,111.094806 C739.492115,109.123806 742.059115,107.158806 744.844115,105.643806 C745.497115,105.288806 746.230115,105.079806 747.037115,104.923806" id="Fill-70"></path>
            <path d="M738.165715,159.997406 C749.393715,161.880406 744.649715,159.681406 753.685715,162.650406 C765.425715,164.940406 743.008715,166.819406 723.932715,166.626406 C654.560715,165.925406 584.841715,165.145406 515.324715,164.411406 C458.038715,163.806406 401.043715,163.270406 343.524715,162.609406 C321.255715,162.353406 296.513715,162.170406 277.123715,159.523406 C273.800715,157.840406 261.316715,154.409406 289.710715,154.140406 C306.131715,153.985406 341.072715,155.625406 359.342715,155.804406 C461.200715,156.799406 563.283715,157.845406 665.454715,158.911406 C677.578715,159.038406 715.683715,159.552406 738.165715,159.997406" id="Fill-72"></path>
        </g>
    </g>
</svg>