<?xml version="1.0" encoding="UTF-8"?>
<svg width="1200px" height="574px" viewBox="0 0 1200 574" version="1.1" xmlns="http://www.w3.org/2000/svg" xmlns:xlink="http://www.w3.org/1999/xlink">
    <!-- Generator: Sketch 49.1 (51147) - http://www.bohemiancoding.com/sketch -->
    <title>arrow</title>
    <desc>Created with Sketch.</desc>
    <defs></defs>
    <g stroke="none" stroke-width="1" fill="none" fill-rule="evenodd">
        <g id="arrow" fill="#000000" fill-rule="nonzero">
            <path d="M599.864456,573.1 C595.090025,573.1 590.193172,571.7 586.27569,568.9 C577.706197,562.8 576.849248,552.2 584.43937,545.2 L1163.73704,6.5 C1171.20474,-0.5 1184.1814,-1.2 1192.7509,5 C1201.32039,11.1 1202.17734,21.7 1194.58722,28.7 L615.289542,567.4 C611.249638,571.2 605.495837,573.1 599.864456,573.1 Z" id="Shape"></path>
            <path d="M599.864456,573.1 C594.110654,573.1 588.479273,571.2 584.43937,567.4 L5.14169534,28.8 C-2.32600503,21.8 -1.46905581,11.2 6.9780151,5.1 C15.5475073,-1 28.524167,-0.3 35.9918674,6.6 L615.289542,545.3 C622.757242,552.3 621.900293,562.9 613.453222,569 C609.53574,571.8 604.638887,573.1 599.864456,573.1 Z" id="Shape"></path>
        </g>
    </g>
</svg>