<svg width="55" height="21" viewBox="0 0 55 21" fill="none" xmlns="http://www.w3.org/2000/svg">
<path d="M37.7612 20.97C40.6212 20.75 54.6212 12.48 54.8812 10.84V10.64V10.57C54.2612 6.73 41.4112 -0.45 37.4912 0.07H37.1512L36.7712 0C36.7712 0 36.7312 0.03 36.7012 0.04L36.9712 0.56C38.0712 1.54 41.1612 3.44 43.1012 4.31C46.2912 5.75 49.0012 7.5 49.1312 8.21L49.1812 8.47L48.9912 8.69C48.3812 9.3 47.7212 9.34 47.3712 9.35L47.1212 9.37C37.8512 9.19 9.58119 8.87 0.901187 9.69C0.211187 9.82 -0.0188131 10.42 0.00118689 10.89C0.0211869 11.3 0.231187 11.74 0.671187 11.79C3.13119 11.92 16.8912 11.74 29.0412 11.57C39.4412 11.43 44.3312 11.37 46.6712 11.37C48.7312 11.37 48.8012 11.41 48.9112 11.49L49.2312 11.69L49.1212 12.05C48.7812 13.18 46.5912 14.38 43.0612 16.24C40.6412 17.52 36.9812 19.44 36.9112 20.36C36.9112 20.41 37.0512 20.65 37.7612 20.96V20.97Z" fill="black"/>
</svg>
