<svg width="57" height="22" viewBox="0 0 57 22" fill="none" xmlns="http://www.w3.org/2000/svg">
<path d="M56.1172 11.3517L56.0572 10.9917C55.3772 6.70172 42.1372 -0.468281 38.1172 0.0817188H37.8972L37.8172 0.0717188C37.7972 0.0717188 37.7872 0.0717188 37.7672 0.0717188L37.6372 0.0317187C37.5772 0.0217187 37.5172 0.0117188 37.4472 0.0117188C37.4372 0.0117188 37.3572 0.0317187 37.3272 0.0417187L37.2672 0.0617187C37.1672 0.111719 37.1072 0.151719 37.0772 0.171719L37.0072 0.221719C37.0072 0.221719 37.0072 0.241719 36.9772 0.281719V0.301719C36.9772 0.301719 36.9372 0.361719 36.9272 0.391719L36.9072 0.421719C36.9072 0.421719 36.9072 0.421719 36.9072 0.431719C36.9072 0.471719 36.8972 0.511719 36.8972 0.541719C36.8972 0.611719 36.8972 0.651719 36.9072 0.691719C36.9072 0.701719 36.9272 0.721719 36.9372 0.741719L37.2672 1.38172C38.3772 2.41172 42.1172 4.09172 44.0472 4.96172C48.1072 6.79172 49.3872 7.41172 49.2272 8.44172C49.1072 9.23172 48.1672 9.34172 47.8572 9.38172H47.8072H47.7572C38.5272 9.20172 10.2372 8.88172 1.52722 9.71172C-0.282778 10.0517 -0.512778 12.8417 0.947222 12.9917C5.55722 13.2417 48.1472 12.2417 48.4872 12.4617C51.8672 14.1017 37.2672 18.5817 37.0972 20.8517C37.0572 21.3517 37.7272 21.7317 38.3572 21.9917H38.3772C41.1672 21.9417 55.9972 13.3517 56.0672 11.3817H56.1172V11.3517Z" fill="black"/>
</svg>
