<svg width="318" height="128" viewBox="0 0 318 128" fill="none" xmlns="http://www.w3.org/2000/svg">
<path d="M101.044 78.3698C99.3644 78.6198 97.7244 79.1898 96.0444 79.4398C94.1544 79.7198 89.7043 80.3598 87.8343 80.1898C83.7943 79.8198 82.9243 74.8698 84.9843 71.3398C85.9243 69.7298 88.4243 68.1798 89.9443 67.1098C92.1943 65.5298 95.3844 64.3398 97.7944 62.9698C98.7044 62.4598 99.3844 62.3098 100.114 61.5898C101.514 59.6098 99.0144 57.9198 96.6144 58.9398C90.8344 61.2898 85.1944 63.4398 81.3844 68.6198C78.8644 72.0398 79.0543 75.7998 80.8043 79.5498C82.4243 83.0098 85.3244 84.3898 89.6744 84.5998C89.7944 84.5998 89.9044 84.5998 90.0244 84.5998C93.7444 84.3498 98.1343 83.8298 101.884 81.1298C102.394 80.7598 102.744 80.2198 102.624 79.0398C102.404 78.2998 101.564 78.2898 101.054 78.3698H101.044Z" fill="black"/>
<path d="M128.704 61.4298C127.494 61.0998 126.634 61.4298 126.044 62.7298C125.374 64.2098 124.784 65.7398 124.384 67.2898C124.084 68.4398 123.424 69.1698 121.734 69.2798C120.194 69.3798 116.854 69.6598 115.224 69.7598C114.054 69.8298 114.894 68.8598 114.944 67.9898C114.974 67.5098 115.154 67.0798 115.274 66.6498C115.654 65.2598 114.994 64.1698 113.464 63.7398C111.964 63.3198 110.944 63.7698 110.484 65.1898C108.684 70.8098 106.914 76.4398 105.194 82.0798C105.004 82.7098 104.664 83.5698 105.864 84.0398C107.054 84.5098 107.964 84.0398 108.594 83.4098C108.804 83.1998 108.954 82.9398 109.074 82.6798C110.184 80.2998 111.254 77.9098 112.394 75.5498C112.694 74.9198 112.984 74.1198 113.674 73.8298C116.134 72.7898 118.944 72.2698 122.224 71.9298C122.074 72.5798 122.044 72.9198 121.924 73.2298C120.884 75.7198 120.134 78.2598 120.074 80.9898C120.054 81.6998 119.934 82.5698 120.054 83.3498C120.254 84.6998 122.964 85.1098 123.374 83.8498C123.614 83.0998 123.854 81.9398 124.204 80.0998C124.634 76.9598 125.714 73.9898 127.374 71.1598C128.684 68.9298 129.624 66.5598 130.594 64.1998C131.054 63.0798 130.064 61.7898 128.704 61.4298V61.4298Z" fill="black"/>
<path d="M155.734 68.2497C155.404 68.2297 155.064 68.2197 154.724 68.2297C154.704 68.2297 154.694 68.2297 154.674 68.2297C153.984 68.2397 153.274 68.2897 152.494 68.3597C151.484 68.4497 151.304 68.1297 151.284 67.6897C151.284 67.4397 151.304 67.1797 151.314 66.9297C151.334 66.5497 151.344 66.1797 151.364 65.8297C151.364 65.6597 151.374 65.4897 151.384 65.3197C151.384 65.0297 151.394 64.7397 151.394 64.4597C151.394 64.3297 151.394 64.1897 151.394 64.0497C151.394 63.6497 151.364 63.2497 151.324 62.8597C151.234 62.0297 150.564 60.9097 149.864 60.6197C149.214 60.3597 149.244 60.4197 148.664 60.9797C143.184 66.3397 137.774 71.7797 132.414 77.2497C131.444 78.2397 130.684 79.4597 129.934 80.6397C129.254 81.7097 127.644 83.3997 128.794 84.2197C129.964 85.0597 131.014 84.2997 131.844 83.2797C132.864 82.0197 134.034 80.8697 134.934 79.5297C135.084 79.2997 135.244 79.0797 135.414 78.8797C135.474 78.8097 135.524 78.7497 135.584 78.6897C135.694 78.5597 135.804 78.4297 135.924 78.3097C135.994 78.2397 136.064 78.1697 136.134 78.1097C136.244 78.0097 136.344 77.9097 136.464 77.8097C136.544 77.7397 136.624 77.6797 136.694 77.6197C136.804 77.5297 136.914 77.4497 137.024 77.3697C137.104 77.3097 137.184 77.2597 137.274 77.1997C137.384 77.1297 137.504 77.0597 137.614 76.9897C137.694 76.9397 137.784 76.8897 137.864 76.8497C137.984 76.7897 138.104 76.7297 138.224 76.6697C138.314 76.6297 138.394 76.5897 138.484 76.5497C138.614 76.4997 138.734 76.4497 138.864 76.3997C138.944 76.3697 139.034 76.3297 139.114 76.2997C139.254 76.2497 139.394 76.2097 139.534 76.1597C139.614 76.1397 139.684 76.1097 139.764 76.0897C139.934 76.0397 140.114 75.9997 140.294 75.9497C140.344 75.9397 140.384 75.9297 140.434 75.9197C140.654 75.8697 140.884 75.8197 141.114 75.7797C141.184 75.7697 141.244 75.7597 141.314 75.7497C141.474 75.7197 141.644 75.6897 141.804 75.6697C141.894 75.6597 141.984 75.6397 142.084 75.6297C142.224 75.6097 142.374 75.5897 142.514 75.5697C142.614 75.5597 142.724 75.5397 142.824 75.5297C142.964 75.5097 143.104 75.4997 143.234 75.4797C143.344 75.4697 143.464 75.4497 143.584 75.4397C143.734 75.4197 143.884 75.4097 144.024 75.3897L144.314 75.3597C145.064 75.2797 145.694 75.8997 145.634 76.6497C145.624 76.8297 145.604 76.9997 145.574 77.1797C145.574 77.2297 145.564 77.2797 145.554 77.3397C145.514 77.5597 145.474 77.7897 145.434 78.0097C145.414 78.0897 145.404 78.1697 145.384 78.2397C145.344 78.4397 145.304 78.6297 145.254 78.8297C145.214 79.0397 145.164 79.2397 145.124 79.4497C145.124 79.4797 145.114 79.5097 145.104 79.5497C145.064 79.7697 145.034 79.9897 145.004 80.2097C145.004 80.2697 144.994 80.3297 144.984 80.3897C144.964 80.5597 144.954 80.7397 144.954 80.9097C144.954 80.9697 144.954 81.0297 144.954 81.0897C144.954 81.3097 144.974 81.5397 145.014 81.7597C145.014 81.7897 145.034 81.8197 145.034 81.8497C145.074 82.0397 145.124 82.2297 145.184 82.4197C145.194 82.4497 145.194 82.4897 145.214 82.5197C145.214 82.5497 145.244 82.5697 145.254 82.5897C145.314 82.7297 145.374 82.8797 145.444 83.0197C145.684 83.4897 146.324 83.5997 146.724 83.2597C146.854 83.1497 146.974 83.0397 147.074 82.9297C147.084 82.9197 147.104 82.9097 147.114 82.8897C147.114 82.8897 147.114 82.8797 147.114 82.8697C147.214 82.7497 147.304 82.6297 147.364 82.4997C148.184 80.5097 149.014 78.5097 149.604 76.4397C150.074 74.7497 150.714 73.5497 152.584 73.0497C154.014 72.6697 155.384 71.8997 156.654 71.0897C157.154 70.7697 157.634 69.7597 157.474 69.2697C157.324 68.7797 156.384 68.2697 155.764 68.2297L155.734 68.2497ZM143.624 71.6897C143.554 71.6697 143.524 71.5797 143.574 71.5197L145.494 69.6397L147.344 67.8397C147.404 67.7797 147.504 67.8297 147.514 67.9097C147.764 71.7397 146.564 72.4697 143.624 71.6897V71.6897Z" fill="black"/>
<path d="M182.914 68.5898C182.564 68.9198 182.334 69.3398 182.014 69.6898C181.054 70.7598 179.904 71.6198 178.094 72.3398C178.094 70.4698 178.224 68.8998 178.054 67.3598C177.874 65.6798 177.614 63.9698 177.024 62.3898C176.354 60.5898 174.704 59.9998 172.844 60.8698C171.534 61.4798 170.304 62.3998 169.364 63.4298C167.994 64.9398 166.854 66.6298 165.734 68.3098C162.754 72.7798 161.114 77.7398 159.504 82.7098C159.274 83.4298 159.624 83.9598 160.314 84.3698C161.104 84.8298 161.774 84.5398 162.244 84.0398C162.694 83.5598 162.964 82.9198 163.224 82.3198C164.194 80.0598 165.064 77.7698 166.074 75.5198C167.684 71.9198 169.674 68.5098 172.404 65.4898C172.874 64.9698 173.244 64.2398 174.444 64.2898C174.534 64.9198 174.654 65.5398 174.694 66.1598C174.864 68.5098 175.014 70.8598 175.164 73.2198C175.304 75.3198 176.424 76.0398 178.584 75.2798C179.574 74.9298 180.484 74.3498 181.384 73.8098C182.314 73.2498 183.184 72.6098 184.214 71.9098C184.784 73.1998 184.494 74.2998 184.534 75.3898C184.614 77.3998 184.844 79.4198 185.124 81.4198C185.164 81.7298 185.574 82.3798 186.114 82.2498C186.504 82.1798 186.734 81.6998 186.794 81.3798C187.224 79.1898 187.724 77.0098 187.934 74.7998C188.114 72.9198 188.164 70.9898 187.234 69.1998C186.294 67.3798 184.444 67.1098 182.904 68.5798L182.914 68.5898Z" fill="black"/>
<path d="M225.064 60.4498C224.794 59.9098 224.484 58.8598 223.724 57.9298C222.474 56.3798 219.044 55.7098 216.224 56.2998C212.994 56.9798 210.944 58.3698 209.294 59.9798C206.684 62.5398 205.884 65.3698 205.354 68.2598C204.504 72.9298 205.224 77.6798 203.134 82.2998C202.894 82.8198 203.214 83.5298 203.694 84.0198C204.524 84.8598 206.204 84.7798 206.824 83.8698C207.314 83.1598 207.524 82.3798 207.754 81.6198C208.854 77.9498 209.094 74.2398 209.264 70.5298C209.374 68.0898 209.764 65.6598 211.284 63.3398C212.374 61.6598 213.764 60.0698 216.314 58.9198C218.304 58.0298 220.134 58.3798 220.724 59.7598C220.884 60.1298 220.844 60.5298 220.824 60.9198C220.644 64.2098 217.714 66.6798 213.434 68.7398C212.984 68.9498 212.244 69.0598 212.034 69.3198C211.704 69.7298 211.474 70.2498 211.614 70.6798C211.794 71.2398 212.754 71.4598 213.704 71.3398C214.544 71.2298 215.494 71.0898 216.104 70.7698C221.204 68.1298 224.614 64.9798 225.054 60.4498H225.064Z" fill="black"/>
<path d="M277.584 64.7197C276.634 63.9797 275.524 63.9497 274.574 64.7697C274.144 65.1497 273.834 65.6997 273.554 66.2197C271.664 69.8197 269.814 73.4397 267.914 77.0397C267.484 77.8597 266.914 78.6197 266.174 79.7597C265.674 78.7797 265.314 78.3097 265.184 77.7697C264.574 75.3697 264.094 72.9297 263.444 70.5397C263.004 68.9197 262.514 67.2697 261.764 65.7797C260.734 63.7397 259.104 63.6897 257.584 65.4197C257.074 65.9997 256.504 66.8997 255.884 66.9597C253.744 67.1697 252.924 68.7097 251.944 70.2097C250.974 71.7097 249.884 73.1297 248.964 74.6497C247.944 76.3497 246.974 78.0897 246.144 79.8897C245.654 80.9597 245.904 82.1297 246.874 82.8497C247.924 83.6297 248.734 82.8397 249.424 82.0897C250.894 80.4797 252.384 78.8897 253.774 77.2097C255.534 75.0797 257.194 72.8797 258.894 70.7097C259.144 70.7497 259.394 70.7997 259.644 70.8397C259.914 71.7497 260.164 72.6697 260.464 73.5797C261.404 76.4897 262.214 79.4697 263.354 82.2997C264.424 84.9397 266.044 85.3197 268.154 83.3597C269.644 81.9697 270.784 80.1597 271.944 78.4497C274.274 75.0097 275.144 70.7597 278.024 67.5997C278.874 66.6597 278.564 65.4797 277.584 64.7097V64.7197Z" fill="black"/>
<path d="M304.644 62.3598C304.564 61.8098 303.974 61.2198 303.494 60.9198C303.074 60.6598 302.484 60.7398 301.964 60.7698C295.814 61.0698 289.854 62.5598 284.024 64.7598C283.724 64.8698 283.414 64.9598 283.154 65.1298C282.014 65.8798 281.644 67.0698 281.914 68.4998C282.204 70.0598 283.304 70.1398 284.364 70.0298C285.454 69.9198 286.524 69.6298 288.014 69.3298C287.424 71.0398 286.834 72.1998 286.624 73.4498C286.144 76.2498 285.744 79.0898 285.524 81.9298C285.404 83.4898 286.004 84.7598 288.054 84.5798C288.684 79.2198 289.944 74.3298 292.014 69.6998C292.654 68.2698 293.404 67.4098 294.714 67.0698C296.834 66.5198 298.964 65.9798 301.074 65.3498C302.064 65.0498 303.084 64.6798 303.964 64.0898C304.374 63.8098 304.744 62.8898 304.664 62.3498L304.644 62.3598Z" fill="black"/>
<path d="M316.834 63.4299C315.824 62.5299 314.764 62.8099 313.724 63.1599C308.544 64.8999 305.984 68.8799 307.014 73.5499C307.324 74.9599 307.734 76.3599 308.014 77.7799C308.344 79.4399 308.124 80.3499 306.974 81.1599C306.124 81.7599 305.014 81.8399 304.074 81.4199C303.664 81.2399 303.244 81.0499 302.824 80.8599C302.294 82.6399 302.594 83.3199 304.144 84.0799C306.384 85.1799 309.284 84.5199 310.814 82.5999C312.074 81.0099 312.054 79.2699 311.704 77.4899C311.474 76.3299 311.144 75.1899 310.904 74.0299C310.294 71.0999 310.754 68.5399 314.204 66.9699C315.074 66.5699 315.874 66.0499 316.664 65.5499C317.474 65.0399 317.564 64.0799 316.844 63.4399L316.834 63.4299Z" fill="black"/>
<path d="M247.514 69.3C247.364 68.81 246.424 68.3 245.804 68.26C245.474 68.24 245.134 68.23 244.794 68.24C244.774 68.24 244.764 68.24 244.744 68.24C244.054 68.25 243.344 68.3 242.564 68.37C241.554 68.46 241.374 68.14 241.354 67.7C241.354 67.45 241.374 67.19 241.384 66.94C241.404 66.56 241.414 66.19 241.434 65.84C241.434 65.67 241.444 65.5 241.454 65.33C241.454 65.04 241.464 64.75 241.464 64.47C241.464 64.34 241.464 64.2 241.464 64.06C241.464 63.66 241.434 63.26 241.394 62.87C241.304 62.04 240.634 60.92 239.934 60.63C239.284 60.37 239.314 60.43 238.734 60.99C233.254 66.35 227.844 71.79 222.484 77.26C221.514 78.25 220.754 79.47 220.004 80.65C219.324 81.72 217.714 83.41 218.864 84.23C220.034 85.07 221.084 84.31 221.914 83.29C222.934 82.03 224.104 80.88 225.004 79.54C225.154 79.31 225.314 79.09 225.484 78.89C225.544 78.82 225.594 78.76 225.654 78.7C225.764 78.57 225.874 78.44 225.994 78.32C226.064 78.25 226.134 78.18 226.204 78.12C226.314 78.02 226.414 77.92 226.534 77.82C226.614 77.75 226.694 77.69 226.764 77.63C226.874 77.54 226.984 77.46 227.094 77.38C227.174 77.32 227.254 77.27 227.344 77.21C227.454 77.14 227.574 77.07 227.684 77C227.764 76.95 227.854 76.9 227.934 76.86C228.054 76.8 228.174 76.74 228.294 76.68C228.384 76.64 228.464 76.6 228.554 76.56C228.684 76.51 228.804 76.46 228.934 76.41C229.014 76.38 229.104 76.34 229.184 76.31C229.324 76.26 229.464 76.22 229.604 76.17C229.684 76.15 229.754 76.12 229.834 76.1C230.004 76.05 230.184 76.01 230.364 75.96C230.414 75.95 230.454 75.94 230.504 75.93C230.724 75.88 230.954 75.83 231.184 75.79C231.254 75.78 231.314 75.77 231.384 75.76C231.544 75.73 231.714 75.7 231.874 75.68C231.964 75.67 232.054 75.65 232.154 75.64C232.294 75.62 232.444 75.6 232.584 75.58C232.684 75.57 232.794 75.55 232.894 75.54C233.034 75.52 233.174 75.51 233.304 75.49C233.414 75.48 233.534 75.46 233.654 75.45C233.804 75.43 233.954 75.42 234.094 75.4L234.384 75.37C235.134 75.29 235.764 75.91 235.704 76.66C235.694 76.84 235.674 77.01 235.644 77.19C235.644 77.24 235.634 77.29 235.624 77.35C235.584 77.57 235.544 77.8 235.504 78.02C235.484 78.1 235.474 78.18 235.454 78.25C235.414 78.45 235.374 78.64 235.324 78.84C235.284 79.05 235.234 79.25 235.194 79.46C235.194 79.49 235.184 79.52 235.174 79.56C235.134 79.78 235.104 80 235.074 80.22C235.074 80.28 235.064 80.34 235.054 80.4C235.034 80.57 235.024 80.75 235.024 80.92C235.024 80.98 235.024 81.04 235.024 81.1C235.024 81.32 235.044 81.55 235.084 81.77C235.084 81.8 235.104 81.83 235.104 81.86C235.144 82.05 235.194 82.24 235.254 82.43C235.264 82.46 235.264 82.5 235.284 82.53C235.284 82.56 235.314 82.58 235.324 82.6C235.384 82.74 235.444 82.89 235.514 83.03C235.754 83.5 236.394 83.61 236.794 83.27C236.924 83.16 237.044 83.05 237.144 82.94C237.154 82.93 237.174 82.92 237.184 82.9C237.184 82.9 237.184 82.89 237.184 82.88C237.284 82.76 237.374 82.64 237.434 82.51C238.254 80.52 239.084 78.52 239.674 76.45C240.144 74.76 240.784 73.56 242.654 73.06C244.084 72.68 245.454 71.91 246.724 71.1C247.224 70.78 247.704 69.77 247.544 69.28L247.514 69.3ZM233.694 71.7C233.624 71.68 233.594 71.59 233.644 71.53L235.564 69.65L237.414 67.85C237.474 67.79 237.574 67.84 237.584 67.92C237.834 71.75 236.634 72.48 233.694 71.7V71.7Z" fill="black"/>
<path d="M41.7543 60.1095C40.5443 59.7795 39.6843 60.1095 39.0943 61.4095C38.4243 62.8895 37.8343 64.4195 37.4343 65.9695C37.1343 67.1195 36.4743 67.8495 34.7843 67.9595C33.2443 68.0595 29.9043 68.3395 28.2743 68.4395C27.1043 68.5095 27.9443 67.5395 27.9943 66.6695C28.0243 66.1895 28.2043 65.7595 28.3243 65.3295C28.7043 63.9395 28.0443 62.8495 26.5143 62.4195C25.0143 61.9995 23.9943 62.4495 23.5343 63.8695C21.7343 69.4895 19.9643 75.1195 18.2443 80.7595C18.0543 81.3895 17.7143 82.2495 18.9143 82.7195C20.1043 83.1895 21.0143 82.7195 21.6443 82.0895C21.8543 81.8795 22.0043 81.6195 22.1243 81.3595C23.2343 78.9795 24.3043 76.5895 25.4443 74.2295C25.7443 73.5995 26.0343 72.7995 26.7243 72.5095C29.1843 71.4695 31.9943 70.9495 35.2743 70.6095C35.1243 71.2595 35.0943 71.5995 34.9743 71.9095C33.9343 74.3995 33.1843 76.9395 33.1243 79.6695C33.1043 80.3795 32.9843 81.2495 33.1043 82.0295C33.3043 83.3795 36.0143 83.7895 36.4243 82.5295C36.6643 81.7795 36.9043 80.6195 37.2543 78.7795C37.6843 75.6395 38.7643 72.6695 40.4243 69.8395C41.7343 67.6095 42.6743 65.2395 43.6443 62.8795C44.1043 61.7595 43.1143 60.4695 41.7543 60.1095Z" fill="black"/>
<path d="M63.7843 66.5899C62.7043 66.8299 61.6043 67.0299 60.5443 67.3699C57.5443 68.3299 54.5643 69.3399 51.5843 70.3299C51.4443 70.1499 51.3143 69.9699 51.1743 69.7899C53.0243 68.1399 54.8243 66.4299 56.7443 64.8599C57.6643 64.0999 58.8143 63.6199 59.8443 62.9899C61.4443 61.9999 62.0043 60.9299 61.3543 59.8799C60.4443 58.4099 59.1343 59.1999 58.1443 59.6599C56.4743 60.4499 54.8543 61.3999 53.3543 62.4799C47.7643 66.4799 46.1343 72.1199 47.0243 78.6399C47.5343 82.3799 50.5743 84.2099 54.1843 83.1899C56.5543 82.5199 58.3243 81.0799 59.3343 78.8399C59.5943 78.2599 59.7343 77.2399 59.4143 76.8599C58.7643 76.0799 57.9243 76.5399 57.2443 77.1599C56.4943 77.8399 55.7743 78.6199 54.9043 79.1199C52.6343 80.4299 50.5543 79.3499 50.3043 76.7699C50.2143 75.8699 50.2943 74.9599 50.2943 74.0399C53.9343 74.3399 64.3043 70.0499 66.0943 67.5999C65.5743 66.7099 64.8143 66.3599 63.7843 66.5899V66.5899Z" fill="black"/>
<path d="M22.1142 62.1999C22.5242 61.9199 22.8942 60.9999 22.8142 60.4599C22.7342 59.9099 22.1442 59.3199 21.6642 59.0199C21.2442 58.7599 20.6542 58.8399 20.1342 58.8699C13.9842 59.1699 8.02425 60.6599 2.19425 62.8599C1.89425 62.9699 1.58425 63.0599 1.32425 63.2299C0.184247 63.9799 -0.185753 65.1699 0.0842472 66.5999C0.374247 68.1599 1.47425 68.2399 2.53425 68.1299C3.62425 68.0199 4.69425 67.7299 6.18425 67.4299C5.59425 69.1399 5.00425 70.2999 4.79425 71.5499C4.31425 74.3499 3.91425 77.1899 3.69425 80.0299C3.57425 81.5899 4.17425 82.8599 6.22425 82.6799C6.85425 77.3199 8.11425 72.4299 10.1842 67.7999C10.8242 66.3699 11.5742 65.5099 12.8842 65.1699C15.0042 64.6199 17.1342 64.0799 19.2442 63.4499C20.2342 63.1499 21.2542 62.7799 22.1342 62.1899L22.1142 62.1999Z" fill="black"/>
<path d="M155.434 29.8301C156.614 27.4601 158.374 23.7601 159.044 21.4001C159.714 19.0401 162.284 7.69008 161.284 5.45008C160.844 4.45008 160.174 3.51008 159.224 2.96008C158.104 2.30008 156.734 2.24008 155.434 2.28008C152.294 2.37008 149.154 2.90008 146.244 4.09008C144.954 4.62008 143.684 5.29008 142.804 6.37008C141.924 7.45008 141.504 8.99008 142.064 10.2601C142.494 11.2401 143.424 11.9201 144.374 12.4001C145.324 12.8801 146.354 13.2401 147.244 13.8401C148.534 14.7001 149.474 16.0201 150.114 17.4301C150.754 18.8401 151.134 20.3601 151.504 21.8701C151.984 23.8201 152.464 25.7701 152.944 27.7201C153.104 28.3801 153.294 29.0801 153.784 29.5601C154.274 30.0401 155.194 30.1301 155.594 29.5801" fill="#B9CFE3"/>
<path d="M153.944 30.8298C155.684 30.2198 158.334 31.4998 159.834 30.5798C162.524 28.9298 164.944 26.2698 166.254 23.7698C168.824 18.8598 168.164 16.0899 170.094 13.7599C174.694 8.20985 177.494 9.58985 177.234 5.60985C176.924 0.71985 162.884 -2.06015 163.314 6.53985C163.384 7.90985 163.074 12.6698 162.354 16.1098C161.524 20.0498 160.494 22.0298 158.584 25.7498C157.564 27.7298 155.974 28.9099 156.844 30.5299" fill="#B9CFE3"/>
<path d="M156.494 33.6599C148.734 34.5099 140.534 33.9699 133.734 30.1299C132.174 29.2499 130.674 28.1599 129.764 26.6199C128.854 25.0799 128.664 23.0099 129.704 21.5499C131.064 19.6299 133.894 19.4599 136.144 20.1499C140.054 21.3399 143.074 24.3799 146.044 27.1799C149.014 29.9799 152.364 32.7899 156.424 33.2999" fill="#B9CFE3"/>
<path d="M156.734 33.5497C160.804 32.9397 164.944 32.9897 169.044 32.7197C173.144 32.4497 177.314 31.8497 181.014 30.0397C184.714 28.2297 187.924 25.0797 188.964 21.0997C190.004 17.1197 188.454 12.3697 184.824 10.4197C182.314 9.06968 179.154 9.18968 176.574 10.4197C173.994 11.6497 171.974 13.8597 170.634 16.3797C168.824 19.7797 168.144 23.7197 166.094 26.9797C163.814 30.6097 159.834 33.1197 155.574 33.6297" fill="#B9CFE3"/>
<path d="M155.914 32.4696C153.964 32.4396 152.344 31.0296 150.894 29.7196C145.634 24.9796 140.074 20.5696 134.264 16.5196C133.724 16.1396 133.154 15.7396 132.894 15.1296C132.484 14.1996 132.964 13.0696 133.774 12.4496C134.584 11.8296 135.624 11.6396 136.634 11.5696C140.874 11.2596 145.334 12.9896 147.814 16.4496C149.704 19.0896 150.304 22.4096 151.574 25.3996C152.684 27.9996 154.314 30.3796 156.354 32.3396" fill="#B9CFE3"/>
<path d="M149.894 31.12C150.274 32.94 152.234 33.72 152.624 33.95C153.094 34.22 153.634 34.33 154.164 34.43C155.694 34.72 157.274 35.02 158.814 34.76C160.874 34.42 162.634 33.14 164.284 31.87C164.754 31.51 165.224 31.14 165.604 30.68C165.674 30.6 165.734 30.51 165.794 30.43C166.084 30.02 165.584 29.51 165.174 29.8C164.694 30.14 164.214 30.49 163.714 30.79C162.824 31.32 161.784 31.69 160.764 31.51C160.694 31.5 160.624 31.48 160.604 31.39C160.594 31.33 160.604 31.27 160.644 31.22C161.324 30.32 162.214 29.55 162.664 28.52C162.794 28.23 162.884 27.9 162.774 27.58C162.734 27.47 162.674 27.37 162.584 27.3C162.234 27.02 161.794 27.25 161.504 27.53C160.914 28.11 160.624 28.92 160.114 29.56C159.684 30.11 159.094 30.53 158.434 30.76C158.294 30.81 158.154 30.85 158.014 30.82C157.774 30.77 157.614 30.52 157.584 30.28C157.554 30.04 157.634 29.79 157.704 29.56L158.444 27.22C158.504 27.04 158.504 26.84 158.444 26.66C158.314 26.31 158.034 26.3 157.784 26.33C157.194 26.41 156.654 26.77 156.344 27.27C155.924 27.94 155.914 28.82 155.324 29.38C155.214 29.48 155.074 29.55 154.924 29.55C154.574 29.54 154.444 29.19 154.404 28.88C154.264 27.93 154.504 26.92 154.164 26.02C153.724 24.85 152.354 24.21 151.114 24.36C150.784 24.4 150.464 24.49 150.174 24.66C149.594 25.02 149.274 25.72 149.264 26.4C149.254 27.04 149.794 30.48 149.914 31.09L149.894 31.12Z" fill="#2A3C57"/>
<path d="M79.204 118.134C79.012 117.186 78.232 115.962 76.228 115.962C74.644 115.962 73.336 117.138 73.336 118.566C73.336 119.838 74.2 120.69 75.496 120.954L76.696 121.206C77.428 121.362 77.836 121.806 77.836 122.358C77.836 123.018 77.308 123.534 76.288 123.534C75.064 123.534 74.428 122.718 74.344 121.83L73 122.214C73.132 123.438 74.128 124.83 76.288 124.83C78.232 124.83 79.3 123.57 79.3 122.25C79.3 121.05 78.496 120.102 76.996 119.802L75.772 119.55C75.112 119.406 74.776 118.998 74.776 118.458C74.776 117.81 75.376 117.234 76.24 117.234C77.38 117.234 77.824 118.014 77.908 118.542L79.204 118.134Z" fill="black"/>
<path d="M84.2687 124.002C84.2687 124.242 84.2927 124.518 84.3167 124.65H85.6487C85.6247 124.434 85.5887 124.062 85.5887 123.582V118.806H84.1967V122.262C84.1967 123.03 83.7767 123.57 82.9727 123.57C82.1327 123.57 81.7967 122.958 81.7967 122.238V118.806H80.4047V122.49C80.4047 123.786 81.2207 124.818 82.6127 124.818C83.2967 124.818 83.9807 124.53 84.2687 124.002Z" fill="black"/>
<path d="M88.7704 126.93V123.99C89.0704 124.434 89.7064 124.794 90.5464 124.794C92.2264 124.794 93.2944 123.474 93.2944 121.722C93.2944 119.994 92.3224 118.674 90.5944 118.674C89.6944 118.674 89.0224 119.094 88.7344 119.598V118.806H87.3904V126.93H88.7704ZM91.9024 121.722C91.9024 122.838 91.2544 123.558 90.3304 123.558C89.4184 123.558 88.7584 122.838 88.7584 121.722C88.7584 120.63 89.4184 119.91 90.3304 119.91C91.2664 119.91 91.9024 120.63 91.9024 121.722Z" fill="black"/>
<path d="M98.0526 118.77C97.9926 118.758 97.8486 118.734 97.6806 118.734C96.9126 118.734 96.2646 119.106 95.9886 119.742V118.806H94.6326V124.65H96.0246V121.866C96.0246 120.774 96.5166 120.15 97.5966 120.15C97.7406 120.15 97.8966 120.162 98.0526 120.186V118.77Z" fill="black"/>
<path d="M100.128 121.086C100.176 120.462 100.68 119.79 101.556 119.79C102.516 119.79 102.972 120.402 102.996 121.086H100.128ZM103.152 122.61C102.96 123.186 102.528 123.63 101.688 123.63C100.824 123.63 100.128 122.994 100.092 122.106H104.364C104.376 122.082 104.4 121.89 104.4 121.662C104.4 119.814 103.344 118.626 101.544 118.626C100.068 118.626 98.7001 119.85 98.7001 121.698C98.7001 123.678 100.104 124.83 101.688 124.83C103.092 124.83 104.016 124.002 104.328 122.982L103.152 122.61Z" fill="black"/>
<path d="M107.11 124.65V121.182C107.11 120.438 107.578 119.886 108.322 119.886C109.114 119.886 109.45 120.414 109.45 121.086V124.65H110.818V121.182C110.818 120.462 111.298 119.886 112.03 119.886C112.81 119.886 113.158 120.402 113.158 121.086V124.65H114.502V120.858C114.502 119.31 113.494 118.638 112.438 118.638C111.682 118.638 110.998 118.902 110.542 119.67C110.23 118.986 109.558 118.638 108.79 118.638C108.13 118.638 107.398 118.95 107.062 119.55V118.806H105.73V124.65H107.11Z" fill="black"/>
<path d="M117.179 121.086C117.227 120.462 117.731 119.79 118.607 119.79C119.567 119.79 120.023 120.402 120.047 121.086H117.179ZM120.203 122.61C120.011 123.186 119.579 123.63 118.739 123.63C117.875 123.63 117.179 122.994 117.143 122.106H121.415C121.427 122.082 121.451 121.89 121.451 121.662C121.451 119.814 120.395 118.626 118.595 118.626C117.119 118.626 115.751 119.85 115.751 121.698C115.751 123.678 117.155 124.83 118.739 124.83C120.143 124.83 121.067 124.002 121.379 122.982L120.203 122.61Z" fill="black"/>
<path d="M124.173 124.65V115.962H122.781V124.65H124.173Z" fill="black"/>
<path d="M127.745 127.014L131.465 118.806H129.989L128.417 122.502L126.737 118.806H125.165L127.661 123.954L126.257 127.014H127.745Z" fill="black"/>
<path d="M141.173 118.134C140.981 117.186 140.201 115.962 138.197 115.962C136.613 115.962 135.305 117.138 135.305 118.566C135.305 119.838 136.169 120.69 137.465 120.954L138.665 121.206C139.397 121.362 139.805 121.806 139.805 122.358C139.805 123.018 139.277 123.534 138.257 123.534C137.033 123.534 136.397 122.718 136.313 121.83L134.969 122.214C135.101 123.438 136.097 124.83 138.257 124.83C140.201 124.83 141.269 123.57 141.269 122.25C141.269 121.05 140.465 120.102 138.965 119.802L137.741 119.55C137.081 119.406 136.745 118.998 136.745 118.458C136.745 117.81 137.345 117.234 138.209 117.234C139.349 117.234 139.793 118.014 139.877 118.542L141.173 118.134Z" fill="black"/>
<path d="M145.13 123.582C144.278 123.582 143.498 122.934 143.498 121.722C143.498 120.51 144.278 119.886 145.13 119.886C145.994 119.886 146.762 120.51 146.762 121.722C146.762 122.946 145.994 123.582 145.13 123.582ZM145.13 118.626C143.39 118.626 142.106 119.934 142.106 121.722C142.106 123.522 143.39 124.83 145.13 124.83C146.882 124.83 148.166 123.522 148.166 121.722C148.166 119.934 146.882 118.626 145.13 118.626Z" fill="black"/>
<path d="M152.104 117.15C152.368 117.15 152.524 117.186 152.608 117.21V116.022C152.512 115.974 152.224 115.902 151.876 115.902C150.676 115.902 149.836 116.694 149.836 118.002V118.806H148.816V120.018H149.836V124.65H151.24V120.018H152.596V118.806H151.24V118.038C151.24 117.318 151.732 117.15 152.104 117.15Z" fill="black"/>
<path d="M155.611 117.018H154.351V117.894C154.351 118.41 154.075 118.806 153.451 118.806H153.151V120.042H154.231V122.982C154.231 124.074 154.903 124.722 155.983 124.722C156.487 124.722 156.751 124.626 156.835 124.59V123.438C156.775 123.45 156.547 123.486 156.355 123.486C155.839 123.486 155.611 123.27 155.611 122.754V120.042H156.823V118.806H155.611V117.018Z" fill="black"/>
<path d="M162.287 120.39C162.287 118.338 163.703 117.318 165.131 117.318C166.571 117.318 167.987 118.338 167.987 120.39C167.987 122.442 166.571 123.462 165.131 123.462C163.703 123.462 162.287 122.442 162.287 120.39ZM160.811 120.39C160.811 123.186 162.899 124.83 165.131 124.83C167.363 124.83 169.463 123.186 169.463 120.39C169.463 117.606 167.363 115.962 165.131 115.962C162.899 115.962 160.811 117.606 160.811 120.39Z" fill="black"/>
<path d="M174.283 118.77C174.223 118.758 174.079 118.734 173.911 118.734C173.143 118.734 172.495 119.106 172.219 119.742V118.806H170.863V124.65H172.255V121.866C172.255 120.774 172.747 120.15 173.827 120.15C173.971 120.15 174.127 120.162 174.283 120.186V118.77Z" fill="black"/>
<path d="M174.967 124.974C175.123 126.15 176.203 127.11 177.751 127.11C179.947 127.11 180.751 125.658 180.751 124.098V118.806H179.407V119.55C179.155 119.07 178.591 118.698 177.679 118.698C176.071 118.698 174.979 119.982 174.979 121.542C174.979 123.186 176.119 124.386 177.679 124.386C178.531 124.386 179.119 123.99 179.371 123.534V124.146C179.371 125.334 178.819 125.898 177.715 125.898C176.911 125.898 176.347 125.358 176.251 124.638L174.967 124.974ZM177.907 123.198C176.995 123.198 176.383 122.562 176.383 121.542C176.383 120.546 177.019 119.898 177.907 119.898C178.771 119.898 179.407 120.546 179.407 121.542C179.407 122.55 178.795 123.198 177.907 123.198Z" fill="black"/>
<path d="M182.034 123.066C182.034 123.99 182.79 124.83 184.014 124.83C184.962 124.83 185.538 124.35 185.814 123.906C185.814 124.374 185.862 124.614 185.874 124.65H187.17C187.158 124.59 187.098 124.242 187.098 123.714V120.81C187.098 119.646 186.414 118.626 184.614 118.626C183.174 118.626 182.262 119.526 182.154 120.534L183.426 120.822C183.486 120.234 183.894 119.766 184.626 119.766C185.394 119.766 185.73 120.162 185.73 120.654C185.73 120.858 185.634 121.026 185.298 121.074L183.798 121.302C182.802 121.446 182.034 122.022 182.034 123.066ZM184.278 123.738C183.726 123.738 183.426 123.378 183.426 122.982C183.426 122.502 183.774 122.262 184.206 122.19L185.73 121.962V122.226C185.73 123.366 185.058 123.738 184.278 123.738Z" fill="black"/>
<path d="M190.173 121.278C190.173 120.51 190.593 119.898 191.385 119.898C192.261 119.898 192.585 120.474 192.585 121.194V124.65H193.977V120.954C193.977 119.67 193.293 118.638 191.865 118.638C191.217 118.638 190.521 118.914 190.137 119.586V118.806H188.781V124.65H190.173V121.278Z" fill="black"/>
<path d="M197.052 124.65V118.806H195.672V124.65H197.052ZM195.456 116.754C195.456 117.258 195.864 117.654 196.356 117.654C196.86 117.654 197.268 117.258 197.268 116.754C197.268 116.25 196.86 115.842 196.356 115.842C195.864 115.842 195.456 116.25 195.456 116.754Z" fill="black"/>
<path d="M201.391 119.91C202.279 119.91 202.675 120.486 202.807 121.002L204.055 120.546C203.815 119.61 202.951 118.626 201.379 118.626C199.699 118.626 198.391 119.922 198.391 121.722C198.391 123.498 199.699 124.83 201.415 124.83C202.951 124.83 203.827 123.834 204.103 122.922L202.879 122.478C202.747 122.922 202.327 123.558 201.415 123.558C200.539 123.558 199.783 122.898 199.783 121.722C199.783 120.546 200.539 119.91 201.391 119.91Z" fill="black"/>
<path d="M212.216 124.83C214.388 124.83 215.684 123.45 216.068 122.01L214.748 121.578C214.46 122.538 213.644 123.45 212.216 123.45C210.764 123.45 209.396 122.394 209.396 120.402C209.396 118.338 210.8 117.318 212.204 117.318C213.632 117.318 214.424 118.146 214.676 119.178L216.032 118.722C215.648 117.234 214.364 115.962 212.204 115.962C209.996 115.962 207.92 117.63 207.92 120.402C207.92 123.174 209.924 124.83 212.216 124.83Z" fill="black"/>
<path d="M219.767 123.582C218.915 123.582 218.135 122.934 218.135 121.722C218.135 120.51 218.915 119.886 219.767 119.886C220.631 119.886 221.399 120.51 221.399 121.722C221.399 122.946 220.631 123.582 219.767 123.582ZM219.767 118.626C218.027 118.626 216.743 119.934 216.743 121.722C216.743 123.522 218.027 124.83 219.767 124.83C221.519 124.83 222.803 123.522 222.803 121.722C222.803 119.934 221.519 118.626 219.767 118.626Z" fill="black"/>
<path d="M225.877 117.018H224.617V117.894C224.617 118.41 224.341 118.806 223.717 118.806H223.417V120.042H224.497V122.982C224.497 124.074 225.169 124.722 226.249 124.722C226.753 124.722 227.017 124.626 227.101 124.59V123.438C227.041 123.45 226.813 123.486 226.621 123.486C226.105 123.486 225.877 123.27 225.877 122.754V120.042H227.089V118.806H225.877V117.018Z" fill="black"/>
<path d="M230.26 117.018H229V117.894C229 118.41 228.724 118.806 228.1 118.806H227.8V120.042H228.88V122.982C228.88 124.074 229.552 124.722 230.632 124.722C231.136 124.722 231.4 124.626 231.484 124.59V123.438C231.424 123.45 231.196 123.486 231.004 123.486C230.488 123.486 230.26 123.27 230.26 122.754V120.042H231.472V118.806H230.26V117.018Z" fill="black"/>
<path d="M235.412 123.582C234.56 123.582 233.78 122.934 233.78 121.722C233.78 120.51 234.56 119.886 235.412 119.886C236.276 119.886 237.044 120.51 237.044 121.722C237.044 122.946 236.276 123.582 235.412 123.582ZM235.412 118.626C233.672 118.626 232.388 119.934 232.388 121.722C232.388 123.522 233.672 124.83 235.412 124.83C237.164 124.83 238.448 123.522 238.448 121.722C238.448 119.934 237.164 118.626 235.412 118.626Z" fill="black"/>
<path d="M241.185 121.278C241.185 120.51 241.605 119.898 242.397 119.898C243.273 119.898 243.597 120.474 243.597 121.194V124.65H244.989V120.954C244.989 119.67 244.305 118.638 242.877 118.638C242.229 118.638 241.533 118.914 241.149 119.586V118.806H239.793V124.65H241.185V121.278Z" fill="black"/>
</svg>
