<svg width="354" height="128" viewBox="0 0 354 128" fill="none" xmlns="http://www.w3.org/2000/svg">
<path d="M112.224 65.8103C110.614 65.6903 109.444 65.7504 107.734 66.1204C103.434 67.0304 99.1844 68.1904 94.9144 69.2604C93.9444 69.5004 93.0044 69.7403 92.1644 68.4903C92.6444 65.7503 94.2145 63.4203 95.8245 61.0903C96.9645 59.4303 96.2944 57.8204 94.4144 57.2404C93.0944 56.8404 92.0645 57.3904 91.5445 58.5204C89.7945 62.3404 88.0144 66.1604 86.5544 70.1104C85.1544 73.9004 84.0845 77.8103 83.0045 81.7103C82.6045 83.1403 82.5144 84.6803 82.4144 86.1803C82.3644 86.9103 83.7044 87.5303 84.3044 87.1003C84.8244 86.7203 85.4445 86.3203 85.7145 85.7703C86.6045 83.9603 87.3544 82.0904 88.1344 80.2304C88.4644 79.4504 88.6444 78.6103 89.0244 77.8603C89.3644 77.1903 89.3644 76.1604 90.7044 76.0504C91.1344 76.7904 91.6444 77.6003 92.0944 78.4503C93.3644 80.7903 94.5744 83.1704 95.8844 85.4804C96.3944 86.3904 97.1745 86.9803 98.3245 86.5003C99.3745 86.0603 99.9045 85.1303 99.7945 84.1103C99.6745 82.9703 99.2245 81.8604 98.7945 80.7903C98.0045 78.7903 97.1245 76.8403 96.1045 74.4603C119.974 67.6203 113.144 65.8803 112.224 65.8103V65.8103Z" fill="white"/>
<path d="M121.254 65.13C120.234 64.94 119.554 65.43 119.134 66.31C118.974 66.66 118.874 67.04 118.754 67.41C117.714 70.74 116.564 74.05 115.674 77.43C115.044 79.84 114.764 82.35 114.264 85.12C114.334 86.02 115.184 86.49 115.634 86.47C116.204 86.45 116.834 86.11 117.294 85.21C117.424 85.09 117.454 84.86 117.514 84.68C119.164 79.71 120.824 74.74 122.444 69.75C122.714 68.93 122.844 68.05 122.894 67.18C122.964 66.07 122.374 65.34 121.244 65.12L121.254 65.13Z" fill="white"/>
<path d="M121.754 56.3701C121.454 56.7601 121.054 57.2001 121.024 57.6401C120.974 58.4501 120.914 59.4601 121.334 60.0501C121.774 60.6601 122.774 60.8701 123.154 61.0701C125.424 60.6001 126.394 58.5701 125.264 56.6001C124.454 55.1801 122.194 55.8001 121.744 56.3701H121.754Z" fill="white"/>
<path d="M153.154 62.92C153.154 62.27 152.644 61.52 152.194 61.12C151.814 60.78 151.214 60.8 150.694 60.77C144.544 60.43 138.434 61.48 132.344 63.37C132.034 63.47 131.714 63.53 131.424 63.71C130.184 64.45 129.674 65.78 129.754 67.47C129.844 69.31 130.924 69.53 131.984 69.52C133.074 69.52 134.184 69.3 135.704 69.12C134.884 71.04 134.154 72.31 133.774 73.73C132.934 76.92 132.154 80.16 131.564 83.43C131.244 85.22 131.674 86.76 133.724 86.79C135.054 80.64 136.954 75.12 139.614 70C140.444 68.41 141.294 67.5 142.634 67.26C144.814 66.86 147.004 66.47 149.174 65.98C150.204 65.75 151.254 65.43 152.214 64.84C152.654 64.57 153.144 63.54 153.134 62.91L153.154 62.92Z" fill="white"/>
<path d="M175.314 69.66C174.784 68.6 173.904 68.12 172.654 68.28C171.344 68.45 170.014 68.57 168.724 68.85C165.064 69.64 161.424 70.5 157.774 71.34C157.624 71.12 157.484 70.91 157.334 70.69C159.694 69 162.004 67.23 164.434 65.64C165.604 64.87 167.014 64.44 168.294 63.82C170.294 62.86 171.064 61.7 170.384 60.44C169.434 58.68 167.804 59.45 166.584 59.88C164.524 60.61 162.504 61.54 160.614 62.61C153.584 66.6 151.104 72.85 151.564 80.34C151.824 84.63 155.274 87.01 159.664 86.21C162.544 85.68 164.794 84.22 166.214 81.78C166.584 81.15 166.844 80.01 166.494 79.54C165.794 78.59 164.754 79.03 163.884 79.67C162.924 80.37 161.994 81.18 160.924 81.66C158.094 82.93 155.724 81.49 155.654 78.54C155.634 77.51 155.804 76.49 155.894 75.44C160.204 76.13 172.964 72.29 175.324 69.68L175.314 69.66Z" fill="white"/>
<path d="M218.314 58.0001C217.174 57.5801 216.084 58.6401 215.574 59.4001C214.444 61.0801 213.594 62.9701 212.894 64.8201C211.334 68.9101 210.104 73.0701 208.414 77.1201C207.054 80.4001 205.624 80.9801 203.634 79.0001C202.224 77.6001 201.394 75.5501 200.464 73.6801C199.914 72.5901 199.624 71.2501 198.744 70.4001C197.554 69.2401 195.044 70.4901 194.874 72.4101C194.874 72.4101 194.874 72.4301 194.874 72.4401C194.454 77.8301 196.404 81.89 199.854 84.84C203.184 87.69 210.094 87.05 212.904 79.99C215.454 73.6 217.234 67.0401 219.184 60.5401C219.444 59.6901 218.944 58.2001 218.314 58.0001V58.0001Z" fill="white"/>
<path d="M246.114 70.22C245.784 70.2 245.444 70.19 245.104 70.2C245.084 70.2 245.074 70.2 245.054 70.2C244.364 70.21 243.654 70.26 242.874 70.33C241.864 70.42 241.684 70.1 241.664 69.66C241.664 69.41 241.684 69.15 241.694 68.9C241.714 68.52 241.724 68.15 241.744 67.8C241.744 67.63 241.754 67.46 241.764 67.29C241.764 67 241.774 66.71 241.774 66.43C241.774 66.3 241.774 66.16 241.774 66.02C241.774 65.62 241.744 65.22 241.704 64.83C241.614 64 240.944 62.87 240.244 62.59C239.594 62.33 239.624 62.39 239.044 62.95C233.564 68.31 228.154 73.75 222.794 79.22C221.824 80.21 221.064 81.43 220.314 82.61C219.634 83.68 218.024 85.37 219.174 86.19C220.344 87.03 221.394 86.27 222.224 85.25C223.244 83.99 224.414 82.84 225.314 81.5C225.464 81.27 225.624 81.05 225.794 80.85C225.854 80.78 225.904 80.72 225.964 80.66C226.074 80.53 226.184 80.4 226.304 80.28C226.374 80.21 226.444 80.14 226.514 80.08C226.624 79.98 226.724 79.88 226.844 79.78C226.924 79.71 227.004 79.65 227.074 79.59C227.184 79.5 227.294 79.42 227.404 79.34C227.484 79.28 227.564 79.23 227.654 79.17C227.764 79.1 227.884 79.03 227.994 78.96C228.074 78.91 228.164 78.86 228.244 78.82C228.364 78.76 228.484 78.7 228.604 78.64C228.694 78.6 228.774 78.56 228.864 78.52C228.994 78.47 229.114 78.42 229.244 78.37C229.324 78.34 229.414 78.3 229.494 78.27C229.634 78.22 229.774 78.18 229.914 78.13C229.994 78.11 230.064 78.08 230.144 78.06C230.314 78.01 230.494 77.97 230.674 77.92C230.724 77.91 230.764 77.9 230.814 77.89C231.034 77.84 231.264 77.79 231.494 77.75C231.564 77.74 231.624 77.73 231.694 77.72C231.854 77.69 232.024 77.66 232.184 77.64C232.274 77.63 232.364 77.61 232.464 77.6C232.604 77.58 232.754 77.56 232.894 77.54C232.994 77.53 233.104 77.51 233.204 77.5C233.344 77.48 233.484 77.47 233.614 77.45C233.724 77.44 233.844 77.42 233.964 77.41C234.114 77.39 234.264 77.38 234.404 77.36L234.694 77.33C235.444 77.25 236.074 77.87 236.014 78.62C236.004 78.8 235.984 78.97 235.954 79.15C235.954 79.2 235.944 79.25 235.934 79.31C235.894 79.53 235.854 79.76 235.814 79.98C235.794 80.06 235.784 80.14 235.764 80.21C235.724 80.41 235.684 80.6 235.634 80.8C235.594 81.01 235.544 81.21 235.504 81.42C235.504 81.45 235.494 81.48 235.484 81.52C235.444 81.74 235.414 81.96 235.384 82.18C235.384 82.24 235.374 82.3 235.364 82.36C235.344 82.53 235.334 82.71 235.334 82.88C235.334 82.94 235.334 83 235.334 83.06C235.334 83.28 235.354 83.51 235.394 83.73C235.394 83.76 235.414 83.79 235.414 83.83C235.454 84.02 235.504 84.21 235.564 84.4C235.574 84.43 235.574 84.47 235.594 84.5C235.594 84.53 235.624 84.55 235.634 84.57C235.694 84.71 235.754 84.86 235.824 85C236.064 85.47 236.704 85.58 237.104 85.24C237.234 85.13 237.354 85.02 237.454 84.91C237.464 84.9 237.484 84.89 237.494 84.87C237.494 84.87 237.494 84.86 237.494 84.85C237.594 84.73 237.684 84.61 237.744 84.48C238.564 82.49 239.394 80.49 239.984 78.42C240.454 76.73 241.094 75.53 242.964 75.03C244.394 74.65 245.764 73.88 247.034 73.07C247.534 72.75 248.014 71.74 247.854 71.25C247.704 70.76 246.764 70.25 246.144 70.21L246.114 70.22ZM234.004 73.66C233.934 73.64 233.904 73.55 233.954 73.49L235.874 71.61L237.724 69.81C237.784 69.75 237.884 69.8 237.894 69.88C238.144 73.71 236.944 74.44 234.004 73.66V73.66Z" fill="white"/>
<path d="M269.584 80.0201C268.154 80.3501 266.774 80.9401 265.344 81.2601C263.734 81.6201 262.084 82.0401 260.464 82.0101C256.954 81.9501 255.164 79.0301 256.714 75.8601C257.424 74.4101 258.514 73.0201 259.764 72.0001C261.604 70.4901 263.744 69.3501 265.744 68.0201C266.494 67.5201 267.294 67.0201 267.874 66.3601C268.904 65.1801 268.124 63.1301 266.594 62.9001C265.894 62.7901 265.124 63.1301 264.524 63.4301C259.694 65.8301 254.984 68.1601 252.024 72.8701C250.064 75.9801 250.464 79.2201 252.214 82.3401C253.854 85.2601 256.484 86.2601 260.334 86.1301C263.554 85.6801 267.374 84.9701 270.484 82.3701C270.904 82.0201 271.304 81.6601 270.994 80.5201C270.784 80.0901 270.464 79.7801 269.604 80.0401L269.584 80.0201Z" fill="white"/>
<path d="M301.554 67.7503C300.134 67.6503 299.104 67.7003 297.594 68.0203C293.804 68.8303 290.054 69.8503 286.294 70.7903C285.444 71.0003 284.604 71.2103 283.864 70.1103C284.284 67.6903 285.674 65.6403 287.094 63.5803C288.104 62.1203 287.504 60.6903 285.844 60.1803C284.684 59.8203 283.764 60.3103 283.304 61.3103C281.754 64.6803 280.194 68.0503 278.904 71.5303C277.674 74.8703 276.724 78.3303 275.774 81.7603C275.424 83.0303 275.344 84.3803 275.254 85.7003C275.204 86.3403 276.394 86.9003 276.924 86.5103C277.384 86.1803 277.934 85.8203 278.174 85.3403C278.954 83.7503 279.624 82.1003 280.314 80.4603C280.604 79.7703 280.764 79.0303 281.094 78.3703C281.394 77.7803 281.394 76.8703 282.584 76.7803C282.964 77.4303 283.414 78.1503 283.814 78.9003C284.934 80.9703 286.004 83.0603 287.154 85.1003C287.604 85.9003 288.294 86.4303 289.304 86.0003C290.224 85.6103 290.704 84.7903 290.604 83.8903C290.494 82.8903 290.104 81.9103 289.724 80.9603C289.024 79.2003 288.244 77.4703 287.344 75.3703C308.394 69.3303 302.384 67.8003 301.564 67.7403L301.554 67.7503Z" fill="white"/>
<path d="M326.774 70.18C326.244 69.12 325.364 68.64 324.114 68.8C322.804 68.97 321.474 69.09 320.184 69.37C316.524 70.16 312.884 71.02 309.234 71.86C309.084 71.64 308.944 71.43 308.794 71.21C311.154 69.52 313.464 67.75 315.894 66.16C317.064 65.39 318.474 64.96 319.754 64.34C321.754 63.38 322.524 62.22 321.844 60.96C320.894 59.2 319.264 59.97 318.044 60.4C315.984 61.13 313.964 62.06 312.074 63.13C305.044 67.12 302.564 73.37 303.024 80.86C303.284 85.15 306.734 87.53 311.124 86.73C314.004 86.2 316.254 84.74 317.674 82.3C318.044 81.67 318.304 80.53 317.954 80.06C317.254 79.11 316.214 79.55 315.344 80.19C314.384 80.89 313.454 81.7 312.384 82.18C309.554 83.45 307.184 82.01 307.114 79.06C307.094 78.03 307.264 77.01 307.354 75.96C311.664 76.65 324.424 72.81 326.784 70.2L326.774 70.18Z" fill="white"/>
<path d="M352.604 61.12C352.224 60.78 351.624 60.8 351.104 60.77C344.954 60.43 338.844 61.48 332.754 63.37C332.444 63.47 332.124 63.53 331.834 63.71C330.594 64.45 330.084 65.78 330.164 67.47C330.254 69.31 331.334 69.53 332.394 69.52C333.484 69.52 334.594 69.3 336.114 69.12C335.294 71.04 334.564 72.31 334.184 73.73C333.344 76.92 332.564 80.16 331.974 83.43C331.654 85.22 332.084 86.76 334.134 86.79C335.464 80.64 337.364 75.12 340.024 70C340.854 68.41 341.704 67.5 343.044 67.26C345.224 66.86 347.414 66.47 349.584 65.98C350.614 65.75 351.664 65.43 352.624 64.84C353.064 64.57 353.554 63.54 353.544 62.91C353.544 62.26 353.034 61.51 352.584 61.11L352.604 61.12Z" fill="white"/>
<path d="M41.7543 63.4601C40.5443 63.1301 39.6843 63.4601 39.0943 64.7601C38.4243 66.2401 37.8343 67.7701 37.4343 69.3201C37.1343 70.4701 36.4743 71.2001 34.7843 71.3101C33.2443 71.4101 29.9043 71.6901 28.2743 71.7901C27.1043 71.8601 27.9443 70.8901 27.9943 70.0201C28.0243 69.5401 28.2043 69.1101 28.3243 68.6801C28.7043 67.2901 28.0443 66.2001 26.5143 65.7701C25.0143 65.3501 23.9943 65.8001 23.5343 67.2201C21.7343 72.8401 19.9643 78.4701 18.2443 84.1101C18.0543 84.7401 17.7143 85.6001 18.9143 86.0701C20.1043 86.5401 21.0143 86.0701 21.6443 85.4401C21.8543 85.2301 22.0043 84.9701 22.1243 84.7101C23.2343 82.3301 24.3043 79.9401 25.4443 77.5801C25.7443 76.9501 26.0343 76.1501 26.7243 75.8601C29.1843 74.8201 31.9943 74.3001 35.2743 73.9601C35.1243 74.6101 35.0943 74.9501 34.9743 75.2601C33.9343 77.7501 33.1843 80.2901 33.1243 83.0201C33.1043 83.7301 32.9843 84.6001 33.1043 85.3801C33.3043 86.7301 36.0143 87.1401 36.4243 85.8801C36.6643 85.1301 36.9043 83.9701 37.2543 82.1301C37.6843 78.9901 38.7643 76.0201 40.4243 73.1901C41.7343 70.9601 42.6743 68.5901 43.6443 66.2301C44.1043 65.1101 43.1143 63.8201 41.7543 63.4601Z" fill="white"/>
<path d="M63.7843 69.94C62.7043 70.18 61.6043 70.38 60.5443 70.72C57.5443 71.68 54.5643 72.69 51.5843 73.68C51.4443 73.5 51.3143 73.32 51.1743 73.14C53.0243 71.49 54.8243 69.78 56.7443 68.21C57.6643 67.45 58.8143 66.97 59.8443 66.34C61.4443 65.35 62.0043 64.28 61.3543 63.23C60.4443 61.76 59.1343 62.55 58.1443 63.01C56.4743 63.8 54.8543 64.75 53.3543 65.83C47.7643 69.83 46.1343 75.47 47.0243 81.99C47.5343 85.73 50.5743 87.56 54.1843 86.54C56.5543 85.87 58.3243 84.43 59.3343 82.19C59.5943 81.61 59.7343 80.59 59.4143 80.21C58.7643 79.43 57.9243 79.89 57.2443 80.51C56.4943 81.19 55.7743 81.97 54.9143 82.47C52.6443 83.78 50.5643 82.7 50.3143 80.12C50.2243 79.22 50.3043 78.31 50.3043 77.39C53.9443 77.69 64.3143 73.4 66.1043 70.95C65.5843 70.06 64.8243 69.71 63.7943 69.94H63.7843Z" fill="white"/>
<path d="M22.1142 65.55C22.5242 65.27 22.8942 64.35 22.8142 63.81C22.7342 63.26 22.1442 62.67 21.6642 62.37C21.2442 62.11 20.6542 62.19 20.1342 62.22C13.9842 62.52 8.02425 64.01 2.19425 66.21C1.89425 66.32 1.58425 66.41 1.32425 66.58C0.184247 67.33 -0.185753 68.52 0.0842472 69.95C0.374247 71.51 1.47425 71.59 2.53425 71.48C3.62425 71.37 4.69425 71.08 6.18425 70.78C5.59425 72.49 5.00425 73.65 4.79425 74.9C4.31425 77.7 3.91425 80.54 3.69425 83.38C3.57425 84.94 4.17425 86.21 6.22425 86.03C6.85425 80.67 8.11425 75.78 10.1842 71.15C10.8242 69.72 11.5742 68.86 12.8842 68.52C15.0042 67.97 17.1342 67.43 19.2442 66.8C20.2342 66.5 21.2542 66.13 22.1342 65.54L22.1142 65.55Z" fill="white"/>
<path d="M173.424 29.8301C174.604 27.4601 176.364 23.7601 177.034 21.4001C177.704 19.0401 180.274 7.69008 179.274 5.45008C178.834 4.45008 178.164 3.51008 177.214 2.96008C176.094 2.30008 174.724 2.24008 173.424 2.28008C170.284 2.37008 167.144 2.90008 164.234 4.09008C162.944 4.62008 161.674 5.29008 160.794 6.37008C159.914 7.45008 159.494 8.99008 160.054 10.2601C160.484 11.2401 161.414 11.9201 162.364 12.4001C163.314 12.8801 164.344 13.2401 165.234 13.8401C166.524 14.7001 167.464 16.0201 168.104 17.4301C168.744 18.8401 169.124 20.3601 169.494 21.8701C169.974 23.8201 170.454 25.7701 170.934 27.7201C171.094 28.3801 171.284 29.0801 171.774 29.5601C172.264 30.0401 173.184 30.1301 173.584 29.5801" fill="#B9CFE3"/>
<path d="M171.934 30.8298C173.674 30.2198 176.324 31.4998 177.824 30.5798C180.514 28.9298 182.934 26.2698 184.244 23.7698C186.814 18.8598 186.154 16.0899 188.084 13.7599C192.684 8.20985 195.484 9.58985 195.224 5.60985C194.914 0.71985 180.874 -2.06015 181.304 6.53985C181.374 7.90985 181.064 12.6698 180.344 16.1098C179.514 20.0498 178.484 22.0298 176.574 25.7498C175.554 27.7298 173.964 28.9099 174.834 30.5299" fill="#B9CFE3"/>
<path d="M174.494 33.6599C166.734 34.5099 158.534 33.9699 151.734 30.1299C150.174 29.2499 148.674 28.1599 147.764 26.6199C146.854 25.0799 146.664 23.0099 147.704 21.5499C149.064 19.6299 151.894 19.4599 154.144 20.1499C158.054 21.3399 161.074 24.3799 164.044 27.1799C167.014 29.9799 170.364 32.7899 174.424 33.2999" fill="#B9CFE3"/>
<path d="M174.724 33.5497C178.794 32.9397 182.934 32.9897 187.034 32.7197C191.134 32.4497 195.304 31.8497 199.004 30.0397C202.704 28.2397 205.914 25.0797 206.954 21.0997C207.994 17.1197 206.444 12.3697 202.814 10.4197C200.304 9.06968 197.144 9.18968 194.564 10.4197C191.984 11.6497 189.964 13.8597 188.624 16.3797C186.814 19.7797 186.134 23.7197 184.084 26.9797C181.804 30.6097 177.824 33.1197 173.564 33.6297" fill="#B9CFE3"/>
<path d="M173.904 32.4696C171.954 32.4396 170.334 31.0296 168.884 29.7196C163.624 24.9796 158.064 20.5696 152.254 16.5196C151.714 16.1396 151.144 15.7396 150.884 15.1296C150.474 14.1996 150.954 13.0696 151.764 12.4496C152.574 11.8296 153.614 11.6396 154.624 11.5696C158.864 11.2596 163.324 12.9896 165.804 16.4496C167.694 19.0896 168.294 22.4096 169.564 25.3996C170.674 27.9996 172.304 30.3796 174.344 32.3396" fill="#B9CFE3"/>
<path d="M167.884 31.12C168.264 32.94 170.224 33.72 170.614 33.95C171.084 34.22 171.624 34.33 172.154 34.43C173.684 34.72 175.264 35.02 176.804 34.76C178.864 34.42 180.624 33.14 182.274 31.87C182.744 31.51 183.214 31.14 183.594 30.68C183.664 30.6 183.724 30.51 183.784 30.43C184.074 30.02 183.574 29.51 183.164 29.8C182.684 30.14 182.204 30.49 181.704 30.79C180.814 31.32 179.774 31.69 178.754 31.51C178.684 31.5 178.614 31.48 178.594 31.39C178.584 31.33 178.594 31.27 178.634 31.22C179.314 30.32 180.204 29.55 180.654 28.52C180.784 28.23 180.874 27.9 180.764 27.58C180.724 27.47 180.664 27.37 180.574 27.3C180.224 27.02 179.784 27.25 179.494 27.53C178.904 28.11 178.614 28.92 178.104 29.56C177.674 30.11 177.084 30.53 176.424 30.76C176.284 30.81 176.144 30.85 176.004 30.82C175.764 30.77 175.604 30.52 175.574 30.28C175.544 30.04 175.624 29.79 175.694 29.56L176.434 27.22C176.494 27.04 176.494 26.84 176.434 26.66C176.304 26.31 176.024 26.3 175.774 26.33C175.184 26.41 174.644 26.77 174.334 27.27C173.914 27.94 173.904 28.82 173.314 29.38C173.204 29.48 173.064 29.55 172.914 29.55C172.564 29.54 172.434 29.19 172.394 28.88C172.254 27.93 172.494 26.92 172.154 26.02C171.714 24.85 170.344 24.21 169.104 24.36C168.774 24.4 168.454 24.49 168.164 24.66C167.584 25.02 167.264 25.72 167.254 26.4C167.244 27.04 167.784 30.48 167.904 31.09L167.884 31.12Z" fill="#2A3C57"/>
<path d="M96.6122 118.134C96.4202 117.186 95.6402 115.962 93.6362 115.962C92.0522 115.962 90.7442 117.138 90.7442 118.566C90.7442 119.838 91.6082 120.69 92.9042 120.954L94.1042 121.206C94.8362 121.362 95.2442 121.806 95.2442 122.358C95.2442 123.018 94.7162 123.534 93.6962 123.534C92.4722 123.534 91.8362 122.718 91.7522 121.83L90.4082 122.214C90.5402 123.438 91.5362 124.83 93.6962 124.83C95.6402 124.83 96.7082 123.57 96.7082 122.25C96.7082 121.05 95.9042 120.102 94.4042 119.802L93.1802 119.55C92.5202 119.406 92.1842 118.998 92.1842 118.458C92.1842 117.81 92.7842 117.234 93.6482 117.234C94.7882 117.234 95.2322 118.014 95.3162 118.542L96.6122 118.134Z" fill="white"/>
<path d="M101.677 124.002C101.677 124.242 101.701 124.518 101.725 124.65H103.057C103.033 124.434 102.997 124.062 102.997 123.582V118.806H101.605V122.262C101.605 123.03 101.185 123.57 100.381 123.57C99.5409 123.57 99.2049 122.958 99.2049 122.238V118.806H97.8129V122.49C97.8129 123.786 98.6289 124.818 100.021 124.818C100.705 124.818 101.389 124.53 101.677 124.002Z" fill="white"/>
<path d="M106.179 126.93V123.99C106.479 124.434 107.115 124.794 107.955 124.794C109.635 124.794 110.703 123.474 110.703 121.722C110.703 119.994 109.731 118.674 108.003 118.674C107.103 118.674 106.431 119.094 106.143 119.598V118.806H104.799V126.93H106.179ZM109.311 121.722C109.311 122.838 108.663 123.558 107.739 123.558C106.827 123.558 106.167 122.838 106.167 121.722C106.167 120.63 106.827 119.91 107.739 119.91C108.675 119.91 109.311 120.63 109.311 121.722Z" fill="white"/>
<path d="M115.461 118.77C115.401 118.758 115.257 118.734 115.089 118.734C114.321 118.734 113.673 119.106 113.397 119.742V118.806H112.041V124.65H113.433V121.866C113.433 120.774 113.925 120.15 115.005 120.15C115.149 120.15 115.305 120.162 115.461 120.186V118.77Z" fill="white"/>
<path d="M117.536 121.086C117.584 120.462 118.088 119.79 118.964 119.79C119.924 119.79 120.38 120.402 120.404 121.086H117.536ZM120.56 122.61C120.368 123.186 119.936 123.63 119.096 123.63C118.232 123.63 117.536 122.994 117.5 122.106H121.772C121.784 122.082 121.808 121.89 121.808 121.662C121.808 119.814 120.752 118.626 118.952 118.626C117.476 118.626 116.108 119.85 116.108 121.698C116.108 123.678 117.512 124.83 119.096 124.83C120.5 124.83 121.424 124.002 121.736 122.982L120.56 122.61Z" fill="white"/>
<path d="M124.518 124.65V121.182C124.518 120.438 124.986 119.886 125.73 119.886C126.522 119.886 126.858 120.414 126.858 121.086V124.65H128.226V121.182C128.226 120.462 128.706 119.886 129.438 119.886C130.218 119.886 130.566 120.402 130.566 121.086V124.65H131.91V120.858C131.91 119.31 130.902 118.638 129.846 118.638C129.09 118.638 128.406 118.902 127.95 119.67C127.638 118.986 126.966 118.638 126.198 118.638C125.538 118.638 124.806 118.95 124.47 119.55V118.806H123.138V124.65H124.518Z" fill="white"/>
<path d="M134.587 121.086C134.635 120.462 135.139 119.79 136.015 119.79C136.975 119.79 137.431 120.402 137.455 121.086H134.587ZM137.611 122.61C137.419 123.186 136.987 123.63 136.147 123.63C135.283 123.63 134.587 122.994 134.551 122.106H138.823C138.835 122.082 138.859 121.89 138.859 121.662C138.859 119.814 137.803 118.626 136.003 118.626C134.527 118.626 133.159 119.85 133.159 121.698C133.159 123.678 134.563 124.83 136.147 124.83C137.551 124.83 138.475 124.002 138.787 122.982L137.611 122.61Z" fill="white"/>
<path d="M141.581 124.65V115.962H140.189V124.65H141.581Z" fill="white"/>
<path d="M145.153 127.014L148.873 118.806H147.397L145.825 122.502L144.145 118.806H142.573L145.069 123.954L143.665 127.014H145.153Z" fill="white"/>
<path d="M158.581 118.134C158.389 117.186 157.609 115.962 155.605 115.962C154.021 115.962 152.713 117.138 152.713 118.566C152.713 119.838 153.577 120.69 154.873 120.954L156.073 121.206C156.805 121.362 157.213 121.806 157.213 122.358C157.213 123.018 156.685 123.534 155.665 123.534C154.441 123.534 153.805 122.718 153.721 121.83L152.377 122.214C152.509 123.438 153.505 124.83 155.665 124.83C157.609 124.83 158.677 123.57 158.677 122.25C158.677 121.05 157.873 120.102 156.373 119.802L155.149 119.55C154.489 119.406 154.153 118.998 154.153 118.458C154.153 117.81 154.753 117.234 155.617 117.234C156.757 117.234 157.201 118.014 157.285 118.542L158.581 118.134Z" fill="white"/>
<path d="M162.539 123.582C161.687 123.582 160.907 122.934 160.907 121.722C160.907 120.51 161.687 119.886 162.539 119.886C163.403 119.886 164.171 120.51 164.171 121.722C164.171 122.946 163.403 123.582 162.539 123.582ZM162.539 118.626C160.799 118.626 159.515 119.934 159.515 121.722C159.515 123.522 160.799 124.83 162.539 124.83C164.291 124.83 165.575 123.522 165.575 121.722C165.575 119.934 164.291 118.626 162.539 118.626Z" fill="white"/>
<path d="M169.512 117.15C169.776 117.15 169.932 117.186 170.016 117.21V116.022C169.92 115.974 169.632 115.902 169.284 115.902C168.084 115.902 167.244 116.694 167.244 118.002V118.806H166.224V120.018H167.244V124.65H168.648V120.018H170.004V118.806H168.648V118.038C168.648 117.318 169.14 117.15 169.512 117.15Z" fill="white"/>
<path d="M173.02 117.018H171.76V117.894C171.76 118.41 171.484 118.806 170.86 118.806H170.56V120.042H171.64V122.982C171.64 124.074 172.312 124.722 173.392 124.722C173.896 124.722 174.16 124.626 174.244 124.59V123.438C174.184 123.45 173.956 123.486 173.764 123.486C173.248 123.486 173.02 123.27 173.02 122.754V120.042H174.232V118.806H173.02V117.018Z" fill="white"/>
<path d="M179.695 120.39C179.695 118.338 181.111 117.318 182.539 117.318C183.979 117.318 185.395 118.338 185.395 120.39C185.395 122.442 183.979 123.462 182.539 123.462C181.111 123.462 179.695 122.442 179.695 120.39ZM178.219 120.39C178.219 123.186 180.307 124.83 182.539 124.83C184.771 124.83 186.871 123.186 186.871 120.39C186.871 117.606 184.771 115.962 182.539 115.962C180.307 115.962 178.219 117.606 178.219 120.39Z" fill="white"/>
<path d="M191.691 118.77C191.631 118.758 191.487 118.734 191.319 118.734C190.551 118.734 189.903 119.106 189.627 119.742V118.806H188.271V124.65H189.663V121.866C189.663 120.774 190.155 120.15 191.235 120.15C191.379 120.15 191.535 120.162 191.691 120.186V118.77Z" fill="white"/>
<path d="M192.375 124.974C192.531 126.15 193.611 127.11 195.159 127.11C197.355 127.11 198.159 125.658 198.159 124.098V118.806H196.815V119.55C196.563 119.07 195.999 118.698 195.087 118.698C193.479 118.698 192.387 119.982 192.387 121.542C192.387 123.186 193.527 124.386 195.087 124.386C195.939 124.386 196.527 123.99 196.779 123.534V124.146C196.779 125.334 196.227 125.898 195.123 125.898C194.319 125.898 193.755 125.358 193.659 124.638L192.375 124.974ZM195.315 123.198C194.403 123.198 193.791 122.562 193.791 121.542C193.791 120.546 194.427 119.898 195.315 119.898C196.179 119.898 196.815 120.546 196.815 121.542C196.815 122.55 196.203 123.198 195.315 123.198Z" fill="white"/>
<path d="M199.443 123.066C199.443 123.99 200.199 124.83 201.423 124.83C202.371 124.83 202.947 124.35 203.223 123.906C203.223 124.374 203.271 124.614 203.283 124.65H204.579C204.567 124.59 204.507 124.242 204.507 123.714V120.81C204.507 119.646 203.823 118.626 202.023 118.626C200.583 118.626 199.671 119.526 199.563 120.534L200.835 120.822C200.895 120.234 201.303 119.766 202.035 119.766C202.803 119.766 203.139 120.162 203.139 120.654C203.139 120.858 203.043 121.026 202.707 121.074L201.207 121.302C200.211 121.446 199.443 122.022 199.443 123.066ZM201.687 123.738C201.135 123.738 200.835 123.378 200.835 122.982C200.835 122.502 201.183 122.262 201.615 122.19L203.139 121.962V122.226C203.139 123.366 202.467 123.738 201.687 123.738Z" fill="white"/>
<path d="M207.581 121.278C207.581 120.51 208.001 119.898 208.793 119.898C209.669 119.898 209.993 120.474 209.993 121.194V124.65H211.385V120.954C211.385 119.67 210.701 118.638 209.273 118.638C208.625 118.638 207.929 118.914 207.545 119.586V118.806H206.189V124.65H207.581V121.278Z" fill="white"/>
<path d="M214.46 124.65V118.806H213.08V124.65H214.46ZM212.864 116.754C212.864 117.258 213.272 117.654 213.764 117.654C214.268 117.654 214.676 117.258 214.676 116.754C214.676 116.25 214.268 115.842 213.764 115.842C213.272 115.842 212.864 116.25 212.864 116.754Z" fill="white"/>
<path d="M218.8 119.91C219.688 119.91 220.084 120.486 220.216 121.002L221.464 120.546C221.224 119.61 220.36 118.626 218.788 118.626C217.108 118.626 215.8 119.922 215.8 121.722C215.8 123.498 217.108 124.83 218.824 124.83C220.36 124.83 221.236 123.834 221.512 122.922L220.288 122.478C220.156 122.922 219.736 123.558 218.824 123.558C217.948 123.558 217.192 122.898 217.192 121.722C217.192 120.546 217.948 119.91 218.8 119.91Z" fill="white"/>
<path d="M229.624 124.83C231.796 124.83 233.092 123.45 233.476 122.01L232.156 121.578C231.868 122.538 231.052 123.45 229.624 123.45C228.172 123.45 226.804 122.394 226.804 120.402C226.804 118.338 228.208 117.318 229.612 117.318C231.04 117.318 231.832 118.146 232.084 119.178L233.44 118.722C233.056 117.234 231.772 115.962 229.612 115.962C227.404 115.962 225.328 117.63 225.328 120.402C225.328 123.174 227.332 124.83 229.624 124.83Z" fill="white"/>
<path d="M237.175 123.582C236.323 123.582 235.543 122.934 235.543 121.722C235.543 120.51 236.323 119.886 237.175 119.886C238.039 119.886 238.807 120.51 238.807 121.722C238.807 122.946 238.039 123.582 237.175 123.582ZM237.175 118.626C235.435 118.626 234.151 119.934 234.151 121.722C234.151 123.522 235.435 124.83 237.175 124.83C238.927 124.83 240.211 123.522 240.211 121.722C240.211 119.934 238.927 118.626 237.175 118.626Z" fill="white"/>
<path d="M243.285 117.018H242.025V117.894C242.025 118.41 241.749 118.806 241.125 118.806H240.825V120.042H241.905V122.982C241.905 124.074 242.577 124.722 243.657 124.722C244.161 124.722 244.425 124.626 244.509 124.59V123.438C244.449 123.45 244.221 123.486 244.029 123.486C243.513 123.486 243.285 123.27 243.285 122.754V120.042H244.497V118.806H243.285V117.018Z" fill="white"/>
<path d="M247.668 117.018H246.408V117.894C246.408 118.41 246.132 118.806 245.508 118.806H245.208V120.042H246.288V122.982C246.288 124.074 246.96 124.722 248.04 124.722C248.544 124.722 248.808 124.626 248.892 124.59V123.438C248.832 123.45 248.604 123.486 248.412 123.486C247.896 123.486 247.668 123.27 247.668 122.754V120.042H248.88V118.806H247.668V117.018Z" fill="white"/>
<path d="M252.82 123.582C251.968 123.582 251.188 122.934 251.188 121.722C251.188 120.51 251.968 119.886 252.82 119.886C253.684 119.886 254.452 120.51 254.452 121.722C254.452 122.946 253.684 123.582 252.82 123.582ZM252.82 118.626C251.08 118.626 249.796 119.934 249.796 121.722C249.796 123.522 251.08 124.83 252.82 124.83C254.572 124.83 255.856 123.522 255.856 121.722C255.856 119.934 254.572 118.626 252.82 118.626Z" fill="white"/>
<path d="M258.593 121.278C258.593 120.51 259.013 119.898 259.805 119.898C260.681 119.898 261.005 120.474 261.005 121.194V124.65H262.397V120.954C262.397 119.67 261.713 118.638 260.285 118.638C259.637 118.638 258.941 118.914 258.557 119.586V118.806H257.201V124.65H258.593V121.278Z" fill="white"/>
</svg>
