<svg width="407" height="136" viewBox="0 0 407 136" fill="none" xmlns="http://www.w3.org/2000/svg">
<path d="M91.2153 97.78C91.0953 97.78 90.9853 97.78 90.8653 97.78C86.5153 97.57 83.6153 96.19 81.9953 92.73C80.2353 88.99 80.0553 85.23 82.5753 81.8C86.3853 76.62 92.0253 74.47 97.8053 72.12C100.205 71.1 102.715 72.79 101.305 74.77C100.575 75.49 99.8953 75.63 98.9853 76.14C96.5753 77.5 93.3953 78.69 91.1353 80.28C89.6153 81.35 87.1153 82.9 86.1753 84.51C84.1153 88.04 84.9853 92.99 89.0253 93.36C90.8953 93.53 95.3553 92.89 97.2353 92.61C98.9153 92.36 100.555 91.79 102.235 91.54C102.745 91.46 103.585 91.47 103.805 92.21C103.925 93.39 103.575 93.94 103.065 94.3C99.3153 97 94.9253 97.52 91.2053 97.77L91.2153 97.78Z" fill="black"/>
<path d="M134.065 82.4802C133.915 81.9902 132.975 81.4802 132.355 81.4402C132.025 81.4202 131.685 81.4102 131.345 81.4202C131.325 81.4202 131.315 81.4202 131.295 81.4202C130.605 81.4302 129.895 81.4802 129.115 81.5502C128.105 81.6402 127.925 81.3202 127.905 80.8802C127.905 80.6302 127.925 80.3702 127.935 80.1202C127.955 79.7402 127.965 79.3702 127.985 79.0202C127.985 78.8502 127.995 78.6802 128.005 78.5102C128.005 78.2202 128.015 77.9302 128.015 77.6502C128.015 77.5202 128.015 77.3802 128.015 77.2402C128.015 76.8402 127.985 76.4402 127.945 76.0502C127.855 75.2202 127.185 74.0902 126.485 73.8102C125.835 73.5502 125.865 73.6102 125.285 74.1702C119.805 79.5302 114.395 84.9702 109.035 90.4402C108.065 91.4302 107.305 92.6502 106.555 93.8302C105.875 94.9002 104.265 96.5902 105.415 97.4102C106.585 98.2502 107.635 97.4902 108.465 96.4702C109.485 95.2102 110.655 94.0602 111.555 92.7202C111.705 92.4902 111.865 92.2702 112.035 92.0702C112.095 92.0002 112.145 91.9402 112.205 91.8802C112.315 91.7502 112.425 91.6202 112.545 91.5002C112.615 91.4302 112.685 91.3602 112.755 91.3002C112.865 91.2002 112.965 91.1002 113.085 91.0002C113.165 90.9302 113.245 90.8702 113.315 90.8102C113.425 90.7202 113.535 90.6402 113.645 90.5602C113.725 90.5002 113.805 90.4502 113.895 90.3902C114.005 90.3202 114.125 90.2502 114.235 90.1802C114.315 90.1302 114.405 90.0802 114.485 90.0402C114.605 89.9802 114.725 89.9202 114.845 89.8602C114.935 89.8202 115.015 89.7802 115.105 89.7402C115.235 89.6902 115.355 89.6402 115.485 89.5902C115.565 89.5602 115.655 89.5202 115.735 89.4902C115.875 89.4402 116.015 89.4002 116.155 89.3502C116.235 89.3302 116.305 89.3002 116.385 89.2802C116.555 89.2302 116.735 89.1902 116.915 89.1402C116.965 89.1302 117.005 89.1202 117.055 89.1102C117.275 89.0602 117.505 89.0102 117.735 88.9702C117.805 88.9602 117.865 88.9502 117.935 88.9402C118.095 88.9102 118.265 88.8802 118.425 88.8602C118.515 88.8502 118.605 88.8302 118.705 88.8202C118.845 88.8002 118.995 88.7802 119.135 88.7602C119.235 88.7502 119.345 88.7302 119.445 88.7202C119.585 88.7002 119.725 88.6902 119.855 88.6702C119.965 88.6602 120.085 88.6402 120.205 88.6302C120.355 88.6102 120.505 88.6002 120.645 88.5802L120.935 88.5502C121.685 88.4702 122.315 89.0902 122.255 89.8402C122.245 90.0202 122.225 90.1902 122.195 90.3702C122.195 90.4202 122.185 90.4702 122.175 90.5302C122.135 90.7502 122.095 90.9802 122.055 91.2002C122.035 91.2802 122.025 91.3602 122.005 91.4302C121.965 91.6302 121.925 91.8202 121.875 92.0202C121.835 92.2302 121.785 92.4302 121.745 92.6402C121.745 92.6702 121.735 92.7002 121.725 92.7402C121.685 92.9602 121.655 93.1802 121.625 93.4002C121.625 93.4602 121.615 93.5202 121.605 93.5802C121.585 93.7502 121.575 93.9302 121.575 94.1002C121.575 94.1602 121.575 94.2202 121.575 94.2802C121.575 94.5002 121.595 94.7302 121.635 94.9502C121.635 94.9802 121.655 95.0102 121.655 95.0502C121.695 95.2402 121.745 95.4302 121.805 95.6202C121.815 95.6502 121.815 95.6902 121.835 95.7202C121.835 95.7502 121.865 95.7702 121.875 95.7902C121.935 95.9302 121.995 96.0802 122.065 96.2202C122.305 96.6902 122.945 96.8002 123.345 96.4602C123.475 96.3502 123.595 96.2402 123.695 96.1302C123.705 96.1202 123.725 96.1102 123.735 96.0902C123.735 96.0902 123.735 96.0802 123.735 96.0702C123.835 95.9502 123.925 95.8302 123.985 95.7002C124.805 93.7102 125.635 91.7102 126.225 89.6402C126.695 87.9502 127.335 86.7502 129.205 86.2502C130.635 85.8702 132.005 85.1002 133.275 84.2902C133.775 83.9702 134.255 82.9602 134.095 82.4702L134.065 82.4802ZM120.245 84.8802C120.175 84.8602 120.145 84.7702 120.195 84.7102L122.115 82.8302L123.965 81.0302C124.025 80.9702 124.125 81.0202 124.135 81.1002C124.385 84.9302 123.185 85.6602 120.245 84.8802Z" fill="black"/>
<path d="M153.075 86.3503C154.885 85.6303 156.035 84.7703 156.995 83.7003C157.315 83.3503 157.555 82.9303 157.895 82.6003C159.435 81.1303 161.285 81.4003 162.225 83.2203C163.155 85.0103 163.105 86.9403 162.925 88.8203C162.715 91.0303 162.215 93.2103 161.785 95.4003C161.725 95.7203 161.495 96.1903 161.105 96.2703C160.565 96.4003 160.155 95.7503 160.115 95.4403C159.845 93.4403 159.605 91.4303 159.525 89.4103C159.485 88.3203 159.775 87.2203 159.205 85.9303C158.175 86.6203 157.305 87.2703 156.375 87.8303C155.475 88.3703 154.565 88.9403 153.575 89.3003C151.415 90.0703 150.285 89.3503 150.155 87.2403C150.005 84.8903 149.855 82.5303 149.685 80.1803C149.635 79.5503 149.515 78.9303 149.435 78.3103C148.235 78.2603 147.865 78.9903 147.395 79.5103C144.665 82.5303 142.675 85.9503 141.065 89.5403C140.065 91.7803 139.185 94.0803 138.215 96.3403C137.955 96.9403 137.685 97.5803 137.235 98.0603C136.765 98.5603 136.095 98.8503 135.305 98.3903C134.615 97.9903 134.265 97.4503 134.495 96.7303C136.105 91.7703 137.745 86.8103 140.725 82.3303C141.845 80.6503 142.985 78.9603 144.355 77.4503C145.295 76.4203 146.525 75.5003 147.835 74.8903C149.695 74.0203 151.335 74.6103 152.015 76.4103C152.605 77.9903 152.865 79.7103 153.045 81.3803C153.215 82.9203 153.085 84.4803 153.085 86.3603L153.075 86.3503Z" fill="black"/>
<path d="M189.805 78.7103C189.365 83.2403 185.955 86.3803 180.855 89.0303C180.255 89.3403 179.295 89.4903 178.455 89.6003C177.505 89.7203 176.545 89.5003 176.365 88.9403C176.225 88.5103 176.445 87.9903 176.785 87.5803C176.995 87.3203 177.745 87.2103 178.185 87.0003C182.465 84.9403 185.385 82.4703 185.575 79.1803C185.595 78.7903 185.635 78.3903 185.475 78.0203C184.885 76.6403 183.055 76.2803 181.065 77.1803C178.505 78.3303 177.125 79.9203 176.035 81.6003C174.525 83.9203 174.135 86.3503 174.015 88.7903C173.845 92.5003 173.615 96.2103 172.505 99.8803C172.275 100.64 172.065 101.42 171.575 102.13C170.945 103.04 169.275 103.12 168.445 102.28C167.965 101.79 167.645 101.08 167.885 100.56C169.975 95.9403 169.255 91.1903 170.105 86.5203C170.625 83.6403 171.435 80.8003 174.045 78.2403C175.695 76.6203 177.745 75.2403 180.975 74.5603C183.795 73.9603 187.225 74.6403 188.475 76.1903C189.225 77.1303 189.535 78.1703 189.815 78.7103H189.805Z" fill="black"/>
<path d="M196.025 97.32C192.185 97.34 190.665 95.49 191.835 91.56C192.515 89.29 193.935 87.25 195.215 85.25C195.925 84.14 197.095 83.39 197.955 82.38C200.355 79.54 203.195 79.13 206.185 81.27C208.455 82.9 209.025 85.73 207.755 89.13C205.805 94.38 201.635 97.29 196.035 97.32H196.025ZM202.165 86.01C199.415 86.49 197.745 87.99 196.745 90.74C196.505 91.39 196.935 92.12 197.585 92.14C200.705 92.22 202.425 90.96 203.445 87.68C203.725 86.79 203.015 85.87 202.175 86.02L202.165 86.01Z" fill="black"/>
<path d="M224.195 93.4802C225.305 93.9702 226.375 94.4402 227.405 94.8902C230.535 93.5402 231.245 92.4602 230.685 89.7102C230.335 87.9702 229.825 86.2602 229.435 84.5202C228.145 78.7802 231.355 73.9002 237.835 71.7702C239.095 71.3602 240.365 71.0302 241.585 71.9802C242.965 73.0602 243.005 73.7602 241.515 74.6802C240.515 75.3002 239.515 75.9402 238.425 76.4302C234.115 78.3602 233.535 81.5102 234.295 85.1002C234.595 86.5202 235.015 87.9202 235.305 89.3502C235.745 91.5302 235.765 93.6702 234.185 95.6202C232.275 97.9802 228.645 98.7902 225.845 97.4402C223.915 96.5102 223.525 95.6702 224.195 93.4902V93.4802Z" fill="black"/>
<path d="M293.775 85.0801C296.765 84.0901 299.735 83.0701 302.735 82.1201C303.795 81.7801 304.885 81.5801 305.975 81.3401C307.005 81.1101 307.765 81.4701 308.285 82.3501C306.495 84.8001 296.125 89.0801 292.485 88.7901C292.485 89.7101 292.415 90.6301 292.495 91.5201C292.745 94.1001 294.825 95.1901 297.095 93.8701C297.965 93.3701 298.675 92.6001 299.435 91.9101C300.115 91.2901 300.955 90.8301 301.605 91.6101C301.925 92.0001 301.785 93.0101 301.525 93.5901C300.515 95.8301 298.735 97.2701 296.375 97.9401C292.765 98.9601 289.725 97.1201 289.215 93.3901C288.315 86.8701 289.955 81.2301 295.545 77.2301C297.045 76.1501 298.665 75.2001 300.335 74.4101C301.325 73.9401 302.635 73.1601 303.545 74.6301C304.195 75.6901 303.635 76.7601 302.035 77.7401C301.005 78.3701 299.865 78.8601 298.935 79.6101C297.015 81.1801 295.215 82.8901 293.365 84.5401C293.505 84.7201 293.635 84.9001 293.775 85.0801V85.0801Z" fill="black"/>
<path d="M265.865 88.9804C266.195 90.1904 267.715 92.4704 268.845 91.9204C271.345 90.7104 273.865 88.1304 275.675 86.4504C277.945 84.3304 279.915 81.3404 282.245 79.2804C283.335 78.3204 284.505 77.6604 285.725 78.2304C286.655 78.6604 287.055 79.7704 286.765 80.7504C286.595 81.3304 286.385 81.9104 286.005 82.3204C281.685 87.0104 278.655 89.3804 273.935 94.4304C273.465 94.9304 272.595 95.6104 271.995 95.9504C265.665 99.4804 262.955 97.5604 261.505 91.4304C261.395 90.9604 261.285 90.5004 261.075 89.6304C260.985 89.2704 260.555 89.1304 260.275 89.3704C259.115 90.3704 258.215 91.2104 257.215 91.9204C254.315 93.9904 251.475 96.1804 248.375 97.8904C247.315 98.4704 245.305 98.1804 244.145 97.5404C242.625 96.7004 242.785 94.8804 243.395 93.3304C245.435 88.1204 247.415 82.8904 249.645 77.7604C249.775 77.4604 250.055 77.2204 250.405 77.0204C251.615 76.3104 253.255 76.9004 253.585 78.2604C253.625 78.4404 253.645 78.6104 253.615 78.7804C253.185 81.5204 251.105 86.9104 250.305 90.2604C250.255 91.4104 251.155 90.9604 251.765 90.3304C254.395 88.8104 258.675 82.9704 261.185 80.4504C261.935 79.7004 263.075 77.8804 264.495 77.7204C264.555 77.7204 266.245 77.3504 266.155 79.5804C266.045 81.5604 265.365 87.1604 265.865 88.9804V88.9804Z" fill="black"/>
<path d="M336.315 82.7502C336.165 82.2602 335.225 81.7502 334.605 81.7102C334.275 81.6902 333.935 81.6802 333.595 81.6902C333.575 81.6902 333.565 81.6902 333.545 81.6902C332.855 81.7002 332.145 81.7502 331.365 81.8202C330.355 81.9102 330.175 81.5902 330.155 81.1502C330.155 80.9002 330.175 80.6402 330.185 80.3902C330.205 80.0102 330.215 79.6402 330.235 79.2902C330.235 79.1202 330.245 78.9502 330.255 78.7802C330.255 78.4902 330.265 78.2002 330.265 77.9202C330.265 77.7902 330.265 77.6502 330.265 77.5102C330.265 77.1102 330.235 76.7102 330.195 76.3202C330.105 75.4902 329.435 74.3602 328.735 74.0802C328.085 73.8202 328.115 73.8802 327.535 74.4402C322.055 79.8002 316.645 85.2402 311.285 90.7102C310.315 91.7002 309.555 92.9202 308.805 94.1002C308.125 95.1702 306.515 96.8602 307.665 97.6802C308.835 98.5202 309.885 97.7602 310.715 96.7402C311.735 95.4802 312.905 94.3302 313.805 92.9902C313.955 92.7602 314.115 92.5402 314.285 92.3402C314.345 92.2702 314.395 92.2102 314.455 92.1502C314.565 92.0202 314.675 91.8902 314.795 91.7702C314.865 91.7002 314.935 91.6302 315.005 91.5702C315.115 91.4702 315.215 91.3702 315.335 91.2702C315.415 91.2002 315.495 91.1402 315.565 91.0802C315.675 90.9902 315.785 90.9102 315.895 90.8302C315.975 90.7702 316.055 90.7202 316.145 90.6602C316.255 90.5902 316.375 90.5202 316.485 90.4502C316.565 90.4002 316.655 90.3502 316.735 90.3102C316.855 90.2502 316.975 90.1902 317.095 90.1302C317.185 90.0902 317.265 90.0502 317.355 90.0102C317.485 89.9602 317.605 89.9102 317.735 89.8602C317.815 89.8302 317.905 89.7902 317.985 89.7602C318.125 89.7102 318.265 89.6702 318.405 89.6202C318.485 89.6002 318.555 89.5702 318.635 89.5502C318.805 89.5002 318.985 89.4602 319.165 89.4102C319.215 89.4002 319.255 89.3902 319.305 89.3802C319.525 89.3302 319.755 89.2802 319.985 89.2402C320.055 89.2302 320.115 89.2202 320.185 89.2102C320.345 89.1802 320.515 89.1502 320.675 89.1302C320.765 89.1202 320.855 89.1002 320.955 89.0902C321.095 89.0702 321.245 89.0502 321.385 89.0302C321.485 89.0202 321.595 89.0002 321.695 88.9902C321.835 88.9702 321.975 88.9602 322.105 88.9402C322.215 88.9302 322.335 88.9102 322.455 88.9002C322.605 88.8802 322.755 88.8702 322.895 88.8502L323.185 88.8202C323.935 88.7402 324.565 89.3602 324.505 90.1102C324.495 90.2902 324.475 90.4602 324.445 90.6402C324.445 90.6902 324.435 90.7402 324.425 90.8002C324.385 91.0202 324.345 91.2502 324.305 91.4702C324.285 91.5502 324.275 91.6302 324.255 91.7002C324.215 91.9002 324.175 92.0902 324.125 92.2902C324.085 92.5002 324.035 92.7002 323.995 92.9102C323.995 92.9402 323.985 92.9702 323.975 93.0102C323.935 93.2302 323.905 93.4502 323.875 93.6702C323.875 93.7302 323.865 93.7902 323.855 93.8502C323.835 94.0202 323.825 94.2002 323.825 94.3702C323.825 94.4302 323.825 94.4902 323.825 94.5502C323.825 94.7702 323.845 95.0002 323.885 95.2202C323.885 95.2502 323.905 95.2802 323.905 95.3202C323.945 95.5102 323.995 95.7002 324.055 95.8902C324.065 95.9202 324.065 95.9602 324.085 95.9902C324.085 96.0202 324.115 96.0402 324.125 96.0602C324.185 96.2002 324.245 96.3502 324.315 96.4902C324.555 96.9602 325.195 97.0702 325.595 96.7302C325.725 96.6202 325.845 96.5102 325.945 96.4002C325.955 96.3902 325.975 96.3802 325.985 96.3602C325.985 96.3602 325.985 96.3502 325.985 96.3402C326.085 96.2202 326.175 96.1002 326.235 95.9702C327.055 93.9802 327.885 91.9802 328.475 89.9102C328.945 88.2202 329.585 87.0202 331.455 86.5202C332.885 86.1402 334.255 85.3702 335.525 84.5602C336.025 84.2402 336.505 83.2302 336.345 82.7402L336.315 82.7502ZM322.495 85.1502C322.425 85.1302 322.395 85.0402 322.445 84.9802L324.365 83.1002L326.215 81.3002C326.275 81.2402 326.375 81.2902 326.385 81.3702C326.635 85.2002 325.435 85.9302 322.495 85.1502V85.1502Z" fill="black"/>
<path d="M346.445 98.1303C344.265 98.2403 343.675 96.8603 343.865 95.2003C344.215 92.1803 344.755 89.1803 345.375 86.2203C345.655 84.9003 346.325 83.6903 347.025 81.8903C345.415 82.1403 344.265 82.4103 343.105 82.4903C341.975 82.5603 340.815 82.4303 340.565 80.7603C340.335 79.2203 340.765 77.9803 342.015 77.2203C342.305 77.0403 342.645 76.9603 342.955 76.8603C349.255 74.7503 355.655 73.4103 362.215 73.3303C362.765 73.3303 363.405 73.2703 363.835 73.5603C364.345 73.9003 364.945 74.5503 365.005 75.1403C365.065 75.7103 364.635 76.6803 364.195 76.9603C363.235 77.5503 362.145 77.9103 361.075 78.1903C358.805 78.7803 356.525 79.2703 354.235 79.7703C352.835 80.0803 352.005 80.9603 351.255 82.4603C348.865 87.3003 347.325 92.4503 346.435 98.1403L346.445 98.1303Z" fill="black"/>
<path d="M370.875 85.0801C373.865 84.0901 376.835 83.0701 379.835 82.1201C380.895 81.7801 381.985 81.5801 383.075 81.3401C384.105 81.1101 384.865 81.4701 385.385 82.3501C383.595 84.8001 373.225 89.0801 369.585 88.7901C369.585 89.7101 369.515 90.6301 369.595 91.5201C369.845 94.1001 371.925 95.1901 374.195 93.8701C375.065 93.3701 375.775 92.6001 376.535 91.9101C377.215 91.2901 378.055 90.8301 378.705 91.6101C379.025 92.0001 378.885 93.0101 378.625 93.5901C377.615 95.8301 375.835 97.2701 373.475 97.9401C369.865 98.9601 366.825 97.1201 366.315 93.3901C365.415 86.8701 367.055 81.2301 372.645 77.2301C374.145 76.1501 375.765 75.2001 377.435 74.4101C378.425 73.9401 379.735 73.1601 380.645 74.6301C381.295 75.6901 380.735 76.7601 379.135 77.7401C378.105 78.3701 376.965 78.8601 376.035 79.6101C374.115 81.1801 372.315 82.8901 370.465 84.5401C370.605 84.7201 370.735 84.9001 370.875 85.0801V85.0801Z" fill="black"/>
<path d="M399.516 87.2004C399.146 87.6704 399.176 88.3504 399.566 88.8004C401.586 91.1604 404.726 90.9204 406.916 92.5104C404.556 95.4404 403.156 95.3704 395.546 91.1504C394.906 90.7904 394.106 91.1204 393.886 91.8404C393.526 92.9804 393.186 94.1004 392.696 95.1604C392.106 96.4604 391.486 97.8804 389.696 98.0504C389.156 98.1004 388.666 97.7304 388.496 97.1904C388.276 96.4504 388.016 95.6804 388.166 94.9904C389.166 90.1104 390.036 85.1604 391.576 80.4504C392.526 77.5604 394.566 75.5804 396.926 74.7004C403.776 72.1504 406.516 76.0304 402.776 82.5204C402.486 83.0204 402.186 83.5004 401.886 83.9804C401.176 85.1204 400.326 86.1604 399.516 87.1804V87.2004ZM397.026 83.8804C398.266 82.5204 399.986 81.4404 399.776 79.0004C395.936 79.0004 396.126 82.6304 397.026 83.8804Z" fill="black"/>
<path d="M35.2851 86.0101C32.0051 86.3501 29.1951 86.8801 26.7351 87.9101C26.0351 88.2001 25.7551 89.0001 25.4551 89.6301C24.3151 92.0001 23.2451 94.3901 22.1351 96.7601C22.0151 97.0201 21.8651 97.2701 21.6551 97.4901C21.0251 98.1301 20.1151 98.5801 18.9251 98.1201C17.7151 97.6501 18.0551 96.7901 18.2551 96.1601C19.9851 90.5201 21.7551 84.8901 23.5451 79.2701C23.9951 77.8501 25.0151 77.4001 26.5251 77.8201C28.0551 78.2501 28.7151 79.3401 28.3351 80.7301C28.2151 81.1701 28.0351 81.5901 28.0051 82.0701C27.9551 82.9401 27.1151 83.9101 28.2851 83.8401C29.9151 83.7401 33.2551 83.4601 34.7951 83.3601C36.4751 83.2501 37.1451 82.5201 37.4451 81.3701C37.8451 79.8101 38.4351 78.2901 39.1051 76.8101C39.6951 75.5201 40.5651 75.1801 41.7651 75.5101C43.1251 75.8801 44.1151 77.1601 43.6551 78.2801C42.6851 80.6301 41.7451 83.0101 40.4351 85.2401C38.7751 88.0601 37.6951 91.0401 37.2651 94.1801C36.9151 96.0201 36.6751 97.1801 36.4351 97.9301C36.0251 99.1901 33.3151 98.7801 33.1151 97.4301C33.0051 96.6501 33.1151 95.7801 33.1351 95.0701C33.1951 92.3401 33.9451 89.8001 34.9851 87.3101C35.1151 87.0001 35.1451 86.6601 35.2851 86.0101V86.0101Z" fill="black"/>
<path d="M51.5951 85.7203C54.5851 84.7303 57.5551 83.7103 60.5551 82.7603C61.6151 82.4203 62.7051 82.2203 63.7951 81.9803C64.8251 81.7503 65.5851 82.1103 66.1051 82.9903C64.3151 85.4403 53.9451 89.7203 50.3051 89.4303C50.3051 90.3503 50.2351 91.2703 50.3151 92.1603C50.5651 94.7403 52.6451 95.8303 54.9151 94.5103C55.7851 94.0103 56.4951 93.2403 57.2551 92.5503C57.9351 91.9303 58.7751 91.4703 59.4251 92.2503C59.7451 92.6403 59.6051 93.6503 59.3451 94.2303C58.3351 96.4703 56.5551 97.9103 54.1951 98.5803C50.5851 99.6003 47.5451 97.7603 47.0351 94.0303C46.1351 87.5103 47.7751 81.8703 53.3651 77.8703C54.8651 76.7903 56.4851 75.8403 58.1551 75.0503C59.1451 74.5803 60.4551 73.8003 61.3651 75.2703C62.0151 76.3303 61.4551 77.4003 59.8551 78.3803C58.8251 79.0103 57.6851 79.5003 56.7551 80.2503C54.8351 81.8203 53.0351 83.5303 51.1851 85.1803C51.3251 85.3603 51.4551 85.5403 51.5951 85.7203V85.7203Z" fill="black"/>
<path d="M6.22527 98.0801C4.18527 98.2601 3.57527 96.9801 3.69527 95.4301C3.91527 92.5901 4.31527 89.7501 4.79527 86.9501C5.00527 85.7101 5.59527 84.5501 6.18527 82.8301C4.68527 83.1301 3.61527 83.4201 2.53527 83.5301C1.47527 83.6401 0.385272 83.5601 0.0852723 82.0001C-0.184728 80.5701 0.175272 79.3801 1.32527 78.6301C1.59527 78.4601 1.90527 78.3701 2.19527 78.2601C8.03527 76.0601 13.9853 74.5701 20.1353 74.2701C20.6453 74.2401 21.2453 74.1701 21.6653 74.4201C22.1553 74.7201 22.7353 75.3101 22.8153 75.8601C22.8953 76.4001 22.5253 77.3201 22.1153 77.6001C21.2353 78.1901 20.2253 78.5601 19.2253 78.8601C17.1153 79.4901 14.9953 80.0401 12.8653 80.5801C11.5553 80.9201 10.8153 81.7701 10.1653 83.2101C8.09527 87.8401 6.83527 92.7201 6.20527 98.0901L6.22527 98.0801Z" fill="black"/>
<path d="M188.845 7.42994C185.315 9.05994 183.135 12.8099 182.385 16.6199C181.635 20.4299 182.125 24.3799 182.635 28.2299C182.975 30.8299 183.345 33.4799 184.405 35.8699C185.345 37.9899 186.795 39.8299 188.285 41.5999C189.945 43.5799 191.675 45.5299 193.745 47.0699C195.815 48.6099 198.265 49.7399 200.845 49.8799C201.665 49.9199 202.575 49.8299 203.145 49.2399C203.745 48.6199 203.775 47.6299 203.565 46.7899C202.895 44.1399 200.485 42.3399 198.315 40.6699C185.045 30.4499 188.645 17.8999 188.935 15.7199C190.165 6.56994 188.845 7.39994 188.845 7.39994V7.42994Z" fill="#B9CFE3"/>
<path d="M191.365 7.23995C193.165 12.41 191.955 18.93 192.605 25.05C192.765 26.58 192.955 28.11 193.455 29.56C194.125 31.47 195.315 33.14 196.505 34.78C198.205 37.13 199.925 39.47 201.725 41.75C202.815 43.14 203.945 44.51 205.355 45.58C206.765 46.65 208.495 47.37 210.255 47.28C210.445 47.28 210.655 47.24 210.795 47.11C210.995 46.93 210.985 46.62 210.945 46.36C210.565 43.87 208.335 42.15 206.345 40.61C203.865 38.68 201.455 36.57 199.775 33.91C197.375 30.11 196.645 25.49 196.455 20.99C196.265 16.49 196.525 11.97 195.875 7.51995C195.735 6.54995 195.505 5.50995 194.755 4.88995C194.045 4.28995 192.925 4.23995 192.165 4.76995C191.405 5.29995 191.055 6.35995 191.365 7.22995" fill="#B9CFE3"/>
<path d="M197.295 5.17009C197.475 8.79009 197.665 12.4001 197.845 16.0201C198.065 20.2901 198.295 24.6401 199.815 28.6401C201.105 32.0301 203.255 35.0201 205.505 37.8701C206.835 39.5601 208.255 41.2501 210.145 42.2701C211.195 42.8301 212.365 43.1701 213.545 43.2401C213.945 43.2701 214.375 43.2501 214.705 43.0201C215.295 42.5901 215.205 41.6701 214.945 40.9901C214.345 39.4301 213.225 38.1401 212.145 36.8601C207.325 31.1701 202.805 24.7401 201.925 17.3301C201.515 13.8901 201.925 10.4001 201.675 6.94009C201.605 5.91009 201.465 4.84009 200.905 3.96009C200.345 3.08009 199.295 2.45009 198.285 2.69009C197.275 2.93009 196.635 4.29009 197.285 5.10009" fill="#B9CFE3"/>
<path d="M203.045 2.43013C205.505 8.62013 204.435 15.7101 206.425 22.0701C207.215 24.6101 208.485 26.9701 209.735 29.3101C211.395 32.4001 213.075 35.5301 215.495 38.0701C216.195 38.8101 217.165 39.5401 218.135 39.2501C219.365 38.8901 219.605 37.2401 219.395 35.9701C218.645 31.5501 215.415 28.0401 213.225 24.1301C211.885 21.7201 210.925 19.1301 209.965 16.5401C209.295 14.7201 208.625 12.8901 208.255 10.9901C207.665 7.92013 207.815 4.52013 205.935 2.02013C205.375 1.27013 204.495 0.610126 203.585 0.810126C202.675 1.01013 202.315 2.55013 203.195 2.85013" fill="#B9CFE3"/>
<path d="M207.795 1.27C212.135 6.45 211.515 14.1 214.115 20.34C215.705 24.16 218.485 27.4 220.005 31.25C220.245 31.87 220.465 32.52 220.915 33.02C221.365 33.52 222.095 33.83 222.705 33.55C223.255 33.3 223.515 32.68 223.705 32.11C226.615 23.52 224.295 13.38 217.945 6.9C217.165 6.1 216.325 5.35 215.635 4.47C215.085 3.76 214.635 2.98 214.035 2.31C212.785 0.89 210.915 0.02 209.015 0C208.525 0 207.995 0.06 207.645 0.4C207.295 0.74 207.275 1.43 207.715 1.65" fill="#B9CFE3"/>
<path d="M130.316 132.222C130.436 132.162 130.676 132.09 131.048 132.09C131.708 132.09 132.428 132.474 132.428 133.374C132.428 134.082 131.9 134.694 130.952 134.694C130.088 134.694 129.44 134.082 129.404 133.182L128 133.47C128.096 134.766 129.164 135.93 130.964 135.93C132.812 135.93 133.88 134.718 133.88 133.386C133.88 131.886 132.716 131.046 131.552 131.022L133.664 129.174V127.974H128.264V129.234H131.804L129.656 131.154L130.316 132.222Z" fill="black"/>
<path d="M136.757 134.43V128.562H138.281C139.757 128.562 140.969 129.522 140.969 131.514C140.969 133.482 139.745 134.43 138.269 134.43H136.757ZM138.317 135.75C140.621 135.75 142.469 134.238 142.469 131.514C142.469 128.778 140.645 127.242 138.329 127.242H135.317V135.75H138.317Z" fill="black"/>
<path d="M152.174 135.75H153.986L150.506 130.998L153.95 127.242H152.054L148.394 131.322V127.242H146.954V135.75H148.394V133.302L149.522 132.066L152.174 135.75Z" fill="black"/>
<path d="M156.289 132.378C156.289 131.61 156.709 130.998 157.501 130.998C158.377 130.998 158.701 131.574 158.701 132.294V135.75H160.093V132.054C160.093 130.77 159.409 129.738 157.981 129.738C157.333 129.738 156.637 130.014 156.253 130.686V129.906H154.897V135.75H156.289V132.378Z" fill="black"/>
<path d="M163.167 135.75V129.906H161.787V135.75H163.167ZM161.571 127.854C161.571 128.358 161.979 128.754 162.471 128.754C162.975 128.754 163.383 128.358 163.383 127.854C163.383 127.35 162.975 126.942 162.471 126.942C161.979 126.942 161.571 127.35 161.571 127.854Z" fill="black"/>
<path d="M166.727 128.118H165.467V128.994C165.467 129.51 165.191 129.906 164.567 129.906H164.267V131.142H165.347V134.082C165.347 135.174 166.019 135.822 167.099 135.822C167.603 135.822 167.867 135.726 167.951 135.69V134.538C167.891 134.55 167.663 134.586 167.471 134.586C166.955 134.586 166.727 134.37 166.727 133.854V131.142H167.939V129.906H166.727V128.118Z" fill="black"/>
<path d="M173.906 135.75V127.242H172.442V135.75H173.906Z" fill="black"/>
<path d="M177.59 128.118H176.33V128.994C176.33 129.51 176.054 129.906 175.43 129.906H175.13V131.142H176.21V134.082C176.21 135.174 176.882 135.822 177.962 135.822C178.466 135.822 178.73 135.726 178.814 135.69V134.538C178.754 134.55 178.526 134.586 178.334 134.586C177.818 134.586 177.59 134.37 177.59 133.854V131.142H178.802V129.906H177.59V128.118Z" fill="black"/>
<path d="M179.884 134.166C179.884 135.09 180.64 135.93 181.864 135.93C182.812 135.93 183.388 135.45 183.664 135.006C183.664 135.474 183.712 135.714 183.724 135.75H185.02C185.008 135.69 184.948 135.342 184.948 134.814V131.91C184.948 130.746 184.264 129.726 182.464 129.726C181.024 129.726 180.112 130.626 180.004 131.634L181.276 131.922C181.336 131.334 181.744 130.866 182.476 130.866C183.244 130.866 183.58 131.262 183.58 131.754C183.58 131.958 183.484 132.126 183.148 132.174L181.648 132.402C180.652 132.546 179.884 133.122 179.884 134.166ZM182.128 134.838C181.576 134.838 181.276 134.478 181.276 134.082C181.276 133.602 181.624 133.362 182.056 133.29L183.58 133.062V133.326C183.58 134.466 182.908 134.838 182.128 134.838Z" fill="black"/>
<path d="M188.023 135.75V127.062H186.631V135.75H188.023Z" fill="black"/>
<path d="M191.198 135.75V129.906H189.818V135.75H191.198ZM189.602 127.854C189.602 128.358 190.01 128.754 190.502 128.754C191.006 128.754 191.414 128.358 191.414 127.854C191.414 127.35 191.006 126.942 190.502 126.942C190.01 126.942 189.602 127.35 189.602 127.854Z" fill="black"/>
<path d="M192.634 134.166C192.634 135.09 193.39 135.93 194.614 135.93C195.562 135.93 196.138 135.45 196.414 135.006C196.414 135.474 196.462 135.714 196.474 135.75H197.77C197.758 135.69 197.698 135.342 197.698 134.814V131.91C197.698 130.746 197.014 129.726 195.214 129.726C193.774 129.726 192.862 130.626 192.754 131.634L194.026 131.922C194.086 131.334 194.494 130.866 195.226 130.866C195.994 130.866 196.33 131.262 196.33 131.754C196.33 131.958 196.234 132.126 195.898 132.174L194.398 132.402C193.402 132.546 192.634 133.122 192.634 134.166ZM194.878 134.838C194.326 134.838 194.026 134.478 194.026 134.082C194.026 133.602 194.374 133.362 194.806 133.29L196.33 133.062V133.326C196.33 134.466 195.658 134.838 194.878 134.838Z" fill="black"/>
<path d="M200.773 132.378C200.773 131.61 201.193 130.998 201.985 130.998C202.861 130.998 203.185 131.574 203.185 132.294V135.75H204.577V132.054C204.577 130.77 203.893 129.738 202.465 129.738C201.817 129.738 201.121 130.014 200.737 130.686V129.906H199.381V135.75H200.773V132.378Z" fill="black"/>
<path d="M218.728 135.75V127.242H216.772L214.048 133.734L211.288 127.242H209.368V135.75H210.772V129.51L213.4 135.75H214.648L217.3 129.486V135.75H218.728Z" fill="black"/>
<path d="M221.599 132.186C221.647 131.562 222.151 130.89 223.027 130.89C223.987 130.89 224.443 131.502 224.467 132.186H221.599ZM224.623 133.71C224.431 134.286 223.999 134.73 223.159 134.73C222.295 134.73 221.599 134.094 221.563 133.206H225.835C225.847 133.182 225.871 132.99 225.871 132.762C225.871 130.914 224.815 129.726 223.015 129.726C221.539 129.726 220.171 130.95 220.171 132.798C220.171 134.778 221.575 135.93 223.159 135.93C224.563 135.93 225.487 135.102 225.799 134.082L224.623 133.71Z" fill="black"/>
<path d="M230.621 129.87C230.561 129.858 230.417 129.834 230.249 129.834C229.481 129.834 228.833 130.206 228.557 130.842V129.906H227.201V135.75H228.593V132.966C228.593 131.874 229.085 131.25 230.165 131.25C230.309 131.25 230.465 131.262 230.621 131.286V129.87Z" fill="black"/>
<path d="M233.163 135.75V129.906H231.783V135.75H233.163ZM231.567 127.854C231.567 128.358 231.975 128.754 232.467 128.754C232.971 128.754 233.379 128.358 233.379 127.854C233.379 127.35 232.971 126.942 232.467 126.942C231.975 126.942 231.567 127.35 231.567 127.854Z" fill="black"/>
<path d="M236.351 132.378C236.351 131.61 236.771 130.998 237.563 130.998C238.439 130.998 238.763 131.574 238.763 132.294V135.75H240.155V132.054C240.155 130.77 239.471 129.738 238.043 129.738C237.395 129.738 236.699 130.014 236.315 130.686V129.906H234.959V135.75H236.351V132.378Z" fill="black"/>
<path d="M244.418 134.682C243.566 134.682 242.786 134.034 242.786 132.822C242.786 131.61 243.566 130.986 244.418 130.986C245.282 130.986 246.05 131.61 246.05 132.822C246.05 134.046 245.282 134.682 244.418 134.682ZM244.418 129.726C242.678 129.726 241.394 131.034 241.394 132.822C241.394 134.622 242.678 135.93 244.418 135.93C246.17 135.93 247.454 134.622 247.454 132.822C247.454 131.034 246.17 129.726 244.418 129.726Z" fill="black"/>
<path d="M259.768 133.506L257.74 127.242H256.24L254.248 133.458L252.544 127.242H251.032L253.444 135.75H254.92L256.984 129.318L259.048 135.75H260.536L262.924 127.242H261.436L259.768 133.506Z" fill="black"/>
<path d="M266.097 134.682C265.245 134.682 264.465 134.034 264.465 132.822C264.465 131.61 265.245 130.986 266.097 130.986C266.961 130.986 267.729 131.61 267.729 132.822C267.729 134.046 266.961 134.682 266.097 134.682ZM266.097 129.726C264.357 129.726 263.073 131.034 263.073 132.822C263.073 134.622 264.357 135.93 266.097 135.93C267.849 135.93 269.133 134.622 269.133 132.822C269.133 131.034 267.849 129.726 266.097 129.726Z" fill="black"/>
<path d="M273.047 134.682C272.195 134.682 271.415 134.034 271.415 132.822C271.415 131.61 272.195 130.986 273.047 130.986C273.911 130.986 274.679 131.61 274.679 132.822C274.679 134.046 273.911 134.682 273.047 134.682ZM273.047 129.726C271.307 129.726 270.023 131.034 270.023 132.822C270.023 134.622 271.307 135.93 273.047 135.93C274.799 135.93 276.083 134.622 276.083 132.822C276.083 131.034 274.799 129.726 273.047 129.726Z" fill="black"/>
<path d="M278.82 135.75V127.062H277.428V135.75H278.82Z" fill="black"/>
</svg>
