<svg width="150px" height="99px" viewBox="0 0 150 99" version="1.1" xmlns="http://www.w3.org/2000/svg" xmlns:xlink="http://www.w3.org/1999/xlink">
    <title>SHOP NOW</title>
    <g stroke="none" stroke-width="1" fill="none" fill-rule="evenodd">
        <g id="cta-frame" fill="#FEFEFE">
            <path d="M60.2743,94.4801 C44.3243,82.7711 28.6763,70.6901 13.8493,57.5671 C9.5513,53.7641 4.9443,50.3081 0.4793,46.6921 C0.0063,46.1321 -0.3067,45.5391 0.4793,44.7121 C10.2763,37.3511 21.2253,31.8721 31.7173,25.6421 C47.4913,16.2761 82.2153,0.3001 83.2853,0.0001 C105.9933,14.3831 129.0093,28.4741 149.4793,48.3701 C148.1113,49.0911 147.1903,49.4701 146.3863,50.0191 C137.9373,55.7871 129.7493,61.9811 121.0083,67.2691 C110.0113,73.9231 98.5773,79.8601 87.3123,86.0721 C80.5403,89.8071 65.4953,98.3811 64.8633,98.3811 C64.1713,98.3811 61.2883,95.2251 60.2743,94.4801" id="Fill-1"></path>
        </g>
    </g>
</svg>