<svg width="150px" height="99px" viewBox="0 0 150 99" version="1.1" xmlns="http://www.w3.org/2000/svg" xmlns:xlink="http://www.w3.org/1999/xlink">
    <title>SHOP NOW</title>
    <defs>
        <polygon id="path-1" points="9.09324096e-05 0.0004 149.479 0.0004 149.479 98.3811 9.09324096e-05 98.3811"></polygon>
    </defs>
    <g stroke="none" stroke-width="1" fill="none" fill-rule="evenodd">
        <g id="cta-frame">
            <mask id="mask-2" fill="white">
                <use xlink:href="#path-1"></use>
            </mask>
            <g id="Clip-2"></g>
            <path d="M65.7713,94.2081 C74.3313,89.6171 82.4863,84.9091 90.9253,80.7841 C108.4953,72.1981 124.8953,61.7581 140.7463,50.3971 C142.0063,49.4941 143.1353,48.4081 144.4353,47.3131 C139.5473,43.3051 135.1713,39.5381 130.6113,36.0071 C116.6293,25.1841 101.7233,15.7031 86.9203,6.0621 C83.3993,3.7691 80.5733,3.6701 76.8683,5.4701 C55.1733,16.0111 34.0203,27.5211 13.4113,40.0341 C10.6343,41.7191 7.9543,43.5601 4.7553,45.6351 C24.4093,63.1801 44.3333,79.3581 65.7713,94.2081 M60.2743,94.4801 C44.3243,82.7711 28.6763,70.6901 13.8493,57.5671 C9.5513,53.7641 4.9443,50.3081 0.4793,46.6921 C0.0063,46.1321 -0.3067,45.5391 0.4793,44.7121 C10.2763,37.3511 21.2253,31.8721 31.7173,25.6421 C47.4913,16.2761 82.2153,0.3001 83.2853,0.0001 C105.9933,14.3831 129.0093,28.4741 149.4793,48.3701 C148.1113,49.0911 147.1903,49.4701 146.3863,50.0191 C137.9373,55.7871 129.7493,61.9811 121.0083,67.2691 C110.0113,73.9231 98.5773,79.8601 87.3123,86.0721 C80.5403,89.8071 65.4953,98.3811 64.8633,98.3811 C64.1713,98.3811 61.2883,95.2251 60.2743,94.4801" id="Fill-1" fill="#FEFEFE" mask="url(#mask-2)"></path>
        </g>
    </g>
</svg>