<svg width="331" height="49" viewBox="0 0 331 49" fill="none" xmlns="http://www.w3.org/2000/svg">
<g clip-path="url(#clip0_14_309)">
<path d="M5.84987 13.8001C9.49987 12.5901 13.1299 11.3501 16.7999 10.1801C18.0899 9.77006 19.4299 9.52006 20.7599 9.23006C22.0199 8.95006 22.9499 9.39006 23.5799 10.4701C21.3899 13.4601 8.72987 18.6901 4.27987 18.3301C4.27987 19.4601 4.18987 20.5701 4.29987 21.6701C4.60987 24.8201 7.14987 26.1501 9.91987 24.5401C10.9799 23.9301 11.8499 22.9801 12.7699 22.1501C13.5999 21.4001 14.6199 20.8301 15.4199 21.7801C15.8099 22.2501 15.6399 23.4901 15.3199 24.2001C14.0799 26.9301 11.9099 28.7001 9.02987 29.5101C4.62987 30.7501 0.909871 28.5101 0.289871 23.9501C-0.810129 15.9901 1.17987 9.10006 8.00987 4.22006C9.84987 2.91006 11.8199 1.74006 13.8599 0.780062C15.0699 0.210062 16.6699 -0.749938 17.7799 1.05006C18.5799 2.34006 17.8899 3.65006 15.9299 4.85006C14.6699 5.62006 13.2799 6.21006 12.1499 7.14006C9.80987 9.06006 7.60987 11.1401 5.34987 13.1601C5.51987 13.3801 5.67987 13.6001 5.84987 13.8101V13.8001Z" fill="white"/>
<path d="M259.16 13.8001C262.81 12.5901 266.44 11.3501 270.11 10.1801C271.4 9.77005 272.74 9.52005 274.07 9.23005C275.33 8.95005 276.26 9.39005 276.89 10.4701C274.7 13.4601 262.04 18.6901 257.59 18.3301C257.59 19.4601 257.5 20.5701 257.61 21.6701C257.92 24.8201 260.46 26.1501 263.23 24.5401C264.29 23.9301 265.16 22.9801 266.08 22.1501C266.91 21.4001 267.93 20.8301 268.73 21.7801C269.12 22.2501 268.95 23.4901 268.63 24.2001C267.39 26.9301 265.22 28.7001 262.34 29.5101C257.94 30.7501 254.22 28.5101 253.6 23.9501C252.51 15.9901 254.5 9.10005 261.33 4.21005C263.17 2.90005 265.14 1.73005 267.18 0.770052C268.39 0.200052 269.99 -0.759948 271.1 1.04005C271.9 2.33005 271.21 3.64005 269.25 4.84005C267.99 5.61005 266.6 6.20005 265.47 7.13005C263.13 9.05005 260.93 11.1301 258.67 13.1501C258.84 13.3701 259 13.5901 259.17 13.8001H259.16Z" fill="white"/>
<path d="M163.87 21.0499C165.3 20.9599 166.23 23.1799 165.28 24.5199C165.28 24.5199 165.28 24.5299 165.27 24.5399C162.54 28.2899 159 29.8499 155.1 29.8599C151.33 29.8599 147.19 25.5899 149.29 19.4199C151.19 13.8299 153.69 8.54994 156.04 3.21994C156.35 2.51994 157.5 1.82994 158.02 2.04994C159 2.40994 159.12 3.70994 159.03 4.48994C158.83 6.20994 158.33 7.91994 157.76 9.51994C156.5 13.0599 154.98 16.4599 153.82 20.0499C152.88 22.9499 153.48 24.1299 155.89 23.9499C157.59 23.8199 159.28 22.9499 160.93 22.2499C161.9 21.8399 162.83 21.1299 163.88 21.0599L163.87 21.0499Z" fill="white"/>
<path d="M58.7202 11.1899C58.5302 10.5899 57.3902 9.96991 56.6302 9.91991C56.2202 9.88991 55.8102 9.88991 55.3902 9.88991C55.3702 9.88991 55.3502 9.88991 55.3302 9.88991C54.4902 9.89991 53.6202 9.96991 52.6702 10.0499C51.4402 10.1599 51.2202 9.76991 51.2002 9.22991C51.2102 8.91991 51.2202 8.59991 51.2302 8.30991C51.2502 7.84991 51.2702 7.39991 51.2902 6.96991C51.2902 6.75991 51.3102 6.54991 51.3102 6.34991C51.3202 5.98991 51.3202 5.63991 51.3202 5.29991C51.3202 5.13991 51.3202 4.96991 51.3202 4.80991C51.3102 4.31991 51.2902 3.83991 51.2302 3.35991C51.1202 2.34991 50.3002 0.97991 49.4502 0.62991C48.6502 0.30991 48.6902 0.37991 47.9902 1.06991C41.3102 7.60991 34.7202 14.2399 28.1702 20.9099C26.9902 22.1199 26.0602 23.5999 25.1502 25.0499C24.3302 26.3599 22.3602 28.4099 23.7602 29.4199C25.1902 30.4499 26.4702 29.5099 27.4702 28.2699C28.7102 26.7299 30.1402 25.3299 31.2402 23.6899C31.4302 23.4099 31.6202 23.1499 31.8202 22.8999C31.8902 22.8199 31.9602 22.7399 32.0302 22.6599C32.1702 22.4999 32.3002 22.3399 32.4402 22.1999C32.5202 22.1099 32.6102 22.0299 32.7002 21.9499C32.8302 21.8299 32.9602 21.6999 33.1002 21.5899C33.1902 21.5099 33.2902 21.4399 33.3802 21.3599C33.5102 21.2599 33.6502 21.1499 33.7802 21.0599C33.8802 20.9899 33.9802 20.9199 34.0802 20.8599C34.2202 20.7699 34.3602 20.6899 34.5002 20.5999C34.6002 20.5399 34.7102 20.4799 34.8102 20.4299C34.9502 20.3499 35.1002 20.2799 35.2502 20.2099C35.3502 20.1599 35.4602 20.1099 35.5602 20.0599C35.7102 19.9899 35.8702 19.9299 36.0202 19.8699C36.1202 19.8299 36.2202 19.7899 36.3302 19.7499C36.5002 19.6899 36.6702 19.6399 36.8402 19.5899C36.9302 19.5599 37.0302 19.5299 37.1202 19.4999C37.3302 19.4399 37.5502 19.3899 37.7602 19.3299C37.8202 19.3199 37.8702 19.2999 37.9302 19.2899C38.2002 19.2299 38.4802 19.1699 38.7602 19.1199C38.8402 19.1099 38.9202 19.0899 39.0002 19.0799C39.2002 19.0399 39.4002 19.0099 39.6002 18.9799C39.7102 18.9599 39.8202 18.9499 39.9402 18.9299C40.1102 18.9099 40.2902 18.8799 40.4602 18.8599C40.5802 18.8399 40.7102 18.8299 40.8402 18.8099C41.0102 18.7899 41.1802 18.7699 41.3502 18.7499C41.4902 18.7299 41.6302 18.7199 41.7702 18.6999C41.9502 18.6799 42.1302 18.6599 42.3102 18.6399C42.4702 18.6199 42.6302 18.6099 42.7902 18.5899C43.6202 18.4999 44.3402 19.1799 44.2802 20.0199C44.2802 20.0699 44.2802 20.1299 44.2702 20.1799C44.2502 20.3999 44.2302 20.6099 44.2002 20.8299C44.2002 20.8899 44.1802 20.9599 44.1702 21.0199C44.1302 21.2899 44.0702 21.5699 44.0202 21.8399C44.0002 21.9299 43.9802 22.0299 43.9602 22.1199C43.9102 22.3599 43.8602 22.5999 43.8102 22.8299C43.7602 23.0799 43.7002 23.3299 43.6602 23.5799C43.6602 23.6199 43.6402 23.6599 43.6402 23.6999C43.5902 23.9699 43.5502 24.2399 43.5202 24.4999C43.5202 24.5699 43.5102 24.6499 43.5002 24.7199C43.4802 24.9299 43.4702 25.1399 43.4702 25.3499C43.4702 25.4199 43.4702 25.4999 43.4702 25.5699C43.4702 25.8399 43.4902 26.1099 43.5402 26.3799C43.5402 26.4199 43.5602 26.4599 43.5702 26.4999C43.6102 26.7299 43.6802 26.9699 43.7502 27.1999C43.7602 27.2399 43.7702 27.2799 43.7802 27.3199C43.7902 27.3499 43.8102 27.3799 43.8302 27.4099C43.9802 27.7899 44.1702 28.1599 44.4302 28.5399C44.5902 28.7699 44.9202 28.8299 45.1402 28.6399C45.4802 28.3399 45.8102 28.0899 46.0602 27.8199C46.0802 27.7999 46.0902 27.7899 46.1102 27.7799C46.1102 27.7799 46.1102 27.7699 46.1202 27.7599C46.2502 27.6199 46.3502 27.4699 46.4202 27.2999C47.4302 24.8699 48.4402 22.4299 49.1502 19.9099C49.7302 17.8599 50.5002 16.3899 52.7902 15.7799C54.5402 15.3099 56.2102 14.3699 57.7502 13.3899C58.3602 12.9999 58.9402 11.7699 58.7502 11.1699L58.7202 11.1899ZM41.6602 14.0599L44.1602 11.6199L46.6002 9.23991C46.9902 14.2399 45.4802 15.1199 41.6702 14.0599H41.6602Z" fill="white"/>
<path d="M209.52 11.9699C209.33 11.3699 208.19 10.7499 207.43 10.6999C207.02 10.6699 206.61 10.6699 206.19 10.6699C206.17 10.6699 206.15 10.6699 206.13 10.6699C205.29 10.6799 204.42 10.7499 203.47 10.8299C202.24 10.9399 202.02 10.5499 202 10.0099C202.01 9.69994 202.02 9.37994 202.03 9.08994C202.05 8.62994 202.07 8.17994 202.09 7.74994C202.09 7.53994 202.11 7.32994 202.11 7.12994C202.12 6.76994 202.12 6.41994 202.12 6.07994C202.12 5.91994 202.12 5.74994 202.12 5.58994C202.11 5.09994 202.09 4.61994 202.03 4.13994C201.92 3.12994 201.1 1.75994 200.25 1.40994C199.45 1.08994 199.49 1.15994 198.79 1.84994C192.11 8.38994 185.52 15.0199 178.97 21.6899C177.79 22.8999 176.86 24.3799 175.95 25.8299C175.13 27.1399 173.16 29.1899 174.56 30.1999C175.99 31.2299 177.27 30.2899 178.27 29.0499C179.51 27.5099 180.94 26.1099 182.04 24.4699C182.23 24.1899 182.42 23.9299 182.62 23.6799C182.69 23.5999 182.76 23.5199 182.83 23.4399C182.97 23.2799 183.1 23.1199 183.24 22.9799C183.32 22.8899 183.41 22.8099 183.5 22.7299C183.63 22.6099 183.76 22.4799 183.9 22.3699C183.99 22.2899 184.09 22.2199 184.18 22.1399C184.31 22.0399 184.45 21.9299 184.58 21.8399C184.68 21.7699 184.78 21.6999 184.88 21.6399C185.02 21.5499 185.16 21.4699 185.3 21.3799C185.4 21.3199 185.51 21.2599 185.61 21.2099C185.75 21.1299 185.9 21.0599 186.05 20.9899C186.15 20.9399 186.26 20.8899 186.36 20.8399C186.51 20.7699 186.67 20.7099 186.82 20.6499C186.92 20.6099 187.02 20.5699 187.13 20.5299C187.3 20.4699 187.47 20.4199 187.64 20.3699C187.73 20.3399 187.83 20.3099 187.92 20.2799C188.13 20.2199 188.35 20.1699 188.56 20.1099C188.62 20.0999 188.67 20.0799 188.73 20.0699C189 20.0099 189.28 19.9499 189.56 19.8999C189.64 19.8899 189.72 19.8699 189.8 19.8599C190 19.8199 190.2 19.7899 190.4 19.7599C190.51 19.7399 190.62 19.7299 190.74 19.7099C190.91 19.6899 191.09 19.6599 191.26 19.6399C191.38 19.6199 191.51 19.6099 191.64 19.5899C191.81 19.5699 191.98 19.5499 192.15 19.5299C192.29 19.5099 192.43 19.4999 192.57 19.4799C192.75 19.4599 192.93 19.4399 193.11 19.4199C193.27 19.3999 193.43 19.3899 193.59 19.3699C194.42 19.2799 195.14 19.9599 195.08 20.7999C195.08 20.8499 195.08 20.9099 195.07 20.9599C195.05 21.1799 195.03 21.3899 195 21.6099C195 21.6699 194.98 21.7399 194.97 21.7999C194.93 22.0699 194.87 22.3499 194.82 22.6199C194.8 22.7099 194.78 22.8099 194.76 22.8999C194.71 23.1399 194.66 23.3799 194.61 23.6099C194.56 23.8599 194.5 24.1099 194.46 24.3599C194.46 24.3999 194.44 24.4399 194.44 24.4799C194.39 24.7499 194.35 25.0199 194.32 25.2799C194.32 25.3499 194.31 25.4299 194.3 25.4999C194.28 25.7099 194.27 25.9199 194.27 26.1299C194.27 26.1999 194.27 26.2799 194.27 26.3499C194.27 26.6199 194.29 26.8899 194.34 27.1599C194.34 27.1999 194.36 27.2399 194.37 27.2799C194.41 27.5099 194.48 27.7499 194.55 27.9799C194.56 28.0199 194.57 28.0599 194.58 28.0999C194.59 28.1299 194.61 28.1599 194.63 28.1899C194.78 28.5699 194.97 28.9399 195.23 29.3199C195.39 29.5499 195.72 29.6099 195.94 29.4199C196.28 29.1199 196.61 28.8699 196.86 28.5999C196.88 28.5799 196.89 28.5699 196.91 28.5599C196.91 28.5599 196.91 28.5499 196.92 28.5399C197.05 28.3999 197.15 28.2499 197.22 28.0799C198.23 25.6499 199.24 23.2099 199.95 20.6899C200.53 18.6399 201.3 17.1699 203.59 16.5599C205.34 16.0899 207.01 15.1499 208.55 14.1699C209.16 13.7799 209.74 12.5499 209.55 11.9499L209.52 11.9699ZM192.46 14.8399L194.96 12.3999L197.4 10.0199C197.79 15.0199 196.28 15.8999 192.47 14.8399H192.46Z" fill="white"/>
<path d="M95.9602 5.01991L94.4602 13.8999C94.2802 14.9699 95.1802 15.9099 96.2602 15.7899C97.8702 15.6099 99.3102 15.4599 100.6 14.9499C104.9 13.2599 109.05 11.1599 113.3 9.34991C114.22 8.95991 115.74 8.59991 116.28 9.05991C117.09 9.73991 117.66 11.1699 117.63 12.2599C117.59 13.5999 116.99 15.0099 116.34 16.2399C112.21 23.9199 108.17 31.6599 103.74 39.1699C101.83 42.3999 99.1402 45.1999 96.6302 48.0399C96.0502 48.6899 94.5102 49.2299 93.8302 48.9099C92.2002 48.1499 93.0902 46.7599 93.7202 45.6799C97.3302 39.4899 101.03 33.3499 104.57 27.1199C105.92 24.7499 107.11 22.2899 108.32 19.8399C108.95 18.5599 107.76 17.1399 106.39 17.5499C104.61 18.0799 102.83 18.6099 101.03 19.0799C99.1302 19.5699 97.2002 20.1299 95.2602 20.3499C91.1102 20.8299 88.0902 17.8199 88.5702 13.6599C89.0302 9.69991 90.2802 6.19991 93.2402 3.55991C94.3902 2.52991 96.2002 3.50991 95.9402 5.02991L95.9602 5.01991Z" fill="white"/>
<path d="M63.7998 24.65C64.8898 25.14 65.9298 25.6 66.9398 26.05C69.9998 24.71 70.6898 23.64 70.1398 20.89C69.7998 19.16 69.2998 17.45 68.9198 15.73C67.6598 10.02 70.7998 5.16001 77.1198 3.04001C78.3498 2.63001 79.5898 2.30001 80.7798 3.25001C82.1198 4.32001 82.1598 5.02001 80.7198 5.94001C79.7398 6.56001 78.7698 7.20001 77.6998 7.68001C73.4898 9.60001 72.9198 12.73 73.6698 16.31C73.9598 17.72 74.3698 19.12 74.6498 20.54C75.0798 22.71 75.0998 24.84 73.5598 26.78C71.6998 29.13 68.1498 29.94 65.4198 28.59C63.5298 27.66 63.1598 26.83 63.8098 24.65H63.7998Z" fill="white"/>
<path d="M224.31 3.68006L222.81 12.5601C222.63 13.6301 223.53 14.5701 224.61 14.4501C226.22 14.2701 227.66 14.1201 228.95 13.6101C233.25 11.9201 237.4 9.82007 241.65 8.01007C242.57 7.62007 244.09 7.26006 244.63 7.72006C245.44 8.40006 246.01 9.83006 245.98 10.9201C245.94 12.2601 245.34 13.6701 244.69 14.9001C240.56 22.5801 236.52 30.3201 232.09 37.8301C230.18 41.0601 227.49 43.8601 224.98 46.7001C224.4 47.3501 222.86 47.8901 222.18 47.5701C220.55 46.8101 221.44 45.4201 222.07 44.3401C225.68 38.1501 229.38 32.0101 232.92 25.7801C234.27 23.4101 235.46 20.9501 236.67 18.5001C237.3 17.2201 236.11 15.8001 234.74 16.2101C232.96 16.7401 231.18 17.2701 229.38 17.7401C227.48 18.2301 225.55 18.7901 223.61 19.0101C219.46 19.4901 216.44 16.4801 216.92 12.3201C217.38 8.36006 218.63 4.86007 221.59 2.22006C222.74 1.19006 224.55 2.17006 224.29 3.69006L224.31 3.68006Z" fill="white"/>
<path d="M299.54 13.8199C298.25 15.3899 296.71 16.7299 295.34 18.1099C297.15 22.4199 301.58 22.4199 304.23 24.9499C300.89 28.1099 299.2 27.7999 290.69 21.4399C289.97 20.8999 288.95 21.1699 288.56 22.0099C287.94 23.3299 287.34 24.6399 286.58 25.8399C285.65 27.3099 284.67 28.9399 282.47 28.8499C281.81 28.8199 281.27 28.2899 281.16 27.6099C281.01 26.6799 280.83 25.6999 281.11 24.8999C283.12 19.1599 284.99 13.3099 287.62 7.85988C289.24 4.50988 292.04 2.45988 295.04 1.77988C303.74 -0.180122 306.43 4.95988 300.84 12.1999C300.41 12.7499 299.97 13.2899 299.53 13.8199H299.54ZM293.68 12.8899C295.4 11.4499 297.67 10.4299 297.81 7.42988C293.17 6.80988 292.79 11.2299 293.68 12.8899Z" fill="white"/>
<path d="M312.91 24.2699C314 24.7599 315.04 25.2199 316.05 25.6699C319.11 24.3299 319.8 23.2599 319.25 20.5099C318.91 18.7799 318.41 17.0699 318.03 15.3499C316.77 9.63989 319.91 4.77989 326.23 2.65989C327.46 2.24989 328.7 1.91989 329.89 2.86989C331.23 3.93989 331.27 4.63989 329.83 5.55989C328.85 6.17989 327.88 6.81989 326.81 7.29989C322.6 9.21989 322.03 12.3499 322.78 15.9299C323.07 17.3399 323.48 18.7399 323.76 20.1599C324.19 22.3299 324.21 24.4599 322.67 26.3999C320.81 28.7499 317.26 29.5599 314.53 28.2099C312.64 27.2799 312.27 26.4499 312.92 24.2699H312.91Z" fill="white"/>
</g>
<defs>
<clipPath id="clip0_14_309">
<rect width="330.9" height="48.99" fill="white"/>
</clipPath>
</defs>
</svg>
