<?xml version="1.0" encoding="UTF-8"?>
<svg width="50px" height="50px" viewBox="0 0 50 50" version="1.1" xmlns="http://www.w3.org/2000/svg" xmlns:xlink="http://www.w3.org/1999/xlink">
    <!-- Generator: Sketch 48.2 (47327) - http://www.bohemiancoding.com/sketch -->
    <title>Intsagram</title>
    <desc>Created with Sketch.</desc>
    <defs></defs>
    <g stroke="none" stroke-width="1" fill="none" fill-rule="evenodd">
        <g id="Intsagram" fill="#000000" fill-rule="nonzero">
            <g id="instagram" transform="translate(4.029356, 4.472833)">
                <path d="M20.6846388,0 C15.0653119,0 14.3637579,0.0258557985 12.1573964,0.124107833 C9.9544824,0.227531026 8.45484609,0.573998726 7.13620037,1.08594354 C5.77618537,1.61340182 4.62129304,2.3218507 3.47157187,3.47157187 C2.3218507,4.62129304 1.6116781,5.77446165 1.08594354,7.13620037 C0.573998726,8.45484609 0.225807306,9.9544824 0.124107833,12.1573964 C0.0206846388,14.3637579 0,15.0653119 0,20.6846388 C0,26.3039656 0.0258557985,27.0055196 0.124107833,29.2118811 C0.227531026,31.4130714 0.573998726,32.9144314 1.08594354,34.2330772 C1.61340182,35.5913684 2.3218507,36.7479845 3.47157187,37.8977057 C4.62129304,39.0457031 5.77446165,39.7575994 7.13620037,40.283334 C8.45656981,40.7935551 9.95620612,41.1434702 12.1573964,41.2451697 C14.3637579,41.3485929 15.0653119,41.3692775 20.6846388,41.3692775 C26.3039656,41.3692775 27.0055196,41.3434217 29.2118811,41.2451697 C31.4130714,41.1417465 32.9144314,40.7935551 34.2330772,40.283334 C35.5913684,39.7558757 36.7479845,39.0457031 37.8977057,37.8977057 C39.0457031,36.7479845 39.7575994,35.5965396 40.283334,34.2330772 C40.7935551,32.9144314 41.1434702,31.4130714 41.2451697,29.2118811 C41.3485929,27.0055196 41.3692775,26.3039656 41.3692775,20.6846388 C41.3692775,15.0653119 41.3434217,14.3637579 41.2451697,12.1573964 C41.1417465,9.95620612 40.7935551,8.45312237 40.283334,7.13620037 C39.7558757,5.77618537 39.0457031,4.62129304 37.8977057,3.47157187 C36.7479845,2.3218507 35.5965396,1.6116781 34.2330772,1.08594354 C32.9144314,0.573998726 31.4130714,0.225807306 29.2118811,0.124107833 C27.0055196,0.0206846388 26.3039656,0 20.6846388,0 Z M20.6846388,3.72323498 C26.2057136,3.72323498 26.8641746,3.7508145 29.0446803,3.84561909 C31.0614325,3.94042368 32.1559947,4.27482534 32.8834045,4.56096285 C33.8521351,4.93501006 34.5381756,5.38317724 35.2655854,6.10541587 C35.987824,6.82937823 36.4359912,7.51714247 36.8100384,8.48587305 C37.0927285,9.21328285 37.4305776,10.307845 37.5219347,12.3245973 C37.6201868,14.5068267 37.6425951,15.1618402 37.6425951,20.6846388 C37.6425951,26.2074373 37.6167393,26.8641746 37.5150398,29.0446803 C37.4098929,31.0614325 37.0737675,32.1559947 36.7893538,32.8834045 C36.4032405,33.8521351 35.9636919,34.5381756 35.2397296,35.2655854 C34.5174909,35.987824 33.8193844,36.4359912 32.8609961,36.8100384 C32.1370338,37.0927285 31.0252344,37.4305776 29.0084821,37.5219347 C26.812463,37.6201868 26.166068,37.6425951 20.6329272,37.6425951 C15.0980626,37.6425951 14.4516676,37.6167393 12.2573722,37.5150398 C10.2388962,37.4098929 9.12709685,37.0737675 8.4031345,36.7893538 C7.42233788,36.4032405 6.7483634,35.9636919 6.02612476,35.2397296 C5.30043868,34.5174909 4.83675803,33.8193844 4.47477685,32.8609961 C4.19036307,32.1370338 3.85596141,31.0252344 3.7508145,29.0084821 C3.6732471,26.8365951 3.64566758,26.166068 3.64566758,20.658783 C3.64566758,15.1497742 3.6732471,14.4775234 3.7508145,12.2797805 C3.85596141,10.2630283 4.19036307,9.15295265 4.47477685,8.4289903 C4.83675803,7.44646995 5.30043868,6.77421919 6.02612476,6.04853312 C6.7483634,5.32629448 7.42233788,4.86089011 8.4031345,4.50063265 C9.12709685,4.21449515 10.2147641,3.87836977 12.2315164,3.77494657 C14.4292593,3.69737918 15.0756542,3.67152338 20.6070714,3.67152338 L20.6846388,3.72323498 Z M20.6846388,10.0630768 C14.8153725,10.0630768 10.0630768,14.8205437 10.0630768,20.6846388 C10.0630768,26.553905 14.8205437,31.3062008 20.6846388,31.3062008 C26.553905,31.3062008 31.3062008,26.5487339 31.3062008,20.6846388 C31.3062008,14.8153725 26.5487339,10.0630768 20.6846388,10.0630768 Z M20.6846388,27.5795184 C16.8752178,27.5795184 13.7897592,24.4940597 13.7897592,20.6846388 C13.7897592,16.8752178 16.8752178,13.7897592 20.6846388,13.7897592 C24.4940597,13.7897592 27.5795184,16.8752178 27.5795184,20.6846388 C27.5795184,24.4940597 24.4940597,27.5795184 20.6846388,27.5795184 Z M34.2089451,9.64421282 C34.2089451,11.0145701 33.095422,12.1263695 31.7267884,12.1263695 C30.3564311,12.1263695 29.2446318,11.0128464 29.2446318,9.64421282 C29.2446318,8.27557923 30.3581548,7.16377989 31.7267884,7.16377989 C33.0936983,7.16205617 34.2089451,8.27557923 34.2089451,9.64421282 Z" id="Shape"></path>
            </g>
        </g>
    </g>
</svg>