<?xml version="1.0" encoding="UTF-8"?>
<svg width="50px" height="50px" viewBox="0 0 50 50" version="1.1" xmlns="http://www.w3.org/2000/svg" xmlns:xlink="http://www.w3.org/1999/xlink">
    <!-- Generator: Sketch 48.2 (47327) - http://www.bohemiancoding.com/sketch -->
    <title>Twitter</title>
    <desc>Created with Sketch.</desc>
    <defs></defs>
    <g stroke="none" stroke-width="1" fill="none" fill-rule="evenodd">
        <g id="Twitter" fill="#000000">
            <path d="M25,50 C11.1928806,50 0,38.8071194 0,25 C0,11.1928806 11.1928806,0 25,0 C38.8071194,0 50,11.1928806 50,25 C50,38.8071194 38.8071194,50 25,50 Z M25,47 C37.1502651,47 47,37.1502651 47,25 C47,12.8497349 37.1502651,3 25,3 C12.8497349,3 3,12.8497349 3,25 C3,37.1502651 12.8497349,47 25,47 Z M24.6822554,20.5542975 C24.5391894,18.4243168 24.6822554,20.5542975 24.6822554,20.5542975 C24.5391894,18.4243168 25.7949903,16.4788226 27.7820169,15.724105 C28.5132428,15.455761 29.7531474,15.422218 30.5638543,15.657019 C30.8817786,15.757648 31.4858346,16.093078 31.9150324,16.394965 L32.6939469,16.9484246 L33.5523424,16.6633091 C34.0292288,16.5123656 34.6650773,16.2607931 34.9512092,16.093078 C35.2214448,15.9421346 35.459888,15.858277 35.459888,15.9085915 C35.459888,16.1937071 34.8717281,17.1664541 34.3789455,17.7031422 C33.7113045,18.4578598 33.9020591,18.5249458 35.2532373,18.0218007 C36.0639442,17.7366852 36.0798403,17.7366852 35.9208782,18.0553437 C35.8255009,18.2230588 35.3327183,18.8100613 34.8081432,19.3467494 C33.9179553,20.269182 33.8702667,20.369811 33.8702667,21.1413 C33.8702667,22.3320767 33.3297954,24.8142589 32.7893242,26.1727505 C31.7878628,28.7220188 29.6418739,31.3551445 27.4958851,32.6800932 C24.4756046,34.5417298 20.4538626,35.0113319 17.0679692,33.9211843 C15.939338,33.5522113 14,32.6130071 14,32.4452922 C14,32.3949776 14.5881599,32.3278916 15.3034895,32.3111202 C16.7977335,32.2775772 18.2919776,31.8415181 19.5636746,31.070029 L20.4220701,30.533341 L19.436505,30.1811394 C18.0376382,29.6779944 16.7818374,28.5207608 16.4639131,27.4306131 C16.3685358,27.0784116 16.4003282,27.0616401 17.2905161,27.0616401 L18.2124965,27.0448686 L17.433582,26.6591241 C16.5116017,26.1727505 15.6691024,25.350947 15.2558008,24.5123719 C14.9537728,23.9085978 14.5722637,22.3823912 14.6835371,22.2649907 C14.7153296,22.2146761 15.0491501,22.3153051 15.4306592,22.4494772 C16.5274979,22.8687647 16.6705638,22.7681357 16.0347153,22.0637326 C14.8424993,20.7890985 14.4768864,18.8939188 15.0491501,17.0993681 L15.3193857,16.2943361 L16.3685358,17.3844837 C18.5145246,19.5815504 21.0420225,20.8897275 23.9351333,21.2754721 L24.729944,21.3761011 L24.6822554,20.5542975 Z" id="Oval-1"></path>
        </g>
    </g>
</svg>