<?xml version="1.0" encoding="UTF-8"?>
<svg width="50px" height="50px" viewBox="0 0 50 50" version="1.1" xmlns="http://www.w3.org/2000/svg" xmlns:xlink="http://www.w3.org/1999/xlink">
    <!-- Generator: Sketch 48.2 (47327) - http://www.bohemiancoding.com/sketch -->
    <title>Facebook</title>
    <desc>Created with Sketch.</desc>
    <defs></defs>
    <g stroke="none" stroke-width="1" fill="none" fill-rule="evenodd">
        <g id="Facebook" fill="#000000">
            <path d="M25,50 C11.1928806,50 0,38.8071194 0,25 C0,11.1928806 11.1928806,0 25,0 C38.8071194,0 50,11.1928806 50,25 C50,38.8071194 38.8071194,50 25,50 Z M25,47 C37.1502651,47 47,37.1502651 47,25 C47,12.8497349 37.1502651,3 25,3 C12.8497349,3 3,12.8497349 3,25 C3,37.1502651 12.8497349,47 25,47 Z M26.8145197,36 L21.9368678,36 L21.9368678,24.9991413 L19.5,24.9991413 L19.5,21.2080366 L21.9368678,21.2080366 L21.9368678,18.9318709 C21.9368678,15.8390937 23.3128757,14 27.2222769,14 L30.4769629,14 L30.4769629,17.7915341 L28.4425538,17.7915341 C26.9207209,17.7915341 26.8200486,18.3213442 26.8200486,19.3101227 L26.8145197,21.2076072 L30.5,21.2076072 L30.0687449,24.998712 L26.8145197,24.998712 L26.8145197,36 Z" id="Oval-1"></path>
        </g>
    </g>
</svg>