<svg width="246px" height="27px" viewBox="0 0 246 27" version="1.1" xmlns="http://www.w3.org/2000/svg" xmlns:xlink="http://www.w3.org/1999/xlink">
    <title>instagram-tagline</title>
    <defs></defs>
    <g stroke="none" stroke-width="1" fill="none" fill-rule="evenodd">
        <g id="instagram-tagline" fill="#231F20">
            <path d="M227.5703,8.5553 C227.8843,8.0643 228.8353,6.2893 229.7203,7.8143 C230.6053,9.3393 228.1843,12.2653 227.6543,12.8123 C227.1253,13.3593 225.3963,14.7153 225.3963,14.7153 C225.3963,14.7153 227.2573,9.0463 227.5703,8.5553 M227.8153,18.4893 C226.8153,16.9163 226.8923,16.6893 228.1643,15.3933 C229.6753,13.8533 231.1673,12.2963 231.9473,10.2123 C232.6913,8.2213 232.3993,6.9733 230.8413,5.5913 C229.7053,4.5843 227.3593,4.5563 226.4843,5.7753 C225.5913,7.0193 224.8243,8.4343 224.3503,9.8883 C223.1973,13.4303 222.2333,17.0343 221.2203,20.6233 C220.9593,21.5483 221.3993,22.1813 222.4253,22.4193 C223.2883,22.6193 223.4123,21.9803 223.5933,21.3473 C223.9613,20.0603 224.3903,18.7903 224.8283,17.4033 C226.6383,20.0193 228.3173,22.5423 230.1183,24.9733 C230.5133,25.5073 230.9793,26.7283 231.9023,26.0683 C232.7153,25.4883 231.8873,24.6663 231.5043,24.0653 C230.3043,22.1873 229.0103,20.3693 227.8153,18.4893" id="Fill-1"></path>
            <path d="M169.6621,8.0963 C169.9751,7.6063 170.9271,5.8303 171.8121,7.3563 C172.6971,8.8803 170.2761,11.8073 169.7461,12.3543 C169.2171,12.9013 167.4881,14.2563 167.4881,14.2563 C167.4881,14.2563 169.3481,8.5873 169.6621,8.0963 M169.9071,18.0313 C168.9071,16.4573 168.9841,16.2313 170.2561,14.9353 C171.7661,13.3953 173.2591,11.8373 174.0391,9.7533 C174.7831,7.7623 174.4911,6.5143 172.9331,5.1323 C171.7971,4.1253 169.4511,4.0983 168.5761,5.3173 C167.6831,6.5613 166.9161,7.9763 166.4421,9.4293 C165.2891,12.9713 164.3251,16.5763 163.3121,20.1643 C163.0511,21.0893 163.4911,21.7223 164.5161,21.9603 C165.3801,22.1613 165.5041,21.5223 165.6841,20.8883 C166.0531,19.6023 166.4821,18.3313 166.9201,16.9453 C168.7301,19.5613 170.4091,22.0833 172.2101,24.5143 C172.6051,25.0483 173.0711,26.2703 173.9941,25.6103 C174.8061,25.0303 173.9781,24.2073 173.5951,23.6083 C172.3961,21.7293 171.1011,19.9103 169.9071,18.0313" id="Fill-3"></path>
            <path d="M198,9.3951 C197.086,11.6231 196.17,13.8501 195.259,16.0791 C194.719,17.4011 194.166,18.7181 193.644,20.0481 C193.543,20.3041 193.443,20.5601 193.345,20.8171 C193.08,21.5111 192.706,22.1701 191.971,21.8911 C190.975,21.5131 190.992,20.4141 191.16,19.8151 C191.659,18.0361 192.489,16.3511 193.175,14.6241 C194.236,11.9511 195.256,9.2611 196.36,6.6071 C196.64,5.9341 197.08,5.2701 197.607,4.7731 C198.435,3.9941 199.298,4.2421 199.513,5.3821 C199.959,7.7551 200.279,10.1541 200.576,12.5511 C200.714,13.6711 200.644,14.9731 200.697,16.4071 C201.054,16.2251 201.469,15.5361 201.657,15.2141 C202.839,13.1821 203.902,11.0741 205.186,9.1091 C206.234,7.5041 207.484,6.0181 208.764,4.5881 C209.026,4.2961 209.659,4.1121 210.372,4.4561 C210.902,4.9221 210.53,5.4261 210.339,5.7491 C208.17,9.4381 205.97,13.1081 203.723,16.7481 C203.111,17.7391 202.389,18.6881 201.572,19.5111 C201.184,19.9021 200.288,20.2711 199.921,20.0781 C199.455,19.8321 199.095,19.0251 199.034,18.4251 C198.827,16.4001 198.778,14.3581 198.656,12.3241 C198.597,11.3581 198.509,10.3951 198.436,9.4301 C198.4,9.0411 198.21,8.9821 198,9.3951" id="Fill-5"></path>
            <path d="M191.6416,12.5934 C191.1126,10.4934 190.1536,4.4384 189.4256,3.5574 C188.6996,2.6774 187.2886,3.2614 187.3826,4.5794 C187.4776,5.8984 190.6486,22.7454 191.7686,21.7224 C192.8876,20.6994 192.8406,19.9184 192.5536,18.1124 C192.2656,16.3044 191.5936,12.4474 191.5936,12.4474" id="Fill-7"></path>
            <path d="M80.7182,4.5484 C79.8332,4.6444 79.5482,4.4214 79.8642,3.7854 C80.2752,3.3724 80.6572,3.0624 81.1792,2.9674 C83.5492,2.5374 85.0542,3.0004 85.5742,4.8374 C85.7272,5.3764 85.7432,6.0234 85.6052,6.5654 C84.3412,11.5244 83.0362,16.4734 81.7232,21.4194 C81.6122,21.8364 81.4272,22.2784 81.1472,22.5924 C80.8752,22.8984 80.3962,23.2784 80.0772,23.2244 C79.4492,23.1134 79.1172,22.5544 79.3032,21.8794 C79.4982,21.1784 79.8182,20.5094 80.0092,19.8084 C81.0972,15.7944 82.1692,11.7784 83.2312,7.7584 C83.3902,7.1584 83.4472,6.5324 83.5912,5.9284 C83.8142,4.9924 83.4702,4.5554 82.5162,4.5584 C82.1542,4.5594 80.7582,4.4614 80.7182,4.5484" id="Fill-9"></path>
            <path d="M8.0786,7.9889 C7.6946,9.0599 7.3436,10.4079 6.4716,11.2559 C5.5996,12.1029 4.3966,11.6839 4.3966,11.6839 L4.4556,11.3179 C4.7426,10.0799 5.1456,7.6739 5.5836,6.6229 C6.0206,5.5709 6.4006,4.6799 7.3676,5.0509 C8.3346,5.4219 8.4626,6.9179 8.0786,7.9889 M9.7886,3.6589 C7.9756,1.5709 5.3216,2.2989 4.3986,3.1519 C3.4766,4.0059 2.2256,7.4609 1.9996,8.9999 C1.7746,10.5379 0.3106,19.2709 0.1286,20.3169 C-0.0534,21.3639 -0.0624,21.9289 0.2316,22.4569 C0.5256,22.9849 1.5966,23.1639 2.1716,23.0439 C2.7466,22.9239 2.7486,21.8729 2.9696,20.7189 C3.1896,19.5659 3.8696,14.7699 3.9636,13.8369 C3.9636,13.8369 7.2086,14.6259 9.4386,11.6429 C11.6686,8.6599 11.6016,5.7479 9.7886,3.6589" id="Fill-13"></path>
            <path d="M82.8544,2.815 C83.9464,2.835 91.2284,3.008 91.7454,3.028 C92.2634,3.046 93.0824,3.536 92.2634,4.53 C91.7074,5.204 90.7244,5.219 88.8904,5.165 C86.9554,5.106 86.0734,4.432 85.6904,5.993 C85.3074,7.552 84.9624,8.38 84.7324,8.303 C84.5024,8.226 84.3684,4.298 83.9274,3.97 C83.4864,3.643 82.8544,2.815 82.8544,2.815" id="Fill-11"></path>
            <path d="M31.75,19.8619 C32.401,18.1839 33.053,16.5079 33.702,14.8319 C34.161,13.6439 34.632,12.4629 35.066,11.2649 C35.255,10.7439 35.519,10.2459 36.027,10.4469 C36.717,10.7189 36.696,11.5429 36.575,11.9929 C36.215,13.3289 35.627,14.5979 35.138,15.8989 C34.381,17.9099 33.654,19.9319 32.868,21.9309 C32.668,22.4369 32.358,22.9379 31.989,23.3169 C31.409,23.9089 30.811,23.7309 30.67,22.8809 C30.709,22.2289 31.395,21.2159 31.75,19.8619" id="Fill-16"></path>
            <path d="M30.3789,3.7711 C30.7169,2.8981 31.2559,3.3831 31.5629,4.2861 C32.2029,6.1631 32.7419,8.0771 33.2629,9.9921 C33.5059,10.8851 33.5979,11.9541 33.8079,13.1131 C34.0789,12.9231 34.3389,12.3151 34.4549,12.0311 C35.1859,10.2421 35.8099,8.4041 36.6299,6.6571 C37.3009,5.2301 38.1499,3.8751 39.0309,2.5651 C39.2109,2.2961 39.7069,2.0741 40.3289,2.2701 C40.8159,2.5871 40.5709,3.0411 40.4529,3.3271 C39.1069,6.5771 37.7349,9.8171 36.3209,13.0391 C35.9359,13.9151 35.4549,14.7711 34.8829,15.5351 C34.6109,15.8991 33.9219,16.3021 33.5999,16.1881 C33.1899,16.0421 32.8029,15.4271 32.6839,14.9471 C32.2799,13.3251 31.8929,11.7411 31.5569,10.1001 C31.3969,9.3231 31.1699,8.5211 30.9969,7.7461 C30.9239,7.4341 30.0259,4.6831 30.3789,3.7711" id="Fill-18"></path>
            <path d="M150.33,5.7887 C151.06,6.2387 152.241,6.2707 152.227,5.5907 C152.041,5.0617 150.997,4.5267 150.582,4.2287 C148.696,2.8727 147.196,2.6497 145.984,4.0247 C145.629,4.4287 145.349,4.9817 145.245,5.5087 C144.297,10.3267 143.39,15.1547 142.491,19.9837 C142.415,20.3917 142.393,20.8517 142.507,21.2377 C142.619,21.6147 142.878,22.1437 143.178,22.2277 C143.769,22.3937 144.29,22.0477 144.406,21.3867 C144.527,20.6967 144.524,19.9857 144.648,19.2987 C145.357,15.3717 146.083,11.4477 146.817,7.5267 C146.927,6.9407 147.136,6.3747 147.26,5.7917 C147.452,4.8907 147.932,4.6527 148.762,5.0517 C149.076,5.2017 150.331,5.6967 150.33,5.7887" id="Fill-20"></path>
            <path d="M146.4355,9.232 C147.0155,9.436 148.7545,10.155 149.4955,10.402 C150.2355,10.649 150.4515,11.862 149.1405,11.637 C147.8315,11.411 145.8885,11.046 145.8885,11.046 L146.4355,9.232 Z" id="Fill-22"></path>
            <path d="M236.8876,16.1363 C236.2996,18.1573 236.2406,18.3503 235.6556,20.3723 C235.2416,21.8023 235.1856,22.2653 234.8056,23.7043 C234.6396,24.3323 234.0796,25.2823 233.4146,25.1073 C232.5146,24.8713 232.3466,24.2133 232.4366,23.6773 C232.7046,22.0843 233.2546,20.8593 233.6906,19.2943 C234.3656,16.8723 234.4906,16.2783 235.2036,13.8673 C235.3846,13.2563 235.7046,12.6383 236.1166,12.1573 C236.7636,11.4033 237.5366,11.5383 237.8286,12.5083 C238.4376,14.5283 238.9386,16.5823 239.4186,18.6373 C239.6426,19.5973 239.7016,20.7233 240.0306,21.9313 C240.6926,24.0603 241.8096,25.8473 240.9856,26.4063 C239.9146,27.1303 238.7316,24.4013 238.6216,23.8853 C238.2546,22.1453 238.0236,20.3763 237.7286,18.6193 C237.5886,17.7863 237.4226,16.9573 237.2686,16.1263 C237.2016,15.7923 237.0316,15.7573 236.8876,16.1363" id="Fill-24"></path>
            <path d="M237.9335,11.9869 C238.4255,9.9399 238.9155,7.8929 239.4105,5.8479 C239.7605,4.3999 240.0945,2.9499 240.4785,1.5099 C240.6465,0.8829 240.7185,0.2239 240.0545,0.0459 C239.1555,-0.1981 238.6065,0.5909 238.4185,1.1009 C237.8625,2.6179 237.5875,4.2349 237.1905,5.8109 C236.5755,8.2489 235.9215,10.6759 235.3465,13.1229 C235.2005,13.7429 234.5675,15.9549 234.6865,16.5769 C234.8715,17.5519 236.2175,16.3029 236.9525,15.6049 C238.4815,14.1529 239.9355,12.6179 241.3715,11.0699 C242.0405,10.3479 242.6575,9.3879 243.4285,8.4009 C243.8185,7.8929 244.3845,7.3369 245.1725,6.4539 C245.4955,5.9189 245.1155,5.4539 244.7555,5.4019 C244.3005,5.3389 243.6345,5.7249 243.2835,6.1199 C242.1015,7.4479 241.0225,8.8699 239.8955,10.2489 C239.3605,10.9019 238.8055,11.5409 238.2595,12.1849 C238.0365,12.4419 237.8705,12.3869 237.9335,11.9869" id="Fill-26"></path>
            <path d="M58.8789,6.9869 C58.3779,6.9459 58.2489,5.1519 57.3239,5.3549 C55.6439,5.9009 53.9239,7.0699 52.8899,8.5219 C50.7929,11.4659 50.5789,14.6679 51.8529,18.0809 C52.3389,19.3829 53.2049,19.6919 54.5789,19.3829 C55.1499,19.2539 55.8009,19.0109 56.0579,19.7479 C56.3129,20.4769 56.0179,21.1989 55.2429,21.3669 C54.4829,21.5329 53.6009,21.6219 52.8809,21.3979 C49.9739,20.4929 48.7339,16.8439 48.8149,14.0719 C48.9459,9.5699 51.1239,6.2559 54.8969,3.9349 C56.6509,2.8549 58.0859,2.8889 59.2759,3.9359 C60.7949,5.2689 60.2489,7.0709 58.8789,6.9869" id="Fill-29"></path>
            <path d="M116.7851,5.0992 C116.5611,5.3562 114.0671,5.8002 112.7611,6.1892 C112.4581,6.2792 112.0471,6.5152 111.9691,6.7722 C111.5581,8.1272 111.2461,9.6232 110.8711,11.0952 C112.2231,11.4362 115.1071,10.6932 114.7391,12.6042 C114.6011,12.9392 113.8631,12.9552 113.4371,13.0092 C112.6091,13.1152 111.7641,13.0942 110.9391,13.2182 C110.6631,13.2592 110.2501,13.5422 110.1981,13.7812 C109.8041,15.6342 109.4201,17.4962 109.1601,19.3732 C108.9871,20.6152 109.3171,20.8032 110.5201,20.3392 C111.1991,20.0782 111.8451,19.7242 112.5311,19.4892 C112.9701,19.3382 113.4771,19.2142 113.9151,19.2952 C114.2361,19.3552 114.5591,19.3142 114.7791,20.0202 C114.7271,20.3932 114.4151,20.5202 114.1701,20.6542 C113.0841,21.2432 111.9541,21.7512 110.8801,22.3622 C109.6621,23.0532 108.6761,22.5332 107.7891,21.7862 C106.9141,21.0502 106.6401,20.0112 106.8691,18.8952 C107.6541,15.0692 108.4611,11.2472 109.2731,7.4282 C109.4241,6.7202 109.6071,6.0132 109.8501,5.3332 C109.9451,5.0662 110.2061,4.7452 110.4591,4.6632 C111.6711,4.2772 112.8911,3.8962 114.1361,3.6422 C115.2961,3.4062 117.6991,3.5342 116.7851,5.0992" id="Fill-31"></path>
            <path d="M77.2846,10.3356 C76.8346,10.2666 75.9666,7.6896 75.1166,7.8116 C73.5596,8.1956 72.3066,9.1646 71.2736,10.4166 C69.1796,12.9546 68.4786,15.8416 69.4036,19.0306 C69.6896,20.0176 70.0406,20.3296 70.8376,20.3126 C71.0236,20.3086 71.2336,20.2856 71.4726,20.2496 C71.6666,20.2216 71.8706,20.1796 72.0606,20.1706 C72.3866,20.1576 72.6706,20.2466 72.7866,20.6816 C72.9686,21.3606 72.6536,21.9966 71.9406,22.0996 C71.4806,22.1646 70.9746,22.1966 70.5006,22.1396 C70.2556,22.1086 70.0186,22.0556 69.8006,21.9686 C67.2306,20.9526 66.3526,17.5536 66.6116,15.0366 C67.0306,10.9506 69.2236,8.0816 72.7936,6.2226 C74.4536,5.3566 75.7496,5.4836 76.7566,6.5156 C78.0416,7.8286 78.5196,10.5036 77.2846,10.3356" id="Fill-33"></path>
            <path d="M71.6191,22.1373 C73.2071,21.9903 74.8091,20.3243 76.0141,18.2333 C77.2191,16.1433 78.8901,11.7413 78.3381,9.4223 C77.7851,7.1033 76.4951,5.8863 75.2271,5.6933 C73.9601,5.5013 73.9021,7.0733 75.1171,7.8113 C76.3321,8.5483 76.7781,9.4823 76.8221,10.3673 C76.8761,11.4283 76.6391,12.8643 75.5281,15.4573 C74.4831,17.8963 73.4361,20.0693 71.4731,20.2503 C69.5101,20.4303 69.1271,20.2703 69.6371,20.9353 C70.1471,21.5993 71.6191,22.1373 71.6191,22.1373" id="Fill-35"></path>
            <path d="M218.9355,9.6998 C218.4855,9.6298 217.6175,7.0538 216.7675,7.1748 C215.2095,7.5598 213.9565,8.5288 212.9235,9.7808 C210.8305,12.3188 210.1285,15.2058 211.0545,18.3948 C211.3395,19.3808 211.6915,19.6938 212.4885,19.6758 C212.6735,19.6718 212.8845,19.6498 213.1235,19.6138 C213.3175,19.5848 213.5215,19.5428 213.7105,19.5348 C214.0375,19.5218 214.3215,19.6108 214.4375,20.0448 C214.6195,20.7248 214.3045,21.3608 213.5915,21.4628 C213.1305,21.5288 212.6245,21.5608 212.1515,21.5028 C211.9065,21.4728 211.6685,21.4188 211.4515,21.3328 C208.8805,20.3168 208.0025,16.9168 208.2625,14.4008 C208.6815,10.3148 210.8735,7.4458 214.4445,5.5858 C216.1045,4.7208 217.4005,4.8478 218.4075,5.8788 C219.6925,7.1928 220.1695,9.8678 218.9355,9.6998" id="Fill-37"></path>
            <path d="M213.2695,21.5016 C214.8575,21.3546 216.4585,19.6886 217.6655,17.5976 C218.8695,15.5076 220.5405,11.1056 219.9885,8.7856 C219.4355,6.4676 218.1455,5.2506 216.8775,5.0576 C215.6105,4.8646 215.5515,6.4386 216.7675,7.1756 C217.9825,7.9126 218.4285,8.8466 218.4725,9.7316 C218.5265,10.7926 218.2905,12.2286 217.1785,14.8206 C216.1335,17.2606 215.0865,19.4336 213.1235,19.6136 C211.1605,19.7946 210.7775,19.6346 211.2875,20.2996 C211.7975,20.9636 213.2695,21.5016 213.2695,21.5016" id="Fill-39"></path>
            <path d="M161.832,10.4215 C161.383,10.3515 160.515,7.7755 159.664,7.8975 C158.107,8.2815 156.854,9.2505 155.821,10.5025 C153.728,13.0405 153.026,15.9275 153.951,19.1165 C154.237,20.1025 154.588,20.4155 155.386,20.3985 C155.571,20.3935 155.781,20.3715 156.02,20.3355 C156.214,20.3065 156.418,20.2645 156.608,20.2565 C156.935,20.2435 157.219,20.3325 157.334,20.7665 C157.517,21.4465 157.201,22.0825 156.488,22.1845 C156.028,22.2505 155.522,22.2825 155.048,22.2245 C154.804,22.1945 154.566,22.1405 154.349,22.0545 C151.778,21.0385 150.9,17.6385 151.159,15.1225 C151.578,11.0365 153.771,8.1675 157.342,6.3075 C159.001,5.4425 160.297,5.5695 161.305,6.6005 C162.589,7.9145 163.067,10.5895 161.832,10.4215" id="Fill-41"></path>
            <path d="M156.1669,22.2232 C157.7549,22.0762 159.3559,20.4102 160.5619,18.3192 C161.7669,16.2292 163.4379,11.8272 162.8859,9.5082 C162.3329,7.1892 161.0429,5.9722 159.7739,5.7792 C158.5079,5.5872 158.4489,7.1592 159.6649,7.8972 C160.8799,8.6342 161.3249,9.5682 161.3689,10.4532 C161.4239,11.5142 161.1869,12.9502 160.0749,15.5422 C159.0299,17.9822 157.9829,20.1552 156.0209,20.3362 C154.0579,20.5162 153.6749,20.3562 154.1849,21.0212 C154.6939,21.6852 156.1669,22.2232 156.1669,22.2232" id="Fill-43"></path>
            <path d="M91.0937,22.7867 C89.4017,22.4737 89.8177,21.4347 90.2127,19.7727 C90.8597,17.0497 91.6057,14.3487 92.3427,11.6477 C93.0567,9.0267 93.7017,6.8507 94.4087,4.2277 C94.6237,3.5577 94.9227,2.8617 96.1677,2.9077 C96.9617,2.9367 97.4287,3.2867 97.2367,4.1147 C96.6237,6.7527 96.5247,7.2377 96.3717,7.7217 C95.9907,8.9177 95.9937,9.1587 95.5497,10.5977 C96.1317,10.6177 98.0887,10.7877 98.3927,10.7937 C101.1057,10.8417 99.8327,12.5967 99.3597,12.6727 C98.8447,12.9577 97.1227,13.0547 96.6617,13.0937 C94.5927,13.2717 94.7047,13.4927 94.1147,15.5647 C93.6787,17.0977 93.2397,18.6277 92.7687,20.2687 C92.3817,21.7217 91.8227,22.9217 91.0937,22.7867" id="Fill-45"></path>
            <path d="M99.6953,24.2662 C101.3463,24.7512 101.4453,23.6382 101.8443,21.9772 C102.5003,19.2562 103.0563,16.5102 103.6223,13.7682 C104.1713,11.1072 104.5803,8.8752 105.1373,6.2162 C105.2503,5.5202 105.2973,4.7652 104.1663,4.2422 C103.4453,3.9092 102.8703,4.0102 102.6673,4.8352 C102.0193,7.4652 101.8883,7.9422 101.8073,8.4432 C101.6043,9.6822 101.6413,9.0332 101.3873,10.5172 C100.8393,10.8192 99.4293,10.8522 98.4793,10.8072 C97.7853,10.8272 96.9043,12.9492 97.8243,12.9762 C98.6523,13.0012 100.7793,12.8412 100.9673,12.9572 C100.6223,14.6282 100.6813,14.3432 100.2693,16.4592 C99.9653,18.0222 99.6653,19.5862 99.3413,21.2632 C99.0293,22.7322 98.9843,24.0572 99.6953,24.2662" id="Fill-47"></path>
            <path d="M131.621,8.0377 C131.294,6.1837 130.565,4.0197 128.475,3.1047 C126.826,2.3857 125.098,3.3387 124.411,4.2367 C123.783,5.0607 123.207,5.8757 123.004,7.9157 C122.816,9.7977 123.786,11.9757 124.81,13.5487 C125.834,15.1217 127.523,18.1397 125.951,19.5807 C124.379,21.0217 122.446,20.6887 121.654,19.8257 C120.863,18.9627 120.73,18.2657 120.878,17.0437 C121.02,15.8777 119.58,15.2317 119.02,16.3077 C118.461,17.3817 118.808,19.5867 119.441,20.6317 C120.144,21.7947 122.47,23.5917 125.262,22.4407 C128.376,21.1587 128.715,18.8557 128.679,17.1157 C128.642,15.3747 127.276,13.4627 126.322,12.0157 C125.271,10.4207 124.85,7.9387 125.574,6.5997 C126.298,5.2597 127.961,4.5677 128.827,5.6437 C129.693,6.7207 129.182,8.1827 130.1,9.0807 C131.018,9.9767 131.774,8.9027 131.621,8.0377" id="Fill-49"></path>
            <path d="M22.3242,13.8502 C22.3842,13.9162 22.4442,13.9822 22.5052,14.0492 C23.0752,13.9262 23.6722,13.8712 24.2042,13.6532 C24.5052,13.5312 24.8382,13.1782 24.9152,12.8702 C25.2242,11.6322 25.4502,10.3742 25.6802,9.1192 C25.7452,8.7622 25.7202,8.3902 25.7362,8.0252 C25.6602,8.0142 25.5842,8.0042 25.5072,7.9942 L22.3242,13.8502 Z M16.7942,23.6362 C16.7342,23.2622 16.8752,22.9952 16.9742,22.6812 C18.2432,18.7032 20.2252,15.0382 22.0822,11.3232 C23.3522,8.7822 24.6932,6.2782 26.0212,3.7682 C26.1682,3.4912 26.5582,3.1122 26.6422,3.0812 C27.7172,2.6882 27.8272,3.8612 27.9182,4.1972 C28.1242,4.9592 27.9742,5.4792 27.8502,6.2422 C27.3662,9.2042 26.7292,12.1402 26.2132,15.0972 C25.8422,17.2202 25.2312,20.9292 25.2752,21.4962 C25.3202,22.0622 25.4232,22.1512 25.4382,22.4822 C25.4522,22.7612 25.4632,23.1662 25.3012,23.2922 C25.1312,23.4242 24.7222,23.3672 24.4742,23.2582 C23.7452,22.9432 23.6592,22.2542 23.7182,21.5872 C23.8562,20.0312 24.0532,18.4802 24.2252,16.9282 C24.2602,16.6222 24.2942,16.3152 24.3502,15.8182 C23.2022,16.0042 22.0592,15.9792 21.1382,16.4182 C20.6002,16.6752 20.3972,17.6642 20.0752,18.3392 C19.2562,20.0622 18.4572,21.7952 17.6422,23.5212 C17.5782,23.6562 17.5182,23.7272 17.4472,23.8212 C17.4472,23.8212 16.9052,24.0382 16.7942,23.6362 Z" id="Fill-51"></path>
            <path d="M15.5376,21.149 C16.3956,21.029 16.6786,21.236 16.3916,21.864 C16.0046,22.278 15.6436,22.591 15.1396,22.701 C12.8486,23.192 11.3706,22.789 10.8076,21.02 C10.6426,20.501 10.6066,19.873 10.7236,19.341 C11.7966,14.481 12.9106,9.628 14.0326,4.778 C14.1276,4.369 14.2926,3.932 14.5556,3.62 C14.8106,3.315 15.2646,2.928 15.5756,2.972 C16.1896,3.059 16.5306,3.593 16.3706,4.254 C16.2036,4.944 15.9126,5.602 15.7496,6.292 C14.8166,10.226 13.9006,14.166 12.9936,18.106 C12.8576,18.695 12.8226,19.305 12.7016,19.898 C12.5136,20.814 12.8616,21.229 13.7896,21.197 C14.1416,21.184 15.5016,21.235 15.5376,21.149" id="Fill-53"></path>
            <path d="M64.6108,21.2262 C65.4688,21.1062 65.7518,21.3132 65.4648,21.9412 C65.0778,22.3552 64.7168,22.6692 64.2128,22.7782 C61.9218,23.2692 60.4438,22.8672 59.8808,21.0972 C59.7158,20.5792 59.6798,19.9512 59.7968,19.4192 C60.8698,14.5582 61.9838,9.7062 63.1058,4.8552 C63.2008,4.4472 63.3658,4.0102 63.6288,3.6982 C63.8838,3.3922 64.3378,3.0062 64.6488,3.0502 C65.2628,3.1372 65.6038,3.6712 65.4438,4.3322 C65.2768,5.0212 64.9858,5.6802 64.8228,6.3702 C63.8898,10.3042 62.9738,14.2442 62.0668,18.1832 C61.9308,18.7722 61.8958,19.3832 61.7748,19.9752 C61.5868,20.8912 61.9348,21.3062 62.8628,21.2742 C63.2138,21.2622 64.5748,21.3122 64.6108,21.2262" id="Fill-55"></path>
        </g>
    </g>
</svg>