<svg width="701px" height="112px" viewBox="0 0 701 112" version="1.1" xmlns="http://www.w3.org/2000/svg" xmlns:xlink="http://www.w3.org/1999/xlink">
    <title>Sign Up</title>
    <g stroke="none" stroke-width="1" fill="none" fill-rule="evenodd">
        <path d="M615.816982,1.50768748 L616.092632,1.6489742 L693.883271,42.7723221 C697.807444,44.7453746 700.5,48.8082472 700.5,53.5 C700.5,57.9604336 698.066403,61.8524701 694.454539,63.9207786 L616.590033,109.939958 C610.88461,113.31202 603.525854,111.420456 600.153792,105.715033 C596.835255,100.100172 598.61457,92.8840487 604.109919,89.4423574 L604.378717,89.2787922 L644.61,65.499406 L12.5,65.5 C5.872583,65.5 0.5,60.127417 0.5,53.5 C0.5,46.9745433 5.70854437,41.6656072 12.1950252,41.5037999 L12.5,41.5 L640.124,41.499406 L604.876118,22.8666508 C599.108567,19.817692 596.849029,12.7345334 599.73425,6.92520579 L599.875537,6.6495552 C602.924496,0.882004026 610.007654,-1.37753329 615.816982,1.50768748 Z" id="Combined-Shape" fill="#FFFFFF" fill-rule="nonzero"></path>
    </g>
</svg>