<svg width="410px" height="112px" viewBox="0 0 410 112" version="1.1" xmlns="http://www.w3.org/2000/svg" xmlns:xlink="http://www.w3.org/1999/xlink">
    <title>Back</title>
    <g stroke="none" stroke-width="1" fill="none" fill-rule="evenodd">
        <g id="v" transform="translate(-348.000000, -362.000000)" fill="#000000" fill-rule="nonzero">
            <path d="M672.797451,363.641017 L673.073101,363.782304 L750.86374,404.905652 C754.787913,406.878705 757.480469,410.941577 757.480469,415.63333 C757.480469,420.093764 755.046872,423.9858 751.435008,426.054109 L673.570502,472.073288 C667.865079,475.44535 660.506323,473.553786 657.134261,467.848363 C653.815724,462.233502 655.595039,455.017379 661.090388,451.575687 L661.359186,451.412122 L701.590469,427.632736 L360.5,427.63333 C353.872583,427.63333 348.5,422.260747 348.5,415.63333 C348.5,409.107873 353.708544,403.798937 360.195025,403.63713 L360.5,403.63333 L697.104469,403.632736 L661.856587,384.999981 C656.089036,381.951022 653.829498,374.867863 656.714719,369.058536 L656.856006,368.782885 C659.904965,363.015334 666.988123,360.755797 672.797451,363.641017 Z" id="product-back-arrow" transform="translate(552.990234, 418.066665) rotate(-180.000000) translate(-552.990234, -418.066665) "></path>
        </g>
    </g>
</svg>