<svg width="137" height="29" viewBox="0 0 137 29" fill="none" xmlns="http://www.w3.org/2000/svg">
<path fill-rule="evenodd" clip-rule="evenodd" d="M131.8 1.33991C133.07 0.909908 134.37 0.569909 135.6 1.66991V1.65991C136.48 2.43991 136.37 3.60991 135.38 4.23991L135.327 4.2736C134.375 4.88268 133.411 5.49878 132.37 5.97991C128.16 7.89991 127.6 11.0299 128.34 14.6099C128.48 15.293 128.647 15.9692 128.814 16.6452C128.994 17.3743 129.175 18.103 129.32 18.8399C129.75 21.0099 129.77 23.1399 128.23 25.0799C126.37 27.4299 122.82 28.2299 120.09 26.8899C118.2 25.9599 117.83 25.1299 118.48 22.9499C118.712 23.0526 118.942 23.1553 119.171 23.2571C119.454 23.3833 119.733 23.5081 120.01 23.6299C121.16 24.1399 122.52 24.0399 123.55 23.3099C124.95 22.3299 125.22 21.2099 124.82 19.1899C124.627 18.2076 124.382 17.2349 124.137 16.2609C123.951 15.5196 123.764 14.7776 123.6 14.0299C122.34 8.31991 125.47 3.46991 131.8 1.33991ZM116.42 2.60989C116.005 2.24815 115.365 2.17443 114.78 2.10714C114.702 2.09817 114.625 2.08931 114.55 2.07989C106.82 1.11989 99.0601 1.66989 91.3101 3.14989C91.2456 3.16147 91.1806 3.1725 91.1152 3.18358L91.1134 3.18387C90.7843 3.23964 90.4483 3.29659 90.14 3.42989C88.5501 4.11989 87.8401 5.51989 87.86 7.35989C87.89 9.36989 89.24 9.70989 90.58 9.79989C91.51 9.86728 92.4491 9.83022 93.5534 9.78664C94.0877 9.76555 94.6607 9.74293 95.29 9.72989C94.9097 10.4186 94.5435 11.0251 94.205 11.5856L94.2039 11.5872C93.5552 12.662 93.0083 13.5678 92.66 14.5599C91.4501 17.9499 90.34 21.3999 89.44 24.8899C88.95 26.8099 89.4301 28.5199 92.01 28.7499C93.9601 22.1999 96.6 16.3799 100.19 11.0599C101.3 9.40989 102.42 8.50989 104.12 8.36989C106.89 8.14989 109.66 7.92989 112.42 7.60989C113.73 7.44989 115.07 7.20989 116.3 6.66989C116.87 6.41989 117.53 5.33989 117.55 4.65989C117.57 3.94989 116.97 3.08989 116.43 2.60989H116.42ZM37.94 2.54988C39.1799 1.46988 40.63 1.50988 41.88 2.47989C43.1701 3.48988 43.58 5.03989 42.46 6.25989C40.2739 8.65405 38.9743 11.5265 37.677 14.3936L37.6766 14.3947C36.7307 16.4851 35.786 18.5726 34.5 20.4699C34.3307 20.7205 34.1618 20.9725 33.9926 21.225L33.9757 21.2504L33.9581 21.2768L33.9574 21.2779C32.6204 23.2747 31.2664 25.2968 29.54 26.8999C26.78 29.4699 24.66 28.9699 23.26 25.5099C22.1754 22.8271 21.3209 20.0555 20.4658 17.2819L20.4655 17.2813L20.4651 17.2806C20.1378 16.219 19.8104 15.1572 19.47 14.0999C19.1619 13.1349 18.8799 12.1632 18.5978 11.1904C18.532 10.9636 18.4662 10.7367 18.4 10.5099C18.2278 10.4776 18.0526 10.4482 17.8761 10.4186C17.7247 10.3932 17.5724 10.3676 17.4201 10.3399C16.719 11.2326 16.0239 12.1303 15.329 13.028C13.813 14.9859 12.297 16.9438 10.72 18.8499C9.10584 20.8118 7.38038 22.6863 5.65711 24.5584L5.65638 24.5591L5.60218 24.6179C5.41139 24.8252 5.22059 25.0325 5.03004 25.2399C4.14002 26.2199 3.07997 27.2499 1.69996 26.2299C0.419931 25.2799 0.0899749 23.7399 0.739999 22.3499C1.82997 19.9999 3.0901 17.7099 4.43006 15.4899C5.13551 14.3141 5.92042 13.1867 6.7057 12.0589C7.25611 11.2683 7.80665 10.4776 8.32997 9.66989C8.37061 9.60688 8.41102 9.54383 8.4513 9.48079L8.60426 9.24065C9.76588 7.41576 10.8833 5.66028 13.48 5.40988C14.1068 5.34721 14.7029 4.60931 15.2539 3.9272C15.4061 3.73869 15.5549 3.55444 15.7 3.38988C17.69 1.12988 19.8201 1.18988 21.1701 3.86988C22.15 5.81988 22.79 7.97989 23.37 10.0999C23.8511 11.8715 24.2617 13.6623 24.6726 15.4542L24.6733 15.4572L24.6741 15.46C24.9887 16.832 25.3034 18.2047 25.65 19.5699C25.7647 20.0157 25.9968 20.429 26.3184 21.0011L26.3187 21.0017C26.502 21.3278 26.7141 21.7054 26.95 22.1699C27.2647 21.6813 27.5559 21.2465 27.8252 20.8446L27.8369 20.827L27.838 20.8253C28.3842 20.0102 28.8399 19.3301 29.22 18.6099C30.5424 16.1085 31.8451 13.5986 33.1475 11.0893L33.1537 11.077C34.3015 8.86548 35.4492 6.6544 36.61 4.44988C36.97 3.76988 37.3699 3.03989 37.94 2.54988ZM71.8323 7.95111C72.7192 6.36498 73.6039 4.7833 74.71 3.43008V3.44008C75.5399 2.43008 77.8899 1.78008 78.71 2.40008C79.6599 3.12008 80.34 5.57008 80.02 6.99008C78.1799 15.2401 65.45 26.6301 58.11 26.9401C53.3999 27.1401 50.76 25.0801 50.15 19.6701C49.73 15.8701 50.02 11.8801 50.4301 8.01008C50.53 6.99008 52.36 5.34008 53.25 5.42008C54.1399 5.50008 55.44 7.33008 55.5 8.51008C55.6271 11.0307 55.495 13.5763 55.35 16.3686L55.3489 16.3874C55.2889 17.544 55.2268 18.743 55.1801 20.0001C62.57 20.7501 66.4299 16.3301 69.89 11.2101C70.5899 10.1727 71.2117 9.06083 71.8323 7.95111Z" fill="black"/>
</svg>
