<svg width="715" height="712" viewBox="0 0 715 712" fill="none" xmlns="http://www.w3.org/2000/svg">
<path fill-rule="evenodd" clip-rule="evenodd" d="M387.07 2.20001C384.63 0.879946 382.08 1.99005 379.72 3.71002C377.19 5.58014 374.85 7.82013 372.57 10.2701C372.308 10.5516 372.047 10.8333 371.786 11.1143L371.738 11.1663C369.747 13.3138 367.787 15.4276 365.75 17.21C365.083 17.7943 364.373 18.4332 363.629 19.1019C362.312 20.2874 360.89 21.5662 359.42 22.8001C358.27 23.7601 357.09 24.7 355.89 25.5301C354.7 26.42 353.5 27.22 352.3 27.8502C350.16 28.9901 347.14 24.5701 346.41 22.2C345.546 19.3699 346.008 11.8265 346.311 6.87311C346.39 5.57819 346.459 4.46027 346.49 3.64997C346.558 -0.62982 343.239 0.0195942 342.947 0.0767231L342.93 0.080141C340.548 0.394838 338.662 2.78961 337.26 4.56867C336.926 4.99298 336.619 5.38239 336.34 5.70001C334.282 7.95099 331.716 11.4017 329.122 14.89L329.121 14.8922L328.446 15.7994L328.134 16.2183L327.64 16.8799C324.55 21.0101 321.55 24.8201 319.19 26.69C318.15 28.0701 316.53 29.16 316.36 26.91C316.75 23.5401 317.66 19.0801 318.56 14.7801L318.705 14.0794C319.544 10.0235 320.34 6.17291 320.51 3.61017C320.53 3.28009 320.47 2.94 320.34 2.60016C319.4 -0.0499859 315.84 -0.729918 313.49 0.960024C312.81 1.46002 312.28 1.99005 312.09 2.62018C310.4 7.92999 308.95 13.2701 307.63 18.6102C306.97 21.2801 306.35 23.95 305.75 26.6202C305.19 29.1009 304.666 31.6685 304.151 34.1854L304.04 34.73C303.38 37.95 303.69 41.5401 306.73 42.68C309.05 43.5701 312.8 43.7401 314.6 42.3301C317.23 40.3001 319.76 38.0401 322.29 35.69C324.82 33.41 327.36 31.17 329.97 28.9C331.308 27.7554 332.552 26.4783 333.977 25.015C334.469 24.5096 334.983 23.982 335.53 23.43C336.04 22.91 336.91 23.1299 337.12 23.8201L337.383 24.7044C337.723 25.8445 337.94 26.5723 338.15 27.3001C339.87 33.22 342.01 37.2 345.13 38.69C346.69 39.44 348.5 39.6002 350.66 39.1002C351.74 38.8502 352.91 38.45 354.18 37.8702C354.392 37.7777 354.605 37.6773 354.821 37.5723C354.957 37.5064 355.094 37.4385 355.232 37.3694L355.34 37.3145L355.65 37.1575C355.819 37.0718 355.989 36.9857 356.16 36.9C356.85 36.5701 357.56 36.19 358.31 35.7801C359.43 35.15 361.1 33.8502 362 32.89C364.28 30.46 366.4 28.3502 368.43 26.42C369.45 25.45 370.44 24.5301 371.43 23.6299C372.41 22.72 373.39 21.8602 374.36 21.0501C375.129 20.4014 375.898 19.7559 376.675 19.1046L376.682 19.0987C379.828 16.4583 383.09 13.7215 386.93 10.2901C387.77 9.5401 388.3 8.44 388.77 7.32013C389.55 5.44 388.93 3.20001 387.07 2.20001ZM411.66 39.48C415.8 37.44 419.44 34.0001 422.35 29.2701V29.2801C426.12 23.21 426.26 17.47 422.28 13.5201C419.67 10.9 416.85 9.52008 413.98 9.38996C412.55 9.33014 411.1 9.57013 409.67 10.1299C408.23 10.69 406.79 11.66 405.39 12.8799C404.58 13.5855 403.69 14.1946 402.805 14.8001C401.483 15.7051 400.173 16.6019 399.16 17.8001L398.612 18.4478L398.568 18.4998C395.718 21.8665 392.796 25.3187 391.15 29.3301C388.13 36.7601 390.62 40.7601 397.66 41.6102C400.24 41.93 402.72 41.8101 405.05 41.47C407.38 41.17 409.58 40.5001 411.66 39.48ZM400.72 28.92C403.37 23.8101 407.11 21.2 412.64 21.3001C414.34 21.3101 415.41 23.3502 414.56 24.98C413.01 27.9901 411.32 29.96 409.29 31.0301C408.28 31.5601 407.18 31.8702 405.97 31.97C404.75 32.1102 403.42 32.0801 401.94 31.8502C400.72 31.66 400.09 30.14 400.72 28.92ZM218.14 28.69C219.01 27.7401 220 26.8101 221.09 25.92V25.93C222.85 24.4901 224.73 23.16 227.33 24.0401C229.18 24.66 229.68 26.5001 228.49 28.0501C228.356 28.2252 228.223 28.4005 228.089 28.5755C227.056 29.9324 226.025 31.2877 224.82 32.5101C222.13 35.23 221.08 37.8402 221.17 40.44C221.25 43.0101 222.4 45.46 224.08 47.8702C224.67 48.7134 225.29 49.5391 225.91 50.3643C226.686 51.3985 227.463 52.4322 228.18 53.5001C230.17 56.47 231.49 59.6002 230.59 63.46C229.49 68.1299 225.22 71.48 220.53 71.22C218.9 71.1102 217.84 70.9 217.08 70.2C216.32 69.5101 215.88 68.3702 215.56 66.5601C216.44 66.5301 217.3 66.5101 218.16 66.5301C220.14 66.5501 221.95 65.5501 222.91 63.8201C224.21 61.4901 223.87 59.67 221.96 56.95C220.987 55.5645 219.927 54.2254 218.868 52.8858C218.153 51.9822 217.439 51.0784 216.75 50.16C213.91 46.39 212.8 42.21 213.51 38.0001C213.86 35.9 214.66 33.7901 215.92 31.73C216.55 30.7 217.28 29.67 218.14 28.69ZM192.351 51.209L191.42 51.95C190.56 52.71 189.73 53.48 188.95 54.3001C186.73 56.6299 184.55 58.96 182.41 61.2901C182.085 61.6453 181.759 61.9979 181.434 62.3499C180.688 63.157 179.944 63.9615 179.22 64.7901L176.16 68.44L174.92 68.0201C175.292 66.8345 175.664 65.6514 176.035 64.4683C176.404 63.2964 176.772 62.1246 177.14 60.95C177.95 58.64 178.81 56.3502 179.78 54.0601C180.391 52.6151 181.3 51.2606 182.214 49.8975L182.217 49.8931C182.694 49.1824 183.172 48.4693 183.61 47.7401C185.6 44.43 185.68 42.0301 183.51 40.96C180.687 39.5767 179.003 41.8223 177.664 43.6077L177.659 43.6143C177.557 43.7496 177.458 43.8821 177.36 44.0101C176.19 45.5501 175.09 47.14 174.08 48.7601C173.08 50.4 172.12 52.0001 171.34 53.7501C165.4 66.6002 168.86 77.17 177.21 86.5801C182.03 91.96 188.65 91.8502 193.3 86.6002C196.47 83.3201 197.99 79.2701 197.58 74.5902C197.47 73.3702 196.76 71.5501 195.85 71.22C194.02 70.5501 193.04 72.14 192.49 73.8101C192.42 74.0233 192.352 74.2376 192.285 74.4529C192.206 74.7069 192.129 74.962 192.052 75.2171C191.627 76.6238 191.202 78.0318 190.49 79.2601C190.18 79.8001 189.84 80.2701 189.47 80.68C189.11 81.1002 188.74 81.48 188.34 81.7801C187.55 82.3799 186.68 82.73 185.79 82.8101C184.01 82.98 182.13 82.1102 180.6 80.17C179.87 79.2401 179.253 78.2198 178.63 77.1876L178.609 77.1531C178.475 76.9319 178.341 76.71 178.206 76.4886L178.131 76.3677L178.047 76.231L177.949 76.0743L177.868 75.9439L177.77 75.7901C179.36 74.94 181.35 73.18 183.47 70.92C185.67 68.7801 188.02 66.15 190.22 63.41C194.55 57.8301 198.63 52.3001 199.19 49.3602C197.48 48.3402 195.76 48.45 194.08 49.8101V49.8301L192.351 51.209ZM154.743 74.6375C155.103 74.2559 155.463 73.8743 155.82 73.4901L155.81 73.47C157.28 71.89 158.96 71.5301 160.78 72.3101C160.7 73.8001 159.86 76.1002 158.57 78.7501C157.93 80.0801 157.17 81.4901 156.34 82.94C155.49 84.3602 154.6 85.8602 153.7 87.3799C151.9 90.41 149.94 93.3702 148.06 95.8101C147.12 97.0301 146.2 98.1299 145.33 99.0401C144.46 99.96 143.69 100.77 142.96 101.29C143.308 101.706 143.645 102.128 143.98 102.549C144.733 103.494 145.479 104.43 146.33 105.26C148.11 106.99 150.06 107.57 151.81 107.19C153.59 106.84 155.15 105.48 156.08 103.16C156.617 101.823 156.85 100.343 157.084 98.8663L157.137 98.5323C157.161 98.3807 157.185 98.2293 157.21 98.0784C157.231 97.9539 157.251 97.8297 157.273 97.7056L157.294 97.5872L157.32 97.44C157.64 95.7 158.39 93.98 160.28 94.39C161.21 94.6002 162.16 96.3101 162.43 97.5101C163.46 102.13 162.51 106.38 159.83 110.1C158.81 111.52 157.63 112.62 156.35 113.42C155.12 114.28 153.78 114.81 152.38 115.01C149.59 115.41 146.58 114.51 143.86 112.15C139.13 108.03 135.55 103.46 133.67 98.21C132.73 95.5902 132.22 92.7901 132.2 89.8001C132.19 88.3001 132.31 86.7601 132.55 85.16C132.81 83.5801 133.24 82.0001 133.79 80.3402C134.98 76.7901 136.55 73.23 138.45 69.8402C138.548 69.6685 138.646 69.4898 138.747 69.3074C139.234 68.4263 139.771 67.4544 140.5 66.7501C141.41 65.94 142.57 65.5101 144.19 66.0801C146.51 66.9 146.72 69.2501 145.11 72.71C144.789 73.4485 144.435 74.181 144.081 74.9124C143.343 76.439 142.606 77.9617 142.18 79.5301C140.9 84.3702 139.99 89.15 139.12 93.95L140.4 94.19L145.73 86.3702L148.45 82.43C149.37 81.1202 150.28 79.7801 151.28 78.5501C152.335 77.1876 153.538 75.9136 154.743 74.6375ZM136.14 122.57C136.02 126.51 135.41 128.82 132.54 130.4C131.08 131.16 129.2 131.89 126.46 132.51C123.74 133.14 120.24 133.74 115.68 134.48C114.91 134.6 114.31 135.06 113.98 135.67C113.67 136.3 113.64 137.08 113.97 137.82L114.255 138.467L114.302 138.573C115.222 140.655 116.132 142.712 116.81 144.81L116.894 145.069C117.803 147.874 118.766 150.848 116.37 153.37C115.63 154.15 114.33 154.22 113.3 153.59L113.082 153.458C111.728 152.64 110.33 151.796 109.59 150.6L109.43 150.341L109.428 150.338C103.94 141.432 98.3513 132.363 94.41 122.48C91.89 116.28 92.93 110.08 95.96 105.16C97.06 103.38 98.19 101.86 99.32 100.6C100.42 99.3101 101.65 98.42 102.78 97.69C105.07 96.2801 107.23 95.8799 109.12 96.43C112.91 97.5301 115.6 102.47 116.41 110.47C116.536 111.648 116.624 112.826 116.711 113.986L116.72 114.11C116.84 115.86 116.88 117.66 116.9 119.45C116.903 119.955 116.904 120.458 116.905 120.958V120.969V120.972V120.975C116.906 121.357 116.907 121.737 116.909 122.116C116.911 122.502 116.913 122.886 116.917 123.267C116.922 123.742 116.929 124.213 116.94 124.68C118.84 125.43 120.59 125.65 122.23 125.56C123.784 125.485 125.223 125.099 126.697 124.703L126.703 124.702L126.97 124.63C127.099 124.593 127.228 124.556 127.356 124.518C127.451 124.491 127.545 124.462 127.64 124.434L127.766 124.396L128.018 124.319C128.378 124.208 128.737 124.094 129.095 123.981L129.131 123.97C131.458 123.233 133.735 122.511 136.13 122.58L136.14 122.57ZM108.32 120.44C108.373 119.655 108.477 118.861 108.582 118.061C109.004 114.824 109.439 111.499 106.6 108.38C99.92 113.8 105.12 119.59 108.32 120.44ZM77.8196 129.665C78.5196 128.948 79.2747 128.173 80.15 128L80.16 128.01C81.37 127.8 83.1 127.91 83.96 128.67C84.79 129.41 85.38 131.36 85.08 132.35C84.49 134.53 83.4 136.55 82.24 138.43C81.01 140.42 79.75 142.38 78.48 144.32C78.2818 144.625 78.0806 144.93 77.8787 145.234L77.7 145.503C77.319 146.076 76.9374 146.649 76.57 147.23L74.77 150.22C73.3 152.67 73.4 155.05 74.51 158.08C75.4 160.52 76.42 162.89 77.54 165.2C78.66 167.5 79.9 169.74 81.31 171.98C84.09 176.42 87.31 180.66 90.96 184.77C88.55 187.86 85.79 187.01 83.58 184.73C79.54 180.56 75.8 176.09 72.27 171.45C71.1722 170.01 70.3922 168.349 69.4445 166.332C69.2233 165.861 68.9929 165.371 68.7473 164.859C68.5403 164.428 68.3225 163.982 68.09 163.52C67.5688 164.375 67.105 165.165 66.6721 165.903L66.6556 165.931L66.653 165.936C65.7069 167.548 64.9062 168.913 63.97 170.17C62.64 171.95 60.97 173.56 58.18 171.89C55.62 170.35 54.35 168.16 54.88 165.27C55 164.59 55.32 163.97 55.58 163.34L55.7195 163.01L55.7223 163.003C56.9852 160.014 58.2572 157.003 59.78 154.15C61.39 151.21 63.09 148.33 64.89 145.51C65.79 144.1 66.72 142.71 67.67 141.34C68.433 140.232 69.2864 139.194 70.1368 138.16L70.1419 138.154L70.1778 138.111L70.5264 137.686L70.76 137.4C72.9 134.84 75.14 132.36 77.5 129.99C77.5391 129.951 77.5782 129.911 77.6176 129.871L77.7334 129.753L77.8196 129.665ZM16.26 249.4C16.1 248.12 16.03 246.77 16.06 245.35H16.07C16.11 243.06 16.32 240.77 18.67 239.34C20.34 238.33 22.06 239.14 22.48 241.05C22.5274 241.268 22.5754 241.485 22.6234 241.703C22.9904 243.368 23.3597 245.043 23.51 246.75C23.84 250.59 25.16 253.07 27.2 254.69C29.21 256.3 31.82 257 34.75 257.27C35.7637 257.362 36.7833 257.42 37.8027 257.477C39.1061 257.551 40.4094 257.624 41.7 257.77C45.25 258.16 48.5 259.18 50.86 262.36C53.71 266.22 53.51 271.66 50.28 275.09C49.15 276.27 48.29 276.94 47.27 277.07C46.26 277.2 45.1 276.8 43.51 275.88C44.03 275.18 44.6 274.52 45.17 273.87C46.46 272.37 46.87 270.33 46.17 268.48C45.22 265.97 43.62 265.05 40.3 264.76C38.5896 264.609 36.8646 264.553 35.1382 264.497H35.134C34.0053 264.46 32.8761 264.423 31.75 264.36C27.03 264.1 23.12 262.25 20.37 258.98C18.99 257.35 17.9 255.37 17.14 253.07C16.76 251.92 16.45 250.69 16.26 249.4ZM11.92 269.47C11.2235 269.99 10.8767 270.992 10.5577 271.915L10.5553 271.921L10.5529 271.928L10.4806 272.137L10.43 272.28C9.34998 275.3 8.40997 278.36 7.59998 281.45C7.40003 282.22 7.20001 283 7.02002 283.78L6.59998 286.14C6.33002 287.72 6.09998 289.3 5.90003 290.89C5.48999 294.06 5.20001 297.26 5.02002 300.46C4.90003 303.67 5.03998 306.91 5.19 310.13C5.1955 310.249 5.19965 310.369 5.2038 310.488C5.22235 311.024 5.24115 311.565 5.38001 312.08C6.10999 314.8 8.14002 316.18 11 316.46C14.12 316.76 14.91 314.69 15.33 312.6C15.6223 311.139 15.7528 309.636 15.9069 307.863C15.9796 307.027 16.0574 306.13 16.16 305.15C17.0504 305.836 17.8416 306.483 18.5758 307.083L18.5809 307.088C20.2111 308.421 21.5603 309.525 23.09 310.31C28.09 312.88 33.2 315.23 38.45 317.19C41.32 318.26 44.07 317.87 44.89 314.19C35.14 310.05 26.56 304.78 19.48 297.81C17.26 295.65 16.19 293.63 16.46 290.9L16.79 287.58C16.89 286.47 17 285.36 17.18 284.26C17.49 282.06 17.78 279.85 18.03 277.63C18.27 275.53 18.38 273.34 18.01 271.21C17.83 270.22 16.46 268.76 15.43 268.47C14.37 268.17 12.85 268.79 11.92 269.49V269.47ZM2.42999 336.09C0.960023 334.04 1.19 331.72 2.79999 329.85V329.84C4.46002 327.91 6.83002 327.47 8.53998 329.35C12.1085 333.239 16.5734 335.548 21.0475 337.861C23.8328 339.302 26.6216 340.744 29.2 342.57C29.3468 342.674 29.494 342.778 29.6415 342.882L30.0201 343.148C30.3145 343.355 30.6097 343.56 30.9052 343.767C33.6824 345.704 36.4752 347.653 38.69 350C40.57 352 41.3 353.72 40.91 355.2C40.58 356.68 39.14 357.93 36.55 358.96C33.0678 360.358 29.4705 361.538 25.8607 362.722C23.7379 363.418 21.6107 364.116 19.5 364.86C18.3546 365.268 17.1967 365.646 16.0369 366.025L16.0336 366.026L15.6631 366.147L15.2286 366.289C14.8655 366.409 14.5026 366.529 14.14 366.65L13.92 368.17C16.11 369.79 18.29 371.37 20.5 372.93C21.4637 373.593 22.4275 374.257 23.3936 374.923L23.6298 375.086L23.7322 375.157L25.5048 376.379L26.2197 376.871L27.25 377.58C29.543 379.18 31.7677 380.841 33.9715 382.485L33.9742 382.488L33.9861 382.496L33.998 382.505C34.5144 382.891 35.0296 383.275 35.5443 383.658C36.1866 384.135 36.8281 384.61 37.47 385.08C39.05 386.23 40.64 387.57 39.4 389.68C38.22 391.64 35.98 392.39 33.77 391.69C30.04 390.52 26.37 389.03 22.92 387.34C20.89 386.361 18.9316 385.209 16.9628 384.051L16.956 384.047C15.8914 383.421 14.8237 382.793 13.74 382.19L13.4631 382.037L13.1807 381.882L13.1459 381.863C10.2452 380.271 7.42334 378.722 6.73999 374.64C6.55298 373.674 5.4372 372.799 4.39539 371.982L4.38989 371.977C4.0965 371.747 3.80902 371.522 3.54999 371.3C0.059999 368.3 0.0700087 364.85 4.04999 362.64C6.95001 361.03 10.17 359.99 13.35 359.07C16.3737 358.191 19.4392 357.475 22.5006 356.761C24.1774 356.369 25.8531 355.978 27.52 355.56C28.186 355.395 28.8198 355.057 29.692 354.592C30.1948 354.324 30.7769 354.014 31.49 353.67C30.6318 353.125 29.8871 352.625 29.2041 352.166C28.1203 351.438 27.1915 350.814 26.21 350.28C19.22 346.5 12.17 342.57 5.17999 338.34C4.15997 337.72 3.09003 337.03 2.42999 336.09ZM30.87 509.02C28.25 504.49 27.33 498.25 29.14 495.37V495.38L29.17 495.33C30.83 492.7 33.91 491.36 37.03 491.62C42.93 492.12 48.46 495.72 54.03 501.02C54.89 501.78 55.71 503.2 56.39 504.45C57.16 505.86 57.4 507.5 56.63 508.13C56.04 508.62 55.08 508.58 54.23 508.3C53.9004 508.19 53.5373 507.73 53.1634 507.256C52.9247 506.954 52.6816 506.646 52.44 506.42C50.97 505.02 49.45 503.79 48.05 502.68C46.65 501.57 45.26 500.64 43.87 499.93C41.09 498.52 38.33 497.99 35.63 498.7L35.4781 498.741L35.4772 498.741C34.8932 498.896 34.2889 499.057 33.82 499.48C31.92 501.19 32.42 504.52 35 507.4C36.62 509.26 38.42 510.47 40.13 511.36C41.85 512.24 43.56 512.76 45.24 513.15C49.89 514.21 53.95 513.3 57.86 511.94C63.79 509.86 69.75 507.87 76.1 507.11L76.4098 507.07C77.6497 506.91 78.9093 506.748 80.22 506.96C82.03 507.26 83.22 509.61 82.45 511.41C82 512.45 81.11 513.41 80.15 513.43C74.8354 513.511 70.1307 515.207 65.4222 516.904C62.6002 517.922 59.7768 518.939 56.82 519.61C51.9 520.71 46.98 521.25 41.22 518.49C39.4 517.62 37.6 516.53 35.85 515.02C34.12 513.5 32.32 511.63 30.87 509.02ZM15.74 395.9C16.65 395.49 18.68 396.19 19.41 397.07C21.26 399.3 23.05 401.71 24.13 404.33C24.48 405.18 24.89 405.88 25.37 406.44C25.88 407 26.44 407.43 27.06 407.77C28.3 408.44 29.75 408.74 31.43 408.92C35.0324 409.298 38.6039 410.015 42.1445 410.727C42.6335 410.825 43.1221 410.923 43.61 411.02C43.88 411.07 44.14 411.19 44.39 411.33H44.42C44.42 411.33 44.4252 411.336 44.4332 411.345C44.4413 411.354 44.4521 411.365 44.4635 411.375C44.4761 411.387 44.4893 411.397 44.5 411.4C44.74 411.55 44.98 411.72 45.23 411.91C46.01 412.51 46.01 413.66 45.19 414.27L45.095 414.338C45.0412 414.376 44.9874 414.414 44.9337 414.451C44.7691 414.564 44.6046 414.671 44.44 414.77L44.4215 414.785L44.4109 414.793C44.3806 414.818 44.3503 414.845 44.32 414.86L44.2991 414.87L44.2735 414.882L44.23 414.9L44.1832 414.92C44.1688 414.926 44.1544 414.933 44.14 414.94C43.8 415.12 43.46 415.28 43.11 415.41L42.94 415.48C42.53 415.62 42.12 415.73 41.7 415.82L41.36 415.88C41.03 415.94 40.7 415.98 40.37 416.02L40.03 416.05C39.61 416.08 39.18 416.1 38.76 416.11H38.57H37.37L36.23 416.09H35.77C35.33 416.08 34.9 416.08 34.46 416.09H34.16L33.14 416.18C31.71 416.33 30.75 417.73 31.15 419.09L31.3 419.61L31.54 420.41L31.73 421.04L31.96 421.79C31.9687 421.823 31.978 421.856 31.9877 421.888C31.9991 421.926 32.0112 421.963 32.0238 422.001L32.0304 422.02C32.0399 422.048 32.0497 422.075 32.0598 422.103C32.0887 422.182 32.1194 422.261 32.15 422.34L32.44 423.11L32.63 423.6L33 424.47L33.15 424.82L33.152 424.825C33.2188 424.973 33.2856 425.121 33.353 425.269C33.4664 425.518 33.5812 425.766 33.7 426.01L33.82 426.25C33.97 426.56 34.13 426.86 34.3 427.16L34.53 427.55L34.96 428.26L35.25 428.68L35.7 429.31L36.03 429.73C36.19 429.93 36.35 430.12 36.51 430.3L36.88 430.7C37.05 430.88 37.23 431.06 37.41 431.23L37.82 431.6C37.9061 431.677 37.9962 431.752 38.0877 431.826C38.1448 431.872 38.2024 431.918 38.2599 431.963L38.2779 431.977L38.3415 432.027L38.42 432.09L38.87 432.43C39.09 432.59 39.33 432.74 39.56 432.88L40.03 433.17C40.3 433.32 40.59 433.47 40.88 433.61L41.31 433.83C41.76 434.03 42.22 434.22 42.72 434.39C44.3553 434.964 45.9705 435.706 47.5909 436.451C48.7646 436.991 49.9412 437.531 51.13 438.01C53.42 438.93 55.35 440.32 54.37 442.78C53.5782 444.776 50.8002 443.854 48.5437 443.105C48.0643 442.945 47.6083 442.794 47.2 442.68C44.64 441.98 42 441.25 39.67 440C27.01 433.01 14.45 424.91 2.5 415.57C2.39002 415.485 2.28882 415.409 2.19586 415.338C1.2237 414.601 1.15357 414.548 1.40003 413.27C1.67999 411.78 3.58002 410.1 5.10999 409.68C5.84003 409.48 6.58002 409.33 7.34003 409.19C7.59003 409.15 7.84998 409.11 8.10999 409.07C8.65003 408.99 9.19 408.91 9.75 408.84C10.07 408.8 10.4 408.76 10.72 408.73C10.8787 408.714 11.0386 408.697 11.1995 408.68L11.5357 408.644L11.5547 408.641C11.7767 408.618 12.0006 408.594 12.2266 408.57C12.4229 408.55 12.6207 408.529 12.82 408.51C12.9888 408.492 13.163 408.472 13.3397 408.452L13.3833 408.447L13.4057 408.444L13.4139 408.443C13.6948 408.412 13.9808 408.379 14.26 408.35C15.09 408.19 15.64 407.74 15.22 405.8C14.89 404.29 14.62 402.91 14.42 401.57V401.48C14.3721 401.192 14.3317 400.905 14.2981 400.617C14.2546 400.245 14.2225 399.872 14.2 399.5C14.13 398.27 14.86 396.33 15.76 395.93L15.74 395.9ZM15.95 415.55C15.79 415.59 15.75 415.8 15.88 415.9L19.92 418.84L24.11 421.83C24.1698 421.87 24.242 421.87 24.3007 421.842C24.3597 421.813 24.405 421.755 24.41 421.68C24.88 415.82 23.1 413.82 15.95 415.55ZM47.0263 458.861C46.2123 458.043 45.3863 457.212 45.04 456.18H45.05C44.36 454.15 47.63 451.94 50.16 452.79H50.19C53.74 453.99 56.45 455.63 58.44 457.65C59.44 458.66 60.25 459.77 60.91 460.96C61.24 461.55 61.52 462.17 61.77 462.81C62.03 463.44 62.29 464.08 62.49 464.75C63.28 467.33 62.42 470.56 60.03 473.24C57.64 475.91 53.74 478.03 48.36 478.08C43.48 478.12 38.64 477.84 33.79 477.38C31.36 477.14 28.94 476.87 26.51 476.57C24.7504 476.353 23.0328 476.104 21.3078 475.854C20.6505 475.759 19.9922 475.664 19.33 475.57C18.07 475.39 16.47 473.86 16.6 472.93C16.77 471.22 18.82 470.5 20.12 470.31C22.99 469.9 25.96 469.96 28.77 470.14C30.6694 470.262 32.5501 470.418 34.4236 470.573C35.6177 470.672 36.8088 470.771 38 470.86C41.04 471.1 44.2 471.23 47.32 471.23C52.39 471.2 53.99 469.75 52.65 466.45C51.9735 464.51 50.5065 462.81 49.0448 461.115C48.7131 460.731 48.3818 460.347 48.06 459.96C47.7465 459.585 47.3876 459.224 47.0263 458.861ZM267.96 662.6L267.973 662.593C269.138 664.682 270.914 666.278 272.726 667.905L272.745 667.921L273.005 668.155L273.204 668.335C273.599 668.691 273.993 669.051 274.38 669.42C276.74 671.55 278.88 673.95 279.54 677.99C278.529 678.632 277.473 679.263 276.402 679.902C274.452 681.067 272.452 682.261 270.58 683.61C270.324 683.792 270.065 683.975 269.805 684.159L269.799 684.163C269.075 684.675 268.339 685.194 267.62 685.73C261.17 690.51 258.3 695.33 259.29 699.16C260.27 702.96 265.09 705.94 273.5 706C279.26 706.12 285.12 703.82 289.15 698.48C295.617 690.035 300.529 680.613 305.357 671.353L305.52 671.04C306.172 669.784 306.18 668.134 306.189 666.537L306.19 666.33C306.2 665.13 305.48 664.05 304.43 663.81C301.056 663.046 299 665.386 297.059 667.593L296.86 667.82C295.382 669.507 294.068 671.366 292.732 673.257L292.688 673.32L292.32 673.84C291.38 675.18 289.57 675.33 288.58 674.1C282.7 667.01 279.36 663.27 276.5 661.72C273.693 660.052 271.406 660.688 267.973 662.593L267.96 662.57V662.6ZM280.3 687.59C279.603 687.941 278.873 688.255 278.136 688.571C275.141 689.857 272.056 691.182 270.82 695.22C278.88 698.2 281.19 690.78 280.3 687.59ZM232.99 648.78C228.12 649.95 223.49 652.6 219.26 656.91H219.25C213.76 662.48 212.23 668.46 215.44 673.76C216.49 675.5 217.68 676.93 218.98 678.03C220.29 679.11 221.74 679.79 223.26 680.18C226.31 680.95 229.69 680.4 233.25 678.51C234.239 677.985 235.287 677.582 236.333 677.18C237.974 676.549 239.611 675.919 241.01 674.82L241.6 674.366C245.509 671.361 249.529 668.269 252.28 664.29C257.25 657.03 255.53 652.23 248.27 649.84C243.03 647.82 237.91 647.5 232.99 648.78ZM242.01 662.59C238 667.36 233.49 669.05 227.56 667.83C225.74 667.46 225.09 665.06 226.39 663.52C231.18 657.82 235.49 656.6 241.44 659.14C242.66 659.66 242.96 661.45 242.01 662.59ZM179.91 627.5C181.203 627.956 182.539 628.284 183.871 628.611C185.196 628.937 186.518 629.261 187.79 629.71C188.569 630.003 189.378 630.253 190.19 630.504C190.527 630.608 190.864 630.712 191.199 630.819C191.521 630.922 191.842 631.028 192.16 631.14C193.61 631.64 195 632.23 196.28 633C201.75 636.29 202 642.9 196.54 646.81C194.03 648.59 190.9 649.88 187.83 650.38C185.56 650.75 183.23 650.88 180.87 650.94L180.854 650.94L180.838 650.941L180.823 650.941L180.809 650.942L180.796 650.942C180.386 650.949 179.976 650.956 179.564 650.963L179.105 650.971L178.679 650.98L178.344 650.986C178 650.993 177.655 651.001 177.31 651.01C176.97 651.016 176.632 651.017 176.297 651.015C176.046 651.014 175.795 651.012 175.545 651.01H175.544H175.543H175.541H175.54H175.539H175.538H175.537H175.535H175.534H175.533H175.532H175.531H175.53H175.528H175.527H175.526H175.525H175.524C174.947 651.005 174.372 651 173.79 651.01C173.593 651.012 173.395 651.014 173.197 651.015L173.134 651.015C171.576 651.025 169.972 651.036 168.5 651.43C165.54 652.22 164.71 656.4 167.14 658.48C168.24 659.43 169.91 659.73 171.23 659.9C176.69 660.39 182.01 660.82 187.11 660.48C188.39 660.39 189.64 660.27 190.89 660.06C192.16 659.83 193.41 659.53 194.64 659.17C197.11 658.45 199.5 657.45 201.81 656.08C207.91 652.47 209.91 646.5 209.82 639.71C209.77 636.53 208.93 633.98 207.33 631.87C205.73 629.75 203.47 627.87 200.42 626.28C199.06 625.75 197.63 625.21 196.13 624.73C194.854 624.313 193.512 623.961 192.161 623.607C191.924 623.545 191.687 623.483 191.45 623.42C188.24 622.64 184.76 622.3 180.99 622.86C179.98 623.01 178.97 623.18 178.24 625.34C178.11 626.24 178.29 627.06 179.91 627.51V627.5ZM121.47 612.01C118.98 610.46 117.48 609.16 115.65 607.16L115.66 607.15C115.12 606.57 113.28 603.79 116.16 603.62C117.6 603.53 120.21 604.09 124.69 605.82L124.99 605.942L125.303 606.069C125.495 606.146 125.691 606.224 125.89 606.303C126.505 606.547 127.158 606.803 127.849 607.074C129.398 607.681 131.136 608.362 133.05 609.15C134.73 609.84 136.54 610.62 138.5 611.48C138.91 611.666 139.33 611.854 139.757 612.045C140.157 612.223 140.564 612.403 140.977 612.586L140.988 612.591L141.029 612.609L141.55 612.84C141.873 612.989 142.204 613.139 142.541 613.29C142.745 613.383 142.952 613.476 143.16 613.57C143.367 613.655 143.575 613.74 143.785 613.825L144.327 614.045L144.88 614.27C146.02 610.26 147.01 606.88 148.16 603.57C148.77 601.8 149.42 599.96 150.47 598.42C151.42 597.04 153.02 596.43 154.68 596.92C156.48 597.48 156.82 598.92 156.5 600.56C156.176 602.226 155.832 603.897 155.487 605.575L155.487 605.576C154.97 608.085 154.452 610.609 153.99 613.15C153.777 614.312 153.622 615.486 153.477 616.588L153.477 616.589L153.476 616.595L153.472 616.627C153.427 616.962 153.384 617.291 153.34 617.61C154.765 618.547 155.7 617.928 156.56 617.359L156.562 617.358C156.794 617.205 157.021 617.055 157.25 616.94C157.951 616.59 158.607 616.13 159.263 615.671L159.264 615.67C159.731 615.343 160.198 615.017 160.68 614.73C161.656 614.152 162.637 613.555 163.623 612.956L163.645 612.943L163.648 612.941C165.451 611.844 167.269 610.738 169.1 609.72C169.872 609.294 170.865 609.262 171.784 609.232C171.901 609.228 172.016 609.225 172.13 609.22C173.28 609.18 174.35 611.19 173.6 612.11L173.339 612.43C171.874 614.229 170.385 616.056 168.62 617.51C163.55 621.69 158.4 625.86 152.84 629.47C147.05 633.24 140.97 636.27 134.72 639.31C132.87 640.21 130.87 639.78 129.47 637.84C127.46 635.06 128.23 632.31 131.48 631.44C136.07 630.2 140.51 628.87 143.89 625.85C144.05 623.397 142.598 622.734 141.092 622.046L141.08 622.04C137.963 620.703 134.981 619.178 131.971 617.639L131.21 617.25L130.537 616.903L129.896 616.572C127.07 615.117 124.214 613.646 121.47 612.01ZM91.23 594.87C96.19 597.69 101.05 598.63 105.22 597.89C109.41 597.15 112.96 594.69 115.55 590.73C116.186 589.761 116.798 588.775 117.41 587.788L117.413 587.783L117.415 587.78C118.311 586.334 119.206 584.889 120.18 583.5C122.09 580.77 123.69 579.84 126.31 580.29C128.25 580.63 129.79 582.02 130.52 583.81L130.718 584.316C130.815 584.565 130.913 584.815 131.01 585.067C131.159 585.45 131.308 585.836 131.46 586.23C134.64 584.4 135.15 583.03 134.13 579.99C133.35 577.83 131.93 575.91 130.02 574.69C128.12 573.46 125.78 572.85 123.41 573.12C119.5 573.56 116.97 575.89 114.87 578.76C114.113 579.793 113.408 580.869 112.703 581.945C112.132 582.817 111.56 583.69 110.96 584.54C109.27 586.95 107.35 588.86 104.96 589.8C103.77 590.27 102.45 590.49 100.99 590.4C99.53 590.31 97.89 589.95 96.18 589.11C94.6174 588.377 92.9825 587.854 91.3473 587.33L91.3464 587.33L91.3455 587.33L91.3445 587.329L91.3436 587.329L91.3427 587.329L91.3418 587.328L91.3409 587.328L91.34 587.327L91.3391 587.327L91.3381 587.327L91.3372 587.326L91.3363 587.326L91.3354 587.326L91.3345 587.325L91.3336 587.325L91.3326 587.325L91.3317 587.324L91.3308 587.324L91.3299 587.323L91.329 587.323L91.3281 587.323L91.3271 587.322L91.3262 587.322L90.76 587.14C88.9 586.54 87.35 587.63 87.38 589.59C87.43 592.35 89.3 593.68 91.25 594.86L91.23 594.87ZM494.63 59.7801C493.559 59.3795 492.364 59.4654 491.184 59.5504C490.656 59.5884 490.13 59.6263 489.62 59.6202L489.282 59.6165C489.131 59.6153 488.981 59.6148 488.83 59.6146C488.558 59.6141 488.284 59.6151 488.011 59.616C485.711 59.6236 483.399 59.6312 481.39 58.91C477.83 57.8001 477.65 55.71 480.81 51.91C482.77 49.5701 484.85 47.3602 486.97 45.18C487.627 44.514 488.287 43.8499 488.949 43.1846L488.967 43.1663L488.975 43.159C490.421 41.7054 491.872 40.2462 493.3 38.7501C495.2 36.7701 497.07 34.5902 498.51 32.18C499.16 31.0902 499.83 29.0902 498.53 27.8602C497.85 27.17 495.6 27.3799 494.69 28.2C487.6 34.6002 480.59 41.0301 474.54 48.3402C471.21 52.3799 470.47 56.6299 471.15 60.0902C471.84 63.5501 473.94 66.2401 476.57 67.2601C481.93 69.5902 487.73 69.5001 494.19 65.7601L494.22 65.7401C496.51 64.39 496.74 60.5701 494.63 59.7801ZM456.09 46.22C458.06 44.7801 459.92 42.9901 461.65 40.8402V40.8301C466.14 35.2601 466.97 29.65 463.56 25.1102C462.44 23.6102 461.23 22.42 459.95 21.5301C458.65 20.7 457.28 20.19 455.86 19.98C453.02 19.5601 449.98 20.3702 446.91 22.41C446.021 23.0084 445.063 23.4857 444.11 23.9603C442.706 24.6597 441.314 25.3536 440.17 26.42L439.518 27.0316L439.516 27.033C436.257 30.0865 432.917 33.2156 430.78 37.0301C428.8 40.5501 428.34 43.3702 429.21 45.5001C430.07 47.65 432.29 49.0101 435.73 49.8799C440.73 51.2701 445.46 51.1002 449.85 49.5001C450.95 49.0801 452.02 48.6299 453.05 48.1002C454.09 47.5701 455.1 46.94 456.09 46.22ZM440.33 37.71C443.58 33.0001 447.55 31.0601 453.07 31.64C454.76 31.8201 455.57 33.95 454.53 35.47C450.68 41.1002 446.84 42.5902 441.16 40.8101C439.99 40.44 439.56 38.8301 440.33 37.71ZM627.18 124.07C626.98 121.44 625.37 119.5 622.68 119.04C621.45 118.83 620.12 119.09 618.9 119.37C614.72 120.3 610.46 121.42 606.28 122.56C602.1 123.7 597.96 124.89 593.86 126.1C592.7 126.439 591.513 126.672 590.126 126.944L590.121 126.945L590.119 126.945L590.1 126.949C589.246 127.116 588.316 127.299 587.27 127.53C587.554 126.721 587.761 126.04 587.939 125.453C588.244 124.451 588.465 123.721 588.85 123.09C589.74 121.62 590.646 120.166 591.55 118.715C593.407 115.733 595.258 112.761 596.96 109.68C598.67 106.57 600.32 103.34 601.29 99.91C602.62 95.21 599.99 92.5501 595.06 92.92C594.651 92.9495 594.206 93.0089 593.75 93.0694C592.358 93.2549 590.871 93.4529 590.05 92.8502C586.424 90.2457 583.115 91.2047 579.71 92.1912C579.481 92.2576 579.251 92.3243 579.02 92.39C577.793 92.7405 576.561 93.0596 575.334 93.3775L575.18 93.4171L574.369 93.6275C574.099 93.6981 573.829 93.7689 573.56 93.8402C572.65 94.0801 571.75 94.3201 570.85 94.5902C569.94 94.8702 569.04 95.17 568.14 95.4901C564.17 96.94 560.29 98.5801 556.61 100.51C554.42 101.66 553.31 103.94 553.89 106.33C554.52 108.92 556.83 108.61 558.92 108.24C560.732 107.946 562.547 107.68 564.369 107.412C567.002 107.027 569.649 106.639 572.32 106.16C574.274 105.823 576.249 105.453 578.233 105.081L578.267 105.074L578.282 105.071L578.285 105.071L578.289 105.07L578.294 105.069L578.299 105.068L578.306 105.067C582.065 104.362 585.855 103.652 589.59 103.15L590.58 104.47C590.28 105.073 589.976 105.674 589.672 106.275L589.67 106.277C589.062 107.479 588.453 108.681 587.88 109.9C586.824 112.114 585.718 114.303 584.615 116.488L584.614 116.49C582.801 120.078 580.996 123.652 579.43 127.3C578.24 130.05 578.12 132.06 578.94 133.48C579.77 134.9 581.62 135.64 584.57 135.73C588.036 135.83 591.633 135.2 595.224 134.572L595.241 134.569L595.257 134.566L595.98 134.44C596.467 134.355 596.954 134.271 597.44 134.19C599.62 133.82 601.71 133.3 603.79 132.71C604.971 132.371 606.15 132.009 607.33 131.647C608.238 131.368 609.147 131.09 610.06 130.82C614.26 129.58 618.55 128.54 623.17 128.78C625.91 128.92 627.39 126.81 627.17 124.09L627.18 124.07ZM649.64 170.055H649.641H649.643H649.644H649.645H649.646H649.647H649.648H649.649H649.651H649.652H649.653H649.654C652.771 169.927 655.904 169.799 658.93 170.27V170.25C661.11 170.56 663.97 173.57 663.83 175.28C663.64 177.29 660.78 180.26 658.53 180.94C651.96 182.93 642.27 181.68 633.15 179.41C630.89 178.82 628.7 178.14 626.63 177.39C624.812 176.743 623.138 175.997 621.497 175.264L621.443 175.241L621.067 175.073L620.79 174.95C617.12 173.25 614.19 171.29 612.47 169.08C611.35 167.67 610.58 166.26 610.04 164.91C609.5 163.57 609.27 162.22 609.39 160.85C609.62 158.1 611.22 155.25 614.35 152.17C618.75 147.84 624.09 144.19 629.43 140.88C630.83 140 634.85 140.78 635.67 142.05C636.49 143.32 635.5 146.81 634.01 148.04C630.92 150.608 627.558 152.862 623.871 155.334L623.868 155.335L623.865 155.337L623.781 155.393L623.771 155.4L623.721 155.433L623.679 155.461L623.628 155.496C622.093 156.526 620.501 157.594 618.85 158.74C621.75 163.84 625.49 166.57 629.84 168.08C632.04 168.82 634.28 169.32 636.63 169.63C638.98 169.94 641.43 170.07 643.94 170.15C645.815 170.211 647.725 170.133 649.64 170.055ZM691.01 233.82C691.348 232.963 691.063 231.927 690.799 230.963L690.798 230.96L690.796 230.952C690.756 230.806 690.717 230.662 690.68 230.52C687.37 217.58 681.3 205.48 673.08 194.8C673.027 194.731 672.975 194.661 672.923 194.59L672.824 194.454C672.504 194.018 672.181 193.577 671.77 193.23C669.54 191.32 667 191.31 664.39 192.74C661.54 194.3 662.08 196.54 662.95 198.59C663.559 200.01 664.323 201.371 665.224 202.976L665.225 202.977L665.225 202.978L665.226 202.978C665.656 203.745 666.119 204.568 666.61 205.48C665.45 205.409 664.398 205.314 663.422 205.227L663.416 205.226L663.411 205.225L663.408 205.225L663.403 205.225C661.223 205.028 659.422 204.866 657.65 205.08C651.86 205.78 646.1 206.75 640.46 208.13C637.37 208.89 635.25 210.82 636.7 214.45C642.1 213.38 647.38 212.74 652.63 212.59C657.79 212.47 662.89 212.85 668.02 213.77C671.2 214.34 673.3 215.45 674.67 217.95C675.593 219.558 676.402 221.21 677.214 222.866L677.214 222.867L677.228 222.895L677.232 222.903L677.233 222.906C677.435 223.317 677.636 223.729 677.84 224.14C678.87 226.22 679.92 228.29 681.02 230.34C682.04 232.29 683.28 234.23 684.79 235.87C685.48 236.64 687.47 237.11 688.52 236.77C689.61 236.42 690.59 234.98 691.01 233.84V233.82ZM696.32 253.1C698.53 255.03 700.68 257.59 702.72 260.78L702.71 260.79C704.36 263.35 705.88 266.07 705.03 269.71C704.43 272.29 702.45 272.9 700.71 271.15C700.493 270.93 700.275 270.711 700.056 270.491C698.56 268.985 697.062 267.477 695.7 265.74C689.52 257.84 684.19 259.32 679.03 263.87C678.128 264.665 677.244 265.506 676.36 266.347L676.359 266.347L676.359 266.348L676.358 266.348L676.357 266.349L676.354 266.352C675.249 267.403 674.143 268.455 673 269.42C669.84 272.09 666.45 273.82 662.34 272.29C657.46 270.37 653.51 264.24 653.61 257.61C653.66 253.05 654.66 251.5 658.53 250.79C658.55 252.04 658.58 253.28 658.61 254.49C658.67 257.28 659.85 259.89 661.77 261.33C664.37 263.28 666.34 262.89 669.22 260.32C670.726 258.985 672.169 257.527 673.611 256.069L673.612 256.068L673.613 256.068L673.613 256.067L673.614 256.067C674.537 255.134 675.46 254.201 676.4 253.3C680.39 249.48 684.9 248.11 689.51 249.32C690.67 249.62 691.83 250.08 692.98 250.7C694.1 251.34 695.22 252.14 696.32 253.1ZM406.97 693.47C406.25 692.57 406.38 690.53 407.1 689.79C408.93 687.85 410.95 685.9 413.43 684.69C416.67 683.1 416.82 680.64 416.25 677.31C415.579 673.406 415.386 669.529 415.194 665.689L415.17 665.2C415.17 664.94 415.21 664.69 415.29 664.42V664.39C415.29 664.37 415.32 664.35 415.34 664.32C415.474 663.985 415.667 663.647 415.873 663.286C416.066 662.947 416.271 662.587 416.45 662.19C417.47 662.88 418.3 663.6 419 664.35L419.002 664.352C419.052 664.391 419.101 664.431 419.14 664.47L419.27 664.64C419.56 664.99 419.83 665.3 420.06 665.65C420.067 665.661 420.075 665.671 420.083 665.681L420.096 665.697L420.118 665.723C420.146 665.755 420.173 665.786 420.19 665.82C420.47 666.22 420.69 666.61 420.9 667.03L421.07 667.37C421.123 667.491 421.176 667.613 421.228 667.735C421.265 667.822 421.302 667.909 421.338 667.996C421.386 668.111 421.434 668.226 421.48 668.34L421.501 668.398C421.534 668.491 421.569 668.587 421.61 668.67C421.77 669.1 421.91 669.51 422.03 669.93C422.06 669.99 422.06 670.06 422.09 670.12C422.19 670.51 422.3 670.9 422.41 671.31C422.485 671.625 422.566 671.933 422.649 672.246L422.7 672.44L422.724 672.533L422.74 672.595C422.754 672.645 422.767 672.694 422.78 672.743L422.797 672.804L422.82 672.89C422.864 673.034 422.907 673.177 422.951 673.32C423.037 673.604 423.124 673.887 423.21 674.18C423.24 674.27 423.26 674.38 423.31 674.47C423.41 674.81 423.54 675.14 423.68 675.48C423.72 675.59 423.77 675.69 423.82 675.8C424.4 677.03 426 677.77 427.21 677.34C427.45 677.27 427.7 677.18 427.93 677.09C428.092 677.034 428.262 676.974 428.43 676.915C428.531 676.879 428.632 676.844 428.73 676.81L428.876 676.757C429.04 676.698 429.195 676.642 429.35 676.58L430.09 676.31C430.28 676.24 430.45 676.17 430.64 676.1C430.9 676.01 431.15 675.92 431.4 675.81C431.56 675.75 431.73 675.68 431.88 675.62C431.925 675.601 431.97 675.582 432.016 675.563C432.075 675.539 432.134 675.515 432.194 675.491L432.204 675.487L432.216 675.482C432.392 675.411 432.57 675.339 432.74 675.26L432.812 675.233C432.914 675.194 433.009 675.159 433.09 675.11C433.283 675.026 433.473 674.937 433.663 674.846C433.737 674.81 433.811 674.774 433.885 674.738L434.058 674.654L434.25 674.56C434.29 674.54 434.328 674.52 434.365 674.5C434.402 674.48 434.44 674.46 434.48 674.44C434.629 674.365 434.776 674.286 434.92 674.205C435.064 674.123 435.204 674.04 435.34 673.96C435.397 673.925 435.45 673.892 435.502 673.858C435.57 673.815 435.637 673.771 435.71 673.72C435.792 673.666 435.873 673.614 435.953 673.562C436.096 673.47 436.235 673.38 436.37 673.29L436.463 673.221C436.559 673.15 436.66 673.075 436.75 673C436.95 672.86 437.14 672.71 437.32 672.55C437.385 672.49 437.445 672.435 437.504 672.381L437.586 672.306L437.69 672.21C437.767 672.133 437.839 672.059 437.911 671.984C437.984 671.908 438.056 671.831 438.132 671.751L438.18 671.7C438.254 671.604 438.339 671.502 438.419 671.407L438.431 671.392L438.432 671.391L438.5 671.31C438.609 671.179 438.708 671.042 438.808 670.904L438.813 670.897C438.848 670.848 438.884 670.799 438.92 670.75C439.024 670.637 439.106 670.509 439.184 670.386L439.22 670.33C439.35 670.13 439.48 669.92 439.58 669.71C439.67 669.57 439.76 669.41 439.83 669.25C439.93 669.02 440.04 668.79 440.13 668.54C440.191 668.41 440.237 668.28 440.287 668.136L440.31 668.07C440.335 667.992 440.359 667.913 440.381 667.834C440.395 667.785 440.408 667.737 440.422 667.688C440.44 667.62 440.458 667.552 440.476 667.484L440.478 667.476C440.502 667.388 440.525 667.299 440.55 667.21L440.67 666.77C440.76 666.32 440.85 665.86 440.89 665.36C441.064 663.576 441.493 661.87 441.92 660.171C442.18 659.137 442.439 658.105 442.64 657.06C443.07 654.82 444.12 652.93 447.1 653.83C449.505 654.552 449.215 657.235 448.979 659.423C448.927 659.901 448.878 660.355 448.86 660.76L448.853 660.912C448.746 663.344 448.635 665.847 447.91 668.08C445.81 674.35 443.51 680.7 440.96 687.01C438.38 693.17 435.57 699.36 432.51 705.57C432.476 705.639 432.444 705.704 432.414 705.766L432.354 705.89C431.878 706.876 431.844 706.945 430.37 706.79C429.51 706.69 428.47 706.23 427.51 705.55C426.55 704.87 425.69 704.03 425.2 703.28C424.73 702.58 424.33 701.85 423.93 701.1C423.81 700.86 423.68 700.6 423.55 700.35C423.463 700.173 423.374 699.995 423.285 699.816L423.281 699.809L423.279 699.805C423.18 699.607 423.08 699.407 422.982 699.206C422.906 699.051 422.832 698.896 422.76 698.74C422.61 698.42 422.47 698.11 422.32 697.79C422.123 697.349 421.925 696.904 421.722 696.446L421.4 695.72C421.309 695.515 421.214 695.298 421.117 695.078L421.015 694.845L420.91 694.606C420.863 694.5 420.816 694.394 420.77 694.29C420.33 693.47 419.67 692.94 417.72 693.47C416.22 693.88 414.83 694.25 413.45 694.51L413.35 694.53C412.67 694.65 411.98 694.77 411.3 694.85C410.01 694.99 407.7 694.4 406.97 693.46V693.47ZM428.41 692.78L430.5 688.29L432.57 683.71C425.67 683.52 423.93 685.42 428.41 692.78ZM677.51 456.56C677.86 457.54 679.64 458.55 680.76 458.3L680.758 458.301L680.741 458.305L680.72 458.31V458.33L680.758 458.301C681.312 458.167 681.994 457.676 682.59 457.06C683.17 456.42 683.68 455.67 683.89 455.06C684.12 454.41 684.31 453.75 684.5 453.08L684.53 452.98C684.9 451.63 685.18 450.22 685.46 448.7C685.84 446.72 686.6 446.36 687.53 446.33C688.05 446.34 688.6 446.36 689.09 446.39C689.87 446.42 690.62 446.45 691.35 446.48C691.474 446.483 691.595 446.488 691.715 446.493C691.941 446.502 692.164 446.51 692.4 446.51H694.2H695.04C695.89 446.48 696.72 446.44 697.56 446.33C699.32 446.11 702.11 444.72 702.99 443.25C703.78 442.006 703.729 441.941 703.054 441.086C702.985 440.999 702.911 440.905 702.83 440.8C698.59 435.34 694.26 430.11 689.85 425.09C685.33 420.05 680.59 415.2 675.89 410.57C674.223 408.951 672.047 407.764 669.93 406.609L669.73 406.5C669.381 406.31 669.003 406.072 668.605 405.822L668.59 405.812L668.589 405.811H668.589H668.589C666.728 404.64 664.439 403.198 662.73 405.03C660.62 407.3 661.86 409.07 663.68 410.44C664.542 411.085 665.365 411.776 666.19 412.469L666.19 412.47C667.526 413.592 668.865 414.716 670.38 415.65C670.81 415.91 671.19 416.18 671.55 416.46L671.89 416.76C671.99 416.847 672.088 416.934 672.186 417.02L672.2 417.033L672.209 417.041C672.327 417.146 672.443 417.249 672.56 417.35C672.598 417.392 672.635 417.431 672.672 417.47L672.673 417.47C672.751 417.553 672.825 417.632 672.9 417.72C673.039 417.867 673.166 418.02 673.291 418.169L673.291 418.17L673.297 418.177C673.331 418.218 673.366 418.259 673.4 418.3C673.51 418.43 673.61 418.57 673.7 418.72C673.836 418.892 673.947 419.072 674.063 419.261L674.1 419.32C674.19 419.47 674.28 419.62 674.35 419.78C674.383 419.844 674.418 419.907 674.452 419.969C674.53 420.112 674.607 420.254 674.67 420.4L674.698 420.46L674.728 420.527L674.775 420.63L674.816 420.722C674.838 420.768 674.859 420.815 674.88 420.86C674.98 421.08 675.05 421.29 675.11 421.51C675.143 421.623 675.172 421.728 675.203 421.832C675.218 421.884 675.233 421.937 675.25 421.99C675.31 422.21 675.36 422.45 675.4 422.69L675.423 422.806L675.445 422.921L675.464 423.015L675.49 423.15L675.501 423.238C675.527 423.461 675.555 423.692 675.59 423.93L675.596 423.98L675.605 424.058L675.615 424.15C675.619 424.19 675.623 424.23 675.628 424.271C675.632 424.303 675.636 424.336 675.64 424.37C675.644 424.436 675.649 424.503 675.654 424.571C675.671 424.824 675.69 425.09 675.69 425.35V425.61C675.69 425.718 675.691 425.825 675.691 425.932C675.693 426.251 675.695 426.568 675.68 426.89C675.69 427.01 675.68 427.13 675.66 427.27C675.65 427.57 675.63 427.89 675.61 428.2C675.59 428.37 675.58 428.55 675.57 428.72C675.561 428.965 675.535 429.202 675.508 429.452L675.5 429.53C675.493 429.597 675.488 429.661 675.483 429.725L675.475 429.819L675.475 429.82L675.466 429.936C675.461 429.993 675.456 430.051 675.45 430.11L675.37 430.89C675.361 430.983 675.35 431.078 675.339 431.175C675.325 431.297 675.311 431.422 675.3 431.55L675.274 431.785L675.24 432.106L675.21 432.39C675.19 432.63 675.16 432.89 675.12 433.14C674.98 434.41 673.61 435.52 672.26 435.5C672.14 435.5 672.02 435.5 671.91 435.49C671.55 435.47 671.19 435.44 670.84 435.38C670.787 435.38 670.726 435.37 670.665 435.359L670.663 435.358L670.66 435.358C670.62 435.351 670.579 435.344 670.54 435.34C670.335 435.307 670.132 435.273 669.928 435.238C669.695 435.198 669.46 435.157 669.22 435.12L669.156 435.108L669.062 435.09L668.999 435.077L668.912 435.06L668.861 435.05L668.76 435.03L668.602 434.997L668.377 434.952L668.366 434.95C668.118 434.899 667.869 434.849 667.62 434.79C667.349 434.737 667.088 434.685 666.826 434.632L666.42 434.55C666.415 434.55 666.409 434.55 666.404 434.549L666.39 434.548L666.372 434.545C666.361 434.543 666.349 434.54 666.336 434.537L666.333 434.536H666.333H666.333H666.332C666.3 434.528 666.266 434.52 666.23 434.52C665.8 434.44 665.36 434.38 664.91 434.34C664.828 434.34 664.742 434.33 664.661 434.321H664.659H664.658H664.657H664.656H664.655L664.652 434.321C664.617 434.317 664.582 434.313 664.55 434.31C664.328 434.291 664.094 434.279 663.863 434.269L663.845 434.268C663.728 434.262 663.613 434.257 663.5 434.25H663.12C662.65 434.25 662.2 434.28 661.72 434.35C661.685 434.35 661.642 434.36 661.599 434.371C661.569 434.378 661.539 434.386 661.51 434.39C661.09 434.45 660.68 434.55 660.24 434.66L660.03 434.7C659.98 434.71 659.92 434.74 659.86 434.77C658.89 435.06 657.88 435.48 656.81 436.1C657.083 436.43 657.314 436.767 657.533 437.086L657.533 437.086L657.534 437.087L657.534 437.087L657.534 437.087L657.534 437.088L657.535 437.088L657.535 437.089L657.535 437.089C657.773 437.435 657.996 437.76 658.24 438.03L658.245 438.035L658.254 438.045L658.261 438.055C658.268 438.065 658.273 438.074 658.278 438.082C658.283 438.09 658.286 438.096 658.29 438.1C658.29 438.1 658.31 438.1 658.32 438.11C658.51 438.3 658.72 438.45 658.96 438.56L659.62 438.841L659.621 438.841L659.621 438.842L659.622 438.842L659.623 438.842L659.623 438.843C663.094 440.321 666.588 441.81 670.32 442.9C673.56 443.85 675.7 445.06 675.72 448.66C675.71 451.41 676.63 454.09 677.51 456.56ZM686.45 434.98L689.57 438.82C681 439.61 680.06 437.21 683.24 431.12L686.45 434.98ZM462.95 662.81H462.94C463.984 662.371 464.778 661.502 465.561 660.645L465.562 660.644C465.919 660.253 466.274 659.865 466.65 659.52C467.093 659.091 467.53 658.645 467.968 658.198L467.969 658.197L467.97 658.197C469.53 656.606 471.098 655.008 472.94 654.11C476.28 652.48 477.87 653.9 478.26 658.78C478.581 662.824 478.567 666.854 478.552 670.909C478.544 672.912 478.537 674.92 478.57 676.94C478.61 679.7 478.81 682.59 479.47 685.32C479.77 686.56 480.69 688.45 482.46 688.38C483.42 688.38 484.85 686.62 484.92 685.38L484.926 685.28C485.214 680.574 485.501 675.887 485.62 671.21C485.74 666.51 485.68 661.83 485.25 657.03C484.78 651.77 482.35 648.25 479.48 646.29C476.58 644.31 473.17 643.75 470.55 644.79C467.84 645.86 465.49 647.48 463.57 649.73C461.6 651.86 460.07 654.63 459.06 658.17V658.21C458.37 660.73 460.87 663.66 462.95 662.81ZM368.37 708.79C366.92 709.72 365.29 710.62 363.61 710.95L363.63 710.97C361.23 711.45 359.16 710.39 358.27 708.23C357.48 706.32 358.84 704.92 360.33 703.75C364.99 700.07 369.5 696.46 373.87 692.72C374.202 692.421 374.495 692.083 374.82 691.711C374.994 691.511 375.177 691.3 375.38 691.08C372.75 685.56 370.3 679.9 367.91 674.32C366.77 671.66 365.97 669.08 369.2 666.37L369.22 666.39L369.793 667.317C370.616 668.648 371.428 669.963 372.24 671.27C372.854 672.203 373.464 673.136 374.073 674.067L374.183 674.235C374.549 674.794 374.915 675.353 375.28 675.91C377.34 679 379.44 682.09 381.7 685.3C383.48 683.96 385.12 682.55 386.65 681.1C387.41 680.37 388.15 679.64 388.86 678.89C389.58 678.13 390.26 677.32 390.92 676.52C393.57 673.31 395.88 669.97 398.07 666.61C401.24 667.88 402.1 669.32 401.02 672.19C400.48 673.62 399.65 674.95 398.78 676.23C397.06 678.77 395.3 681.33 393.48 683.88C392.974 684.579 392.468 685.277 391.96 685.977C391.545 686.55 391.128 687.124 390.71 687.7C389.961 688.719 389.194 689.669 388.417 690.63L388.416 690.631C388.218 690.876 388.019 691.122 387.82 691.37C386.46 693.04 386.02 694.61 386.94 696.63C388.03 699.02 389.05 701.47 390.01 703.92C390.065 704.059 390.122 704.2 390.179 704.341C390.65 705.513 391.151 706.76 391.08 707.92C390.99 709.13 390.28 710.64 389.29 711.3C388.62 711.75 386.62 711.32 385.89 710.65C384.23 709.09 382.89 707.22 381.69 705.32C381.126 704.43 380.747 703.425 380.336 702.336C380.142 701.822 379.941 701.289 379.71 700.74C377.4 701.65 375.54 703.07 373.76 704.58C373.269 704.974 372.787 705.377 372.304 705.779L372.301 705.781C371.033 706.837 369.767 707.892 368.37 708.79ZM497.54 665.12C498.81 665.21 500.38 664.68 501.42 663.91C502.817 662.923 504.055 661.702 505.292 660.483L505.292 660.482L505.294 660.481L505.295 660.48C506.225 659.562 507.154 658.646 508.15 657.83C508.917 657.179 509.631 656.461 510.348 655.739L510.349 655.737C512.221 653.853 514.118 651.942 517.06 651.14C519.27 655.67 519 659.21 515.93 662.83C515.122 663.784 514.362 664.788 513.6 665.795L513.598 665.797L513.598 665.798C512.89 666.733 512.181 667.67 511.43 668.57C509.86 670.44 508.13 672.21 505.76 673.31C505.271 673.548 504.939 674.107 504.629 674.627L504.628 674.628L504.627 674.629C504.567 674.731 504.507 674.831 504.447 674.928C504.376 675.043 504.304 675.152 504.23 675.25C505.45 677.63 506.75 678.7 508.09 678.89C509.43 679.07 510.85 678.46 512.18 677.25C514.729 675.034 517.095 672.646 519.443 670.277C520.198 669.514 520.952 668.753 521.71 668C524.04 665.76 525.84 663.24 526.71 660.6C527.57 657.94 527.45 655.1 525.83 651.92C525.404 651.08 525.319 650.07 525.234 649.051C525.184 648.446 525.133 647.838 525.01 647.26C523.44 639.69 519.79 633.14 514.92 627.2C513.77 625.8 512.31 624.48 510.55 625.52C508.742 626.592 509.542 628.159 510.281 629.606L510.282 629.609C510.356 629.754 510.43 629.898 510.5 630.04C510.834 630.715 511.194 631.376 511.555 632.037L511.556 632.039C512.124 633.081 512.691 634.121 513.15 635.21C513.797 636.734 514.316 638.307 514.828 639.856C515.004 640.391 515.18 640.924 515.36 641.45C514.532 642.104 513.725 642.689 512.954 643.248L512.944 643.255C512.658 643.463 512.376 643.667 512.1 643.87C511.05 644.58 510.1 645.28 509.28 646.13C507.353 648.112 505.457 650.173 503.551 652.243L503.55 652.244L503.549 652.246C500.976 655.041 498.386 657.855 495.68 660.52C494.01 662.23 495.05 664.95 497.54 665.14V665.12ZM644.612 563.181L644.612 563.182C643.902 563.978 643.134 564.841 642.21 565.07H642.23C641.01 565.38 639.21 565.37 638.27 564.62C637.35 563.89 636.57 561.85 636.81 560.78C637.32 558.48 638.36 556.32 639.48 554.31C640.077 553.218 640.701 552.143 641.324 551.07C641.921 550.041 642.517 549.013 643.09 547.97L646.55 541.55C647.97 538.93 647.73 536.46 646.39 533.37C645.33 530.9 644.04 528.43 642.68 526.07C641.31 523.71 639.82 521.41 638.23 519.18C635.04 514.72 631.4 510.51 627.32 506.45C629.72 503.15 632.58 503.83 635.09 506.09C639.64 510.21 643.8 514.63 647.8 519.25C649.038 520.684 649.953 522.366 651.064 524.411C651.543 525.291 652.057 526.237 652.65 527.26C653.165 526.326 653.619 525.466 654.042 524.663L654.054 524.641L654.059 524.632L654.062 524.625C654.963 522.918 655.726 521.471 656.64 520.13C657.31 519.17 658.01 518.23 658.93 517.72C659.86 517.21 661.01 517.15 662.53 517.94C665.3 519.37 666.86 521.64 666.51 524.7C666.432 525.245 666.233 525.772 666.035 526.295L666.035 526.295L666.034 526.298L666.034 526.298C665.978 526.445 665.923 526.593 665.87 526.74C663.44 533.35 660.84 539.95 657.21 545.93C655.46 548.96 653.6 551.92 651.61 554.79C649.5 557.58 647.26 560.27 644.9 562.86L644.803 562.967L644.711 563.071L644.612 563.181ZM609.46 594.5C609.19 592.09 608.53 589.7 607.8 587.33C607.59 586.649 607.374 585.969 607.158 585.288C606.624 583.603 606.089 581.917 605.64 580.2C604.41 575.31 603.8 567.93 604.28 562.22C604.328 561.645 604.395 561.095 604.461 560.556C604.477 560.42 604.494 560.285 604.51 560.15C604.59 559.47 604.68 558.83 604.8 558.23C605.04 557.02 605.36 555.97 605.78 555.15C606.63 553.49 607.88 552.7 609.65 553.26C614.075 554.629 616.099 557.099 618.127 559.574C619.357 561.076 620.589 562.579 622.36 563.84C623.92 564.95 627.57 565.07 628.59 564C629.6 562.92 629.35 558.97 628.09 557.82C623.47 553.54 620.16 550.54 614.85 547.43C612.96 546.32 611.24 545.57 609.64 545.15C608.03 544.72 606.55 544.61 605.19 544.83C602.46 545.26 600.18 546.94 598.13 549.81C597.33 550.92 596.69 552.33 596.14 553.92C595.55 555.48 595.08 557.26 594.73 559.19C594.02 563.05 593.79 567.59 593.9 572.23C593.97 581.32 595.59 591.11 599.25 596.92C600.51 598.91 604.09 600.89 606.04 600.54C607.7 600.24 609.69 596.63 609.46 594.52V594.5ZM674.53 383.07C674.74 384.67 674.94 386.28 674.99 387.89L675.01 387.88C675.04 388.85 674.81 390.44 673.32 390.65C670.98 390.57 670 389.77 669.4 388.73C668.3 386.82 667.47 384.9 666.86 382.98C666.339 381.391 666.016 379.809 665.693 378.228L665.692 378.222C665.625 377.895 665.559 377.567 665.49 377.24C664.79 373.44 664.69 369.73 664.71 366.33C664.71 366.12 664.72 365.91 664.75 365.7C664.866 364.745 665.037 363.836 665.202 362.965L665.203 362.962L665.203 362.961L665.22 362.87C665.36 361.97 665.55 361.1 665.78 360.28C666.24 358.63 666.87 357.15 667.7 355.82C669.35 353.16 671.79 351.1 675.24 349.6C682.71 346.36 690.14 345.8 696.76 350.92C701.77 354.8 705.26 359.75 708.03 365.31C710.526 370.829 712.29 376.932 714.109 383.224L714.14 383.33C714.89 385.96 714.19 388.52 712.94 389.97C711.68 391.42 709.81 391.76 708.05 390.07C707.232 388.934 706.917 387.913 706.561 386.759L706.56 386.757C706.389 386.205 706.209 385.621 705.96 384.98C705.46 383.67 704.93 382.26 704.39 380.82L704.037 379.862L703.658 378.837C703.362 378.037 703.065 377.232 702.77 376.43C701.67 373.51 700.52 370.65 699.13 368.28C697.35 365.07 694.33 359.93 691.22 357.99C687.8 355.85 683.63 355.19 680.21 355.99C676.79 356.79 674.11 359.02 673.65 362.78C673.12 366.26 673.68 374.66 673.99 378.27C674.15 379.88 674.32 381.47 674.53 383.07ZM646.15 497.03C646.64 495.634 646.899 494.143 647.157 492.661L647.22 492.3L647.259 492.075C647.526 490.551 647.79 489.037 648.2 487.56C648.68 485.83 649.49 482.93 650.4 480.09C651.19 477.2 652.05 474.36 652.85 472.79C654.58 469.41 657.88 468.19 661.4 468.54C664.92 468.9 668.64 470.85 671.15 473.97C673.167 476.463 674.191 481.238 674.967 484.855C675.072 485.344 675.172 485.812 675.27 486.25C675.57 487.61 675.79 489.06 675.94 490.57C676.04 492.06 676.08 493.6 676.1 495.15C676.11 495.947 676.115 496.748 676.12 497.546C676.135 499.85 676.149 502.131 676.29 504.24C676.336 504.937 676.331 505.556 676.327 506.144C676.319 507.362 676.312 508.444 676.75 509.8C677.83 511.95 679.76 512.26 681.39 511.28C683.01 510.3 684.39 508.05 684.53 505.31C684.74 502.04 684.94 498.82 685.04 495.66C685.1 492.49 684.9 489.32 684.56 486.27C683.82 480.15 682.3 474.4 678.62 469.04C673.87 462.01 666.67 460.16 658.64 460.85C656.79 461.01 655.13 461.39 653.64 461.97C652.15 462.55 650.87 463.36 649.6 464.33C647.12 466.29 645.17 469.07 643.54 472.68C643.45 472.87 643.38 473.07 643.32 473.27C643.06 474.186 642.773 475.115 642.48 476.062L642.479 476.064C641.722 478.509 640.93 481.071 640.49 483.81C639.83 487.59 639.85 491.73 640.56 495.98C640.78 497.15 641.44 498.22 643.62 499.06C645.11 499.34 645.86 497.93 646.16 497.01L646.15 497.03ZM588.68 628.11C587.4 630.16 586.01 632.19 583.2 632.31L583.21 632.29C580.01 632.4 579.19 631.47 580.28 628.54C580.475 628 580.663 627.453 580.851 626.904C581.356 625.431 581.865 623.943 582.55 622.53C586.22 614.85 583.23 610.11 578.04 606.23C577.149 605.569 576.238 604.933 575.327 604.298C574.132 603.464 572.937 602.631 571.79 601.74C568.69 599.34 566.22 596.5 565.88 592.25C565.55 587.17 568.67 582.08 573.6 580.7C577 579.73 578.5 580.34 580.41 583.84L580.372 583.853C578.466 584.488 576.648 585.094 574.87 585.69C570.32 588.04 573.21 593.18 577.17 596.12C578.696 597.249 580.289 598.293 581.883 599.337C582.901 600.003 583.919 600.67 584.92 601.36C589.18 604.29 591.79 608.26 592.53 612.92C592.71 614.09 592.79 615.31 592.72 616.53C592.64 617.75 592.44 618.99 592.12 620.26C591.47 622.8 590.33 625.44 588.68 628.11Z" fill="white"/>
</svg>
