<svg width="1247" height="33" viewBox="0 0 1247 33" fill="none" xmlns="http://www.w3.org/2000/svg">
<path fill-rule="evenodd" clip-rule="evenodd" d="M481.18 9.10029C482.91 8.73018 484.09 8.67012 485.71 8.79024H485.7C486.63 8.85029 493.52 10.6101 469.44 17.51C469.745 18.2209 470.038 18.8952 470.32 19.5441L470.325 19.5568C470.585 20.156 470.837 20.7341 471.079 21.3C471.459 22.1848 471.817 23.0397 472.16 23.9001L472.21 24.0261C472.625 25.0671 473.055 26.1447 473.17 27.2502C473.29 28.28 472.74 29.2102 471.69 29.6604C470.53 30.1501 469.75 29.55 469.23 28.6301C468.402 27.1677 467.613 25.6779 466.823 24.1877C466.355 23.3034 465.887 22.4191 465.41 21.5402C464.94 20.6901 464.43 19.8601 464 19.1203C462.939 19.2067 462.706 19.861 462.489 20.4675C462.431 20.633 462.373 20.7946 462.3 20.9401C462.26 21.0207 462.223 21.1027 462.186 21.1857C462.149 21.2722 462.113 21.3596 462.079 21.4475L462.04 21.55C461.951 21.7878 461.87 22.0314 461.79 22.2751L461.787 22.2839C461.67 22.6374 461.553 22.9914 461.41 23.3303C460.62 25.2102 459.85 27.1003 458.96 28.9201C458.833 29.1794 458.628 29.4074 458.392 29.6154C458.167 29.8137 457.913 29.9943 457.67 30.1672L457.54 30.26C456.93 30.7004 455.58 30.0603 455.63 29.3303L455.652 29.0266C455.753 27.613 455.857 26.173 456.23 24.82L456.365 24.3322C457.41 20.5637 458.458 16.7819 459.81 13.1203C461.28 9.14033 463.07 5.27998 464.84 1.43037C465.37 0.290236 466.41 -0.269823 467.74 0.140334C469.64 0.720412 470.32 2.35029 469.17 4.02022C467.55 6.38008 465.96 8.72041 465.48 11.4904C466.318 12.7478 467.276 12.5109 468.244 12.2717L468.25 12.2702C469.402 11.9816 470.554 11.6862 471.704 11.3908L471.709 11.3894L471.715 11.3879L471.72 11.3864L471.725 11.385C474.871 10.5783 478.015 9.77217 481.18 9.10029ZM375.43 19.03C375.876 18.5813 376.338 18.1359 376.804 17.6867L376.81 17.6809C377.899 16.6306 379.011 15.5593 379.99 14.3703C380.47 13.7902 380.95 13.2102 381.41 12.6101C387.49 4.74043 384.57 -0.839647 375.11 1.29024C371.86 2.02022 368.81 4.25996 367.05 7.89033C364.672 12.8132 362.867 18.0329 361.068 23.2399L360.612 24.5578C360.399 25.1726 360.185 25.7868 359.97 26.4001C359.679 27.2253 359.837 28.2087 359.99 29.1613L360.02 29.3503C360.14 30.0803 360.72 30.6604 361.44 30.6901C363.787 30.7888 364.86 29.0773 365.859 27.486L365.9 27.4201C366.7 26.1418 367.348 24.7585 368.002 23.3625L368.05 23.26C368.47 22.3503 369.58 22.0603 370.36 22.6403C379.61 29.5402 381.44 29.8801 385.07 26.4504C383.981 25.4108 382.617 24.7644 381.235 24.1096C378.961 23.0319 376.639 21.9313 375.42 19.0202L375.43 19.03ZM378.12 7.43037C377.99 10.0651 376.349 11.2937 374.736 12.5002C374.359 12.7819 373.984 13.0627 373.63 13.3601C372.67 11.5603 373.07 6.75996 378.12 7.43037ZM562.19 1.74043C565.2 1.42012 568.71 2.49043 569.85 4.24043L569.84 4.2502C569.85 4.25996 569.86 4.27022 569.86 4.27998C570.9 5.89033 570.93 7.96016 570.05 9.66035C568.38 12.8703 564.99 15.0803 560.52 16.8503C559.86 17.1101 558.85 17.1604 557.96 17.1804C556.95 17.2004 555.98 16.8703 555.85 16.2702C555.75 15.8103 556.04 15.2902 556.43 14.9001C556.582 14.7478 556.935 14.6774 557.299 14.6047L557.307 14.6032C557.537 14.5568 557.771 14.5095 557.96 14.4401C562.65 12.7404 565.97 10.4704 566.51 7.06026C566.57 6.66035 566.65 6.24043 566.53 5.84004C566.06 4.34004 564.18 3.77022 562.01 4.49043C559.22 5.41035 557.6 6.93037 556.28 8.57002C554.46 10.8303 553.79 13.3303 553.41 15.8703C552.84 19.7302 552.2 23.57 550.65 27.2902C550.33 28.0603 550.02 28.8503 549.43 29.5402C548.68 30.4201 546.92 30.3303 546.14 29.3601C545.69 28.8 545.44 28.0202 545.74 27.5002C547.458 24.5515 547.972 21.4216 548.486 18.2927C548.774 16.5407 549.061 14.7893 549.56 13.07C550.42 10.1203 551.56 7.2502 554.56 4.85029C556.45 3.34004 558.74 2.11006 562.19 1.74043ZM665.49 5.11006C666.65 4.11006 668.01 4.1501 669.17 5.05L669.16 5.07002C670.37 6.0002 670.74 7.45039 669.7 8.59004C667.663 10.8244 666.449 13.5041 665.238 16.1794C664.357 18.1262 663.476 20.071 662.28 21.84C662.101 22.1037 661.922 22.3693 661.743 22.6355C660.504 24.4777 659.249 26.3449 657.65 27.8303C655.08 30.2204 653.1 29.76 651.79 26.53C650.795 24.071 650.012 21.5256 649.23 18.9812L649.227 18.9738C648.91 17.9406 648.592 16.9074 648.26 15.8801C647.999 15.0749 647.764 14.2639 647.528 13.4514C647.44 13.1442 647.35 12.8371 647.26 12.53C646.95 12.4802 646.65 12.4201 646.34 12.3703C645.688 13.2004 645.043 14.0344 644.397 14.8684C642.982 16.697 641.567 18.5246 640.09 20.3103C638.598 22.1193 637.006 23.8508 635.415 25.5803L635.405 25.5905L634.78 26.2702C633.95 27.1901 632.96 28.1501 631.67 27.2004C630.48 26.32 630.17 24.8801 630.77 23.5803C631.78 21.3801 632.96 19.26 634.21 17.1804C634.86 16.0949 635.584 15.0568 636.308 14.0192C636.831 13.2688 637.355 12.5183 637.85 11.7502C637.936 11.6179 638.021 11.4851 638.106 11.3527L638.119 11.3322C639.203 9.6418 640.249 8.01094 642.66 7.77998C643.237 7.72529 643.791 7.04365 644.305 6.40938L644.477 6.19795C644.563 6.09395 644.647 5.99336 644.73 5.9001C646.59 3.77998 648.58 3.84004 649.84 6.34004C650.76 8.16035 651.36 10.1701 651.9 12.1501C652.368 13.8591 652.765 15.5856 653.161 17.3132C653.269 17.7819 653.376 18.2512 653.486 18.7194L653.58 19.1223C653.638 19.3718 653.698 19.6213 653.757 19.8708L653.806 20.0715C653.879 20.3747 653.954 20.6774 654.03 20.9802C654.19 21.6301 654.63 22.2204 655.24 23.4104C655.532 22.9592 655.802 22.5578 656.052 22.1867L656.055 22.1823C656.573 21.4108 657.003 20.7712 657.36 20.09C658.644 17.6604 659.91 15.2209 661.176 12.781C661.781 11.614 662.387 10.447 662.995 9.28096L663.388 8.52656L663.873 7.59883L664.25 6.88008C664.58 6.2502 664.96 5.57002 665.49 5.11006ZM705.1 4.8C704.71 4.45332 704.109 4.38496 703.546 4.32051L703.409 4.3044L703.29 4.29024C695.83 3.36006 688.35 3.9001 680.86 5.32002C680.48 5.39033 680.09 5.43037 679.73 5.59004C678.19 6.2502 677.51 7.60029 677.53 9.38008C677.55 11.32 678.86 11.6501 680.15 11.7404C680.659 11.7785 681.171 11.7829 681.714 11.7717C682.126 11.7634 682.556 11.7458 683.015 11.7268L683.278 11.716C683.529 11.7058 683.789 11.696 684.06 11.6872L684.304 11.6799L684.69 11.6701C684.609 11.8156 684.529 11.9572 684.45 12.0954L684.35 12.2683L684.211 12.5056L683.999 12.8645C683.887 13.0534 683.777 13.236 683.67 13.4138C683.031 14.4743 682.497 15.362 682.15 16.3303C680.98 19.6003 679.91 22.9304 679.04 26.3C678.57 28.1501 679.03 29.8103 681.52 30.0202C683.4 23.7004 685.95 18.0803 689.41 12.9504C690.48 11.3601 691.56 10.4904 693.21 10.3601C695.88 10.1501 698.55 9.94014 701.22 9.62031C702.48 9.47041 703.78 9.23018 704.96 8.71016C705.51 8.47041 706.15 7.43037 706.17 6.77022C706.19 6.09004 705.61 5.25996 705.08 4.8H705.1ZM711.13 15.8303C709.87 10.1203 713 5.27022 719.33 3.14033V3.13008C720.6 2.70039 721.9 2.36006 723.13 3.46016C724.01 4.24043 723.9 5.41035 722.91 6.04024L722.858 6.07246C721.905 6.68281 720.941 7.29903 719.9 7.77998C715.69 9.70039 715.13 12.8303 715.87 16.4104C715.921 16.6599 715.976 16.9084 716.033 17.1564C716.083 17.3772 716.136 17.5969 716.189 17.8166L716.346 18.4523L716.425 18.7746C716.507 19.1081 716.588 19.4416 716.665 19.7761C716.73 20.0632 716.793 20.3513 716.85 20.6403C717.28 22.8103 717.3 24.9401 715.76 26.8801C713.9 29.2302 710.35 30.03 707.62 28.6901C705.73 27.76 705.36 26.9304 706.01 24.7502C706.307 24.8815 706.601 25.0129 706.892 25.1428L707.281 25.3156L707.54 25.4304C708.69 25.9401 710.05 25.84 711.08 25.1101C712.48 24.1301 712.75 23.01 712.35 20.9904C712.317 20.821 712.282 20.6521 712.246 20.4831L712.193 20.2395C712.152 20.0529 712.109 19.8664 712.065 19.6804C711.939 19.1398 711.803 18.6003 711.667 18.0607C711.481 17.3195 711.294 16.5778 711.13 15.8303ZM627.41 10.9304C627.01 10.9001 626.61 10.9001 626.21 10.9001H626.15C625.33 10.9104 624.49 10.9704 623.56 11.0603C622.36 11.1701 622.14 10.7902 622.12 10.26L622.15 9.36006L622.21 8.05L622.211 7.94746L622.213 7.85371L622.217 7.72041L622.221 7.62178L622.23 7.45039C622.24 7.10029 622.24 6.75996 622.24 6.42012V5.94014C622.23 5.46016 622.21 4.99043 622.15 4.52998C622.04 3.55 621.24 2.21016 620.42 1.88008C619.716 1.59639 619.681 1.63106 619.16 2.14326L619 2.3C612.5 8.67012 606.08 15.1203 599.7 21.6203C598.55 22.8 597.64 24.2404 596.76 25.6501C596.61 25.8884 596.421 26.1525 596.221 26.4309C595.358 27.6355 594.305 29.1042 595.41 29.9001C596.8 30.9001 598.05 29.9904 599.03 28.78C599.466 28.2399 599.925 27.7185 600.384 27.197L600.388 27.1926L600.396 27.1823C601.208 26.26 602.019 25.3386 602.7 24.32C602.793 24.1804 602.889 24.0437 602.987 23.9108C603.079 23.7868 603.173 23.6662 603.27 23.55L603.384 23.4196L603.47 23.32C603.6 23.1701 603.74 23.01 603.87 22.8703C603.95 22.7902 604.04 22.7102 604.12 22.6301C604.25 22.51 604.37 22.3903 604.51 22.28C604.6 22.2004 604.69 22.1301 604.79 22.0603C604.92 21.9602 605.05 21.8601 605.18 21.7702L605.326 21.6696C605.373 21.6374 605.42 21.6052 605.47 21.57C605.6 21.4802 605.74 21.4001 605.88 21.32C605.98 21.26 606.08 21.2102 606.18 21.1501L606.6 20.9401L606.61 20.9357L606.617 20.9328L606.621 20.9299C606.714 20.8835 606.808 20.8371 606.91 20.8L607.36 20.6203L607.364 20.6188L607.451 20.5842L607.514 20.5598L607.586 20.5339C607.611 20.5256 607.635 20.5173 607.66 20.51C607.712 20.4904 607.765 20.4719 607.819 20.4543L607.899 20.4284L607.985 20.4021L608.16 20.3503L608.294 20.3054L608.342 20.2907L608.44 20.26C608.65 20.2004 608.85 20.1501 609.06 20.1003C609.084 20.0954 609.111 20.0881 609.137 20.0808C609.166 20.073 609.194 20.0651 609.22 20.0603C609.49 20.0002 609.76 19.9401 610.03 19.8903C610.069 19.8855 610.108 19.8781 610.147 19.8708L610.174 19.8654L610.191 19.8625C610.2 19.8605 610.209 19.8586 610.218 19.8576L610.236 19.8547L610.27 19.8503C610.46 19.82 610.66 19.78 610.86 19.7502C610.915 19.7404 610.97 19.7331 611.025 19.7258C611.08 19.718 611.135 19.7106 611.19 19.7004C611.265 19.6916 611.339 19.6809 611.414 19.6701L611.564 19.6477L611.7 19.6301C611.76 19.6203 611.819 19.613 611.88 19.6057L611.917 19.6013L611.927 19.5998L611.936 19.5983L611.943 19.5969H611.949C611.988 19.592 612.029 19.5866 612.07 19.5803L612.56 19.5202C612.7 19.5002 612.83 19.4904 612.97 19.4704L613.5 19.4104L613.84 19.3703C614.73 19.2702 615.48 20.01 615.41 20.9001L615.385 21.1535C615.372 21.279 615.358 21.4045 615.34 21.53C615.34 21.57 615.331 21.6101 615.322 21.6501L615.313 21.6926L615.31 21.7102C615.27 21.9802 615.22 22.2404 615.16 22.51L615.156 22.529C615.137 22.613 615.119 22.697 615.1 22.7902C615.05 23.0202 615 23.2502 614.95 23.4904L614.874 23.8586L614.8 24.2204L614.799 24.2336C614.798 24.2502 614.793 24.2673 614.789 24.2829C614.784 24.3 614.78 24.3161 614.78 24.3303C614.73 24.59 614.69 24.8503 614.66 25.1101C614.66 25.1804 614.65 25.2502 614.64 25.32C614.628 25.4475 614.619 25.5715 614.615 25.696C614.612 25.7766 614.61 25.8576 614.61 25.9401V26.1604C614.61 26.4201 614.63 26.6901 614.68 26.9504C614.68 26.9685 614.684 26.9865 614.69 27.0036C614.696 27.0246 614.705 27.0437 614.71 27.0603C614.75 27.2902 614.81 27.51 614.89 27.7404L614.92 27.8601C614.925 27.8747 614.932 27.8894 614.94 27.904L614.953 27.9313L614.96 27.9504C615.03 28.1203 615.1 28.2902 615.19 28.4602C615.48 29.0202 616.23 29.1501 616.71 28.7404C616.764 28.6936 616.816 28.6472 616.867 28.6008L616.963 28.51L617.037 28.4367C617.066 28.4079 617.093 28.3791 617.12 28.3503C617.14 28.3303 617.15 28.32 617.17 28.3103C617.17 28.3103 617.17 28.3 617.18 28.2902C617.3 28.1501 617.41 28.01 617.47 27.8503C618.45 25.4904 619.43 23.1101 620.12 20.6501C620.68 18.6501 621.44 17.2204 623.66 16.6301C625.36 16.1804 626.99 15.26 628.49 14.3C629.08 13.9201 629.65 12.7302 629.47 12.1403C629.29 11.55 628.18 10.9504 627.44 10.9001L627.41 10.9304ZM613.04 15.01C612.95 14.9904 612.92 14.8703 612.98 14.8103L615.26 12.5803L617.45 10.4401C617.52 10.3703 617.64 10.4201 617.65 10.5202C617.95 15.07 616.52 15.9401 613.03 15.01H613.04ZM586.842 22.614C587.493 22.3049 588.152 21.9924 588.833 21.9904C590.193 21.9904 590.92 24.34 589.91 25.6604L589.905 25.6672L589.901 25.6735L589.9 25.6804C587.02 29.3601 583.54 30.7404 579.83 30.4704C576.25 30.2102 572.62 25.5202 575.08 19.3C576.866 14.7634 579.008 10.4719 581.146 6.18721L581.173 6.13447C581.684 5.11055 582.194 4.08711 582.7 3.06026C583.04 2.36006 584.19 1.73018 584.67 1.99043C585.58 2.43037 585.6 3.77998 585.45 4.58028C585.13 6.34004 584.53 8.07002 583.87 9.68037C583.25 11.1931 582.588 12.6765 581.926 14.1604C581.03 16.1691 580.134 18.1784 579.34 20.26C578.23 23.1901 578.72 24.4401 581.02 24.4201C582.65 24.4001 584.32 23.6203 585.94 23.01C586.235 22.9016 586.53 22.7609 586.827 22.6198L586.834 22.6169L586.842 22.614ZM402.59 10.34C405.78 6.55 409.57 6.00996 413.56 8.87031V8.86006C416.59 11.03 417.34 14.8 415.65 19.34C413.04 26.3303 407.49 30.2102 400.02 30.26C394.91 30.2902 392.88 27.82 394.44 22.5803C395.236 19.9089 396.815 17.4641 398.345 15.0939C398.545 14.7849 398.744 14.4772 398.94 14.1701C399.492 13.3098 400.251 12.6149 401.013 11.9167C401.562 11.4143 402.113 10.9094 402.59 10.34ZM402.1 23.3601C406.25 23.4704 408.54 21.7902 409.91 17.4201H409.92C410.29 16.2404 409.34 15.0002 408.22 15.2004C404.56 15.84 402.33 17.84 400.99 21.5002C400.67 22.3703 401.25 23.34 402.1 23.3601ZM446.6 23.6403C445.757 23.8322 444.931 24.1022 444.105 24.3723C443.6 24.5373 443.095 24.7023 442.587 24.8493C442.24 24.9499 441.892 25.0422 441.54 25.1203L440.952 25.2531L440.948 25.2546C439.216 25.6472 437.452 26.0471 435.72 26.0202C431.54 25.9401 429.41 22.4704 431.25 18.6901C432.09 16.9602 433.4 15.3 434.89 14.09C436.352 12.8942 437.968 11.8928 439.583 10.8918C440.399 10.3859 441.215 9.88057 442.01 9.35029L442.36 9.11592C443.145 8.59346 443.95 8.05733 444.55 7.37031C445.78 5.97041 444.85 3.50996 443.02 3.24043C442.18 3.11006 441.26 3.50996 440.55 3.87031L440.524 3.8835C434.773 6.73799 429.175 9.51826 425.65 15.1203C423.32 18.8303 423.79 22.6901 425.88 26.4104C427.83 29.8903 430.97 31.0803 435.56 30.9304C439.4 30.4001 443.95 29.55 447.66 26.4401C448.16 26.0202 448.64 25.6003 448.26 24.2302C448.01 23.7204 447.63 23.3503 446.6 23.6604V23.6403ZM500.98 3.31026C494.65 5.44014 491.52 10.2902 492.78 16.0002C492.929 16.6774 493.096 17.3503 493.265 18.0222C493.381 18.4851 493.498 18.9475 493.61 19.4108C493.751 19.9924 493.885 20.5744 494 21.1604C494.4 23.1804 494.13 24.3 492.73 25.28C491.7 26.01 490.34 26.1101 489.19 25.6003L488.862 25.4553L488.368 25.2351L487.66 24.9201C487.01 27.1003 487.38 27.9304 489.27 28.8601C492 30.2004 495.55 29.4001 497.41 27.05C498.95 25.1101 498.93 22.9802 498.5 20.8103C498.22 19.3903 497.81 18.0002 497.52 16.5803C496.78 13.0002 497.34 9.87031 501.55 7.95039C501.982 7.7502 502.401 7.52705 502.812 7.29072C503.391 6.95772 503.953 6.59883 504.511 6.24092L504.56 6.21016C505.55 5.58028 505.66 4.41035 504.78 3.63008C503.55 2.52998 502.25 2.87031 500.98 3.3V3.31026ZM796.058 2.49727C796.643 2.56465 797.285 2.63789 797.7 3.0002H797.71C798.25 3.48018 798.85 4.34004 798.83 5.05C798.81 5.73018 798.15 6.81026 797.58 7.06026C796.35 7.60029 795.01 7.84004 793.7 8.0002C790.94 8.32002 788.17 8.54024 785.4 8.75996C783.7 8.9001 782.58 9.8 781.47 11.4504C777.88 16.7702 775.24 22.59 773.29 29.1403C770.71 28.9104 770.23 27.2004 770.72 25.28C771.62 21.7902 772.73 18.34 773.94 14.9504C774.288 13.9582 774.835 13.0529 775.483 11.9792L775.486 11.9748C775.824 11.4147 776.19 10.8083 776.57 10.1203C775.941 10.1335 775.369 10.156 774.835 10.177C774.575 10.1872 774.325 10.197 774.081 10.2053L773.81 10.2136C773.488 10.2229 773.177 10.2282 772.874 10.2268L772.628 10.2238L772.44 10.2194C772.328 10.216 772.216 10.2111 772.105 10.2053C772.023 10.2009 771.942 10.196 771.86 10.1901C770.52 10.1003 769.17 9.75996 769.14 7.7502C769.12 5.91035 769.83 4.50996 771.42 3.82002C771.674 3.71065 771.947 3.65254 772.219 3.6042C772.277 3.59395 772.334 3.58467 772.391 3.57539L772.396 3.57393L772.59 3.54024C780.34 2.06026 788.1 1.50996 795.83 2.47041L796.058 2.49727ZM814 18.5803C814.446 18.1315 814.907 17.6867 815.373 17.238C816.465 16.1857 817.579 15.112 818.56 13.9201C818.728 13.7175 818.895 13.5148 819.062 13.3112C819.373 12.9323 819.681 12.5505 819.98 12.1604C826.06 4.29024 823.14 -1.28984 813.68 0.840041C810.43 1.57002 807.38 3.81026 805.62 7.44014C803.241 12.364 801.437 17.5856 799.637 22.7937C799.272 23.8474 798.908 24.9006 798.54 25.9504C798.249 26.7756 798.407 27.759 798.56 28.7111L798.59 28.9001C798.71 29.6301 799.29 30.2102 800.01 30.2404C802.358 30.3386 803.431 28.6276 804.429 27.0363L804.47 26.9704C805.29 25.6604 805.95 24.2404 806.62 22.8103C807.04 21.9001 808.15 21.6101 808.93 22.1901C818.18 29.09 820.01 29.4304 823.64 26.0002C822.551 24.9606 821.187 24.3142 819.805 23.6594C817.531 22.5817 815.209 21.4812 813.99 18.57L814 18.5803ZM816.69 6.98018C816.56 9.61494 814.919 10.843 813.306 12.05L813.295 12.0588C813.162 12.1579 813.03 12.257 812.899 12.3566C812.661 12.5373 812.426 12.7204 812.2 12.9104C811.24 11.1101 811.64 6.31026 816.69 6.98018ZM851.593 10.4318L851.682 10.4143L852.287 10.2893L852.66 10.2102C853.94 9.94014 854.88 10.3601 855.52 11.4104C853.3 14.3 840.45 19.3601 835.94 19.01C835.94 19.3537 835.931 19.6945 835.922 20.0329C835.903 20.778 835.884 21.5114 835.96 22.2404C836.28 25.2902 838.86 26.57 841.67 25.0202C842.502 24.5612 843.226 23.9079 843.944 23.2595L843.95 23.2551L844.162 23.0632C844.295 22.944 844.427 22.8264 844.56 22.7102C845.41 21.9904 846.44 21.4304 847.25 22.3601C847.65 22.8103 847.48 24.01 847.15 24.7004C845.89 27.34 843.69 29.0402 840.76 29.8303C836.29 31.03 832.53 28.8601 831.89 24.4504C830.78 16.7502 832.8 10.09 839.73 5.37031C841.6 4.10029 843.6 2.97041 845.67 2.04024L845.946 1.91426C847.135 1.36983 848.603 0.696974 849.65 2.3C850.46 3.54024 849.76 4.81026 847.78 5.97041C847.33 6.23457 846.862 6.47627 846.395 6.71748C845.535 7.16133 844.679 7.60371 843.94 8.18037C842.247 9.50215 840.62 10.9104 838.993 12.3186C838.343 12.8811 837.694 13.4436 837.04 14.0002L837.55 14.6301C838.536 14.3181 839.522 14.0041 840.508 13.6901L840.92 13.5583L840.944 13.551C843.51 12.7326 846.075 11.9143 848.65 11.1301C849.606 10.8356 850.601 10.6335 851.593 10.4318ZM879.78 10.2102C879.426 10.2868 879.069 10.3596 878.713 10.4323L878.701 10.4353L878.69 10.4382L878.68 10.4397C877.699 10.6389 876.716 10.8386 875.77 11.1301C873.195 11.9143 870.63 12.7326 868.064 13.551L868.04 13.5583L866.186 14.1491C865.681 14.3098 865.175 14.4704 864.67 14.6301L864.16 14.0002C864.806 13.4499 865.449 12.8938 866.092 12.3376L866.113 12.3186C867.74 10.9104 869.367 9.50215 871.06 8.18037C871.799 7.60371 872.655 7.16133 873.515 6.71748C873.982 6.47627 874.449 6.23457 874.9 5.97041C876.88 4.81026 877.58 3.54024 876.77 2.3C875.723 0.696974 874.255 1.36983 873.066 1.91426L872.79 2.04024C870.72 2.97041 868.72 4.10029 866.85 5.37031C859.93 10.09 857.9 16.7502 859.01 24.4504C859.65 28.8601 863.41 31.03 867.88 29.8303C870.81 29.0402 873.01 27.34 874.27 24.7004C874.6 24.01 874.77 22.8103 874.37 22.3601C873.56 21.4304 872.53 21.9904 871.68 22.7102C871.475 22.8884 871.273 23.0715 871.07 23.2551L871.064 23.2595C870.346 23.9079 869.622 24.5612 868.79 25.0202C865.98 26.57 863.4 25.2902 863.08 22.2404C863.004 21.5114 863.023 20.778 863.042 20.0329C863.049 19.7644 863.056 19.4943 863.059 19.2229L863.06 19.01C867.57 19.3601 880.42 14.3 882.64 11.4104C882 10.3601 881.06 9.94014 879.78 10.2102ZM892.11 16.57C890.85 10.8601 893.98 6.00996 900.31 3.88008V3.87031C901.58 3.44014 902.88 3.10029 904.11 4.20039C904.99 4.98018 904.88 6.1501 903.89 6.77998L903.839 6.81221C902.886 7.42256 901.921 8.03877 900.88 8.52022C896.67 10.4401 896.11 13.57 896.85 17.1501C896.989 17.8332 897.157 18.5095 897.324 19.1857C897.504 19.9147 897.685 20.6433 897.83 21.3801C898.26 23.55 898.28 25.6804 896.74 27.6203C894.88 29.9704 891.33 30.7702 888.6 29.4304C886.71 28.5002 886.34 27.6701 886.99 25.4904C887.51 25.7204 888.02 25.9504 888.52 26.1701C889.67 26.6804 891.03 26.5803 892.06 25.8503C893.46 24.8703 893.73 23.7502 893.33 21.7302C893.137 20.7478 892.892 19.7751 892.647 18.801C892.573 18.5051 892.498 18.2087 892.425 17.9118C892.315 17.466 892.209 17.0188 892.11 16.57ZM1072.53 22.1101C1071.8 22.1589 1071.13 22.5134 1070.47 22.863C1070.17 23.0188 1069.88 23.1735 1069.58 23.3L1069.34 23.4045L1068.82 23.632L1068.74 23.6672C1067.36 24.2746 1065.95 24.8923 1064.54 25.0002C1062.13 25.1804 1061.52 24.01 1062.47 21.1003C1063.14 19.0314 1063.93 17.0261 1064.72 15.0202C1065.3 13.5451 1065.88 12.07 1066.41 10.57C1066.98 8.97041 1067.48 7.25996 1067.68 5.54024C1067.77 4.75996 1067.65 3.46016 1066.67 3.10029C1066.15 2.88008 1064.99 3.57002 1064.69 4.27022C1064.25 5.27901 1063.8 6.28584 1063.34 7.29317C1061.42 11.6096 1059.48 15.9377 1057.94 20.4704C1055.84 26.6501 1059.98 30.9201 1063.75 30.9104C1067.65 30.9104 1071.19 29.34 1073.92 25.59C1073.92 25.59 1073.92 25.5803 1073.93 25.57C1074.89 24.2302 1073.95 22.01 1072.52 22.1003L1072.53 22.1101ZM1011.05 9.99043C1013.98 6.52022 1017.44 6.02022 1021.1 8.64033H1021.11C1023.88 10.6301 1024.57 14.0803 1023.02 18.2404C1020.63 24.6501 1015.55 28.2102 1008.7 28.2502C1004.02 28.28 1002.16 26.0202 1003.59 21.2102C1004.32 18.7565 1005.76 16.5148 1007.17 14.3396C1007.35 14.0588 1007.53 13.779 1007.71 13.5002C1008.22 12.7009 1008.92 12.0568 1009.63 11.4099C1010.12 10.9563 1010.62 10.5012 1011.05 9.99043ZM1010.59 21.9104C1014.4 22.01 1016.5 20.4802 1017.75 16.4704C1018.09 15.3903 1017.22 14.26 1016.19 14.4401C1012.84 15.03 1010.79 16.8601 1009.57 20.2102C1009.28 21.0002 1009.81 21.8903 1010.59 21.9104ZM999.51 4.70039C998.02 4.0002 996.59 4.8 995.26 5.98018C993.777 7.29072 992.415 8.91426 991.055 10.5344C989.811 12.0173 988.569 13.4973 987.24 14.7302C986.965 14.9865 986.676 15.26 986.375 15.5451L986.32 15.5964C984.214 17.5905 981.537 20.1257 978.89 21.4104C977.51 22.0803 975.65 19.3 975.25 17.82C974.777 16.0905 975.164 11.5886 975.427 8.53047L975.427 8.52608C975.503 7.64229 975.569 6.88008 975.6 6.34004C975.704 3.77412 973.867 4.02949 973.6 4.06611L973.57 4.07002C972.244 4.21553 971.118 5.55391 970.25 6.58516L970.026 6.85078L969.919 6.97529C969.781 7.13447 969.652 7.27852 969.53 7.4001C968.479 8.45479 967.176 9.98506 965.787 11.6164L965.781 11.6237L965.778 11.6267C963.113 14.7575 960.135 18.2551 958.02 19.4704C957.27 20.2404 956.17 20.78 956.23 19.3801C956.659 17.6115 957.377 15.3718 958.097 13.1286C959.037 10.1965 959.98 7.25801 960.28 5.36006C960.31 5.16035 960.29 4.95039 960.24 4.73018C959.84 3.07002 957.83 2.35029 956.36 3.21016C955.93 3.46016 955.59 3.7502 955.43 4.12031C953.238 9.16524 951.241 14.301 949.245 19.4338C948.764 20.6701 948.283 21.906 947.8 23.1403C947.06 25.03 946.86 27.2502 948.72 28.28C950.14 29.0603 952.59 29.4201 953.88 28.7102C956.95 27.0173 959.81 24.9436 962.668 22.8718C963.134 22.5339 963.6 22.1965 964.066 21.8605L964.68 21.4201C965.635 20.739 966.516 19.966 967.534 19.0739L967.537 19.071L967.541 19.0666L967.574 19.0373C967.845 18.8 968.126 18.5549 968.42 18.3C968.76 18.01 969.29 18.1804 969.4 18.6101C969.66 19.6701 969.79 20.2404 969.93 20.8103C971.71 28.3 975.02 30.6403 982.75 26.3303C983.48 25.9201 984.55 25.09 985.12 24.4802C987.978 21.4191 990.328 19.1652 992.617 16.9714L992.62 16.9685C994.942 14.7414 997.201 12.5759 999.86 9.69014C1000.33 9.18037 1000.58 8.48018 1000.79 7.77022C1001.15 6.57002 1000.65 5.22041 999.52 4.69014L999.51 4.70039ZM1036.73 10.55C1039.66 7.08028 1043.12 6.58028 1046.78 9.20039H1046.8C1049.57 11.1901 1050.26 14.6403 1048.71 18.8C1046.32 25.2102 1041.24 28.7702 1034.39 28.8103C1029.7 28.84 1027.84 26.5803 1029.27 21.7702C1030 19.3166 1031.44 17.0749 1032.85 14.8996L1033.13 14.4582L1033.39 14.0603C1033.9 13.2609 1034.6 12.6174 1035.31 11.9704C1035.8 11.5168 1036.3 11.0612 1036.73 10.55ZM1036.27 22.4704C1040.08 22.57 1042.18 21.0402 1043.43 17.03C1043.77 15.9504 1042.9 14.82 1041.87 15.0002C1038.52 15.59 1036.47 17.4201 1035.25 20.7702C1034.96 21.5603 1035.49 22.4504 1036.27 22.4704ZM1151.88 3.48018C1150.63 2.50996 1149.18 2.47041 1147.94 3.55C1147.37 4.04024 1146.97 4.77022 1146.61 5.45039C1145.99 6.63252 1145.37 7.8166 1144.75 9.00117C1144.22 10.0305 1143.68 11.0603 1143.15 12.0905L1143.11 12.1623L1143.11 12.1682L1141.97 14.3654C1141.5 15.2688 1141.03 16.1716 1140.55 17.0734C1140.11 17.9196 1139.67 18.7653 1139.22 19.6101C1138.84 20.3308 1138.38 21.0119 1137.84 21.8278L1137.82 21.8513C1137.55 22.2512 1137.26 22.6838 1136.95 23.1701C1136.71 22.7058 1136.5 22.3283 1136.32 22.0026C1136 21.4299 1135.76 21.0163 1135.65 20.57C1135.3 19.2072 1134.99 17.8366 1134.68 16.467L1134.67 16.4553C1134.51 15.7238 1134.34 14.9924 1134.17 14.2629L1134 13.5539L1133.91 13.1906L1133.79 12.7014C1133.65 12.1662 1133.51 11.6325 1133.37 11.1003C1132.79 8.98018 1132.15 6.82002 1131.17 4.87031C1129.82 2.19014 1127.69 2.13008 1125.7 4.39033C1125.55 4.55488 1125.41 4.73945 1125.25 4.92793C1124.7 5.61006 1124.11 6.34785 1123.48 6.41035C1120.88 6.66084 1119.77 8.41572 1118.6 10.2404L1118.46 10.4602L1118.33 10.6701C1117.81 11.4753 1117.26 12.2634 1116.71 13.0515L1116.71 13.0588C1115.92 14.1867 1115.14 15.3147 1114.43 16.4904C1113.09 18.7102 1111.83 21.0002 1110.74 23.3503C1110.09 24.7404 1110.42 26.28 1111.7 27.2302C1113.08 28.2502 1114.14 27.2204 1115.03 26.2404L1115.65 25.5637C1117.38 23.6901 1119.1 21.8137 1120.72 19.8503C1122.3 17.9426 1123.82 15.9831 1125.33 14.0231C1126.03 13.1272 1126.72 12.2312 1127.42 11.34L1127.57 11.3664L1127.89 11.4206C1128.06 11.4499 1128.23 11.4787 1128.4 11.51L1128.74 12.6638C1128.97 13.4787 1129.21 14.2917 1129.47 15.1003C1129.66 15.6989 1129.85 16.299 1130.04 16.8996C1130.17 17.3142 1130.3 17.7292 1130.42 18.1442L1130.47 18.281C1131.32 21.0549 1132.18 23.8269 1133.26 26.51C1134.66 29.9704 1136.78 30.4704 1139.54 27.9001C1141.27 26.2966 1142.62 24.2741 1143.96 22.2766L1144.3 21.7663L1144.5 21.4704C1145.79 19.573 1146.73 17.4851 1147.68 15.3942C1148.97 12.5266 1150.27 9.65401 1152.46 7.25996C1153.58 6.04024 1153.17 4.49043 1151.88 3.48018ZM1181.83 8.95137C1182.72 7.36494 1183.6 5.7834 1184.71 4.43037V4.44014C1185.54 3.43037 1187.89 2.77998 1188.71 3.4001C1189.66 4.12031 1190.34 6.57002 1190.02 7.99043C1188.18 16.2404 1175.45 27.6301 1168.11 27.9401C1163.4 28.1403 1160.76 26.0803 1160.15 20.6701C1159.73 16.8703 1160.02 12.8801 1160.43 9.00996C1160.53 7.99043 1162.36 6.34004 1163.25 6.42012C1164.14 6.5002 1165.44 8.33028 1165.5 9.50996C1165.63 12.0314 1165.49 14.5778 1165.35 17.3708C1165.32 17.967 1165.29 18.5744 1165.26 19.1955L1165.25 19.423C1165.23 19.694 1165.22 19.968 1165.21 20.2443C1165.2 20.4938 1165.19 20.7458 1165.18 21.0002C1172.57 21.7502 1176.43 17.3303 1179.89 12.2102C1180.59 11.173 1181.21 10.0612 1181.83 8.95137ZM1226.42 3.61006C1226.01 3.24873 1225.37 3.175 1224.78 3.10762L1224.55 3.08028C1216.82 2.12031 1209.06 2.67012 1201.31 4.1501L1201.11 4.18428C1200.78 4.24043 1200.45 4.29756 1200.14 4.43037C1198.55 5.12031 1197.84 6.52022 1197.86 8.36006C1197.89 10.3703 1199.24 10.7102 1200.58 10.8C1201.51 10.8674 1202.45 10.8303 1203.55 10.7868C1204.09 10.7658 1204.66 10.7434 1205.29 10.7302C1204.91 11.4191 1204.54 12.0261 1204.2 12.5866C1203.56 13.6618 1203.01 14.5676 1202.66 15.5603C1201.45 18.9504 1200.34 22.4001 1199.44 25.8903C1198.95 27.8103 1199.43 29.5202 1202.01 29.7502C1203.96 23.2004 1206.6 17.3801 1210.19 12.0603C1211.3 10.4104 1212.42 9.50996 1214.12 9.37031C1216.89 9.1501 1219.66 8.93037 1222.42 8.61006C1223.73 8.45039 1225.07 8.21016 1226.3 7.67012C1226.87 7.42012 1227.53 6.34004 1227.55 5.66035C1227.57 4.95039 1226.97 4.09004 1226.43 3.61006H1226.42ZM1241.8 2.34004C1243.07 1.91035 1244.37 1.57002 1245.6 2.67012V2.66035C1246.48 3.44014 1246.37 4.61006 1245.38 5.24043L1245.32 5.28145C1244.37 5.88789 1243.41 6.50117 1242.37 6.98018C1238.16 8.9001 1237.6 12.03 1238.34 15.6101C1238.48 16.2917 1238.65 16.9665 1238.81 17.6413L1238.81 17.6457C1238.99 18.3747 1239.17 19.1032 1239.32 19.84C1239.75 22.01 1239.77 24.1403 1238.23 26.0803C1236.37 28.4304 1232.82 29.2302 1230.09 27.8903C1228.2 26.9602 1227.83 26.1301 1228.48 23.9504L1229.15 24.2492C1229.44 24.3781 1229.73 24.5056 1230.01 24.6301C1231.16 25.1403 1232.52 25.0402 1233.55 24.3103C1234.95 23.3303 1235.22 22.2102 1234.82 20.1901C1234.79 20.0627 1234.77 19.9353 1234.74 19.8078C1234.71 19.6643 1234.68 19.5212 1234.65 19.3781L1234.56 19.0061L1234.47 18.5886C1234.36 18.1457 1234.25 17.7033 1234.14 17.2609L1234 16.7043C1233.94 16.4577 1233.88 16.2111 1233.82 15.9641C1233.78 15.8107 1233.74 15.6569 1233.71 15.5031L1233.65 15.2556L1233.6 15.03C1232.34 9.32002 1235.47 4.47041 1241.8 2.34004ZM295.81 12.6403C295.46 12.03 294.13 11.4001 293.34 11.3503C292.92 11.32 292.5 11.32 292.08 11.32H292.02C291.17 11.32 290.3 11.4001 289.37 11.4904C288.15 11.6003 287.81 11.2102 287.65 10.6604C287.58 10.3503 287.5 10.0202 287.44 9.72041C287.33 9.2502 287.23 8.8 287.14 8.36006C287.11 8.25654 287.088 8.15303 287.066 8.04951L287.065 8.04512L287.034 7.90303C287.02 7.84541 287.006 7.78779 286.99 7.73018L286.898 7.36299C286.864 7.22969 286.829 7.09688 286.794 6.96504L286.751 6.80635L286.71 6.66035C286.69 6.59248 286.672 6.52461 286.654 6.45723L286.607 6.2707L286.58 6.16035C286.512 5.91914 286.44 5.68037 286.363 5.44404C286.281 5.19014 286.193 4.93867 286.1 4.69014C285.71 3.67012 284.51 2.27022 283.56 1.92012C282.745 1.62129 282.717 1.65889 282.333 2.18135L282.2 2.36006C277.2 9.0002 272.31 15.7302 267.48 22.5002C266.626 23.7077 266.09 25.1848 265.569 26.6198L265.54 26.7004C265.449 26.9523 265.324 27.2312 265.192 27.5246C264.627 28.78 263.942 30.3034 265.32 31.1301C267.05 32.1701 268.09 31.2204 268.78 29.9602C268.869 29.7941 268.961 29.6296 269.055 29.466C269.11 29.3713 269.165 29.2766 269.22 29.1823C269.393 28.8898 269.569 28.5998 269.746 28.3098C270.337 27.341 270.927 26.3728 271.35 25.3103C271.46 25.0202 271.59 24.76 271.73 24.51L271.88 24.2702C271.918 24.2092 271.955 24.1481 271.991 24.0876C272.05 23.9895 272.108 23.8928 272.17 23.8L272.213 23.7434L272.242 23.7028L272.245 23.6984L272.249 23.6926C272.285 23.6438 272.319 23.5969 272.36 23.55C272.46 23.4201 272.56 23.3 272.66 23.1804C272.73 23.1003 272.81 23.0202 272.89 22.9504C272.99 22.84 273.1 22.7404 273.22 22.6403C273.3 22.57 273.38 22.5002 273.48 22.4401L273.588 22.3571C273.63 22.3249 273.672 22.2932 273.714 22.2624L273.769 22.2224L273.83 22.1804C273.91 22.1203 274.01 22.0603 274.09 22.0002C274.22 21.9201 274.34 21.8503 274.47 21.78C274.521 21.7546 274.567 21.7292 274.613 21.7033C274.657 21.6789 274.701 21.6545 274.75 21.6301C274.801 21.6022 274.856 21.5764 274.912 21.551C274.971 21.5246 275.031 21.4992 275.09 21.4738L275.17 21.4401L275.233 21.4123L275.31 21.3801L275.38 21.3508L275.45 21.32L275.515 21.2946L275.604 21.2629L275.716 21.2233C275.783 21.1999 275.852 21.176 275.92 21.1501L276.022 21.1149L276.037 21.1091C276.085 21.093 276.134 21.0764 276.19 21.0603C276.38 21.0002 276.59 20.9401 276.79 20.8903C276.824 20.8903 276.852 20.8801 276.881 20.8698C276.903 20.862 276.924 20.8542 276.95 20.8503C277.21 20.7902 277.48 20.7302 277.74 20.6804C277.81 20.6604 277.89 20.6501 277.98 20.6403C278.143 20.6057 278.314 20.5783 278.479 20.552L278.51 20.5476L278.56 20.5402C278.584 20.5354 278.609 20.531 278.634 20.5271L278.689 20.5192L278.725 20.5148C278.78 20.5075 278.836 20.5002 278.89 20.4904C279.06 20.4602 279.23 20.4401 279.4 20.4201C279.428 20.4152 279.455 20.4113 279.483 20.4074L279.593 20.3938C279.65 20.3869 279.709 20.3796 279.77 20.3703C279.94 20.3503 280.1 20.3303 280.26 20.3103C280.332 20.299 280.407 20.2907 280.486 20.2824C280.548 20.2756 280.613 20.2688 280.68 20.26C280.85 20.2404 281.04 20.2204 281.21 20.2004C281.36 20.1804 281.53 20.1604 281.69 20.1501C282.5 20.0603 283.39 20.7302 283.59 21.55C283.6 21.5852 283.61 21.6198 283.619 21.6545L283.632 21.7131L283.64 21.76C283.66 21.8693 283.68 21.9787 283.697 22.0881C283.715 22.1989 283.73 22.3098 283.74 22.4201C283.76 22.4802 283.75 22.55 283.76 22.6101C283.78 22.8903 283.81 23.1604 283.83 23.4401C283.83 23.5314 283.838 23.6145 283.847 23.7048L283.85 23.7302C283.853 23.8103 283.858 23.8903 283.862 23.9704L283.874 24.1955L283.877 24.2761L283.879 24.3552L283.88 24.4504C283.88 24.6076 283.891 24.7614 283.902 24.9138L283.912 25.0632C283.915 25.1125 283.918 25.1613 283.92 25.2102C283.93 25.2502 283.92 25.2902 283.93 25.3303L283.939 25.4475C283.95 25.5764 283.964 25.7058 283.981 25.8371C283.995 25.9406 284.011 26.0446 284.03 26.1501C284.05 26.2204 284.06 26.3 284.07 26.3703L284.086 26.4567C284.121 26.6398 284.157 26.8288 284.2 27.01C284.22 27.09 284.24 27.1604 284.26 27.2404C284.33 27.5202 284.43 27.7902 284.55 28.07C284.557 28.0969 284.572 28.1237 284.588 28.1506C284.595 28.1638 284.603 28.177 284.61 28.1901C284.71 28.4304 284.85 28.6604 284.99 28.9001L285.05 29.0202C285.06 29.0354 285.072 29.05 285.085 29.0651C285.097 29.0803 285.11 29.0949 285.12 29.1101C285.47 29.6403 285.91 30.1701 286.5 30.7004C286.699 30.4392 286.91 30.2136 287.102 29.9997C287.248 29.8366 287.382 29.6804 287.49 29.5202C287.494 29.5129 287.499 29.507 287.504 29.5017L287.518 29.4899L287.525 29.4846L287.53 29.4802V29.4602C287.62 29.3103 287.68 29.1604 287.71 29.0002L287.731 28.8552C288.084 26.4426 288.441 24.01 288.47 21.5002C288.5 19.4104 288.88 17.9304 291.04 17.3103C292.69 16.84 294.13 15.8801 295.42 14.8801C295.93 14.4802 296.19 13.2404 295.84 12.6301L295.81 12.6403ZM279.27 15.5402L281.13 13.07L282.95 10.6501C284.7 15.7102 283.41 16.6203 279.27 15.5402ZM61.38 12.05C62.17 12.1003 63.5 12.7302 63.8499 13.34L63.88 13.3303C64.23 13.9401 63.9699 15.1804 63.4599 15.5803C62.17 16.5803 60.73 17.5402 59.0799 18.01C56.92 18.6301 56.54 20.1101 56.51 22.2004C56.4806 24.7087 56.1247 27.1408 55.7719 29.552L55.7712 29.5563L55.75 29.7004C55.7199 29.8601 55.66 30.01 55.5699 30.1604V30.1804L55.5591 30.1892C55.5492 30.197 55.5371 30.2063 55.53 30.2204C55.28 30.59 54.89 30.9401 54.54 31.4001C54.4696 31.3366 54.4012 31.2731 54.3349 31.2097C54.2683 31.1462 54.2037 31.0827 54.1412 31.0192C53.9948 30.8708 53.8592 30.7219 53.733 30.5734C53.5168 30.319 53.3281 30.0647 53.16 29.8103L53.1473 29.7927L53.1247 29.7658L53.1178 29.757L53.1021 29.738L53.0899 29.7204L53.03 29.6003C52.9752 29.5065 52.9204 29.4143 52.868 29.3225C52.7866 29.1789 52.7109 29.0363 52.65 28.8903C52.6433 28.8772 52.6355 28.864 52.6277 28.8508L52.6075 28.8142L52.5974 28.7922L52.594 28.7834L52.5899 28.7702C52.4699 28.4904 52.38 28.2204 52.3 27.9401L52.27 27.8254L52.24 27.7102C52.1972 27.531 52.1618 27.3439 52.1275 27.1623L52.11 27.07L52.1067 27.0466C52.101 27.007 52.0951 26.9646 52.0871 26.923L52.0791 26.8859L52.0699 26.8503C52.02 26.57 51.99 26.3 51.9699 26.03C51.9599 25.9904 51.9699 25.9504 51.9599 25.9104C51.956 25.8117 51.9491 25.7131 51.942 25.614L51.9295 25.4313C51.924 25.3391 51.92 25.2453 51.92 25.1501C51.92 24.9104 51.9 24.6701 51.89 24.4304C51.88 24.3303 51.87 24.2404 51.87 24.1403C51.8499 23.8601 51.8199 23.59 51.8 23.3103C51.8 23.2761 51.8 23.239 51.7964 23.2019L51.792 23.1696C51.7892 23.1525 51.7853 23.1359 51.78 23.1203C51.76 22.9001 51.7199 22.6804 51.68 22.4602C51.67 22.3903 51.65 22.32 51.63 22.2502C51.43 21.4304 50.54 20.76 49.73 20.8503C49.5699 20.8601 49.4 20.8801 49.25 20.9001L48.9951 20.9294L48.7199 20.9602C48.6515 20.9694 48.5851 20.9768 48.5208 20.9836L48.3703 21.0002L48.3 21.01L47.81 21.07C47.7494 21.0793 47.6909 21.0866 47.6336 21.0935L47.6153 21.0964L47.5183 21.1086L47.4399 21.1203C47.27 21.1403 47.0999 21.1604 46.93 21.1901C46.8199 21.2102 46.6999 21.2204 46.5999 21.2404C46.41 21.2702 46.2099 21.3 46.02 21.34C45.93 21.3503 45.8499 21.3601 45.78 21.3801C45.52 21.4304 45.25 21.4904 44.99 21.55C44.9605 21.5549 44.9359 21.5622 44.9112 21.5695L44.8775 21.5798L44.8558 21.5847L44.8299 21.59C44.7179 21.6184 44.6026 21.6496 44.4895 21.6818C44.4009 21.7072 44.3135 21.7336 44.23 21.76L44.1546 21.7834L44.0486 21.82L44.0442 21.8215L43.9599 21.8503C43.8 21.9104 43.64 21.9602 43.49 22.0202C43.4447 22.0402 43.3969 22.0603 43.3492 22.0803C43.302 22.1003 43.2547 22.1203 43.2099 22.1403L43.1244 22.177C43.0642 22.2023 43.0033 22.2277 42.9439 22.2551C42.891 22.279 42.8391 22.3039 42.79 22.3303C42.75 22.3498 42.7131 22.3698 42.6769 22.3894L42.6671 22.3952L42.6495 22.4055C42.6047 22.4304 42.5598 22.4553 42.51 22.4802C42.38 22.55 42.26 22.6203 42.13 22.7004C42.05 22.76 41.9499 22.82 41.87 22.8801C41.7871 22.9353 41.7091 22.9953 41.6292 23.0568L41.6231 23.0612L41.52 23.1403C41.42 23.2004 41.3399 23.2702 41.26 23.34C41.14 23.4401 41.03 23.5402 40.93 23.6501C40.8499 23.7204 40.77 23.8 40.6999 23.8801L40.5688 24.0388L40.4846 24.1428L40.4 24.2502C40.3299 24.3303 40.28 24.4104 40.2099 24.5002C40.11 24.6501 40.02 24.8103 39.92 24.9704L39.77 25.2102C39.63 25.4602 39.5 25.7204 39.39 26.01C38.9674 27.073 38.3767 28.0417 37.7859 29.0105C37.454 29.5549 37.122 30.0993 36.8199 30.6604C36.13 31.9201 35.0899 32.8703 33.36 31.8303C31.9822 31.0036 32.6668 29.4802 33.2314 28.2243C33.3635 27.9309 33.489 27.6521 33.5799 27.4001L33.6092 27.3195C34.1299 25.8845 34.666 24.4079 35.52 23.2004C40.3499 16.4304 45.24 9.70039 50.24 3.06026L50.3579 2.90205L50.3729 2.88154C50.7572 2.35908 50.7848 2.32149 51.5999 2.62031C52.55 2.97041 53.75 4.37031 54.14 5.39033C54.3199 5.87031 54.48 6.36006 54.62 6.86006C54.66 7.02022 54.6999 7.19014 54.75 7.36006C54.8499 7.71016 54.9399 8.07002 55.03 8.43037C55.0444 8.48067 55.0571 8.53096 55.0689 8.58125L55.0919 8.68379L55.1054 8.74678L55.1109 8.77315L55.1366 8.89033L55.1549 8.96651L55.1585 8.98115L55.18 9.06026C55.27 9.5002 55.37 9.95039 55.48 10.4201C55.5062 10.551 55.5361 10.6872 55.5675 10.8254L55.6262 11.0817L55.6899 11.3601C55.86 11.9104 56.1899 12.3 57.41 12.1901L57.7176 12.1608L58.0642 12.1301L58.281 12.1115L58.5099 12.0935L58.6959 12.0803C59.16 12.0476 59.6128 12.0256 60.06 12.0202H60.12C60.4187 12.0202 60.7173 12.0202 61.016 12.031C61.1373 12.0354 61.2586 12.0412 61.38 12.05ZM49.17 13.7702L47.31 16.2404C51.4499 17.32 52.74 16.4104 50.99 11.3503L49.17 13.7702ZM257.27 22.76C256.22 22.84 255.29 23.55 254.32 23.9602C254.196 24.0124 254.072 24.0661 253.948 24.1203C253.792 24.1882 253.635 24.257 253.478 24.3264C252.097 24.9338 250.692 25.552 249.28 25.6604C246.87 25.84 246.27 24.6604 247.21 21.76C247.882 19.6789 248.676 17.6613 249.47 15.6438C250.045 14.1809 250.62 12.718 251.15 11.2302C251.72 9.63008 252.22 7.92012 252.42 6.20039C252.51 5.42012 252.39 4.12031 251.41 3.75996C250.89 3.54024 249.74 4.23018 249.43 4.93037C248.991 5.92647 248.546 6.92061 248.102 7.91572L248.087 7.94942C246.156 12.2673 244.221 16.5969 242.68 21.1301C240.58 27.3 244.72 31.57 248.49 31.57C252.39 31.5603 255.93 30.0002 258.66 26.2502V26.2302C259.61 24.8903 258.68 22.6701 257.25 22.76H257.27ZM319.7 5.31026C320.57 4.75996 321.54 4.23018 322.53 4.05H322.52C323.93 3.79024 325.13 4.48018 325.65 5.83028C326.11 7.02022 325.3 7.87031 324.4 8.57002L322.854 9.77949L321.553 10.7966C319.692 12.2517 317.831 13.7063 315.97 15.1701C315.905 15.2214 315.842 15.2751 315.779 15.3308C315.683 15.4167 315.59 15.5075 315.493 15.6032C315.335 15.7605 315.17 15.9304 314.98 16.1101C315.478 17.3513 315.972 18.5852 316.464 19.8142L316.479 19.8522C317.393 22.1359 318.3 24.403 319.22 26.6701C319.89 28.3303 320.39 29.9401 318.16 31.5603C315.65 27.4104 313.33 23.5603 310.81 19.3801C306.08 22.3703 302.5 26.05 299.03 29.84C297.06 28.8103 296.65 27.8601 297.61 26.1804C298.09 25.34 298.74 24.59 299.4 23.8703L299.871 23.3562L299.893 23.3313L299.901 23.3225C302.354 20.6442 304.811 17.9621 307.33 15.34C308.26 14.3703 308.61 13.4201 308.16 12.1301C307.63 10.6003 307.16 9.04024 306.73 7.48018C306.5 6.66035 306.21 5.75996 306.33 4.96016C306.45 4.22041 306.95 3.32002 307.56 2.96016C307.97 2.71016 309.11 3.07002 309.5 3.52022C310.39 4.56026 311.09 5.77998 311.72 7.00996C312.16 7.86006 312.35 8.84004 312.71 9.93037C314.55 9.34053 315.966 8.19258 317.366 7.05733C318.127 6.44063 318.883 5.82783 319.7 5.31026ZM237.73 13.4201C237.05 13.0402 236.04 12.9504 235.27 13.1101C234.861 13.1984 234.455 13.3034 234.053 13.4182C233.521 13.5695 232.994 13.7375 232.467 13.9055C232.058 14.0358 231.649 14.1662 231.238 14.2888C231.113 14.3264 230.987 14.363 230.861 14.3986C230.671 14.4523 230.48 14.5041 230.288 14.5529L230.182 14.5793C230.098 14.6003 230.014 14.6208 229.93 14.6403C229.323 14.78 228.724 14.9772 228.12 15.176C226.565 15.6872 224.979 16.2082 223.15 15.7902C223.3 12.6901 224.48 10.82 227.11 9.69014C227.827 9.3835 228.527 9.03486 229.225 8.68623L229.233 8.68184C231.152 7.72285 233.067 6.76631 235.33 6.70039C235.79 6.69014 236.24 6.22041 236.64 6.0002C236.51 2.69014 234.94 2.25996 232.93 2.8C230.42 3.47041 227.97 4.39033 225.51 5.21016C221.86 6.43037 218.91 8.2502 218.7 12.6701C218.668 13.259 218.4 13.8317 218.129 14.4108L218.021 14.6423C217.991 14.7092 217.96 14.7761 217.931 14.8435C217.892 14.9309 217.855 15.0183 217.819 15.1062C217.776 15.2136 217.736 15.3215 217.7 15.4304C216.19 19.9802 216.02 24.6203 216.81 29.32C217 30.4201 217.4 31.59 218.76 31.57C220.162 31.552 220.214 30.4792 220.263 29.4758L220.27 29.3347L220.28 29.1604C220.308 28.6877 220.315 28.2141 220.322 27.7409C220.334 27.0124 220.345 26.2858 220.43 25.57C220.59 24.2004 220.91 22.8601 221.15 21.5402C221.395 21.5041 221.635 21.4729 221.87 21.4445C222.213 21.403 222.547 21.3684 222.873 21.3347L222.882 21.3332C223.995 21.217 225.011 21.111 225.96 20.7902C229.88 19.4802 233.75 18.01 237.6 16.51C238.99 15.9704 239.08 14.1701 237.75 13.4304L237.73 13.4201ZM129.891 4.01387C130.21 4.05195 130.541 4.09151 130.845 4.17305C131.127 4.24873 131.385 4.36055 131.59 4.54024C132.17 5.05 132.79 5.95039 132.77 6.70039C132.74 7.42012 132.04 8.55 131.44 8.81026C130.14 9.38008 128.73 9.63008 127.35 9.79024C124.652 10.1052 121.945 10.3088 119.237 10.5119L118.6 10.5603C116.8 10.7004 115.62 11.6501 114.44 13.3801C110.63 18.9704 107.82 25.09 105.74 31.9802C103.02 31.7302 102.53 29.9201 103.05 27.9001C104.01 24.2204 105.2 20.6003 106.49 17.03C106.872 15.9821 107.454 15.0256 108.144 13.8913C108.502 13.3044 108.888 12.6696 109.29 11.9504C108.65 11.9631 108.065 11.9846 107.518 12.0046C106.33 12.0485 105.323 12.0856 104.33 12.01C102.92 11.9001 101.5 11.5402 101.48 9.42012C101.47 7.48018 102.22 6.00996 103.9 5.29024C104.196 5.16133 104.515 5.10713 104.831 5.05391C104.931 5.03682 105.031 5.01973 105.13 5.0002C113.31 3.48018 121.47 2.93037 129.62 3.98018L129.776 3.99971L129.83 4.00654L129.891 4.01387ZM157.4 8.46016C156.294 9.81319 155.409 11.3947 154.522 12.9812C153.902 14.091 153.28 15.2028 152.58 16.2404C149.12 21.3601 139.56 29.3303 137.87 25.03C136.828 22.362 137.271 20.4333 137.715 18.5031C137.987 17.3225 138.258 16.1413 138.19 14.7902C138.13 13.6101 136.82 11.78 135.94 11.7004C135.05 11.6203 133.22 13.2702 133.12 14.2902C132.71 18.1604 132.42 20.9001 132.84 24.7004C133.45 30.1101 136.09 32.1701 140.8 31.9704C148.14 31.6604 160.87 20.2702 162.71 12.0202C163.03 10.6003 162.35 8.1501 161.4 7.43037C160.58 6.81026 158.23 7.46016 157.4 8.47041V8.46016ZM23.3211 24.9997C24.3216 24.7517 25.3222 24.5036 26.3399 24.3503H26.3299C26.9499 24.26 27.98 24.2702 28.25 25.1701C28.39 26.6101 27.9699 27.28 27.3399 27.7302C22.76 31.03 17.4 31.6701 12.86 31.9704H12.4399C7.12998 31.7204 3.58994 30.0202 1.60996 25.8C-0.530055 21.2302 -0.760036 16.6403 2.31992 12.4602C6.78574 6.38057 13.3176 3.72334 20.082 0.971388L20.92 0.63008C23.86 -0.61992 26.91 1.45039 25.1999 3.87031C24.8904 4.17647 24.5881 4.39668 24.2788 4.58028C23.9876 4.75264 23.6903 4.89326 23.3747 5.0417C23.2212 5.11397 23.0633 5.18867 22.8998 5.26973C22.7298 5.35371 22.5537 5.44551 22.37 5.55C21.2192 6.19746 19.9253 6.81465 18.6118 7.44111C16.5584 8.42061 14.4572 9.42305 12.78 10.6003C12.6211 10.7111 12.4535 10.8269 12.2791 10.946L11.9454 11.174C10.1103 12.426 7.71042 14.0637 6.71994 15.76C4.19993 20.07 5.25998 26.1203 10.1999 26.57C12.49 26.78 17.93 26.0002 20.23 25.6604C21.2722 25.5085 22.2966 25.2541 23.3211 24.9997ZM94.51 24.3503C93.4922 24.5036 92.4914 24.7517 91.4908 24.9997C90.4663 25.2541 89.4421 25.5085 88.4 25.6604C86.0999 26.0002 80.66 26.78 78.37 26.57C73.43 26.1203 72.37 20.07 74.89 15.76C75.8805 14.0637 78.2805 12.426 80.1156 11.174C80.4111 10.9724 80.692 10.7805 80.9499 10.6003C82.6272 9.42305 84.7285 8.42061 86.782 7.44111C88.0954 6.81465 89.3893 6.19746 90.54 5.55C90.9006 5.34541 91.2315 5.18916 91.5447 5.0417C92.1954 4.73506 92.769 4.46455 93.37 3.87031C95.0799 1.45039 92.03 -0.61992 89.0899 0.63008L88.3479 0.931349C81.5501 3.68916 74.9865 6.35225 70.49 12.4602C67.41 16.6403 67.64 21.2302 69.78 25.8C71.76 30.0202 75.3 31.7204 80.61 31.9704H81.03C85.5699 31.6701 90.93 31.03 95.51 27.7302C96.14 27.28 96.5599 26.6101 96.42 25.1701C96.15 24.2702 95.12 24.26 94.5 24.3503H94.51ZM179.93 2.2502C181.27 1.8 182.63 1.44014 183.94 2.48018V2.49043C185.41 3.66035 185.46 4.43037 183.87 5.44014C182.8 6.11006 181.73 6.82002 180.56 7.35029C175.94 9.46016 175.32 12.8903 176.14 16.8103C176.287 17.5022 176.459 18.1901 176.63 18.8776C176.842 19.7302 177.054 20.5822 177.22 21.4401C177.68 23.82 177.71 26.1501 176.02 28.28C173.98 30.8601 170.09 31.7404 167.09 30.2702C165.03 29.2502 164.62 28.34 165.33 25.9504C166.52 26.4904 167.66 26.9904 168.77 27.4904C172.01 28.3801 172.88 24.84 172.28 21.8303C172.062 20.7429 171.793 19.6652 171.523 18.5876C171.321 17.7829 171.12 16.9782 170.94 16.1701C169.56 9.91035 172.99 4.58028 179.93 2.2502Z" fill="black"/>
</svg>
