<svg width="186" height="33" viewBox="0 0 186 33" fill="none" xmlns="http://www.w3.org/2000/svg">
<path fill-rule="evenodd" clip-rule="evenodd" d="M23.3218 24.9998C24.322 24.7516 25.3224 24.5033 26.34 24.3502H26.33C26.95 24.2602 27.9799 24.2702 28.25 25.1702C28.3899 26.6102 27.9699 27.2802 27.34 27.7302C22.76 31.0302 17.4 31.6702 12.86 31.9702H12.44C7.12995 31.7202 3.58995 30.0202 1.60995 25.8002C-0.530049 21.2302 -0.760049 16.6402 2.31995 12.4602C6.78555 6.38124 13.317 3.72385 20.081 0.971865L20.0813 0.971726L20.0816 0.971586C20.3607 0.858039 20.6402 0.744331 20.92 0.630214C23.86 -0.619786 26.91 1.45021 25.2 3.87021C24.599 4.46438 24.0255 4.73487 23.3746 5.04181C23.0615 5.18948 22.7305 5.34558 22.37 5.55021C21.2192 6.19775 19.9254 6.81485 18.6121 7.44129L18.6121 7.4413L18.612 7.44131C16.5586 8.42078 14.4572 9.42308 12.78 10.6002C12.5216 10.7808 12.2404 10.9727 11.9444 11.1746L11.9444 11.1746C10.1094 12.4267 7.71023 14.0638 6.71995 15.7602C4.19995 20.0702 5.25995 26.1202 10.2 26.5702C12.49 26.7802 17.93 26.0002 20.2299 25.6602C21.2724 25.5084 22.297 25.2541 23.3218 24.9998ZM61.3799 12.0499C62.1699 12.0999 63.4999 12.7299 63.8499 13.3399L63.8799 13.3299C64.2299 13.9399 63.9699 15.1799 63.4599 15.5799C62.1699 16.5799 60.7299 17.5399 59.0799 18.0099C56.9199 18.6299 56.5399 20.1099 56.5099 22.1999C56.4805 24.7094 56.1244 27.142 55.7713 29.5543L55.7713 29.5544L55.7499 29.6999C55.7199 29.8599 55.6599 30.0099 55.5699 30.1599V30.1799C55.5684 30.1814 55.5667 30.1829 55.5648 30.1844L55.5587 30.1893C55.5488 30.1969 55.5369 30.206 55.5299 30.2199C55.3971 30.4166 55.2246 30.6076 55.0397 30.8125C54.8767 30.9931 54.7039 31.1844 54.5399 31.3999C53.9499 30.8699 53.5099 30.3399 53.1599 29.8099C53.1499 29.7949 53.1374 29.7799 53.1249 29.7649C53.1124 29.7499 53.0999 29.7349 53.0899 29.7199L53.0299 29.5999L52.9825 29.5188L52.9824 29.5187C52.8587 29.3077 52.7386 29.1027 52.6499 28.8899C52.6433 28.8766 52.6355 28.8632 52.6277 28.8499C52.6122 28.8232 52.5966 28.7966 52.5899 28.7699C52.4699 28.4899 52.3799 28.2199 52.2999 27.9399C52.2899 27.8999 52.2799 27.8624 52.2699 27.8248C52.2599 27.7874 52.2499 27.7499 52.2399 27.7099C52.1968 27.5287 52.1611 27.3401 52.1264 27.1568L52.1264 27.1568L52.1099 27.0699L52.1066 27.0465C52.0976 26.9825 52.0877 26.9122 52.0699 26.8499C52.0199 26.5699 51.9899 26.2999 51.9699 26.0299C51.965 26.0099 51.9649 25.9899 51.9649 25.97V25.9699C51.9649 25.9499 51.9649 25.9299 51.9599 25.9099C51.956 25.8115 51.949 25.713 51.9419 25.6139L51.9419 25.6137L51.9419 25.6136C51.931 25.4612 51.9199 25.3074 51.9199 25.1499C51.9199 24.9899 51.9111 24.8299 51.9022 24.6699C51.8977 24.5899 51.8933 24.5099 51.8899 24.4299L51.8874 24.4049C51.8783 24.3147 51.8699 24.2315 51.8699 24.1399C51.8599 23.9999 51.8474 23.8624 51.8349 23.7248C51.8224 23.5874 51.8099 23.4499 51.7999 23.3099C51.7999 23.2499 51.7999 23.1799 51.7799 23.1199C51.7599 22.8999 51.72 22.68 51.68 22.46L51.6799 22.4599C51.6699 22.3899 51.6499 22.3199 51.6299 22.2499C51.4299 21.4299 50.5399 20.7599 49.7299 20.8499C49.5699 20.8599 49.3999 20.8799 49.2499 20.8999C49.1653 20.9099 49.0756 20.9198 48.986 20.9298L48.9859 20.9298L48.985 20.9299C48.895 20.9399 48.805 20.9499 48.7199 20.9599C48.653 20.9688 48.588 20.9758 48.5249 20.9825C48.4469 20.9908 48.3719 20.9988 48.2999 21.0099C48.2204 21.0199 48.1384 21.0298 48.0564 21.0397L48.0549 21.0399C47.9724 21.0499 47.8899 21.0599 47.8099 21.0699C47.7492 21.0793 47.6906 21.0864 47.6332 21.0934L47.6331 21.0935L47.633 21.0935L47.6329 21.0935L47.6328 21.0935C47.5675 21.1015 47.5037 21.1093 47.4399 21.1199L47.4398 21.1199C47.2699 21.1399 47.0999 21.1599 46.9299 21.1899C46.878 21.1994 46.8238 21.2066 46.7706 21.2137C46.7111 21.2216 46.6527 21.2294 46.5999 21.2399L46.5314 21.2507C46.3623 21.2772 46.1872 21.3047 46.0199 21.3399C45.9299 21.3499 45.8499 21.3599 45.7799 21.3799C45.5199 21.4299 45.2499 21.4899 44.9899 21.5499C44.9599 21.5549 44.9349 21.5624 44.9099 21.5699C44.8849 21.5774 44.8599 21.5849 44.8299 21.5899C44.6299 21.6399 44.4199 21.6999 44.2299 21.7599C44.1633 21.7799 44.1055 21.7999 44.0477 21.8199C44.0188 21.8299 43.9899 21.8399 43.9599 21.8499C43.8918 21.8755 43.8237 21.8992 43.7563 21.9227L43.7563 21.9227L43.7563 21.9227L43.7562 21.9227L43.7562 21.9227C43.6654 21.9543 43.576 21.9855 43.4899 22.0199C43.4449 22.0399 43.3974 22.0599 43.3499 22.0799C43.3024 22.0999 43.2549 22.1199 43.2099 22.1399L43.1309 22.1735C43.0148 22.2226 42.8957 22.273 42.7899 22.3299C42.74 22.3549 42.695 22.3799 42.65 22.4049L42.6499 22.4049C42.6049 22.4299 42.5599 22.4549 42.5099 22.4799C42.3799 22.5499 42.2599 22.6199 42.1299 22.6999C42.0899 22.7299 42.0449 22.7599 41.9999 22.7899C41.9549 22.8199 41.9099 22.8499 41.8699 22.8799C41.7865 22.9356 41.7079 22.996 41.6273 23.058L41.6272 23.0581L41.627 23.0583L41.627 23.0583L41.6269 23.0583C41.5918 23.0853 41.5563 23.1126 41.5199 23.1399C41.4199 23.1999 41.3399 23.2699 41.2599 23.3399C41.1399 23.4399 41.0299 23.5399 40.9299 23.6499C40.8499 23.7199 40.7699 23.7999 40.6999 23.8799C40.5999 23.9999 40.4999 24.1199 40.3999 24.2499C40.3572 24.2987 40.322 24.3475 40.285 24.3986C40.2615 24.4313 40.2372 24.4648 40.2099 24.4999C40.1485 24.5921 40.0908 24.688 40.0323 24.7854L40.0322 24.7855L40.0322 24.7856L40.032 24.7859L40.032 24.786L40.0318 24.7862L40.0308 24.7879L40.0306 24.7883C39.9944 24.8484 39.9579 24.9092 39.9199 24.9699L39.7699 25.2099C39.6299 25.4599 39.4999 25.7199 39.3899 26.0099C38.9674 27.0726 38.3769 28.0411 37.7862 29.0097C37.4542 29.5541 37.1222 30.0986 36.8199 30.6599C36.1299 31.9199 35.0899 32.8699 33.3599 31.8299C31.9821 31.0032 32.6669 29.4802 33.2315 28.2246L33.2316 28.2244L33.2318 28.2241L33.2318 28.2239C33.3637 27.9306 33.489 27.6518 33.5799 27.3999L33.6094 27.3187C34.1301 25.8841 34.6661 24.4071 35.5199 23.1999C40.3499 16.4299 45.2399 9.69991 50.2399 3.05991C50.2889 2.99491 50.3328 2.93532 50.3728 2.88097C50.7572 2.35848 50.7847 2.321 51.5999 2.61991C52.5499 2.96991 53.7499 4.36991 54.1399 5.38991C54.3199 5.86991 54.4799 6.35991 54.6199 6.85991L54.6438 6.95606C54.6762 7.08724 54.7098 7.22357 54.7499 7.35991C54.8499 7.70991 54.9399 8.06991 55.0299 8.42991C55.0599 8.53491 55.0824 8.6399 55.1049 8.74489C55.1274 8.8499 55.1499 8.95491 55.1799 9.05991C55.2699 9.49991 55.3699 9.94991 55.4799 10.4199C55.5224 10.6324 55.575 10.86 55.6269 11.0848L55.6273 11.0868C55.6486 11.1787 55.6697 11.2702 55.6899 11.3599C55.8599 11.9099 56.1899 12.2999 57.4099 12.1899C58.3399 12.0999 59.2099 12.0299 60.0599 12.0199H60.1199C60.5399 12.0199 60.9599 12.0199 61.3799 12.0499ZM49.1699 13.7699L47.3099 16.2399C51.4499 17.3199 52.7399 16.4099 50.9899 11.3499L49.1699 13.7699ZM129.892 4.0138C130.504 4.08719 131.164 4.16634 131.59 4.54002C132.17 5.05002 132.79 5.95002 132.77 6.70002C132.74 7.42002 132.04 8.55002 131.44 8.81002C130.14 9.38002 128.73 9.63002 127.35 9.79002C124.647 10.1059 121.935 10.3095 119.222 10.5132L118.6 10.56C116.8 10.7 115.62 11.65 114.44 13.38C110.63 18.97 107.82 25.09 105.74 31.98C103.02 31.73 102.53 29.92 103.05 27.9C104.01 24.22 105.2 20.6 106.49 17.03C106.872 15.9822 107.454 15.0256 108.144 13.8911L108.144 13.891C108.502 13.304 108.888 12.6694 109.29 11.95C108.649 11.9626 108.063 11.9843 107.515 12.0044C106.328 12.0482 105.322 12.0853 104.33 12.01C102.92 11.9 101.5 11.54 101.48 9.42002C101.47 7.48002 102.22 6.01002 103.9 5.29002C104.196 5.16096 104.515 5.10682 104.831 5.05323C104.931 5.03623 105.031 5.01928 105.13 5.00002C113.31 3.48002 121.47 2.93002 129.62 3.98002C129.709 3.99179 129.8 4.00271 129.892 4.01376L129.892 4.0138ZM157.4 8.45986C156.294 9.81303 155.409 11.3946 154.522 12.9807C153.902 14.0905 153.28 15.2025 152.58 16.2399C149.12 21.3599 139.56 29.3299 137.87 25.0299C136.828 22.3619 137.271 20.4331 137.715 18.503C137.987 17.3223 138.258 16.1411 138.19 14.7899C138.13 13.6099 136.82 11.7799 135.94 11.6999C135.05 11.6199 133.22 13.2699 133.12 14.2899C132.71 18.1599 132.42 20.8999 132.84 24.6999C133.45 30.1099 136.09 32.1699 140.8 31.9699C148.14 31.6599 160.87 20.2699 162.71 12.0199C163.03 10.5999 162.35 8.14986 161.4 7.42986C160.58 6.80986 158.23 7.45986 157.4 8.46986V8.45986ZM94.51 24.3502C93.4925 24.5033 92.4921 24.7516 91.4918 24.9998C90.4671 25.2541 89.4425 25.5084 88.4 25.6602C86.1 26.0002 80.66 26.7802 78.37 26.5702C73.43 26.1202 72.37 20.0702 74.89 15.7602C75.8803 14.0638 78.2795 12.4267 80.1145 11.1746C80.4104 10.9727 80.6917 10.7808 80.95 10.6002C82.6273 9.42307 84.7286 8.42077 86.7821 7.44129C88.0955 6.81485 89.3893 6.19775 90.54 5.55021C90.9005 5.34561 91.2315 5.18952 91.5445 5.04187L91.5447 5.04181C92.1955 4.73487 92.7691 4.46438 93.37 3.87021C95.08 1.45021 92.03 -0.619786 89.09 0.630214C88.8449 0.729856 88.6 0.829208 88.3554 0.928436L88.349 0.931043C81.5508 3.68897 74.9868 6.35191 70.49 12.4602C67.41 16.6402 67.64 21.2302 69.78 25.8002C71.76 30.0202 75.3 31.7202 80.61 31.9702H81.03C85.57 31.6702 90.93 31.0302 95.51 27.7302C96.14 27.2802 96.56 26.6102 96.42 25.1702C96.15 24.2702 95.12 24.2602 94.5 24.3502H94.51ZM179.93 2.24998C181.27 1.79998 182.63 1.43998 183.94 2.47998V2.48998C185.41 3.65998 185.46 4.42998 183.87 5.43998C183.719 5.53461 183.568 5.63004 183.416 5.72565C182.496 6.30695 181.565 6.89483 180.56 7.34998C175.94 9.45998 175.32 12.89 176.14 16.81C176.287 17.5019 176.459 18.1898 176.63 18.8773C176.842 19.73 177.054 20.5819 177.22 21.44C177.68 23.82 177.71 26.15 176.02 28.28C173.98 30.86 170.09 31.74 167.09 30.27C165.03 29.25 164.62 28.34 165.33 25.95C166.009 26.258 166.671 26.553 167.321 26.8424C167.811 27.0604 168.293 27.2752 168.77 27.49C172.01 28.38 172.88 24.84 172.28 21.83C172.062 20.7419 171.792 19.6637 171.522 18.5859C171.321 17.7817 171.12 16.9777 170.94 16.17C169.56 9.90998 172.99 4.57998 179.93 2.24998Z" fill="black"/>
</svg>
