<svg width="147" height="31" viewBox="0 0 147 31" fill="none" xmlns="http://www.w3.org/2000/svg">
<path fill-rule="evenodd" clip-rule="evenodd" d="M126.71 8.78977C125.09 8.66977 123.91 8.72977 122.18 9.09977C119.009 9.77351 115.86 10.5813 112.708 11.3897L112.707 11.3898C111.556 11.6852 110.403 11.9807 109.25 12.2698L109.245 12.271C108.277 12.5106 107.319 12.7477 106.48 11.4898C106.96 8.71977 108.55 6.37977 110.17 4.01977C111.32 2.34977 110.64 0.719772 108.74 0.139772C107.41 -0.270228 106.37 0.289772 105.84 1.42977L105.63 1.88579L105.63 1.88636C103.929 5.58511 102.222 9.29709 100.81 13.1198C99.4574 16.7841 98.4085 20.568 97.3632 24.3392L97.23 24.8198C96.8569 26.1722 96.7535 27.6115 96.652 29.0243L96.63 29.3298C96.58 30.0598 97.93 30.6998 98.54 30.2598C98.5803 30.2309 98.6211 30.2018 98.6623 30.1725L98.6695 30.1674C99.1675 29.8129 99.7117 29.4255 99.96 28.9198C100.726 27.3533 101.403 25.7351 102.081 24.1159L102.081 24.1153C102.19 23.8534 102.3 23.5915 102.41 23.3298C102.553 22.9906 102.671 22.6363 102.787 22.2825C102.939 21.8226 103.091 21.3636 103.3 20.9398C103.373 20.7941 103.43 20.6323 103.489 20.467C103.706 19.8607 103.939 19.2062 105 19.1198C105.146 19.3705 105.301 19.6315 105.46 19.9001C105.771 20.4244 106.099 20.9777 106.41 21.5398C106.886 22.4171 107.353 23.2999 107.821 24.1826L107.822 24.1842L107.823 24.186C108.612 25.6767 109.401 27.167 110.23 28.6298C110.75 29.5498 111.53 30.1498 112.69 29.6598C113.74 29.2098 114.29 28.2798 114.17 27.2498C114.055 26.144 113.625 25.0659 113.21 24.0245L113.21 24.0241L113.16 23.8998C112.593 22.476 111.981 21.0672 111.307 19.5136C111.029 18.874 110.74 18.2097 110.44 17.5098C134.52 10.6098 127.63 8.84977 126.7 8.78977H126.71ZM17.8031 17.6872L17.8034 17.6869C18.895 16.6348 20.0088 15.5612 20.99 14.3698C21.47 13.7898 21.95 13.2098 22.41 12.6098C28.49 4.73978 25.57 -0.84022 16.11 1.28978C12.86 2.01978 9.81001 4.25978 8.05 7.88978C5.67134 12.8135 3.8668 18.0346 2.06684 23.2425C1.70262 24.2963 1.33857 25.3496 0.970012 26.3998C0.679363 27.2249 0.837078 28.2083 0.989757 29.1603V29.1605L1.02 29.3498C1.14 30.0798 1.72001 30.6598 2.44001 30.6898C4.7877 30.7884 5.8607 29.0772 6.85884 27.4854L6.9 27.4198C7.69978 26.1421 8.3473 24.7598 9.00038 23.3657L9.05 23.2598C9.47001 22.3498 10.58 22.0598 11.36 22.6398C20.61 29.5398 22.44 29.8798 26.07 26.4498C24.9814 25.4103 23.6171 24.7638 22.2352 24.1089C19.961 23.0311 17.6392 21.9308 16.42 19.0198L16.43 19.0298C16.8754 18.5813 17.337 18.1365 17.8026 17.6877L17.8029 17.6874L17.8031 17.6872ZM19.12 7.42978C18.9903 10.0646 17.3489 11.2929 15.7357 12.5C15.3591 12.7819 14.984 13.0626 14.63 13.3598C13.67 11.5598 14.07 6.75978 19.12 7.42978ZM54.56 8.86984C50.57 6.00984 46.78 6.54984 43.59 10.3398C43.113 10.9089 42.5625 11.4132 42.0139 11.9157L42.0136 11.9159C41.2512 12.6143 40.4924 13.3092 39.94 14.1698C39.7439 14.4767 39.5451 14.7845 39.3455 15.0936C37.815 17.4636 36.2362 19.9082 35.44 22.5798C33.88 27.8198 35.91 30.2898 41.02 30.2598C48.49 30.2098 54.04 26.3298 56.65 19.3398C58.34 14.7998 57.59 11.0298 54.56 8.85984V8.86984ZM50.91 17.4198C49.54 21.7898 47.25 23.4698 43.1 23.3598C42.25 23.3398 41.67 22.3698 41.99 21.4998C43.33 17.8398 45.56 15.8398 49.22 15.1998C50.34 14.9998 51.29 16.2398 50.92 17.4198H50.91ZM85.1061 24.3719C85.9315 24.1021 86.7572 23.8321 87.6 23.6399V23.6599C88.63 23.3499 89.01 23.7199 89.26 24.2299C89.64 25.5999 89.16 26.0199 88.66 26.4399C84.95 29.5499 80.4 30.3999 76.56 30.9299C71.97 31.0799 68.83 29.8899 66.88 26.4099C64.79 22.6899 64.32 18.8299 66.65 15.1199C70.1749 9.51792 75.774 6.73786 81.5253 3.88215L81.55 3.86993C82.26 3.50993 83.18 3.10993 84.02 3.23993C85.85 3.50993 86.7799 5.96993 85.55 7.36993C84.9495 8.05744 84.1445 8.59347 83.3592 9.11645L83.3572 9.11777L83.1917 9.2281C83.1309 9.2687 83.0703 9.30929 83.01 9.34993C82.2151 9.87984 81.4 10.385 80.5846 10.8903L80.5844 10.8905C78.9687 11.8918 77.3521 12.8937 75.89 14.0899C74.4 15.2999 73.09 16.9599 72.25 18.6899C70.41 22.4699 72.54 25.9399 76.72 26.0199C78.4547 26.0469 80.2217 25.6457 81.9556 25.252C82.1509 25.2077 82.3457 25.1634 82.54 25.1199C83.4071 24.9272 84.2563 24.6497 85.1057 24.372L85.1061 24.3719ZM141.99 3.31012C143.26 2.88012 144.56 2.54012 145.79 3.64012V3.63012C146.67 4.41012 146.56 5.58012 145.57 6.21012L145.516 6.24452C144.564 6.85337 143.6 7.46918 142.56 7.95012C138.35 9.87012 137.79 13.0001 138.53 16.5801C138.67 17.2634 138.837 17.9397 139.004 18.6157C139.184 19.3447 139.365 20.0734 139.51 20.8101C139.94 22.9801 139.96 25.1101 138.42 27.0501C136.56 29.4001 133.01 30.2001 130.28 28.8601C128.39 27.9301 128.02 27.1001 128.67 24.9201C128.902 25.0227 129.132 25.1252 129.36 25.2269C129.643 25.3532 129.923 25.4782 130.2 25.6001C131.35 26.1101 132.71 26.0101 133.74 25.2801C135.14 24.3001 135.41 23.1801 135.01 21.1601C134.817 20.1778 134.572 19.2052 134.327 18.2313C134.141 17.49 133.954 16.7478 133.79 16.0001C132.53 10.2901 135.66 5.44012 141.99 3.31012Z" fill="black"/>
</svg>
