<svg width="179" height="30" viewBox="0 0 179 30" fill="none" xmlns="http://www.w3.org/2000/svg">
<path fill-rule="evenodd" clip-rule="evenodd" d="M17.1901 0.739979C20.2001 0.419979 23.7101 1.48998 24.85 3.23998L24.8401 3.24998C24.8456 3.25545 24.851 3.26091 24.8548 3.26638C24.8561 3.26818 24.8572 3.26998 24.858 3.27178C24.8593 3.27452 24.8601 3.27725 24.8601 3.27998C25.9001 4.88998 25.9301 6.95998 25.0501 8.65998C23.3801 11.87 19.9901 14.08 15.5201 15.85C14.8601 16.11 13.8501 16.16 12.9601 16.18C11.9501 16.2 10.9801 15.87 10.85 15.27C10.7501 14.81 11.0401 14.29 11.4301 13.9C11.5825 13.7476 11.9356 13.6769 12.2991 13.6042C12.5318 13.5576 12.7688 13.5102 12.9601 13.44C17.6501 11.74 20.9701 9.46998 21.5101 6.05998L21.5246 5.96487C21.5816 5.59378 21.6407 5.2084 21.5301 4.83998C21.0601 3.33998 19.1801 2.76998 17.0101 3.48998C14.2201 4.40998 12.6001 5.92998 11.2801 7.56998C9.46016 9.82998 8.79005 12.33 8.41005 14.87C7.8401 18.73 7.20015 22.57 5.6501 26.29L5.59877 26.4138C5.29616 27.1442 4.98854 27.8869 4.43007 28.54C3.68007 29.42 1.92012 29.33 1.14009 28.36C0.690138 27.8 0.440077 27.02 0.740065 26.5C2.45814 23.5511 2.97206 20.4214 3.48585 17.2926L3.48622 17.2908C3.77382 15.5396 4.06135 13.7887 4.56007 12.07C5.42012 9.11998 6.56007 6.24998 9.56007 3.84998C11.4501 2.33998 13.7401 1.10998 17.1901 0.739979ZM120.49 4.1102C121.65 3.1102 123.01 3.1502 124.17 4.0502L124.16 4.0702C125.37 5.0002 125.74 6.4502 124.7 7.5902C122.663 9.82441 121.449 12.5042 120.238 15.1797L120.238 15.1807C119.356 17.1273 118.476 19.0715 117.28 20.8402C117.1 21.1048 116.921 21.3711 116.742 21.6379C115.503 23.4792 114.248 25.3454 112.65 26.8302C110.08 29.2202 108.1 28.7602 106.79 25.5302C105.794 23.0687 105.011 20.5212 104.227 17.9741L104.225 17.9661L104.223 17.9589C103.906 16.9307 103.59 15.9026 103.26 14.8802C102.999 14.075 102.764 13.2645 102.529 12.4526C102.44 12.1453 102.351 11.8377 102.26 11.5302C102.105 11.5052 101.953 11.4777 101.8 11.4502C101.648 11.4227 101.495 11.3952 101.34 11.3702C100.689 12.1998 100.044 13.0333 99.3984 13.8668C97.9826 15.6956 96.567 17.5241 95.09 19.3102C93.5966 21.1218 92.0016 22.8553 90.4086 24.5866C90.199 24.8144 89.9894 25.0422 89.78 25.2702C88.95 26.1902 87.96 27.1502 86.67 26.2002C85.48 25.3202 85.1701 23.8802 85.77 22.5802C86.78 20.3802 87.96 18.2602 89.21 16.1802C89.8599 15.0952 90.5838 14.0573 91.3076 13.0196L91.3078 13.0193C91.8313 12.2687 92.3547 11.5183 92.85 10.7502C92.9393 10.6129 93.0275 10.4752 93.1156 10.3379L93.1165 10.3366L93.1194 10.332C94.203 8.64196 95.2487 7.01117 97.66 6.7802C98.2374 6.72557 98.7905 6.04375 99.3049 5.40948L99.3051 5.40931C99.4499 5.23082 99.5916 5.05611 99.73 4.9002C101.59 2.7802 103.58 2.8402 104.84 5.3402C105.76 7.1602 106.36 9.17019 106.9 11.1502C107.368 12.8595 107.765 14.5859 108.161 16.3134L108.163 16.322C108.444 17.5428 108.724 18.7641 109.03 19.9802C109.135 20.4046 109.358 20.8034 109.671 21.3604L109.671 21.3609L109.672 21.3626C109.838 21.6582 110.029 21.9982 110.24 22.4102C110.532 21.9592 110.802 21.5577 111.051 21.1865C111.571 20.4137 112.002 19.7725 112.36 19.0902C113.646 16.6574 114.913 14.2154 116.18 11.7726L116.192 11.7497C117.208 9.79216 118.224 7.83421 119.25 5.8802C119.58 5.2502 119.96 4.5702 120.49 4.1102ZM160.1 3.80012C159.71 3.45313 159.109 3.38457 158.545 3.32027C158.459 3.31045 158.373 3.30072 158.29 3.29012C150.83 2.36012 143.35 2.90012 135.86 4.32012C135.783 4.33424 135.706 4.34714 135.629 4.36005L135.629 4.36013C135.324 4.41119 135.017 4.46246 134.73 4.59012C133.19 5.25012 132.51 6.60012 132.53 8.38012C132.55 10.3201 133.86 10.6501 135.15 10.7401C136.046 10.8075 136.952 10.7704 138.016 10.7269C138.531 10.7058 139.084 10.6832 139.69 10.6701C139.331 11.3152 138.987 11.8862 138.669 12.4143C138.031 13.4746 137.497 14.3622 137.15 15.3301C135.98 18.6001 134.91 21.9301 134.04 25.3001C133.57 27.1501 134.03 28.8101 136.52 29.0201C138.4 22.7001 140.95 17.0801 144.41 11.9501C145.48 10.3601 146.56 9.49012 148.21 9.36012C150.88 9.15012 153.55 8.94012 156.22 8.62012C157.48 8.47012 158.78 8.23012 159.96 7.71012C160.51 7.47012 161.15 6.43012 161.17 5.77012C161.19 5.09012 160.61 4.26012 160.08 3.80012H160.1ZM174.33 2.1402C175.6 1.7102 176.9 1.3702 178.13 2.4702V2.4602C179.01 3.2402 178.9 4.4102 177.91 5.0402L177.855 5.07533L177.855 5.07565C176.903 5.68416 175.94 6.29954 174.9 6.7802C170.69 8.7002 170.13 11.8302 170.87 15.4102C171.01 16.0935 171.177 16.7699 171.344 17.446C171.524 18.1749 171.705 18.9035 171.85 19.6402C172.28 21.8102 172.3 23.9402 170.76 25.8802C168.9 28.2302 165.35 29.0302 162.62 27.6902C160.73 26.7602 160.36 25.9302 161.01 23.7502C161.242 23.853 161.473 23.9558 161.701 24.0577C161.984 24.1838 162.263 24.3085 162.54 24.4302C163.69 24.9402 165.05 24.8402 166.08 24.1102C167.48 23.1302 167.75 22.0102 167.35 19.9902C167.157 19.0084 166.913 18.0363 166.668 17.0628L166.667 17.0615C166.481 16.3201 166.294 15.578 166.13 14.8302C164.87 9.1202 168 4.2702 174.33 2.1402ZM82.41 9.93003C82.01 9.90003 81.6101 9.90003 81.21 9.90003H81.15C80.3301 9.91003 79.4901 9.97003 78.56 10.06C77.3601 10.17 77.14 9.79003 77.12 9.26003L77.1301 8.95781C77.1367 8.75559 77.1434 8.55337 77.15 8.36003C77.1686 7.94323 77.1871 7.54359 77.2056 7.14521L77.2064 7.12966L77.21 7.05003C77.21 6.85003 77.22 6.64003 77.23 6.45003C77.24 6.10003 77.24 5.76003 77.24 5.42003V4.94003C77.2301 4.46003 77.21 3.99003 77.15 3.53003C77.0401 2.55003 76.24 1.21003 75.42 0.880034C74.7157 0.596472 74.6807 0.630858 74.1594 1.14391C74.1109 1.19175 74.058 1.24375 74 1.30003C67.5 7.67003 61.08 14.12 54.7 20.62C53.5501 21.8 52.64 23.24 51.76 24.65C51.6098 24.8885 51.4205 25.1526 51.221 25.431C50.3581 26.6351 49.3053 28.104 50.41 28.9C51.8 29.9 53.0501 28.99 54.03 27.78C54.4695 27.2353 54.9326 26.709 55.3956 26.183L55.3963 26.1822C56.2079 25.2601 57.0188 24.3387 57.7 23.32C57.8801 23.05 58.0701 22.79 58.27 22.55C58.3059 22.5091 58.3391 22.4708 58.3723 22.4324C58.404 22.3958 58.4358 22.3591 58.47 22.32C58.6 22.17 58.7401 22.01 58.87 21.87C58.9096 21.8304 58.9517 21.7908 58.9938 21.7512L59.0309 21.7162C59.0613 21.6875 59.0913 21.6588 59.12 21.63C59.1519 21.6005 59.1833 21.5711 59.2145 21.5417C59.3102 21.4517 59.4044 21.363 59.51 21.28C59.6 21.2 59.69 21.13 59.79 21.06C59.92 20.96 60.0501 20.86 60.18 20.77C60.2166 20.7445 60.2518 20.7202 60.2866 20.6963L60.3251 20.67C60.3726 20.6375 60.42 20.605 60.47 20.57C60.5994 20.4804 60.7388 20.4007 60.8782 20.3211L60.88 20.32C60.9299 20.2901 60.9799 20.2626 61.0298 20.2352C61.0799 20.2076 61.13 20.1801 61.18 20.15L61.6 19.94C61.7 19.89 61.8 19.84 61.91 19.8L62.36 19.62L62.3607 19.6198C62.4605 19.5799 62.5603 19.54 62.66 19.51C62.82 19.45 62.99 19.4 63.16 19.35C63.25 19.32 63.34 19.29 63.44 19.26C63.65 19.2 63.85 19.15 64.06 19.1C64.085 19.095 64.1126 19.0875 64.1402 19.08C64.1589 19.0749 64.1776 19.0698 64.1955 19.0655C64.2039 19.0635 64.212 19.0616 64.22 19.06C64.49 19 64.7601 18.94 65.03 18.89C65.0701 18.885 65.1101 18.8775 65.1501 18.87C65.1901 18.8625 65.2301 18.855 65.27 18.85C65.3558 18.8365 65.4437 18.8209 65.5326 18.8051C65.6406 18.786 65.7503 18.7665 65.86 18.75C65.915 18.74 65.97 18.7325 66.025 18.725C66.08 18.7175 66.135 18.71 66.19 18.7C66.2751 18.69 66.3601 18.6775 66.4451 18.665C66.5301 18.6525 66.6151 18.64 66.7 18.63C66.7639 18.6194 66.8278 18.6116 66.8931 18.6036C66.9506 18.5966 67.0092 18.5894 67.07 18.58C67.1493 18.5701 67.2309 18.5602 67.3126 18.5503L67.3142 18.5501C67.397 18.5401 67.4797 18.5301 67.56 18.52C67.63 18.51 67.6975 18.5025 67.765 18.495C67.8325 18.4875 67.9 18.48 67.97 18.47C68.0603 18.46 68.148 18.45 68.2358 18.4399C68.3231 18.43 68.4103 18.42 68.5 18.41L68.84 18.37C69.7301 18.27 70.48 19.01 70.41 19.9C70.39 20.11 70.3701 20.32 70.34 20.53C70.34 20.5698 70.3313 20.6095 70.3225 20.6492L70.3223 20.65C70.3178 20.67 70.3134 20.69 70.31 20.71C70.27 20.98 70.22 21.24 70.16 21.51L70.1583 21.5173C70.1389 21.6049 70.1195 21.6927 70.1 21.79C70.05 22.02 70.0001 22.25 69.95 22.49C69.9254 22.6083 69.9008 22.7289 69.8762 22.8496C69.8508 22.9739 69.8254 23.0983 69.8 23.22C69.8 23.2415 69.7943 23.2629 69.789 23.2828C69.7844 23.3 69.78 23.3161 69.78 23.33C69.7301 23.59 69.69 23.85 69.66 24.11C69.66 24.18 69.65 24.25 69.64 24.32C69.6201 24.53 69.61 24.73 69.61 24.94V25.16C69.61 25.42 69.63 25.69 69.68 25.95C69.68 25.99 69.7001 26.03 69.71 26.06C69.7501 26.29 69.8101 26.51 69.89 26.74L69.92 26.86C69.93 26.89 69.9501 26.92 69.96 26.95C70.03 27.12 70.1 27.29 70.19 27.46C70.4801 28.02 71.2301 28.15 71.71 27.74C71.8601 27.61 72 27.48 72.12 27.35C72.1317 27.3384 72.1399 27.3302 72.1487 27.3233C72.155 27.3184 72.1616 27.3142 72.17 27.31C72.17 27.31 72.1701 27.3 72.18 27.29C72.3001 27.15 72.41 27.01 72.47 26.85C73.45 24.49 74.43 22.11 75.12 19.65C75.68 17.65 76.44 16.22 78.66 15.63C80.36 15.18 81.99 14.26 83.49 13.3C84.08 12.92 84.65 11.73 84.47 11.14C84.29 10.55 83.1801 9.95003 82.44 9.90003L82.41 9.93003ZM68.04 14.01C67.95 13.99 67.92 13.87 67.98 13.81L70.26 11.58L72.45 9.44003C72.52 9.37003 72.6401 9.42003 72.65 9.52003C72.9501 14.07 71.5201 14.94 68.03 14.01H68.04ZM41.8413 21.614C42.493 21.3046 43.1521 20.9918 43.8343 20.99C45.1916 20.9948 45.919 23.3414 44.91 24.66C44.9 24.67 44.9001 24.68 44.9001 24.68C42.0201 28.36 38.5401 29.74 34.8301 29.47C31.2501 29.21 27.6201 24.52 30.0801 18.3C31.8658 13.7634 34.0073 9.47264 36.1456 5.18837C36.6657 4.14634 37.1856 3.1047 37.7001 2.06C38.0401 1.36 39.1901 0.729997 39.6701 0.989997C40.58 1.43 40.6001 2.78 40.4501 3.58C40.1301 5.34 39.53 7.07 38.8701 8.68C38.25 10.1921 37.5883 11.6752 36.9266 13.1587C36.0304 15.1679 35.134 17.1775 34.3401 19.26C33.2301 22.19 33.7201 23.44 36.0201 23.42C37.3761 23.4034 38.7598 22.8607 40.1193 22.3276C40.394 22.2199 40.6677 22.1125 40.9401 22.01C41.2399 21.8995 41.5398 21.7571 41.8413 21.614ZM43.8343 20.99C43.8363 20.99 43.8381 20.99 43.8401 20.99H43.8301C43.8315 20.99 43.8329 20.99 43.8343 20.99Z" fill="black"/>
</svg>
