<svg width="110" height="31" viewBox="0 0 110 31" fill="none" xmlns="http://www.w3.org/2000/svg">
<path fill-rule="evenodd" clip-rule="evenodd" d="M77.34 10.3502C78.13 10.4002 79.46 11.0302 79.81 11.6402L79.84 11.6302C80.19 12.2402 79.93 13.4802 79.42 13.8802C78.13 14.8802 76.69 15.8402 75.04 16.3102C72.88 16.9302 72.5 18.4102 72.47 20.5002C72.4406 23.0095 72.0845 25.4419 71.7314 27.8539L71.71 28.0002C71.68 28.1602 71.62 28.3102 71.53 28.4602V28.4802C71.527 28.4832 71.5231 28.4863 71.5188 28.4896C71.5088 28.4972 71.497 28.5063 71.49 28.5202C71.3571 28.7169 71.1847 28.9079 70.9998 29.1127C70.8368 29.2933 70.664 29.4847 70.5 29.7002C69.91 29.1702 69.47 28.6402 69.12 28.1102C69.11 28.0952 69.0976 28.0803 69.0851 28.0653C69.0725 28.0503 69.06 28.0352 69.05 28.0202L68.99 27.9002L68.9425 27.819C68.8188 27.608 68.6987 27.403 68.61 27.1902C68.6034 27.1769 68.5956 27.1636 68.5879 27.1503C68.5723 27.1236 68.5567 27.0969 68.55 27.0702C68.43 26.7902 68.33 26.5202 68.26 26.2402C68.2552 26.2211 68.2505 26.2025 68.2457 26.1843L68.2302 26.1259C68.2201 26.0881 68.2101 26.0504 68.2 26.0102C68.1568 25.8286 68.121 25.6395 68.0863 25.4559L68.07 25.3702L68.0667 25.3468C68.0577 25.2827 68.0478 25.2125 68.03 25.1502C67.98 24.8702 67.95 24.6002 67.93 24.3302C67.925 24.3102 67.925 24.2902 67.925 24.2702C67.925 24.2502 67.925 24.2302 67.92 24.2102C67.9161 24.1116 67.9091 24.0131 67.9019 23.9139C67.891 23.7615 67.88 23.6077 67.88 23.4502C67.88 23.2904 67.8712 23.1305 67.8623 22.9707L67.8571 22.8761C67.8545 22.8274 67.852 22.7788 67.85 22.7302L67.8475 22.7052C67.8384 22.615 67.83 22.5318 67.83 22.4402C67.82 22.3004 67.8076 22.1631 67.7951 22.0258C67.7826 21.8881 67.77 21.7504 67.76 21.6102C67.756 21.5861 67.7552 21.5604 67.7544 21.5344C67.7532 21.4956 67.752 21.4561 67.74 21.4202C67.72 21.2002 67.68 20.9802 67.64 20.7602C67.6301 20.6904 67.6101 20.6206 67.5902 20.5508L67.59 20.5502C67.39 19.7302 66.5 19.0602 65.69 19.1502C65.53 19.1602 65.36 19.1802 65.21 19.2002C65.1667 19.2053 65.1221 19.2104 65.0768 19.2155C65.0334 19.2204 64.9893 19.2253 64.9452 19.2302C64.8551 19.2402 64.7651 19.2502 64.68 19.2602C64.613 19.2691 64.548 19.2761 64.485 19.2828C64.407 19.2911 64.332 19.2991 64.26 19.3102C64.1 19.3302 63.94 19.3502 63.77 19.3702C63.7093 19.3796 63.6507 19.3867 63.5933 19.3937C63.5278 19.4017 63.4639 19.4096 63.4 19.4202C63.23 19.4402 63.06 19.4602 62.89 19.4902C62.8381 19.4996 62.7839 19.5069 62.7307 19.514C62.6711 19.5219 62.6128 19.5296 62.56 19.5402L62.4915 19.551C62.3224 19.5775 62.1473 19.605 61.98 19.6402C61.89 19.6502 61.81 19.6602 61.74 19.6802C61.48 19.7302 61.21 19.7902 60.95 19.8502C60.9247 19.8544 60.9029 19.8622 60.8817 19.8698C60.8527 19.8802 60.8247 19.8902 60.79 19.8902C60.59 19.9402 60.38 20.0002 60.19 20.0602C60.1235 20.0802 60.0659 20.1001 60.0082 20.12L60.0078 20.1202C59.9789 20.1302 59.95 20.1402 59.92 20.1502C59.8519 20.1758 59.7838 20.1995 59.7165 20.2229C59.6256 20.2546 59.5362 20.2858 59.45 20.3202C59.4214 20.3329 59.3918 20.3456 59.3618 20.3583L59.3101 20.3802L59.3098 20.3803C59.2624 20.4003 59.2149 20.4202 59.17 20.4402L59.091 20.4738C58.9749 20.5229 58.8558 20.5732 58.75 20.6302C58.7 20.6552 58.6549 20.6802 58.6099 20.7053L58.558 20.734C58.5298 20.7494 58.5008 20.7648 58.47 20.7802C58.34 20.8502 58.22 20.9202 58.09 21.0002C58.05 21.0302 58.0051 21.0602 57.9601 21.0901C57.9151 21.1202 57.87 21.1502 57.83 21.1802C57.7467 21.2358 57.6682 21.2961 57.5878 21.358L57.587 21.3586C57.5519 21.3856 57.5164 21.4129 57.48 21.4402C57.38 21.5002 57.3 21.5702 57.22 21.6402C57.1 21.7402 56.99 21.8402 56.89 21.9502C56.81 22.0202 56.73 22.1002 56.66 22.1802C56.56 22.3002 56.46 22.4202 56.36 22.5502C56.3173 22.5991 56.282 22.6479 56.2451 22.699C56.2215 22.7316 56.1973 22.7652 56.17 22.8002C56.1087 22.8922 56.0511 22.988 55.9927 23.0852L55.9924 23.0857L55.9921 23.0862L55.9916 23.0871C55.9706 23.1219 55.9495 23.157 55.9282 23.1921C55.9123 23.2181 55.8963 23.2442 55.88 23.2702L55.73 23.5102C55.59 23.7602 55.46 24.0202 55.35 24.3102C54.9275 25.3729 54.337 26.3413 53.7463 27.3099C53.4143 27.8544 53.0823 28.3989 52.78 28.9602C52.09 30.2202 51.05 31.1702 49.32 30.1302C47.9422 29.3035 48.627 27.7805 49.1916 26.5248C49.3236 26.2312 49.4491 25.9523 49.54 25.7002L49.5695 25.6191C50.0901 24.1844 50.6262 22.7074 51.48 21.5002C56.31 14.7302 61.2 8.00021 66.2 1.36021C66.249 1.29519 66.2929 1.23559 66.3329 1.18124C66.7173 0.658769 66.7448 0.6213 67.56 0.920205C68.51 1.27021 69.71 2.67021 70.1 3.69021C70.28 4.17021 70.44 4.66021 70.58 5.16021L70.6036 5.2553C70.636 5.3868 70.6698 5.5235 70.71 5.66021C70.81 6.01021 70.9 6.37021 70.99 6.73021C71.02 6.83521 71.0425 6.9402 71.065 7.0452C71.0875 7.1502 71.11 7.25521 71.14 7.3602C71.23 7.80021 71.33 8.25021 71.44 8.72021C71.4824 8.93212 71.5348 9.159 71.5865 9.38323L71.5869 9.38481L71.5871 9.3857L71.6222 9.5383L71.65 9.6602C71.81 10.2102 72.15 10.6002 73.37 10.4902C74.3 10.4002 75.17 10.3202 76.02 10.3202H76.08C76.5 10.3202 76.92 10.3202 77.34 10.3502ZM65.13 12.0702L63.27 14.5402C67.41 15.6202 68.7 14.7102 66.95 9.6502L65.13 12.0702ZM39.2342 22.5099C39.8908 22.1635 40.5523 21.8146 41.27 21.7599H41.25C42.68 21.6699 43.61 23.8899 42.66 25.2299V25.2499C39.93 28.9999 36.39 30.5599 32.49 30.5699C28.72 30.5699 24.58 26.2999 26.68 20.1299C28.2205 15.5975 30.1555 11.2689 32.0851 6.95224C32.5354 5.94496 32.9854 4.93833 33.43 3.9299C33.74 3.2299 34.89 2.5399 35.41 2.7599C36.39 3.1199 36.51 4.4199 36.42 5.1999C36.22 6.9199 35.72 8.6299 35.15 10.2299C34.6206 11.7174 34.0452 13.1801 33.47 14.6426C32.6762 16.6607 31.8826 18.6784 31.21 20.7599C30.27 23.6599 30.87 24.8399 33.28 24.6599C34.6911 24.552 36.0953 23.9342 37.4755 23.327L37.4768 23.3264C37.759 23.2023 38.04 23.0787 38.32 22.9599C38.627 22.8301 38.9301 22.6703 39.2342 22.5099ZM109.66 4.82996C109.14 3.47996 107.94 2.78996 106.53 3.04996C105.54 3.22996 104.57 3.75996 103.7 4.30996C102.883 4.8274 102.127 5.44024 101.367 6.0569C99.9665 7.19213 98.5503 8.34028 96.7099 8.92996C96.5931 8.57635 96.4942 8.23431 96.3989 7.90453L96.3987 7.90392L96.3986 7.90364C96.2002 7.21724 96.0171 6.58396 95.7199 6.00996C95.0899 4.77996 94.3899 3.55996 93.4999 2.51996C93.1099 2.06996 91.9699 1.70996 91.5599 1.95996C90.9499 2.31996 90.4499 3.21996 90.3299 3.95996C90.2206 4.68884 90.4516 5.50071 90.6675 6.25947L90.6717 6.27414C90.6913 6.34323 90.7108 6.41187 90.7299 6.47996C91.1599 8.03996 91.6299 9.59996 92.1599 11.13C92.6099 12.42 92.2599 13.37 91.3299 14.34C88.8119 16.961 86.3552 19.6433 83.9024 22.3214L83.3999 22.87C82.7399 23.59 82.0899 24.34 81.6099 25.18C80.6499 26.86 81.0599 27.81 83.0299 28.84C86.4999 25.05 90.0799 21.37 94.8099 18.38L95.5781 19.6542C97.807 23.3515 99.9069 26.8349 102.16 30.56C104.39 28.94 103.89 27.33 103.22 25.67C102.294 23.3867 101.38 21.1033 100.46 18.8034C99.9693 17.5778 99.477 16.3475 98.9799 15.11C99.1145 14.9825 99.2364 14.8601 99.3525 14.7436C99.5644 14.5309 99.7567 14.3379 99.9699 14.17C101.843 12.6967 103.716 11.2323 105.59 9.76788L105.592 9.766C106.528 9.03436 107.464 8.30272 108.4 7.56996C109.3 6.86996 110.11 6.01996 109.65 4.82996H109.66ZM19.27 12.1099C20.04 11.9499 21.05 12.0399 21.73 12.4199L21.75 12.4299C23.08 13.1699 22.99 14.9699 21.6 15.5099C17.75 17.0099 13.88 18.4799 9.95997 19.7899C9.00839 20.1116 7.98944 20.2177 6.87303 20.334C6.32348 20.3912 5.75032 20.4509 5.14996 20.5399C5.0746 20.9545 4.99133 21.371 4.9076 21.7898C4.72474 22.7045 4.53971 23.6302 4.42996 24.5699C4.34507 25.2854 4.33372 26.0119 4.32234 26.7405C4.31494 27.2135 4.30752 27.6875 4.27996 28.1599C4.27327 28.2633 4.26812 28.3687 4.26295 28.4749C4.21398 29.4788 4.16166 30.5519 2.75996 30.5699C1.39996 30.5899 0.999965 29.4199 0.809962 28.3199C0.0199692 23.6199 0.189967 18.9799 1.69996 14.4299C1.81382 14.0847 1.97221 13.7461 2.12954 13.4099C2.40052 12.8307 2.66833 12.2583 2.69996 11.6699C2.90997 7.24994 5.85997 5.42994 9.50996 4.20994C10.1902 3.98321 10.8696 3.74883 11.5497 3.51421C13.3294 2.90029 15.114 2.28469 16.93 1.79994C18.94 1.25994 20.51 1.68994 20.64 4.99994C20.5143 5.06908 20.3836 5.1629 20.2493 5.25937C19.9562 5.46991 19.6454 5.69308 19.33 5.69994C17.0666 5.76586 15.152 6.72241 13.2325 7.68142C12.5314 8.03169 11.8296 8.38229 11.11 8.68994C8.47996 9.81994 7.29995 11.6899 7.14996 14.7899C8.97949 15.2077 10.5652 14.6864 12.1201 14.1753C12.7238 13.9768 13.323 13.7798 13.93 13.6399C14.7859 13.4402 15.626 13.1727 16.4664 12.905C17.3934 12.6098 18.3207 12.3145 19.27 12.1099Z" fill="black"/>
</svg>
