<svg width="136" height="31" viewBox="0 0 136 31" fill="none" xmlns="http://www.w3.org/2000/svg">
<path fill-rule="evenodd" clip-rule="evenodd" d="M46.371 17.2395L46.3734 17.2372C47.4649 16.1851 48.5788 15.1115 49.56 13.9201C50.04 13.3401 50.5199 12.7601 50.98 12.1601C57.0599 4.29007 54.1399 -1.28993 44.68 0.840073C41.43 1.57007 38.38 3.81007 36.62 7.44007C34.2413 12.3637 32.4368 17.5848 30.6369 22.7926C30.2726 23.8465 29.9086 24.8998 29.54 25.9501C29.2493 26.7753 29.407 27.7587 29.5598 28.7108L29.59 28.9001C29.71 29.6301 30.29 30.2101 31.01 30.2401C33.3577 30.3387 34.4306 28.6276 35.4288 27.0358L35.47 26.9701C36.2696 25.6926 36.9171 24.3105 37.5701 22.9166L37.62 22.8101C38.04 21.9001 39.1499 21.6101 39.93 22.1901C49.18 29.0901 51.01 29.4301 54.64 26.0001C53.5514 24.9606 52.1871 24.3141 50.8052 23.6592C48.5309 22.5814 46.2091 21.4811 44.99 18.5701L45 18.5801C45.4446 18.1324 45.9054 17.6883 46.3703 17.2403L46.371 17.2395ZM47.69 6.98007C47.5602 9.6149 45.9189 10.8432 44.3057 12.0504C43.9291 12.3322 43.5539 12.6129 43.2 12.9101C42.24 11.1101 42.6399 6.31007 47.69 6.98007ZM28.7 3.00003C28.2853 2.63829 27.6449 2.56457 27.0603 2.49729L27.0598 2.49721C26.982 2.48826 26.9051 2.47942 26.83 2.47003C19.1 1.51003 11.34 2.06003 3.59001 3.54003C3.52495 3.55171 3.45927 3.56283 3.39336 3.57401C3.06425 3.62978 2.72819 3.68673 2.41997 3.82003C0.82994 4.51003 0.119979 5.91003 0.139999 7.75003C0.169967 9.76003 1.51994 10.1 2.85997 10.19C3.78996 10.2574 4.72905 10.2204 5.83324 10.1768C6.3676 10.1557 6.9406 10.1331 7.56999 10.12C7.18974 10.8086 6.82359 11.415 6.48515 11.9755L6.48479 11.9762C5.83543 13.0514 5.28831 13.9575 4.93999 14.95C3.72996 18.34 2.61992 21.79 1.71995 25.28C1.22996 27.2 1.70995 28.91 4.28996 29.14C6.23997 22.59 8.87993 16.77 12.47 11.45C13.5799 9.80003 14.7 8.90003 16.4 8.76003C19.17 8.54003 21.94 8.32003 24.7 8.00003C26.01 7.84003 27.35 7.60003 28.58 7.06003C29.15 6.81003 29.81 5.73003 29.83 5.05003C29.85 4.34003 29.25 3.48003 28.71 3.00003H28.7ZM82.5942 10.4311C82.9503 10.3587 83.3062 10.2863 83.66 10.2098C84.9399 9.93976 85.88 10.3598 86.52 11.4098C84.3 14.2998 71.45 19.3598 66.94 19.0098C66.94 19.3534 66.9312 19.6942 66.9225 20.0326C66.9032 20.7774 66.8843 21.5109 66.96 22.2398C67.28 25.2898 69.86 26.5698 72.67 25.0198C73.5044 24.5596 74.2294 23.9049 74.9493 23.2547L74.9497 23.2544L74.9513 23.2529C75.1539 23.07 75.3559 22.8875 75.56 22.7098C76.41 21.9898 77.44 21.4298 78.25 22.3598C78.6499 22.8098 78.48 24.0098 78.15 24.6998C76.89 27.3398 74.69 29.0398 71.76 29.8298C67.29 31.0298 63.53 28.8598 62.89 24.4498C61.78 16.7498 63.8 10.0898 70.73 5.36976C72.6 4.09976 74.6 2.96976 76.67 2.03976C76.7586 2.00013 76.8492 1.95858 76.9416 1.91623L76.9454 1.91447C78.134 1.36948 79.6026 0.696142 80.65 2.29976C81.46 3.53976 80.76 4.80976 78.78 5.96976C78.3296 6.23369 77.8617 6.47534 77.3949 6.71648L77.3945 6.71666C76.535 7.16069 75.6786 7.60304 74.94 8.17976C73.2481 9.50044 71.6224 10.9078 69.9975 12.3144C69.3463 12.8782 68.6952 13.4418 68.04 13.9998L68.55 14.6298C69.6708 14.2753 70.7906 13.9182 71.9104 13.5611C74.4873 12.7392 77.0638 11.9175 79.65 11.1298C80.6068 10.8354 81.6014 10.633 82.5942 10.4311ZM110.78 10.2098C110.426 10.2863 110.07 10.3587 109.714 10.4312C108.721 10.6331 107.727 10.8354 106.77 11.1298C104.184 11.9175 101.607 12.7392 99.0304 13.5611C97.9106 13.9182 96.7908 14.2753 95.67 14.6298L95.16 13.9998C95.8152 13.4418 96.4663 12.8782 97.1175 12.3144C98.7424 10.9078 100.368 9.50044 102.06 8.17976C102.799 7.603 103.655 7.16063 104.515 6.71657L104.515 6.71643C104.982 6.4753 105.45 6.23367 105.9 5.96976C107.88 4.80976 108.58 3.53976 107.77 2.29976C106.723 0.696142 105.254 1.36948 104.065 1.91447L104.062 1.91623C103.969 1.95858 103.879 2.00013 103.79 2.03976C101.72 2.96976 99.72 4.09976 97.85 5.36976C90.93 10.0898 88.9 16.7498 90.01 24.4498C90.65 28.8598 94.41 31.0298 98.88 29.8298C101.81 29.0398 104.01 27.3398 105.27 24.6998C105.6 24.0098 105.77 22.8098 105.37 22.3598C104.56 21.4298 103.53 21.9898 102.68 22.7098C102.475 22.888 102.273 23.071 102.07 23.2544L102.069 23.2547C101.349 23.9049 100.624 24.5596 99.79 25.0198C96.98 26.5698 94.4 25.2898 94.08 22.2398C94.0044 21.5109 94.0232 20.7774 94.0425 20.0326C94.0512 19.6942 94.06 19.3534 94.06 19.0098C98.57 19.3598 111.42 14.2998 113.64 11.4098C113 10.3598 112.06 9.93976 110.78 10.2098ZM131.32 3.8902C132.59 3.4602 133.89 3.1202 135.12 4.2202V4.2102C136 4.9902 135.89 6.1602 134.9 6.7902L134.846 6.82497C133.893 7.4337 132.93 8.04936 131.89 8.5302C127.68 10.4502 127.12 13.5802 127.86 17.1602C127.999 17.8435 128.167 18.5199 128.334 19.196C128.515 19.9249 128.695 20.6535 128.84 21.3902C129.27 23.5602 129.29 25.6902 127.75 27.6302C125.89 29.9802 122.34 30.7802 119.61 29.4402C117.72 28.5102 117.35 27.6802 118 25.5002C118.232 25.6029 118.462 25.7056 118.691 25.8074C118.974 25.9336 119.253 26.0584 119.53 26.1802C120.68 26.6902 122.04 26.5902 123.07 25.8602C124.47 24.8802 124.74 23.7602 124.34 21.7402C124.147 20.758 123.902 19.7855 123.657 18.8116C123.471 18.0702 123.284 17.328 123.12 16.5802C121.86 10.8702 124.99 6.0202 131.32 3.8902Z" fill="black"/>
</svg>
