<svg width="128" height="29" viewBox="0 0 128 29" fill="none" xmlns="http://www.w3.org/2000/svg">
<path fill-rule="evenodd" clip-rule="evenodd" d="M52.51 2.6999C51.02 1.9999 49.59 2.79991 48.26 3.97991C46.7773 5.2903 45.4145 6.91414 44.055 8.53411L44.0548 8.53442C42.8103 10.0173 41.5685 11.4969 40.24 12.7299C39.9492 13.0009 39.6431 13.2907 39.324 13.5929L39.3205 13.5962C37.2145 15.5903 34.5372 18.1254 31.89 19.4099C30.51 20.0799 28.65 17.2999 28.25 15.8199C27.7769 14.0904 28.1639 9.58808 28.4268 6.52992L28.427 6.52687C28.503 5.64314 28.5686 4.8802 28.6 4.33991C28.7037 1.77383 26.8673 2.02913 26.6003 2.06624C26.5843 2.06846 26.574 2.06991 26.57 2.06991C25.244 2.21554 24.1177 3.55381 23.2497 4.58517C22.9853 4.89936 22.7449 5.18508 22.53 5.39991C21.4773 6.45601 20.1719 7.98948 18.7809 9.62334C16.1153 12.7544 13.1359 16.2543 11.02 17.4699C10.27 18.2399 9.16997 18.7799 9.22997 17.3799C9.65904 15.6116 10.3774 13.3717 11.0969 11.1285C12.0374 8.1961 12.9797 5.25796 13.28 3.35991C13.31 3.15991 13.29 2.9499 13.24 2.72991C12.84 1.06991 10.8299 0.349905 9.35997 1.20991C8.92998 1.45991 8.58995 1.74991 8.42998 2.1199C6.23882 7.16274 4.24236 12.2964 2.24718 17.4269C1.76561 18.6652 1.28411 19.9033 0.799975 21.1399C0.0599849 23.0299 -0.140027 25.2499 1.71996 26.2799C3.13994 27.0599 5.59001 27.4199 6.87999 26.7099C9.94908 25.0174 12.8084 22.9446 15.665 20.8738L15.6714 20.8691C16.3402 20.3843 17.0088 19.8996 17.68 19.4199C18.6354 18.7386 19.5173 17.9652 20.5368 17.0711L20.5375 17.0705C20.8196 16.8231 21.1123 16.5664 21.42 16.2999C21.7599 16.0099 22.29 16.1799 22.4 16.6099C22.5476 17.2116 22.6532 17.6554 22.7427 18.0309L22.7444 18.038C22.786 18.213 22.8241 18.3732 22.8614 18.5277C22.8844 18.6232 22.907 18.7166 22.93 18.8099C24.7099 26.2999 28.02 28.6399 35.75 24.3299C36.48 23.9199 37.55 23.0899 38.12 22.4799C40.9779 19.4186 43.3286 17.1647 45.6168 14.9708L45.6172 14.9705C47.9407 12.7427 50.1998 10.5768 52.86 7.68991C53.3299 7.1799 53.5799 6.47991 53.79 5.76991C54.15 4.56991 53.65 3.2199 52.52 2.68991L52.51 2.6999ZM123.465 20.8636C124.13 20.5136 124.803 20.1587 125.53 20.1102L125.52 20.1002C126.95 20.0102 127.89 22.2302 126.93 23.5702C126.927 23.5736 126.924 23.577 126.923 23.58C126.92 23.5858 126.92 23.5902 126.92 23.5902C124.19 27.3402 120.65 28.9102 116.75 28.9102C112.98 28.9202 108.84 24.6502 110.94 18.4702C112.48 13.9398 114.414 9.61297 116.343 5.29812L116.343 5.2976L116.345 5.29311L116.355 5.27087L116.362 5.2545C116.807 4.25993 117.251 3.26595 117.69 2.27024C117.99 1.57024 119.15 0.880236 119.67 1.10024C120.65 1.46024 120.77 2.76024 120.68 3.54024C120.48 5.26024 119.98 6.97024 119.41 8.57024C118.876 10.0706 118.297 11.5459 117.718 13.0211L117.718 13.0219L117.717 13.0224C116.931 15.0274 116.144 17.0323 115.47 19.1002C114.52 22.0102 115.13 23.1802 117.54 23.0002C118.951 22.8923 120.355 22.2745 121.736 21.6673C122.018 21.543 122.3 21.4192 122.58 21.3002C122.876 21.174 123.169 21.0193 123.465 20.8636ZM64.05 7.98989C66.98 4.51989 70.4399 4.01989 74.1 6.63989H74.11C76.8799 8.62989 77.5699 12.0799 76.02 16.2399C73.63 22.6499 68.55 26.2099 61.7 26.2499C57.0199 26.2799 55.16 24.0199 56.59 19.2099C57.3162 16.7566 58.7641 14.5151 60.1695 12.3395C60.3509 12.0586 60.5317 11.7789 60.71 11.4999C61.2214 10.7005 61.9228 10.0565 62.6274 9.40964C63.1215 8.95604 63.6172 8.50099 64.05 7.98989ZM63.59 19.9099C67.4 20.0099 69.5 18.4799 70.75 14.4699C71.09 13.3899 70.22 12.2599 69.19 12.4399C65.84 13.0299 63.79 14.8599 62.57 18.2099C62.28 18.9999 62.81 19.8899 63.59 19.9099ZM89.73 8.54994C92.66 5.07995 96.1201 4.57994 99.78 7.19994H99.8C102.57 9.18995 103.26 12.6399 101.71 16.7999C99.3201 23.2099 94.2401 26.7699 87.39 26.8099C82.7001 26.8399 80.8401 24.5799 82.27 19.7699C82.9963 17.3167 84.4442 15.0752 85.8495 12.8997C86.0309 12.6188 86.2117 12.339 86.39 12.0599C86.9014 11.2606 87.6026 10.6167 88.3072 9.96987C88.8014 9.51621 89.2971 9.06112 89.73 8.54994ZM89.27 20.4699C93.0801 20.5699 95.18 19.0399 96.43 15.0299C96.7701 13.9499 95.9 12.8199 94.87 12.9999C91.52 13.5899 89.4701 15.4199 88.25 18.7699C87.9601 19.5599 88.4901 20.4499 89.27 20.4699Z" fill="black"/>
</svg>
