<svg width="120" height="24" viewBox="0 0 120 24" fill="none" xmlns="http://www.w3.org/2000/svg">
<g clip-path="url(#clip0_202_2)">
<path fill-rule="evenodd" clip-rule="evenodd" d="M16.5711 7.1625L15.864 6.45539L9.5 12.8194L3.13604 6.45539L2.42893 7.1625L8.79289 13.5265L2.42893 19.8904L3.13604 20.5975L9.5 14.2336L15.864 20.5975L16.5711 19.8904L10.2071 13.5265L16.5711 7.1625Z" fill="white"/>
<path fill-rule="evenodd" clip-rule="evenodd" d="M51.2014 13.5265L60.3946 4.33326L59.6875 3.62615L49.788 13.5256L49.7888 13.5264L49.7879 13.5273L59.6874 23.4268L60.3945 22.7197L51.2014 13.5265Z" fill="white"/>
<path fill-rule="evenodd" clip-rule="evenodd" d="M107.775 13.5265L98.5816 22.7197L99.2888 23.4268L109.188 13.5273L109.187 13.5265L109.188 13.5257L99.2888 3.62618L98.5817 4.33328L107.775 13.5265Z" fill="white"/>
</g>
<defs>
<clipPath id="clip0_202_2">
<rect width="120" height="24" fill="white"/>
</clipPath>
</defs>
</svg>
